<?xml version="1.0" encoding="UTF-8"?>
<svg id="_export_" xmlns="http://www.w3.org/2000/svg" xmlns:xlink="http://www.w3.org/1999/xlink" viewBox="0 0 360 242">
  <defs>
    <clipPath id="clippath">
      <rect x=".04" y="0" width="360" height="242.03" fill="none" stroke-width="0"/>
    </clipPath>
    <clipPath id="clippath-1">
      <polygon points="36.26 141.34 55.25 152.31 95.4 128.19 76.41 117.23 36.26 141.34" fill="none" stroke-width="0"/>
    </clipPath>
    <linearGradient id="linear-gradient" x1="1670.35" y1="679.52" x2="1671.28" y2="679.52" gradientTransform="translate(60529.36 -24451.98) rotate(-180) scale(36.18 -36.18)" gradientUnits="userSpaceOnUse">
      <stop offset="0" stop-color="#d9dbdc"/>
      <stop offset=".33" stop-color="#dcdedf"/>
      <stop offset=".65" stop-color="#e8e9e9"/>
      <stop offset=".95" stop-color="#fbfbfb"/>
      <stop offset="1" stop-color="#fff"/>
    </linearGradient>
    <clipPath id="clippath-2">
      <polygon points="153.16 127.37 172.15 138.33 212.3 114.22 193.3 103.25 153.16 127.37" fill="none" stroke-width="0"/>
    </clipPath>
    <linearGradient id="linear-gradient-2" x1="1670.5" y1="679.32" x2="1671.43" y2="679.32" gradientTransform="translate(60651.63 -24458.44) rotate(-180) scale(36.18 -36.18)" gradientUnits="userSpaceOnUse">
      <stop offset="0" stop-color="#d9dbdc"/>
      <stop offset="1" stop-color="#fff"/>
    </linearGradient>
    <clipPath id="clippath-3">
      <polygon points="201.47 214.1 220.46 225.07 239.46 236.03 279.61 211.92 260.61 200.95 241.62 189.99 201.47 214.1" fill="none" stroke-width="0"/>
    </clipPath>
    <linearGradient id="linear-gradient-3" x1="1670.26" y1="679.66" x2="1671.19" y2="679.66" gradientTransform="translate(61413.28 -24668.29) rotate(-180) scale(36.61 -36.61)" xlink:href="#linear-gradient-2"/>
    <clipPath id="clippath-4">
      <polygon points="54.15 219.6 73.14 230.57 113.29 206.45 94.3 195.49 54.15 219.6" fill="none" stroke-width="0"/>
    </clipPath>
    <linearGradient id="linear-gradient-4" x1="1670.22" y1="679.41" x2="1671.15" y2="679.41" gradientTransform="translate(60542.55 -24369.55) rotate(-180) scale(36.18 -36.18)" xlink:href="#linear-gradient-2"/>
  </defs>
  <g clip-path="url(#clippath)">
    <g>
      <g clip-path="url(#clippath-1)">
        <rect x="36.23" y="100.4" width="59.19" height="68.72" transform="translate(-83.99 127.69) rotate(-61.26)" fill="url(#linear-gradient)" stroke-width="0"/>
      </g>
      <g clip-path="url(#clippath-2)">
        <rect x="153.13" y="86.43" width="59.2" height="68.72" transform="translate(-11.05 222.93) rotate(-61.26)" fill="url(#linear-gradient-2)" stroke-width="0"/>
      </g>
      <g clip-path="url(#clippath-3)">
        <rect x="201.57" y="167.68" width="77.94" height="90.65" transform="translate(-61.89 321.49) rotate(-61.26)" fill="url(#linear-gradient-3)" stroke-width="0"/>
      </g>
      <polygon points="190.44 208.26 188.44 207.1 186.63 208.16 188.63 209.31 190.44 208.26" fill="#f7eb17" stroke-width="0"/>
      <polygon points="184.71 213.71 182.61 212.61 181.07 213.56 183.07 214.71 184.71 213.71" fill="#f7eb17" stroke-width="0"/>
      <g>
        <path d="M193.01,206.09c-.49.32-.96.66-1.45.98l2.09,1.1c.53-.34,1.03-.69,1.54-1.04l-2.18-1.04Z" fill="#f7eb17" stroke-width="0"/>
        <path d="M181.84,222.69l2.18,1.04c.5-.35.97-.72,1.46-1.08l-2.27-.98c-.46.34-.89.69-1.37,1.02" fill="#f7eb17" stroke-width="0"/>
        <path d="M194.9,201.85l.52-.61-2.55-.7-.49.58c-.16.19-.32.39-.51.57l2.49.78c.2-.2.37-.4.54-.61" fill="#f7eb17" stroke-width="0"/>
        <polygon points="187.94 213.32 189.76 212.27 187.75 211.11 185.94 212.16 187.94 213.32" fill="#f7eb17" stroke-width="0"/>
        <polygon points="195.07 221.6 193.26 222.65 195.26 223.81 197.08 222.76 195.07 221.6" fill="#f7eb17" stroke-width="0"/>
        <polygon points="187.9 215.56 189.91 216.72 191.81 215.55 189.72 214.45 187.9 215.56" fill="#f7eb17" stroke-width="0"/>
        <path d="M197.97,218.13l-2.18-1.04c-.57.39-1.14.78-1.72,1.16l2.09,1.1c.62-.4,1.21-.81,1.81-1.22" fill="#f7eb17" stroke-width="0"/>
        <polygon points="195.83 234.86 197.84 236.02 199.65 234.96 197.65 233.8 195.83 234.86" fill="#f7eb17" stroke-width="0"/>
        <polygon points="199.93 211.47 198.02 212.63 200.03 213.79 202.02 212.57 199.93 211.47" fill="#f7eb17" stroke-width="0"/>
        <path d="M200.68,219.44l2.1,1.1c.65-.42,1.27-.85,1.9-1.28l-2.18-1.04c-.6.41-1.19.82-1.81,1.22" fill="#f7eb17" stroke-width="0"/>
        <path d="M206.22,215.16l2.18,1.04c.62-.43,1.2-.89,1.8-1.33l-2.27-.98c-.57.42-1.12.86-1.71,1.27" fill="#f7eb17" stroke-width="0"/>
        <path d="M188.44,225.77c-.24.23-.48.46-.76.68l2.35.91c.29-.23.54-.47.79-.71l.77-.72-2.42-.85-.73.68Z" fill="#f7eb17" stroke-width="0"/>
        <path d="M217,202.25c-.2.24-.41.48-.64.72l2.49.78c.24-.25.46-.5.67-.75l.64-.76-2.55-.7-.61.72Z" fill="#f7eb17" stroke-width="0"/>
        <path d="M216.78,194.51c.09-.28.13-.56.19-.84l.17-.84c.1-.56.14-1.12.22-1.68.05-.56.05-1.13.08-1.69,0-.56-.04-1.12-.07-1.69-.05-.56-.14-1.12-.21-1.68-.1-.56-.23-1.12-.35-1.68-.15-.56-.32-1.11-.49-1.67l-.63-1.65-.77-1.63-.91-1.61-1.04-1.58-1.18-1.55-1.31-1.52-1.43-1.48-1.56-1.44-1.68-1.39c-.59-.45-1.19-.89-1.79-1.34-.62-.43-1.26-.86-1.9-1.29-.65-.42-1.34-.82-2-1.23-.24-.15-.45-.27-.66-.39-.05-.03-.1-.05-.14-.08-.05-.03-.09-.05-.14-.08l-.91-.53-1.83-1.05-1.83-1.05-1.83-1.05-1.83-1.06-1.83-1.05-1.83-1.05-1.83-1.05-1.83-1.05-1.83-1.06-1.83-1.06-1.83-1.05-1.5-.87-.32-.19-1.69-.98-.13-.08-1.83-1.05h-.02s-1.97,1.16-1.97,1.16l-.38-.22-.36-.21-1.08-.63.2-.12,1.79-1.04-.25-.14-1.58-.91-.45-.26-1.38-.8-.65-.37-1.18-.68-1.83-1.05-1.83-1.05-1.83-1.05-1.83-1.06-1.83-1.05-1.83-1.06-1.83-1.05-.46-.26-.23-.13-.19-.12-.77-.47c-.25-.16-.52-.31-.77-.47l-.73-.49c-.24-.16-.49-.33-.73-.49l-.68-.51-.69-.51-.64-.53-.64-.53-.59-.55-.59-.55c-.19-.19-.36-.38-.55-.56l-.55-.56c-.18-.19-.33-.38-.5-.58l-.5-.58c-.16-.19-.3-.39-.45-.59l-.45-.59c-.14-.2-.27-.4-.4-.6l-.4-.6c-.12-.2-.23-.41-.35-.61l-.35-.61c-.1-.21-.2-.42-.29-.62l-.3-.62-.24-.63-.24-.63-.19-.64-.19-.64-.14-.64-.14-.64-.08-.64c-.03-.21-.06-.43-.08-.64l-.03-.65c0-.22-.03-.43-.03-.65l.03-.65c.01-.22,0-.43.03-.65l.08-.64c.03-.22.04-.43.08-.64l.13-.64c.05-.21.07-.43.14-.64l.18-.64c.1-.43.28-.85.43-1.27.14-.42.35-.83.54-1.25.17-.42.42-.82.64-1.23.13-.27.3-.52.47-.78l-1.26-.73-.14-.08-.79-.46-.83-.48-1.34-.77-.43-.25-1.19-.69-.54-.31-.04-.02-1.76-1.02-.33-.19-1.44-.83-.68-.39c-.36.42-.72.84-1.02,1.27-.38.52-.79,1.03-1.11,1.56-.34.53-.7,1.05-.98,1.59-.29.54-.61,1.07-.84,1.62-.25.54-.52,1.09-.7,1.64-.21.55-.42,1.1-.56,1.66l-.24.83c-.09.28-.12.56-.19.84l-.17.84c-.06.28-.07.56-.11.84l-.1.84c-.03.28-.03.56-.04.85l-.03.84c0,.28.02.56.03.84l.04.84c.02.28.07.56.1.84l.11.84.18.84.18.84.24.83.25.83.32.83.32.83.38.82c.13.27.25.55.39.82l.45.81c.15.27.3.54.46.8l.52.79c.18.26.34.53.53.79l.58.78c.2.26.39.52.6.77l.65.76c.22.25.43.51.66.76l.72.74c.24.25.47.49.72.74l.78.72c.26.24.52.48.78.72l.84.69.84.69.9.67.9.67c.31.22.63.43.95.64l.96.64c.32.21.67.41,1,.62l1.01.61.25.15.23.13.46.26,1.83,1.05,1.83,1.05,1.83,1.06,1.83,1.05,1.83,1.06,1.49.86.34.2,1.57.91.26.15.09.05,1.74,1.01.47.27,1.36.78.77.45.07.04.98.57,1.18.68.65.37,1.51.87.32.18,1.83,1.06,1.99-1.16,1.83,1.06-1.99,1.16,1.83,1.05,1.83,1.05,1.83,1.06,1.83,1.06,1.83,1.05,1.83,1.05,1.83,1.05,1.83,1.06,1.83,1.05,1.83,1.05,1.83,1.05.91.53c.14.08.28.16.42.24.16.09.32.19.45.27.51.32,1.04.62,1.54.94.48.33.98.65,1.45.98l1.37,1.02,1.28,1.06,1.19,1.1,1.09,1.13,1,1.16.89,1.18.79,1.21.69,1.23.59,1.25.48,1.26.37,1.27c.09.43.19.86.27,1.28.05.43.12.86.16,1.29.01.43.05.86.05,1.29-.03.43-.02.86-.06,1.29-.06.43-.09.86-.17,1.29l-.13.64c-.05.22-.07.43-.14.64l-.18.64c-.06.21-.11.43-.2.64l-.24.63c-.08.21-.15.42-.25.63l-.29.63c-.1.21-.19.42-.31.62l-.34.61c-.11.2-.22.41-.36.61l-.39.6c-.13.2-.26.4-.41.6l-.44.59c-.14.2-.29.4-.46.59l2.55.7-.52.62c-.17.2-.34.41-.54.61l-2.49-.78-.54.56c-.18.19-.35.38-.56.56l-.59.55c-.2.18-.38.37-.6.54l-.63.53c-.21.18-.41.36-.65.52l2.27.98c-.49.36-.95.73-1.46,1.08l2.18,1.04c-.55.36-1.08.74-1.64,1.1l-2.09-1.1-1.63,1-1.81,1.05,2,1.16,1.81-1.06,2,1.16,1.81-1.11c.59-.38,1.15-.77,1.72-1.16l2.18,1.04c.59-.41,1.14-.84,1.71-1.27l2.27.98c.3-.22.57-.46.85-.69l.83-.69-2.35-.91c.27-.22.51-.45.76-.68l.73-.68,2.42.84c.26-.24.5-.48.73-.73l.71-.74-2.49-.78c.23-.23.44-.47.64-.72l.61-.72,2.55.7c.22-.25.41-.51.6-.77l.58-.78c.2-.26.37-.52.54-.78l.51-.79c.18-.26.32-.53.47-.8l.44-.81c.16-.27.28-.54.4-.81l.37-.82c.13-.27.23-.55.33-.82l.31-.83c.11-.27.18-.55.26-.83l.24-.83ZM209.06,199.22c-.13.24-.27.49-.43.72l-2.66-.56c.15-.22.28-.46.4-.69l.38-.69,2.7.48-.4.73ZM161.24,149.49l.25-.15.88-.51.86-.5.53.31,1.3.75-1.41.82-.58.33-1.83-1.05ZM193.3,168h0c.27.16.54.32.81.47-.26-.16-.53-.32-.81-.47M214.61,189.45h-2.82c0-.52-.04-1.03-.06-1.54l2.82-.07c.02.54.06,1.07.06,1.61M201.95,207.39c-.25.21-.49.42-.77.62l-2.27-.98c.26-.19.49-.39.73-.59l.71-.6,2.35.91-.75.63Z" fill="#f7eb17" stroke-width="0"/>
        <polygon points="210.92 48.88 212.92 50.03 214.74 48.98 212.73 47.82 210.92 48.88" fill="#f7eb17" stroke-width="0"/>
        <polygon points="218.34 46.85 216.34 45.7 214.52 46.75 216.53 47.91 218.34 46.85" fill="#f7eb17" stroke-width="0"/>
        <polygon points="213.14 40.7 211.14 39.54 209.33 40.6 211.33 41.75 213.14 40.7" fill="#f7eb17" stroke-width="0"/>
        <polygon points="233.95 41.6 231.95 40.44 230.13 41.49 232.13 42.65 233.95 41.6" fill="#f7eb17" stroke-width="0"/>
        <polygon points="238.89 45.5 236.89 44.35 235.07 45.4 237.08 46.56 238.89 45.5" fill="#f7eb17" stroke-width="0"/>
        <polygon points="235.12 53.39 237.13 54.54 238.94 53.49 236.94 52.33 235.12 53.39" fill="#f7eb17" stroke-width="0"/>
        <polygon points="238.33 47.88 236.32 46.72 234.51 47.78 236.51 48.93 238.33 47.88" fill="#f7eb17" stroke-width="0"/>
        <polygon points="241.86 41.77 239.86 40.61 238.05 41.67 240.05 42.83 241.86 41.77" fill="#f7eb17" stroke-width="0"/>
        <polygon points="245.86 44.08 243.86 42.92 242.04 43.98 244.05 45.13 245.86 44.08" fill="#f7eb17" stroke-width="0"/>
        <polygon points="228.12 57.75 230.12 58.91 231.94 57.86 229.93 56.7 228.12 57.75" fill="#f7eb17" stroke-width="0"/>
        <path d="M234.09,49.64l-1.81,1.05-2-1.16,1.81-1.05,1.82-1.06-2-1.16-2-1.16,1.81-1.06-2-1.16-1.81,1.05-1.82,1.06-1.81,1.05-1.81,1.05,2,1.16-1.81,1.05-2-1.16-1.81,1.05-1.82,1.06,2,1.16-1.81,1.05-2-1.16-1.81,1.05-1,.58-.82.47,1.12.65.88.51-1.17.68-.64.37-.88-.51-1.12-.65-1.35.79-.47.27-1.52.89-.29.17-1.7.99-.11.07-1.81,1.05-.06.04-1.76,1.02-1.81,1.05-1.81,1.05-1.81,1.05-1.81,1.06-1.82,1.06-1.81,1.05-1.81,1.05-1.81,1.05-1.81,1.06-1.82,1.06-1.81,1.05-1.81,1.05-1.81,1.05-1.82,1.06-1.81,1.05-1.81,1.05-1.81,1.06-1.81,1.05-1.82,1.06-1.81,1.05-1.81,1.05-1.81,1.05-1.81,1.05-1.82,1.06-1.81,1.05-1.81,1.05-1.81,1.05-1.81,1.05-1.82,1.06-1.81,1.05-1.81,1.06-1.81,1.05-.91.53-1,.61-1,.61c-.33.21-.64.43-.95.64l-.42.29.99.57,1.02.59.75.43,1.26.73.5.29,1.51.87.26.15,1.75,1.01h.01s1.76,1.03,1.76,1.03l.24.14c.11-.09.23-.17.35-.25l.73-.49c.24-.16.48-.33.73-.49l.77-.47.76-.47.91-.53,1.81-1.05,1.81-1.05,1.81-1.06,1.82-1.05,1.81-1.06,1.81-1.05,1.81-1.05,1.81-1.05,1.82-1.06,1.81-1.05,1.81-1.06,1.81-1.05,1.81-1.05,1.82-1.06,1.81-1.05,1.81-1.05,1.81-1.05,1.81-1.05,1.82-1.06,1.81-1.05,1.81-1.05,1.81-1.05,1.82-1.06,1.81-1.05,1.81-1.06,1.81-1.05,1.81-1.05,1.82-1.06,1.81-1.05,1.81-1.05,1.81-1.05,1.81-1.05,1.75-1.02.06-.04,1.81-1.05.11-.07,1.7-.99.29-.17,1.52-.88.47-.27,1.35-.78.64-.37,1.17-.68-.07-.04-1.76-1.02-.17-.1.82-.47,1-.58,2,1.16,1.81-1.05-2-1.16,1.81-1.05,2,1.16,1.82-1.06,1.81-1.05,1.81-1.05,1.81-1.06,1.81-1.05-2-1.16ZM228.08,46.17l2,1.16-1.81,1.05-2-1.16,1.81-1.05ZM210.77,59.3l1.36.78-1.7.99-.11.07-1.36-.78-.65-.37.11-.07,1.7-.99.65.37ZM218.38,56.44l-.82.47-1.17.68-.64.37-2-1.16.64-.37,1.17-.68.82-.47,1-.58,2,1.16-1,.58ZM221.01,52.6l1.82-1.06,2,1.16-1.82,1.06-2-1.16ZM228.65,52.8l-2-1.16,1.81-1.05,2,1.16-1.81,1.05Z" fill="#f7eb17" stroke-width="0"/>
        <polygon points="244.97 47.96 243.55 48.79 241.67 47.71 239.86 48.76 241.86 49.92 243.29 49.09 245.16 50.17 246.98 49.12 244.97 47.96" fill="#f7eb17" stroke-width="0"/>
        <path d="M162.1,154.6l-1.18-.68-.98-.57-.07-.04-.77-.45-1.35-.78-.47-.27-1.74-1.01-.09-.05-.26-.15-1.57-.91-.34-.19c-.41.08-.82.15-1.23.21l-1.19.19c-.4.06-.81.1-1.21.16-.41.05-.81.11-1.21.15l-1.22.12c-.81.09-1.64.13-2.46.19-.21.01-.41.03-.62.04l-.62.03-1.24.05c-.83.02-1.66.03-2.48.04l-1.24-.02c-.41,0-.83,0-1.24-.03l-1.24-.05-.62-.03-.62-.04-1.23-.09c-.41-.02-.82-.08-1.23-.11l-1.23-.12-1.21-.15c-.4-.05-.81-.09-1.21-.16l-1.2-.19-.6-.09c-.2-.03-.39-.07-.59-.11l-1.18-.22c-.4-.07-.78-.16-1.17-.24l-1.16-.25c-.76-.18-1.52-.38-2.28-.57l-1.11-.32c-.37-.11-.75-.2-1.11-.33l-1.08-.35-.54-.17-.53-.19c-.7-.26-1.42-.5-2.08-.78l-1.02-.41c-.34-.13-.66-.29-.99-.44l-.99-.44-.94-.47c-.31-.16-.63-.31-.94-.47l-.9-.5-.45-.25c-.13-.07-.26-.14-.41-.22-.02-.01-.05-.03-.07-.04l-1.02-.59-2.03-1.17-2.03-1.17-2.03-1.17-2.03-1.17-2.03-1.17-2.03-1.17-2.03-1.17-2.03-1.17-2.03-1.17-1.99,1.16-2.03-1.17,1.99-1.16-2.03-1.17-2.03-1.17-2.03-1.17-2.03-1.17-1.99,1.16-2.03-1.17,1.99-1.16-2.03-1.17-2.03-1.17-1.99,1.16-2.03-1.17,1.99-1.16-2.03-1.17-2.03-1.17-2.03-1.17-2.03-1.17-2.03-1.17-2.03-1.17-2.03-1.17-2.03-1.17-2.03-1.17-2.03-1.17-2.03-1.17-2.03-1.17-2.03-1.17-2.03-1.17-2.03-1.17-2.03-1.17-2.03-1.17-2.03-1.17-1.99,1.16-2.03-1.17-2.03-1.17-1.99,1.16,2.03,1.17-1.84,1.07-1.77-1.02-1.99,1.16,2.03,1.17,1.84-1.07,1.77,1.02,1.99-1.16,2.03,1.17-1.99,1.16-2.03-1.17-1.99,1.16,2.03,1.17-1.99,1.16,2.03,1.17,1.99-1.16,2.03,1.17-1.99,1.16,2.03,1.17,2.03,1.17,2.03,1.17,2.03,1.17,2.03,1.17,2.03,1.17,2.03,1.17,2.03,1.17,2.03,1.17,2.03,1.17,2.03,1.17,2.03,1.17,2.03,1.17,2.03,1.17,1.99-1.16,2.03,1.17,2.03,1.17,2.03,1.17-1.99,1.16,2.03,1.17,1.99-1.16,1.99-1.16,2.03,1.17-1.99,1.16,2.03,1.17,2.03,1.17-1.99,1.16,2.03,1.17,1.99-1.16,2.03,1.17,2.03,1.17-1.99,1.16,2.03,1.17,2.03,1.17,2.03,1.17,2.03,1.17,2.03,1.17,2.03,1.17,2.03,1.17,2.03,1.17,2.03,1.17,1.02.59s.04.03.07.04c.15.08.32.18.49.27l.59.32,1.18.65c.4.21.82.41,1.23.62l1.24.61,1.29.58c.43.19.85.39,1.3.57l1.34.54c.88.37,1.82.69,2.74,1.02l.69.25.71.23,1.42.46c.47.16.97.29,1.45.43l1.46.42c.99.26,1.99.51,2.99.75l1.52.33c.51.11,1.01.23,1.53.32l1.55.29c.26.05.52.1.78.14l.79.12,1.57.24c.52.09,1.06.14,1.58.21l1.59.2,1.6.16c.54.05,1.07.11,1.61.15l1.61.11.81.05.81.04,1.62.07c.54.03,1.08.02,1.62.04l1.62.02c1.08-.01,2.17-.02,3.25-.05l1.62-.07.81-.03c.27-.01.54-.04.81-.05,1.08-.08,2.15-.14,3.22-.25l1.6-.16c.53-.06,1.06-.13,1.59-.2.53-.07,1.06-.13,1.58-.21l1.57-.24c1.05-.15,2.07-.36,3.1-.55.26-.05.52-.09.77-.15l.76-.17,1.52-.33c.76-.17,1.5-.37,2.25-.55l-1.51-.87-.65-.37ZM39.33,108.16l2.03,1.17-1.99,1.16-2.03-1.17,1.99-1.16ZM35.22,103.48l2.03,1.17-1.99,1.16-2.03-1.17,1.99-1.16Z" fill="#2b2b2b" stroke-width="0"/>
        <polygon points="69.12 138.48 71.16 139.66 73.14 138.5 71.11 137.32 69.12 138.48" fill="#2b2b2b" stroke-width="0"/>
        <polygon points="67.91 131.36 65.92 132.51 67.95 133.69 69.94 132.53 67.91 131.36" fill="#2b2b2b" stroke-width="0"/>
        <polygon points="57.76 135.4 59.79 136.58 61.78 135.42 59.75 134.25 57.76 135.4" fill="#2b2b2b" stroke-width="0"/>
        <polygon points="57.52 125.85 55.53 127.01 57.57 128.18 59.55 127.03 57.52 125.85" fill="#2b2b2b" stroke-width="0"/>
        <polygon points="14.93 105.45 16.97 106.62 18.96 105.46 16.92 104.29 14.93 105.45" fill="#2b2b2b" stroke-width="0"/>
        <polygon points="21.16 104.58 23.19 105.76 25.18 104.6 23.15 103.43 21.16 104.58" fill="#2b2b2b" stroke-width="0"/>
        <polygon points="10.73 100.71 12.76 101.89 14.75 100.73 12.72 99.56 10.73 100.71" fill="#2b2b2b" stroke-width="0"/>
        <polygon points="19.44 98.98 17.45 100.14 19.48 101.31 21.48 100.16 19.44 98.98" fill="#2b2b2b" stroke-width="0"/>
        <polygon points="42.77 97.76 40.74 96.58 38.75 97.74 40.78 98.91 42.77 97.76" fill="#2b2b2b" stroke-width="0"/>
        <polygon points="22.63 97.77 20.59 96.6 18.6 97.76 20.63 98.93 22.63 97.77" fill="#2b2b2b" stroke-width="0"/>
        <polygon points="49.63 102.17 47.6 101 45.61 102.15 47.64 103.33 49.63 102.17" fill="#2b2b2b" stroke-width="0"/>
        <polygon points="163.23 148.33 162.37 148.83 161.49 149.35 161.25 149.49 163.07 150.55 163.65 150.21 165.06 149.39 163.77 148.64 163.23 148.33" fill="#2b2b2b" stroke-width="0"/>
        <polygon points="33.65 96.14 31.62 94.97 29.63 96.13 31.67 97.3 33.65 96.14" fill="#2b2b2b" stroke-width="0"/>
        <polygon points="29.55 94.93 27.52 93.75 25.53 94.91 27.56 96.08 29.55 94.93" fill="#2b2b2b" stroke-width="0"/>
        <polygon points="332.05 174.58 334.08 175.76 336.08 174.6 334.04 173.42 332.05 174.58" fill="#2b2b2b" stroke-width="0"/>
        <polygon points="331.79 166.76 329.8 167.92 331.83 169.09 333.83 167.93 331.79 166.76" fill="#2b2b2b" stroke-width="0"/>
        <polygon points="319.73 165.53 321.76 166.7 323.75 165.54 321.72 164.37 319.73 165.53" fill="#2b2b2b" stroke-width="0"/>
        <path d="M286.78,138.07l.2-.17.69-.58-.29-.11-2.05-.81-.58.48-.07.06-.32.27c-.11.09-.23.17-.35.26l1.67.72.6.26c.12-.09.25-.18.37-.28l.15-.12Z" fill="#2b2b2b" stroke-width="0"/>
        <path d="M282.38,136l.34-.28.27-.23.31-.25c.1-.09.19-.18.29-.26l.57-.53s.09-.08.14-.12c.01-.01.03-.02.04-.04.32-.3.6-.61.9-.92.17-.17.33-.35.49-.52.17-.19.33-.39.5-.58.15-.19.33-.37.47-.56l.32-.43.11-.15c.14-.19.29-.38.42-.57l.38-.58.12-.19.1-.16-1.95-1.12-2.03-1.17-.25-.15-.13-.07-.15-.08-.59-.32-1.18-.65c-.39-.22-.81-.42-1.22-.62l-1.24-.61c-.84-.4-1.71-.77-2.57-1.16-.89-.36-1.77-.72-2.68-1.07l-1.38-.5c-.46-.17-.92-.34-1.4-.49l-1.42-.46-.71-.23-.73-.21c-.97-.28-1.94-.56-2.95-.8l-1.5-.38c-.5-.12-1.01-.22-1.52-.34-.51-.11-1.01-.23-1.53-.32l-1.55-.29c-1.03-.2-2.08-.35-3.13-.52-.52-.09-1.05-.15-1.58-.22l-1.59-.2c-1.06-.12-2.14-.22-3.21-.32l-1.61-.11c-.54-.03-1.07-.08-1.62-.1l-1.62-.07-.81-.03h-.81s-1.62-.03-1.62-.03c-.54-.01-1.08,0-1.62.01l-1.62.02-1.62.07c-.54.03-1.08.04-1.62.08l-1.61.11-.8.06-.8.08-1.6.16c-.53.05-1.06.12-1.59.19l-1.59.2c-1.05.16-2.09.32-3.13.49l-1.55.29c-.51.1-1.03.19-1.54.31-1.01.23-2.04.43-3.02.69l-1.49.38c-.5.12-.98.27-1.46.41l-1.45.42-1.42.46c-.47.15-.95.3-1.41.47l-1.38.5c-.93.32-1.8.69-2.69,1.05l-.66.27-.64.29-1.28.58c-.43.19-.84.4-1.25.6l-1.23.61c-.8.42-1.57.86-2.36,1.29l-2.04,1.18,2,1.16-2.02,1.17-2-1.16-1.78,1.03-.24.14-1.75,1.02-.27.16-1.72,1-.3.18-1.69.98-.33.19-1.66.96-.36.21-2.02,1.17-2.02,1.17-2.02,1.17-2.02,1.17-2.02,1.17-2.02,1.17-1.01.59-.91.5-.9.5-.94.47c-.32.15-.62.32-.95.47l-.98.44c-.29.14-.59.27-.89.39l.65.37,1.38.8.45.26,1.58.91.25.14-1.79,1.04-.2.12,1.08.63.36.21.38.22,1.97-1.15h.01s1.83,1.05,1.83,1.05l.13.08,1.69.98.32.19.68-.31c.43-.19.82-.4,1.24-.61l1.23-.61,1.17-.65,1.15-.64,1.01-.59,2.02-1.17,2.02-1.17,2.02-1.17,2.02-1.17,2.02-1.17,2.02-1.17.36-.21,1.66-.97.33-.19,1.69-.98.3-.17,1.72-1,.27-.16,1.75-1.02-.96-.56-1.04-.6.24-.14,1.78-1.03,1.04.6.96.55.21-.12,1.81-1.05,2.01-1.17c.61-.32,1.19-.67,1.81-.99l.94-.47c.32-.15.62-.32.95-.46l.98-.44.49-.22.51-.2c.68-.27,1.34-.56,2.05-.8l1.05-.38c.35-.13.72-.23,1.08-.35l1.08-.35,1.11-.32c.37-.1.73-.22,1.11-.31l1.14-.29c.75-.2,1.53-.35,2.3-.53.38-.09.78-.16,1.17-.23l1.18-.22c.79-.13,1.59-.25,2.39-.38l1.21-.15c.4-.05.8-.11,1.21-.14l1.22-.12.61-.06.62-.04,1.23-.09c.41-.03.83-.04,1.24-.06l1.24-.05,1.24-.02c.41,0,.83-.02,1.24,0l1.24.02h.62s.62.03.62.03l1.24.05c.41.01.82.05,1.23.08l1.23.09c.82.08,1.63.15,2.45.24l1.21.15c.4.05.81.1,1.21.17.8.13,1.6.24,2.39.4l1.18.22c.39.07.77.17,1.16.25.39.09.78.17,1.16.25l1.14.29c.77.18,1.5.4,2.25.61l.56.16.54.18,1.08.35c.37.11.71.24,1.06.37l1.05.38c.69.26,1.36.55,2.05.82.65.3,1.32.58,1.96.88l.94.47c.31.16.64.31.94.48l.9.5.45.25.11.06.13.07.25.15,2.03,1.17,2.03,1.17,2.03,1.17.73.42s.04-.03.07-.05l.66-.49c.11-.08.22-.16.33-.25l.31-.26ZM276,131.84s.05.03.07.04c-.03-.01-.05-.03-.07-.04-.04-.02-.07-.04-.11-.06.04.02.07.04.11.06M191.61,133.89l1.72-1,1.76,1.01.25.14-1.72,1-.3.18-.25-.14-1.76-1.01.3-.18Z" fill="#2b2b2b" stroke-width="0"/>
        <polygon points="337.14 164.83 335.15 165.99 337.18 167.16 339.17 166.01 337.14 164.83" fill="#2b2b2b" stroke-width="0"/>
        <polygon points="338.4 169.71 340.43 170.89 342.42 169.73 340.39 168.56 338.4 169.71" fill="#2b2b2b" stroke-width="0"/>
        <polygon points="344.87 168.31 346.91 169.48 348.9 168.32 346.86 167.15 344.87 168.31" fill="#2b2b2b" stroke-width="0"/>
        <polygon points="337.1 162.5 335.11 163.66 337.14 164.83 339.13 163.67 337.1 162.5" fill="#2b2b2b" stroke-width="0"/>
        <polygon points="342.94 164.72 340.95 165.88 342.98 167.05 344.98 165.89 342.94 164.72" fill="#2b2b2b" stroke-width="0"/>
        <path d="M295.14,136.51c.11-.11.22-.23.33-.34.31-.34.6-.69.9-1.04l-.91-.26-1.64-.46c-.15.18-.31.36-.46.55-.22.26-.45.52-.71.77l.87.28,1.61.51Z" fill="#2b2b2b" stroke-width="0"/>
        <polygon points="345.14 162.54 343.11 161.36 341.12 162.52 343.15 163.69 345.14 162.54" fill="#2b2b2b" stroke-width="0"/>
        <polygon points="349.72 159.87 347.69 158.7 345.7 159.86 347.73 161.03 349.72 159.87" fill="#2b2b2b" stroke-width="0"/>
        <path d="M341.08,160.19l-2.03-1.17-2.03-1.17-2.03-1.17-2.03-1.17-1.99,1.16-2.03-1.17,1.99-1.16-2.03-1.17-2.03-1.17-2.03-1.17-2.03-1.17-2.03-1.17-2.03-1.17-2.03-1.17-2.03-1.17-2.03-1.17-2.03-1.17-2.03-1.17-2.03-1.17-2.03-1.17-2.03-1.17-2.03-1.17-1.49-.86c-.41.49-.82.98-1.29,1.45-.02.02-.05.05-.07.07-.43.45-.85.91-1.34,1.34l-.13.12-.62.58c-.12.11-.24.23-.38.35l-.19.16-.21.17-.17.14-.63.53-.4.34c-.14.11-.28.22-.43.33l-.21.15-.66.49c-.29.22-.57.44-.88.64l-.67-.32-1.51-.72-.06.04,1.38.8,2.03,1.17,2.03,1.17,2.03,1.17,2.03,1.17,2.03,1.17,2.03,1.17,2.03,1.17,2.03,1.17,2.03,1.17,2.03,1.17,2.03,1.17,2.03,1.17,2.03,1.17,2.03,1.17,2.03,1.17,2.03,1.17,1.99-1.16,2.03,1.17,2.03,1.17-1.99,1.16,2.03,1.17,2.03,1.17,1.99-1.16-2.03-1.17,1.99-1.16,1.99-1.16,2.03,1.17,1.99-1.16,1.99-1.16ZM331.04,161.31l-2.03-1.17,1.99-1.16,1.99-1.16,2.03,1.17-1.99,1.16-1.99,1.16Z" fill="#2b2b2b" stroke-width="0"/>
        <polygon points="210.77 59.3 210.12 58.93 208.42 59.91 208.31 59.98 208.95 60.35 210.31 61.14 210.42 61.07 212.12 60.08 210.77 59.3" fill="#d7d7d7" stroke-width="0"/>
        <polygon points="193.33 132.89 191.61 133.89 191.31 134.06 193.06 135.08 193.31 135.22 193.61 135.04 195.33 134.04 195.08 133.9 193.33 132.89" fill="#d7d7d7" stroke-width="0"/>
        <polygon points="87.37 62.73 85.6 61.71 83.61 62.87 85.38 63.89 87.37 62.73" fill="#d7d7d7" stroke-width="0"/>
        <polygon points="89.39 66.11 87.63 65.09 85.64 66.25 87.4 67.27 89.39 66.11" fill="#d7d7d7" stroke-width="0"/>
        <polygon points="90.75 68.7 92.74 67.54 90.97 66.52 88.99 67.68 90.75 68.7" fill="#d7d7d7" stroke-width="0"/>
        <polygon points="92.33 68.84 94.1 69.86 96.09 68.7 94.32 67.68 92.33 68.84" fill="#d7d7d7" stroke-width="0"/>
        <polygon points="95.83 70.77 93.84 71.92 93.95 71.99 93.17 72.44 94.82 73.4 92.83 74.55 94.6 75.57 96.59 74.42 94.93 73.46 96.92 72.3 96.81 72.24 97.6 71.78 95.83 70.77" fill="#d7d7d7" stroke-width="0"/>
        <polygon points="97.71 69.8 99.48 70.82 101.47 69.66 99.7 68.64 97.71 69.8" fill="#d7d7d7" stroke-width="0"/>
        <polygon points="101.31 66.1 99.54 65.08 97.55 66.23 99.32 67.25 101.31 66.1" fill="#d7d7d7" stroke-width="0"/>
        <polygon points="98.15 73.64 99.92 74.66 101.91 73.5 100.14 72.48 98.15 73.64" fill="#d7d7d7" stroke-width="0"/>
        <polygon points="110.18 75.85 112.17 74.69 110.41 73.67 108.42 74.83 110.18 75.85" fill="#d7d7d7" stroke-width="0"/>
        <polygon points="109.93 70.88 108.17 69.86 106.18 71.02 107.94 72.04 109.93 70.88" fill="#d7d7d7" stroke-width="0"/>
        <polygon points="113.5 79.03 115.49 77.88 113.73 76.86 111.74 78.02 113.5 79.03" fill="#d7d7d7" stroke-width="0"/>
        <polygon points="125.53 81.25 123.76 80.23 121.77 81.39 123.54 82.41 125.53 81.25" fill="#d7d7d7" stroke-width="0"/>
        <path d="M192.27,127.35l-1.76-1.02-1.77-1.02-1.76-1.02-1.77-1.02-1.76-1.02-1.77-1.02-1.77-1.02-1.76-1.02-1.77-1.02-1.76-1.02-1.77-1.02-1.76-1.02-1.77-1.02-1.77-1.02-1.76-1.02-1.77-1.02-1.76-1.02-1.77-1.02-1.76-1.02-1.77-1.02-1.76-1.02-1.77-1.02-1.77-1.02-1.76-1.02-1.53-.88-.24-.14-1.76-1.02h-.01s-1.75-1.02-1.75-1.02l-.26-.15-1.51-.87-.5-.29-1.26-.73-.75-.43-1.02-.59-.99-.57-.78-.45-1.77-1.02-1.76-1.02-1.77-1.02-1.76-1.02-1.77-1.02-1.77-1.02-1.76-1.02-1.77-1.02-1.76-1.02-1.77-1.02-1.76-1.02-1.99,1.16-1.77-1.02,1.99-1.16-1.77-1.02-1.76-1.02-1.99,1.16-1.77-1.02,1.99-1.16-1.76-1.02-1.77-1.02-1.99,1.16-1.76-1.02-1.77-1.02,1.99-1.16-1.77-1.02-1.99,1.16-1.76-1.02-1.99,1.16,1.76,1.02-1.99,1.16-1.76-1.02-1.99,1.16-1.99,1.16,1.76,1.02,1.99-1.16,1.77,1.02,1.99-1.16,1.77,1.02-1.99,1.16-1.77-1.02-1.99,1.16,1.77,1.02,1.76,1.02,1.77,1.02,1.76,1.02,1.77,1.02,1.99-1.16,1.76,1.02-1.99,1.16,1.77,1.02,1.77,1.02,1.76,1.02,1.77,1.02,1.99-1.16,1.77,1.02-1.99,1.16,1.77,1.02,1.76,1.02,1.77,1.02,1.77,1.02,1.76,1.02,1.77,1.02,1.76,1.02,1.77,1.02,1.76,1.02,1.09.63.68.39,1.44.83.33.19,1.76,1.02.04.02.54.31,1.19.69.43.25,1.34.77.83.48.79.46.14.08,1.26.73.5.29,1.77,1.02,1.77,1.02,1.76,1.02,1.77,1.02,1.76,1.02,1.77,1.02,1.76,1.02,1.77,1.02,1.76,1.02,1.77,1.02,1.77,1.02,1.76,1.02,1.77,1.02,1.76,1.02,1.77,1.02,1.76,1.02,1.77,1.02,1.77,1.02,1.76,1.02,1.77,1.02,1.76,1.02,1.77,1.02,1.76,1.02,1.77,1.02,1.54.89,1.66-.97.33-.19,1.69-.98.3-.17,1.72-1,.27-.16,1.75-1.02.24-.14,1.78-1.03.21-.12-1.54-.89-1.77-1.02ZM130.25,93.85l-1.99,1.16-1.76-1.02,1.99-1.16,1.76,1.02ZM99.56,83.05l1.99-1.16,1.99-1.16,1.77,1.02-1.99,1.16-1.99,1.16-1.77-1.02ZM113.91,89.03l1.99-1.16,1.77,1.02-1.99,1.16-1.77-1.02Z" fill="#d7d7d7" stroke-width="0"/>
        <polygon points="76.02 62.92 74.26 61.91 72.27 63.06 74.03 64.08 76.02 62.92" fill="#d7d7d7" stroke-width="0"/>
        <polygon points="93.03 70.91 91.26 69.89 89.27 71.04 90.67 71.85 89.41 72.58 91.18 73.6 93.17 72.44 91.77 71.64 93.03 70.91" fill="#d7d7d7" stroke-width="0"/>
        <polygon points="66.79 67.26 64.8 68.42 66.57 69.44 68.56 68.29 66.79 67.26" fill="#d7d7d7" stroke-width="0"/>
        <polygon points="96.04 64.45 94.28 63.43 92.29 64.58 94.05 65.6 96.04 64.45" fill="#d7d7d7" stroke-width="0"/>
        <polygon points="82.35 68.5 80.36 69.66 82.12 70.68 84.12 69.52 82.35 68.5" fill="#d7d7d7" stroke-width="0"/>
        <polygon points="80.64 65.62 82.63 64.46 80.86 63.44 78.87 64.6 76.88 65.75 78.65 66.78 80.64 65.62" fill="#d7d7d7" stroke-width="0"/>
        <polygon points="85.52 69.69 85.34 69.8 87.1 70.82 89.09 69.66 87.36 68.66 87.54 68.55 85.78 67.53 83.79 68.69 85.52 69.69" fill="#d7d7d7" stroke-width="0"/>
        <polygon points="85.66 72.72 84.77 72.21 82.78 73.36 84.55 74.38 86.54 73.23 87.42 73.74 89.41 72.58 87.65 71.56 85.66 72.72" fill="#d7d7d7" stroke-width="0"/>
        <polygon points="90.8 58.69 89.04 57.67 87.05 58.82 88.82 59.84 90.8 58.69" fill="#d7d7d7" stroke-width="0"/>
        <polygon points="73 71.08 74.76 72.1 76.75 70.94 74.99 69.92 73 71.08" fill="#d7d7d7" stroke-width="0"/>
        <polygon points="88.18 75.86 89.94 76.88 91.93 75.72 90.17 74.7 88.18 75.86" fill="#d7d7d7" stroke-width="0"/>
        <polygon points="94.71 75.64 92.72 76.79 94.48 77.81 96.47 76.66 94.71 75.64" fill="#d7d7d7" stroke-width="0"/>
        <polygon points="106.32 71.43 104.55 70.41 102.56 71.57 104.33 72.59 106.32 71.43" fill="#d7d7d7" stroke-width="0"/>
        <polygon points="73.85 69.56 72.08 68.54 70.09 69.7 71.86 70.72 73.85 69.56" fill="#d7d7d7" stroke-width="0"/>
        <polygon points="83.89 71.7 82.12 70.68 80.13 71.83 81.9 72.85 83.89 71.7" fill="#d7d7d7" stroke-width="0"/>
        <polygon points="80.21 69.75 78.44 68.73 76.45 69.88 78.22 70.9 80.21 69.75" fill="#d7d7d7" stroke-width="0"/>
        <polygon points="80.36 72.73 78.59 71.71 76.6 72.86 78.37 73.88 80.36 72.73" fill="#d7d7d7" stroke-width="0"/>
        <polygon points="77.51 76.39 75.74 75.37 73.75 76.53 75.52 77.55 77.51 76.39" fill="#d7d7d7" stroke-width="0"/>
        <polygon points="90.89 78.04 89.12 77.02 87.13 78.18 88.9 79.2 90.89 78.04" fill="#d7d7d7" stroke-width="0"/>
        <polygon points="87.21 85.11 88.98 86.13 90.96 84.97 89.2 83.95 87.21 85.11" fill="#d7d7d7" stroke-width="0"/>
        <polygon points="98.7 87.63 96.94 86.62 94.95 87.77 96.71 88.79 98.7 87.63" fill="#d7d7d7" stroke-width="0"/>
        <polygon points="71.32 71.03 69.56 70.01 67.57 71.17 69.33 72.19 71.32 71.03" fill="#d7d7d7" stroke-width="0"/>
        <polygon points="69.25 74.74 71.02 75.76 73.01 74.61 71.24 73.59 69.25 74.74" fill="#d7d7d7" stroke-width="0"/>
        <polygon points="82.64 75.77 84.63 74.61 82.86 73.59 80.93 74.72 79.81 74.07 77.82 75.23 79.58 76.24 81.52 75.12 82.64 75.77" fill="#d7d7d7" stroke-width="0"/>
        <polygon points="84.83 77.29 83.07 76.27 81.08 77.42 82.84 78.44 84.83 77.29" fill="#d7d7d7" stroke-width="0"/>
        <polygon points="81.96 79.85 83.73 80.87 85.72 79.71 83.95 78.69 81.96 79.85" fill="#d7d7d7" stroke-width="0"/>
        <polygon points="87.2 75.91 89.04 74.84 87.27 73.82 85.28 74.98 86.76 75.84 84.92 76.91 86.69 77.92 88.68 76.77 87.2 75.91" fill="#d7d7d7" stroke-width="0"/>
        <polygon points="74.89 82.04 76.65 83.06 78.64 81.9 76.88 80.88 74.89 82.04" fill="#d7d7d7" stroke-width="0"/>
        <polygon points="81.34 83.9 83.11 84.92 85.1 83.76 83.33 82.74 81.34 83.9" fill="#d7d7d7" stroke-width="0"/>
        <polygon points="95.84 91.96 97.61 92.98 99.6 91.82 97.83 90.8 95.84 91.96" fill="#d7d7d7" stroke-width="0"/>
        <path d="M304.73,118.4c-.07-.54-.13-1.09-.26-1.63-.12-.54-.21-1.08-.39-1.62-.16-.54-.3-1.08-.52-1.61l-2.76.33c-.2-.51-.37-1.02-.62-1.52l2.73-.41-.37-.79c-.06-.13-.12-.26-.19-.4l-.22-.39-.44-.78-.22-.39-.25-.38-.5-.77-.25-.38-.28-.38-.57-.75c-.19-.25-.37-.5-.59-.74l-.63-.73c-.21-.24-.41-.49-.65-.73-.46-.47-.91-.96-1.4-1.42-.5-.46-.99-.93-1.51-1.38l-1.62-1.34-1.74-1.29c-.6-.42-1.22-.83-1.84-1.24-.62-.41-1.29-.79-1.93-1.19l-.48-.29-.44-.26-.88-.51-1.77-1.02-1.77-1.02-1.77-1.02-1.76-1.02-1.77-1.02-1.77-1.02-1.76-1.02-1.77-1.02-1.76-1.02-1.77-1.02-1.76-1.02-1.77-1.02-1.77-1.02-1.99,1.16-1.76-1.02,1.99-1.16-1.77-1.02-1.76-1.02-1.77-1.02-1.76-1.02-1.77-1.02-1.77-1.02-1.76-1.02-1.77-1.02-1.76-1.02-1.77-1.02-1.76-1.02-1.77-1.02-1.77-1.02-1.76-1.02-1.77-1.02-1.76-1.02-1.77-1.02-1.76-1.02-1.77-1.02-1.77-1.02-1.76-1.02-1.77-1.02-1.76-1.02-.17-.1-.82.47.17.1,1.76,1.02.07.04-1.17.68-.64.37-1.35.78-.46.27-1.52.89-.29.17-1.7.99-.11.07-1.81,1.05-.06.04,1.7.98,1.76,1.02,1.77,1.02,1.77,1.02,1.76,1.02,1.77,1.02,1.76,1.02,1.77,1.02,1.76,1.02,1.77,1.02,1.77,1.02,1.76,1.02,1.77,1.02,1.76,1.02,1.77,1.02,1.76,1.02,1.77,1.02,1.77,1.02,1.76,1.02,1.77,1.02,1.76,1.02,1.77,1.02,1.76,1.02,1.77,1.02,1.77,1.02,1.76,1.02,1.77,1.02,1.76,1.02,1.77,1.02,1.76,1.02,1.77,1.02,1.77,1.02,1.76,1.02,1.77,1.02,1.76,1.02,1.77,1.02.88.51.44.26.38.23c.49.31,1.01.6,1.48.91.47.32.95.63,1.41.95l1.33.99,1.24,1.02c.4.35.77.7,1.15,1.06.37.36.71.73,1.07,1.09.18.18.33.37.49.55l.48.56c.17.18.31.38.45.57l.43.57.21.28.19.29.38.58.19.29.17.3.33.59.17.3c.05.1.1.2.15.3l.28.6c.21.4.33.81.5,1.22.17.4.27.82.4,1.23.14.41.21.82.3,1.24.11.41.14.83.2,1.25.07.41.08.83.1,1.25,0,.21.04.42.02.62l-.02.62c-.01.21,0,.42-.03.62l-.08.62c-.03.21-.04.42-.08.62l-.12.62c-.05.21-.08.41-.13.62l-.18.62c-.06.2-.11.41-.18.61l-.23.61-.23.61-.28.6-.28.6-.33.59,2.69.5-.35.63-.4.62-1.32-.29-1.33-.29-.38.58c-.13.19-.28.38-.42.57l-.11.15-.32.43c-.14.19-.31.37-.47.56-.16.19-.33.39-.49.58-.15.18-.32.35-.49.52-.3.31-.58.62-.9.92-.01.01-.03.02-.04.04-.04.04-.09.08-.14.12l-.57.53c-.1.09-.18.18-.29.27l-.31.25-.28.23-.34.28-.31.26c-.1.08-.22.17-.33.25l-.66.5s-.04.03-.07.05c-.2.15-.39.3-.6.44-.47.31-.93.64-1.41.94l-1.48.91-1.56.86c-.53.28-1.09.54-1.63.82-.27.14-.56.26-.84.39l-.85.38-.42.19-.44.18-.88.36c-.58.25-1.2.45-1.81.68-.6.23-1.23.42-1.86.63-.32.1-.62.21-.94.3l-.97.28c-.32.09-.64.19-.97.27l-.99.25c-.33.08-.66.17-.99.25l-1.01.22-1,.22-1.02.19-1.02.19-1.04.16-1.04.16c-.35.05-.7.09-1.05.14l-1.05.13c-.35.04-.71.07-1.06.11l-1.06.11c-.35.03-.71.05-1.07.08l-1.07.08c-.36.03-.72.03-1.08.05l-1.07.05c-.36.02-.72.01-1.08.02-.72,0-1.44.03-2.16,0-.72-.01-1.44-.01-2.16-.05-.72-.03-1.43-.05-2.15-.11-.71-.05-1.43-.09-2.14-.17-.71-.07-1.42-.13-2.12-.23-.7-.09-1.41-.16-2.1-.28l-1.04-.16c-.17-.03-.35-.05-.52-.08l-.51-.1-1.02-.19-.52-.09-.5-.11-1.01-.22-.5-.11c-.17-.04-.33-.08-.5-.12l-.99-.25c-.33-.08-.66-.16-.98-.26l-.96-.28c-.32-.09-.65-.18-.96-.28-.62-.21-1.26-.4-1.88-.61l-1.83-.66-1.77-.71-1.71-.76c-.56-.26-1.09-.54-1.65-.81-.28-.13-.53-.28-.8-.42l-.79-.43-.39-.22-.44-.26-.88-.51-1.77-1.02-1.76-1.02-1.77-1.02-.8-.47-.21.12-.96-.56-1.04-.6-1.78,1.03-.24.14,1.04.6.96.56-1.75,1.02-.27.16-1.72,1-.3.18-1.69.98-.33.19-1.66.96.8.46,1.77,1.02,1.76,1.02,1.77,1.02.88.51.44.26.51.28,1.02.56c.34.19.68.38,1.04.55.72.35,1.42.71,2.15,1.06l2.24,1,2.32.94c.79.3,1.6.58,2.4.87.81.28,1.64.54,2.47.8.41.14.84.25,1.26.37l1.27.36c.42.13.85.23,1.29.34l1.3.33c.22.05.43.11.65.16l.66.14,1.32.29.66.14.67.13,1.34.25.67.13.68.11,1.36.21c.91.15,1.83.25,2.75.37.92.13,1.85.2,2.78.3.92.1,1.86.15,2.79.22.93.07,1.87.1,2.81.14.94.05,1.88.05,2.82.07.94.02,1.88,0,2.82,0,.47-.01.94,0,1.41-.03l1.41-.06c.47-.02.94-.03,1.41-.07l1.4-.09c.47-.04.93-.06,1.4-.11l1.39-.13c.46-.05.93-.09,1.39-.14l1.38-.17c.46-.06.92-.11,1.38-.18l1.36-.21,1.36-.22,1.34-.25,1.34-.25,1.32-.29,1.32-.29c.44-.1.87-.22,1.3-.32l1.29-.33c.43-.11.85-.24,1.27-.36l1.26-.36c.42-.12.83-.26,1.24-.39.82-.27,1.65-.52,2.44-.82.79-.29,1.61-.57,2.37-.89l1.16-.47.58-.23.56-.25,1.11-.5c.37-.17.75-.33,1.1-.51.71-.36,1.43-.7,2.12-1.07l2.03-1.12,1.93-1.18-2.09-1.1c.58-.37,1.13-.76,1.69-1.14.02-.01.04-.03.06-.04l1.51.72.67.32c.31-.2.59-.42.88-.64l.65-.49.21-.15c.14-.11.29-.22.43-.32l.4-.34.63-.53.17-.14.21-.17.19-.16c.13-.11.25-.23.38-.34l.62-.58.13-.12c.49-.43.9-.89,1.34-1.34.02-.02.05-.05.07-.07.47-.47.88-.96,1.29-1.45,0,0,0,0,0,0,.2-.25.42-.49.61-.74l.56-.75c.19-.25.38-.5.55-.75l.5-.76.49-.77.43-.78.43-.78.36-.79.36-.79.3-.8.3-.8c.09-.27.16-.54.24-.8l.23-.81c.07-.27.11-.54.17-.81l.16-.81c.05-.27.07-.54.11-.82l.09-.82c.03-.27.03-.54.04-.82l.03-.82c.01-.27-.02-.54-.02-.82-.02-.55-.04-1.09-.13-1.63M295.47,136.16c-.11.11-.22.23-.33.34l-1.62-.51-.86-.27c.25-.25.48-.51.71-.77.16-.18.31-.36.46-.54l1.64.46.91.26c-.3.35-.59.7-.9,1.04M287.38,137.21l.29.11-.69.58-.2.17-.15.12c-.12.09-.24.18-.37.28l-.6-.26-1.67-.72c.11-.09.24-.17.35-.26l.32-.27.07-.06.58-.48,2.05.81ZM279.53,140.49l2.01,1.16-1.75.97-1.91-1.21,1.66-.92Z" fill="#d7d7d7" stroke-width="0"/>
        <path d="M319.75,110.39l-2.73.41c.25.5.42,1.01.62,1.52l2.76-.33c-.21-.53-.39-1.07-.65-1.59" fill="#d7d7d7" stroke-width="0"/>
        <polygon points="160.19 36.83 158.42 35.81 156.44 36.97 158.2 37.99 160.19 36.83" fill="#d7d7d7" stroke-width="0"/>
        <polygon points="155.18 37.4 153.41 36.38 151.42 37.53 153.19 38.55 155.18 37.4" fill="#d7d7d7" stroke-width="0"/>
        <polygon points="158.42 32.03 156.66 31.01 154.67 32.17 156.43 33.19 158.42 32.03" fill="#d7d7d7" stroke-width="0"/>
        <polygon points="152.08 31.62 150.09 32.78 151.86 33.8 153.85 32.64 152.08 31.62" fill="#d7d7d7" stroke-width="0"/>
        <polygon points="151.89 30.66 153.88 29.51 152.11 28.49 150.12 29.64 151.89 30.66" fill="#d7d7d7" stroke-width="0"/>
        <polygon points="145.44 29.47 143.68 28.45 141.69 29.61 143.45 30.63 145.44 29.47" fill="#d7d7d7" stroke-width="0"/>
        <path d="M156.1,29.71l1.76,1.02,1.77,1.02,1.76,1.02,1.77,1.02-1.99,1.16,1.76,1.02,1.77,1.02,1.77,1.02,1.76,1.02,1.77,1.02,1.76,1.02,1.77,1.02,1.76,1.02,1.77,1.02,1.77,1.02,1.76,1.02,1.77,1.02,1.76,1.02,1.77,1.02,1.76,1.02,1.77,1.02,1.77,1.02,1.76,1.02,1.77,1.02,1.76,1.02,1.77,1.02,1.76,1.02,1.77,1.02.64.37.06-.04,1.81-1.05.11-.07,1.7-.99.29-.17,1.52-.89.47-.27,1.35-.78,1.12.65.88.51.64-.37,1.17-.68-.88-.51-1.12-.65.82-.47-.64-.37-1.77-1.02-1.76-1.02-1.77-1.02-1.76-1.02-1.77-1.02-1.76-1.02-1.77-1.02-1.77-1.02-1.76-1.02-1.77-1.02-1.76-1.02-1.77-1.02-1.76-1.02-1.77-1.02-1.77-1.02-1.76-1.02-1.77-1.02-1.76-1.02-1.77-1.02-1.76-1.02-1.99,1.16-1.77-1.02,1.99-1.16-1.77-1.02-1.76-1.02-1.77-1.02-1.76-1.02-1.99,1.16-1.99,1.16-1.77-1.02-1.76-1.02-1.77-1.02-1.99,1.16,1.77,1.02-1.99,1.16ZM164.92,34.8l1.99-1.16,1.77,1.02-1.99,1.16-1.77-1.02ZM174.2,35.55l-1.99,1.16-1.76-1.02,1.99-1.16,1.76,1.02Z" fill="#d7d7d7" stroke-width="0"/>
        <polygon points="155.04 26.79 153.04 27.94 154.81 28.96 156.8 27.81 155.04 26.79" fill="#d7d7d7" stroke-width="0"/>
        <polygon points="147.79 25.04 146.02 24.02 144.03 25.18 145.8 26.2 147.79 25.04" fill="#d7d7d7" stroke-width="0"/>
        <polygon points="156.17 25.57 154.4 24.55 152.41 25.71 154.18 26.73 156.17 25.57" fill="#d7d7d7" stroke-width="0"/>
        <polygon points="164.47 26.47 162.7 25.45 160.72 26.61 162.48 27.63 164.47 26.47" fill="#d7d7d7" stroke-width="0"/>
        <polygon points="156.92 24.11 158.69 25.13 160.68 23.97 158.91 22.95 156.92 24.11" fill="#d7d7d7" stroke-width="0"/>
        <polygon points="151.03 20.51 149.27 19.49 147.28 20.64 149.04 21.66 151.03 20.51" fill="#d7d7d7" stroke-width="0"/>
        <polygon points="266.24 78.74 264.48 77.72 262.49 78.88 264.25 79.9 266.24 78.74" fill="#d7d7d7" stroke-width="0"/>
        <polygon points="165.83 26.1 167.59 27.12 169.58 25.96 167.82 24.94 165.83 26.1" fill="#d7d7d7" stroke-width="0"/>
        <polygon points="165.94 25.01 167.93 23.85 166.16 22.83 164.17 23.99 165.94 25.01" fill="#d7d7d7" stroke-width="0"/>
        <polygon points="165.76 22.6 163.99 21.58 162 22.74 163.77 23.76 165.76 22.6" fill="#d7d7d7" stroke-width="0"/>
        <polygon points="160.62 19.63 158.85 18.61 156.86 19.77 158.63 20.79 160.62 19.63" fill="#d7d7d7" stroke-width="0"/>
      </g>
      <polygon points="114.33 48.94 95.46 59.91 76.47 48.94 95.34 37.98 114.33 48.94" fill="#f7eb17" stroke-width="0"/>
      <polygon points="95.41 42.56 84.55 48.87 95.48 55.18 95.41 42.56" stroke-width="0"/>
      <polygon points="95.41 42.56 106.34 48.87 95.48 55.18 95.41 42.56" fill="#2b2b2b" stroke-width="0"/>
      <polygon points="114.33 48.94 114.27 117.23 95.4 128.19 95.46 59.91 114.33 48.94" fill="#dbcb24" stroke-width="0"/>
      <polygon points="95.46 59.91 95.4 128.19 76.41 117.23 76.47 48.94 95.46 59.91" fill="#eedc10" stroke-width="0"/>
      <polygon points="132.22 146.85 113.35 157.81 94.36 146.85 113.23 135.88 132.22 146.85" fill="#d8d8d8" stroke-width="0"/>
      <g clip-path="url(#clippath-4)">
        <rect x="54.12" y="178.67" width="59.19" height="68.72" transform="translate(-143.32 184) rotate(-61.26)" fill="url(#linear-gradient-4)" stroke-width="0"/>
      </g>
      <polygon points="132.22 146.85 132.16 195.49 113.29 206.45 113.35 157.81 132.22 146.85" fill="#bbb" stroke-width="0"/>
      <polygon points="113.35 157.81 113.29 206.45 94.3 195.49 94.36 146.85 113.35 157.81" fill="#cacaca" stroke-width="0"/>
      <polygon points="97.65 168.42 103.83 184.36 105.88 181.49 101.72 170.77 97.65 168.42" fill="#2b2b2b" stroke-width="0"/>
      <polygon points="101.72 170.77 105.88 181.49 110.07 175.59 101.72 170.77" stroke-width="0"/>
      <polygon points="231.23 80.77 212.36 91.73 193.37 80.77 212.23 69.8 231.23 80.77" fill="#2b2b2b" stroke-width="0"/>
      <polygon points="231.23 80.77 231.16 103.25 212.3 114.22 212.36 91.73 231.23 80.77" fill="#0e0e0e" stroke-width="0"/>
      <polygon points="212.36 91.73 212.3 114.22 193.3 103.25 193.37 80.77 212.36 91.73" fill="#1d1d1d" stroke-width="0"/>
      <polygon points="279.54 167.5 260.68 178.47 241.68 167.5 260.55 156.53 279.54 167.5" fill="#f7eb17" stroke-width="0"/>
      <polygon points="279.54 167.5 279.48 189.99 260.61 200.95 260.68 178.47 279.54 167.5" fill="#dbcb24" stroke-width="0"/>
      <polygon points="260.68 178.46 260.61 200.95 241.62 189.99 241.68 167.5 260.68 178.46" fill="#eedc10" stroke-width="0"/>
      <polygon points="298.54 178.47 279.67 189.43 260.68 178.46 279.54 167.5 298.54 178.47" fill="#f7eb17" stroke-width="0"/>
      <polygon points="298.54 178.47 298.47 200.95 279.61 211.92 279.67 189.43 298.54 178.47" fill="#dbcb24" stroke-width="0"/>
      <g>
        <path d="M292.62,187.78c.06.35.1.73.09,1.13,0,3.56-2.55,7.92-5.66,9.73-1.11.64-2.13.88-3,.76.48,2.71,2.77,3.64,5.53,2.03,3.12-1.81,5.65-6.17,5.66-9.73,0-2.3-1.04-3.7-2.62-3.92" fill="#2b2b2b" stroke-width="0"/>
        <path d="M287.05,198.64c3.12-1.81,5.65-6.17,5.66-9.73,0-.41-.03-.78-.09-1.13-.87-.12-1.9.11-3,.76-3.12,1.81-5.65,6.17-5.66,9.73,0,.41.03.78.09,1.13.87.12,1.9-.11,3-.76" stroke-width="0"/>
      </g>
      <polygon points="279.67 189.43 279.6 211.91 260.61 200.95 260.68 178.46 279.67 189.43" fill="#eedc10" stroke-width="0"/>
      <line x1="95.4" y1="108.95" x2="95.4" y2="59.91" fill="none" stroke="#333" stroke-miterlimit="10" stroke-width="1.06"/>
      <g>
        <path d="M100.12,102.23c-.23-.15-.53-.08-.68.15l-4.04,6.35-4.04-6.35c-.15-.23-.45-.3-.68-.15-.23.15-.29.45-.15.68l4.46,7c.09.14.25.23.42.23s.32-.09.42-.23l4.46-7c.05-.08.08-.17.08-.26,0-.16-.08-.32-.23-.42" fill="#333" stroke-width="0"/>
        <line x1="65.24" y1="55.47" x2="106.57" y2="31.45" fill="none" stroke="#333" stroke-dasharray="0 0 13.3 0" stroke-miterlimit="10" stroke-width=".71"/>
        <line x1="148.42" y1="94.78" x2="234.82" y2="45.07" fill="none" stroke="#676767" stroke-miterlimit="10" stroke-width="1.06"/>
        <path d="M231.35,52.51c-.24-.13-.33-.42-.21-.66l3.49-6.67-7.52-.34c-.27-.01-.48-.24-.47-.51.01-.27.24-.48.51-.47l8.29.37c.17,0,.32.1.4.25.08.15.09.32.01.47l-3.84,7.35c-.04.09-.11.15-.19.2-.14.08-.32.09-.47.01" fill="#676767" stroke-width="0"/>
        <path d="M170.08,153.37l-22.96-13.26c-12.51-7.22-17.59-17.12-15.22-26.51" fill="none" stroke="#676767" stroke-miterlimit="10" stroke-width="1.06"/>
        <path d="M134.77,121.32c-.26.08-.54-.06-.62-.32l-2.28-7.17-5.53,5.1c-.2.18-.51.17-.7-.03-.18-.2-.17-.51.03-.7l6.1-5.62c.12-.11.3-.16.46-.11.16.04.29.17.34.33l2.52,7.91c.03.09.03.19,0,.27-.04.16-.16.29-.33.34" fill="#676767" stroke-width="0"/>
        <line x1="178.51" y1="158.23" x2="175.1" y2="156.26" fill="none" stroke="#676767" stroke-miterlimit="10" stroke-width="1.06"/>
        <line x1="175.1" y1="156.26" x2="173.49" y2="155.33" fill="none" stroke="#676767" stroke-dasharray="0 0 2 0" stroke-miterlimit="10" stroke-width="1.06"/>
        <line x1="173.49" y1="155.33" x2="170.08" y2="153.37" fill="none" stroke="#676767" stroke-miterlimit="10" stroke-width="1.06"/>
        <path d="M194.06,213.43l1.93-1.11c.5-.29.99-.58,1.47-.88" fill="none" stroke="#676767" stroke-miterlimit="10" stroke-width="1.06"/>
        <path d="M203.27,207.11c13.39-12.04,10.96-28.25-7.29-38.78l-5.83-3.37" fill="none" stroke="#676767" stroke-dasharray="0 0 7.83 7.83" stroke-miterlimit="10" stroke-width="1.06"/>
        <line x1="187.02" y1="163.14" x2="183.61" y2="161.17" fill="none" stroke="#676767" stroke-miterlimit="10" stroke-width="1.06"/>
        <line x1="83.68" y1="155.22" x2="80.27" y2="153.25" fill="none" stroke="#676767" stroke-miterlimit="10" stroke-width="1.06"/>
        <line x1="80.27" y1="153.25" x2="36.53" y2="128" fill="none" stroke="#676767" stroke-dasharray="0 0 9.08 0" stroke-miterlimit="10" stroke-width="1.06"/>
        <line x1="36.53" y1="128" x2="33.12" y2="126.03" fill="none" stroke="#676767" stroke-miterlimit="10" stroke-width="1.06"/>
        <path d="M80.21,147.77c-.24.13-.33.42-.21.66l3.48,6.67-7.52.33c-.27.01-.48.24-.47.51.01.27.24.48.51.47l8.29-.36c.17,0,.32-.1.4-.24.08-.15.09-.33.01-.47l-3.83-7.36c-.04-.09-.11-.15-.19-.2-.14-.08-.32-.09-.47-.01" fill="#676767" stroke-width="0"/>
        <path d="M201.18,147.79l-27.07,15.63c-9.33,5.39-21.24,8.39-33.44,9" fill="none" stroke="#676767" stroke-miterlimit="10" stroke-width="1.06"/>
        <polygon points="196.34 145.94 196.12 146.9 200.85 147.98 199.43 152.62 200.37 152.91 202.1 147.26 196.34 145.94" fill="#676767" stroke-width="0"/>
        <path d="M265.35,141.73c-1.24-.38-2.51-.73-3.79-1.05" fill="none" stroke="#676767" stroke-miterlimit="10" stroke-width="1.06"/>
        <path d="M254.17,139.2c-8.6-1.33-17.66-1.4-26.32-.23" fill="none" stroke="#676767" stroke-dasharray="0 0 8.14 8.14" stroke-miterlimit="10" stroke-width="1.06"/>
        <path d="M224.12,139.56c-1.3.23-2.58.5-3.85.79" fill="none" stroke="#676767" stroke-miterlimit="10" stroke-width="1.06"/>
        <line x1="322.73" y1="172.9" x2="287.44" y2="152.53" fill="none" stroke="#676767" stroke-dasharray="0 0 8.49 8.49" stroke-miterlimit="10" stroke-width="1.06"/>
        <path d="M319.26,165.45c-.24.13-.33.42-.21.66l3.48,6.67-7.52.33c-.27.01-.48.24-.47.51.01.27.24.48.51.47l8.29-.36c.17,0,.32-.1.4-.24.08-.15.09-.33.01-.47l-3.83-7.36c-.04-.09-.11-.15-.19-.2-.14-.08-.32-.09-.47-.01" fill="#676767" stroke-width="0"/>
        <path d="M205.84,141.25c.48.25.97.5,1.46.74" fill="none" stroke="#676767" stroke-miterlimit="10" stroke-width="1.06"/>
        <path d="M213.19,144.56c25.1,9.72,59.4,8.17,81.58-4.63h0c25.22-14.56,25.22-38.17,0-52.73l-48.99-28.28" fill="none" stroke="#676767" stroke-dasharray="0 0 3.46 6.92" stroke-miterlimit="10" stroke-width="1.06"/>
        <line x1="242.99" y1="57.31" x2="241.57" y2="56.49" fill="none" stroke="#676767" stroke-miterlimit="10" stroke-width="1.06"/>
        <path d="M249.75,55.76c.01.27-.2.5-.47.51l-7.52.33,3.48,6.67c.13.24.03.54-.21.66-.24.13-.54.03-.66-.21l-3.83-7.36c-.08-.15-.07-.33.01-.47.08-.15.24-.24.4-.25l8.29-.36c.1,0,.19.02.27.07.14.08.24.23.25.4" fill="#676767" stroke-width="0"/>
        <line x1="118.96" y1="91.16" x2="120.38" y2="91.98" fill="none" stroke="#676767" stroke-miterlimit="10" stroke-width="1.06"/>
        <line x1="126.09" y1="95.27" x2="183.15" y2="128.22" fill="none" stroke="#676767" stroke-dasharray="0 0 3.55 7.11" stroke-miterlimit="10" stroke-width="1.06"/>
        <line x1="186" y1="129.87" x2="187.42" y2="130.69" fill="none" stroke="#676767" stroke-miterlimit="10" stroke-width="1.06"/>
        <line x1="76.41" y1="117.23" x2="76.41" y2="28.27" fill="none" stroke="#676767" stroke-dasharray="0 0 8.49 8.49" stroke-miterlimit="10" stroke-width="1.06"/>
        <line x1="90.65" y1="193.38" x2="124.78" y2="213.09" fill="none" stroke="#676767" stroke-dasharray="0 0 13.38 0" stroke-miterlimit="10" stroke-width="1.06"/>
        <line x1="97.11" y1="215.86" x2="106.81" y2="210.22" fill="none" stroke="#676767" stroke-miterlimit="10" stroke-width="1.06"/>
        <line x1="117.42" y1="204.05" x2="133.33" y2="194.79" fill="none" stroke="#676767" stroke-dasharray="0 0 13.23 13.23" stroke-miterlimit="10" stroke-width="1.06"/>
        <line x1="138.64" y1="191.7" x2="148.34" y2="186.06" fill="none" stroke="#676767" stroke-miterlimit="10" stroke-width="1.06"/>
        <line x1="269.6" y1="218.09" x2="305.49" y2="197.26" fill="none" stroke="#676767" stroke-dasharray="0 0 7.07 7.07" stroke-miterlimit="10" stroke-width="1.06"/>
        <polygon points="104.51 16.14 95.52 21.37 86.48 16.14 95.46 10.92 104.51 16.14" fill="#d8d8d8" stroke-width="0"/>
        <polygon points="104.51 16.14 104.48 26.85 95.49 32.07 95.52 21.37 104.51 16.14" fill="#bbb" stroke-width="0"/>
        <polygon points="95.52 21.36 95.49 32.07 86.45 26.85 86.48 16.14 95.52 21.36" fill="#cacaca" stroke-width="0"/>
        <path d="M299.29,191.42c-.95-.55-2.26-.47-3.71.36-2.88,1.66-5.21,5.69-5.2,9,0,1.64.59,2.8,1.52,3.34l4.89,2.84c-.94-.54-1.52-1.7-1.52-3.34,0-3.31,2.32-7.34,5.2-9,1.45-.84,2.76-.91,3.71-.36l-4.89-2.84Z" fill="#d8d8d8" stroke-width="0"/>
        <path d="M300.47,194.63c2.88-1.66,5.22-.33,5.23,2.98,0,3.31-2.32,7.34-5.2,9-2.88,1.66-5.22.33-5.23-2.98,0-3.31,2.32-7.34,5.2-9" fill="#bbb" stroke-width="0"/>
        <line x1="300.49" y1="198.64" x2="313.86" y2="206.46" fill="none" stroke="#676767" stroke-dasharray="0 0 8.49 8.49" stroke-miterlimit="10" stroke-width="1.06"/>
        <line x1="296.89" y1="206.31" x2="310.29" y2="214.2" fill="none" stroke="#676767" stroke-dasharray="0 0 8.49 8.49" stroke-miterlimit="10" stroke-width="1.06"/>
        <line x1="95.52" y1="27.12" x2="95.52" y2="23.18" fill="none" stroke="#676767" stroke-miterlimit="10" stroke-width="1.06"/>
        <line x1="95.52" y1="19.14" x2="95.52" y2="13.07" fill="none" stroke="#676767" stroke-dasharray="0 0 4.36 4.36" stroke-miterlimit="10" stroke-width="1.06"/>
        <line x1="95.52" y1="11.04" x2="95.52" y2="7.11" fill="none" stroke="#676767" stroke-miterlimit="10" stroke-width="1.06"/>
        <line x1="104.51" y1="19.18" x2="104.51" y2="6.85" fill="none" stroke="#676767" stroke-dasharray="0 0 8.49 8.49" stroke-miterlimit="10" stroke-width="1.06"/>
        <polygon points="84.73 177.38 94.31 182.91 89.49 189.68 84.73 177.38" fill="#eedc10" stroke-width="0"/>
        <polygon points="84.73 177.38 93.97 172 103.56 177.54 94.31 182.91 84.73 177.38" fill="#f7eb17" stroke-width="0"/>
        <line x1="94.79" y1="171.93" x2="74.36" y2="183.57" fill="none" stroke="#676767" stroke-dasharray="0 0 8.49 8.49" stroke-miterlimit="10" stroke-width="1.06"/>
        <polygon points="94.31 182.91 103.56 177.54 98.74 184.31 89.49 189.68 94.31 182.91" fill="#dbcb24" stroke-width="0"/>
      </g>
    </g>
  </g>
</svg>