<?xml version="1.0" encoding="UTF-8"?>
<svg id="_export_" xmlns="http://www.w3.org/2000/svg" xmlns:xlink="http://www.w3.org/1999/xlink" viewBox="0 0 316 207">
  <defs>
    <clipPath id="clippath">
      <rect x="-336.26" y=".36" width="315.26" height="289.07" fill="none" stroke-width="0"/>
    </clipPath>
    <clipPath id="clippath-1">
      <polygon points="-105.18 131.4 -190.86 182.4 -190.86 284.4 -76.6 284.41 180.45 131.4 -105.18 131.4" fill="none" stroke-width="0"/>
    </clipPath>
    <linearGradient id="linear-gradient" x1="-2301.55" y1="-831.51" x2="-2300.55" y2="-831.51" gradientTransform="translate(854400.99 -308541.95) scale(371.31 -371.31)" gradientUnits="userSpaceOnUse">
      <stop offset="0" stop-color="#c4c4c4"/>
      <stop offset=".04" stop-color="#cbcbcb"/>
      <stop offset=".17" stop-color="#e2e2e2"/>
      <stop offset=".32" stop-color="#f2f2f2"/>
      <stop offset=".48" stop-color="#fbfbfb"/>
      <stop offset=".7" stop-color="#fff"/>
      <stop offset="1" stop-color="#fff"/>
    </linearGradient>
    <clipPath id="clippath-3">
      <rect x=".04" y=".49" width="317.03" height="206.73" fill="none" stroke-width="0"/>
    </clipPath>
    <clipPath id="clippath-4">
      <polygon points="31.93 118.55 48.66 128.21 84.01 106.98 67.29 97.32 31.93 118.55" fill="none" stroke-width="0"/>
    </clipPath>
    <linearGradient id="linear-gradient-2" x1="-2312.04" y1="-758.67" x2="-2311.22" y2="-758.67" gradientTransform="translate(-83574 27563.23) rotate(-180) scale(36.18 -36.18)" gradientUnits="userSpaceOnUse">
      <stop offset="0" stop-color="#d9dbdc"/>
      <stop offset=".33" stop-color="#dcdedf"/>
      <stop offset=".65" stop-color="#e8e9e9"/>
      <stop offset=".95" stop-color="#fbfbfb"/>
      <stop offset="1" stop-color="#fff"/>
    </linearGradient>
    <clipPath id="clippath-5">
      <polygon points="134.88 106.25 151.6 115.91 186.96 94.67 170.23 85.01 134.88 106.25" fill="none" stroke-width="0"/>
    </clipPath>
    <linearGradient id="linear-gradient-3" x1="-2311.67" y1="-759.19" x2="-2310.85" y2="-759.19" gradientTransform="translate(-83457.52 27569.85) rotate(-180) scale(36.18 -36.18)" gradientUnits="userSpaceOnUse">
      <stop offset="0" stop-color="#d9dbdc"/>
      <stop offset="1" stop-color="#fff"/>
    </linearGradient>
    <clipPath id="clippath-6">
      <polygon points="177.42 182.63 194.15 192.29 210.87 201.94 246.23 180.71 229.5 171.05 212.78 161.39 177.42 182.63" fill="none" stroke-width="0"/>
    </clipPath>
    <linearGradient id="linear-gradient-4" x1="-2311.9" y1="-760.51" x2="-2311.08" y2="-760.51" gradientTransform="translate(-84400.25 28023.06) rotate(-180) scale(36.61 -36.61)" xlink:href="#linear-gradient-3"/>
    <clipPath id="clippath-7">
      <polygon points="47.69 187.47 64.41 197.13 99.77 175.9 83.04 166.24 47.69 187.47" fill="none" stroke-width="0"/>
    </clipPath>
    <linearGradient id="linear-gradient-5" x1="-2312.37" y1="-758.96" x2="-2311.55" y2="-758.96" gradientTransform="translate(-83570.11 27642.7) rotate(-180) scale(36.18 -36.18)" xlink:href="#linear-gradient-3"/>
  </defs>
  <g clip-path="url(#clippath)">
    <g clip-path="url(#clippath-1)">
      <rect x="-190.86" y="131.4" width="371.31" height="153.02" fill="url(#linear-gradient)" stroke-width="0"/>
    </g>
  </g>
  <g clip-path="url(#clippath-3)">
    <g>
      <g clip-path="url(#clippath-4)">
        <rect x="31.91" y="82.51" width="52.13" height="60.52" transform="translate(-68.78 109.38) rotate(-61.26)" fill="url(#linear-gradient-2)" stroke-width="0"/>
      </g>
      <g clip-path="url(#clippath-5)">
        <rect x="134.85" y="70.2" width="52.13" height="60.52" transform="translate(-4.54 193.25) rotate(-61.26)" fill="url(#linear-gradient-3)" stroke-width="0"/>
      </g>
      <g clip-path="url(#clippath-6)">
        <rect x="177.51" y="141.75" width="68.64" height="79.83" transform="translate(-49.31 280.05) rotate(-61.26)" fill="url(#linear-gradient-4)" stroke-width="0"/>
      </g>
      <polygon points="167.71 177.49 165.95 176.47 164.35 177.4 166.11 178.41 167.71 177.49" fill="#f7eb17" stroke-width="0"/>
      <polygon points="162.66 182.29 160.82 181.32 159.46 182.15 161.22 183.17 162.66 182.29" fill="#f7eb17" stroke-width="0"/>
      <g>
        <path d="M169.97,175.57c-.43.29-.84.58-1.28.86l1.84.97c.46-.3.9-.61,1.36-.91l-1.92-.92Z" fill="#f7eb17" stroke-width="0"/>
        <path d="M160.13,190.19l1.92.92c.44-.31.85-.64,1.28-.95l-2-.86c-.4.3-.79.6-1.21.89" fill="#f7eb17" stroke-width="0"/>
        <path d="M171.64,171.84l.46-.54-2.25-.62-.43.51c-.14.17-.29.34-.45.5l2.19.68c.17-.17.33-.35.48-.53" fill="#f7eb17" stroke-width="0"/>
        <polygon points="165.51 181.94 167.11 181.01 165.34 180 163.75 180.92 165.51 181.94" fill="#f7eb17" stroke-width="0"/>
        <polygon points="171.79 189.23 170.19 190.16 171.95 191.18 173.55 190.25 171.79 189.23" fill="#f7eb17" stroke-width="0"/>
        <polygon points="165.47 183.91 167.24 184.93 168.92 183.91 167.07 182.94 165.47 183.91" fill="#f7eb17" stroke-width="0"/>
        <path d="M174.34,186.18l-1.92-.92c-.51.34-1,.69-1.52,1.02l1.84.97c.54-.35,1.06-.71,1.6-1.07" fill="#f7eb17" stroke-width="0"/>
        <polygon points="176.06 180.32 174.39 181.34 176.15 182.36 177.91 181.29 176.06 180.32" fill="#f7eb17" stroke-width="0"/>
        <path d="M176.73,187.33l1.85.97c.57-.37,1.12-.75,1.67-1.13l-1.92-.92c-.53.36-1.05.72-1.6,1.07" fill="#f7eb17" stroke-width="0"/>
        <path d="M181.61,183.56l1.92.92c.55-.38,1.05-.78,1.58-1.17l-2-.86c-.5.37-.98.75-1.51,1.12" fill="#f7eb17" stroke-width="0"/>
        <path d="M165.95,192.9c-.22.2-.43.4-.67.6l2.07.8c.25-.2.47-.41.7-.62l.68-.63-2.13-.74-.65.6Z" fill="#f7eb17" stroke-width="0"/>
        <path d="M191.1,172.19c-.18.21-.36.43-.56.63l2.2.68c.21-.22.4-.44.59-.66l.57-.67-2.25-.62-.54.64Z" fill="#f7eb17" stroke-width="0"/>
        <path d="M190.91,165.38c.08-.24.11-.49.17-.74l.15-.74c.09-.49.13-.99.19-1.48.04-.49.04-.99.07-1.49,0-.5-.04-.99-.06-1.49-.04-.49-.12-.99-.18-1.48-.09-.49-.2-.99-.31-1.48-.13-.49-.29-.98-.43-1.47l-.55-1.45-.68-1.44-.8-1.42-.92-1.39-1.04-1.37-1.15-1.34-1.26-1.3-1.37-1.26-1.48-1.22c-.52-.4-1.05-.79-1.58-1.18-.55-.38-1.11-.76-1.67-1.13-.57-.37-1.18-.72-1.76-1.08-.21-.13-.4-.24-.58-.34-.04-.02-.08-.05-.13-.07-.04-.02-.08-.05-.12-.07l-.81-.46-1.61-.93-1.61-.93-1.61-.93-1.61-.93-1.61-.93-1.61-.93-1.61-.93-1.61-.93-1.61-.93-1.61-.93-1.61-.93-1.32-.76-.29-.16-1.49-.86-.12-.07-1.61-.93h-.01s-1.74,1.02-1.74,1.02l-.33-.19-.32-.19-.95-.55.18-.1,1.57-.91-.22-.13-1.39-.8-.39-.23-1.22-.7-.57-.33-1.04-.6-1.61-.93-1.61-.93-1.61-.93-1.61-.93-1.61-.93-1.61-.93-1.61-.93-.4-.23-.2-.12-.17-.1-.68-.41c-.22-.14-.46-.27-.68-.41l-.64-.43c-.21-.14-.43-.29-.64-.43l-.6-.45-.61-.45-.56-.47-.57-.47-.52-.48-.52-.48c-.17-.16-.32-.33-.48-.5l-.48-.5c-.15-.17-.29-.34-.44-.51l-.44-.51c-.14-.17-.26-.35-.4-.52l-.39-.52c-.13-.17-.23-.35-.35-.53l-.35-.53c-.11-.18-.2-.36-.31-.54l-.31-.54c-.09-.18-.17-.37-.26-.55l-.26-.55-.21-.55-.21-.56-.17-.56-.17-.56-.12-.56-.12-.57-.07-.57c-.02-.19-.05-.38-.07-.57l-.03-.57c0-.19-.02-.38-.02-.57l.02-.57c0-.19,0-.38.03-.57l.07-.57c.03-.19.03-.38.07-.57l.12-.57c.04-.19.06-.38.12-.56l.16-.56c.09-.38.24-.74.38-1.12.12-.37.31-.73.47-1.1.15-.37.37-.73.57-1.09.12-.23.26-.46.41-.69l-1.11-.64-.13-.07-.7-.4-.73-.42-1.18-.68-.38-.22-1.05-.61-.47-.27-.03-.02-1.55-.9-.29-.17-1.26-.73-.6-.35c-.32.37-.63.74-.9,1.12-.34.46-.69.91-.98,1.37-.3.47-.62.93-.86,1.4-.26.47-.53.94-.74,1.42-.22.48-.45.96-.62,1.44-.18.48-.37.97-.5,1.46l-.21.73c-.08.24-.11.49-.17.74l-.15.74c-.05.25-.07.49-.1.74l-.09.74c-.03.25-.03.5-.04.74l-.03.74c0,.25.02.5.03.74l.04.74c.02.25.06.5.09.74l.09.74.15.74.16.74.21.73.22.73.28.73.28.73.34.72c.11.24.22.48.34.72l.4.71c.14.24.26.47.41.71l.46.7c.16.23.3.47.47.7l.51.68c.18.23.34.46.53.68l.57.67c.19.22.38.45.58.67l.63.65c.21.22.42.44.64.65l.68.63c.23.21.46.42.69.63l.74.61.74.61.79.59.79.59c.27.19.56.38.84.57l.84.56c.28.19.59.36.88.54l.89.54.22.14.2.12.4.23,1.61.93,1.61.93,1.61.93,1.61.93,1.61.93,1.31.76.3.17,1.38.8.22.13.08.04,1.53.89.41.24,1.19.69.68.39.06.03.87.5,1.04.6.57.33,1.33.77.28.16,1.61.93,1.75-1.02,1.61.93-1.75,1.02,1.61.93,1.61.93,1.61.93,1.61.93,1.61.93,1.61.93,1.61.93,1.61.93,1.61.93,1.61.93,1.61.93.8.46c.12.07.25.14.37.21.14.08.28.16.39.23.45.28.92.55,1.35.83.42.29.86.57,1.28.87l1.21.9,1.13.93,1.05.96.96.99.88,1.02.79,1.04.7,1.06.61,1.08.52,1.1.42,1.11.33,1.12c.08.38.16.75.24,1.13.04.38.11.76.14,1.14.01.38.04.76.05,1.14-.02.38-.02.76-.05,1.14-.05.38-.08.76-.15,1.14l-.11.56c-.04.19-.06.38-.13.56l-.16.56c-.06.19-.1.38-.17.56l-.21.56c-.07.19-.13.37-.22.55l-.25.55c-.08.18-.16.37-.27.55l-.3.54c-.1.18-.2.36-.32.54l-.34.53c-.11.18-.23.36-.36.53l-.39.52c-.13.17-.26.35-.41.52l2.25.62-.46.54c-.15.18-.3.36-.48.53l-2.19-.68-.47.49c-.16.17-.31.33-.49.49l-.52.48c-.17.16-.34.32-.53.48l-.56.47c-.19.15-.36.32-.57.46l2,.86c-.43.31-.84.64-1.28.95l1.92.92c-.48.32-.95.65-1.44.97l-1.84-.97-1.44.88-1.6.93,1.76,1.02,1.6-.93,1.76,1.02,1.6-.98c.52-.33,1.01-.68,1.52-1.02l1.92.92c.52-.36,1-.74,1.51-1.12l2,.86c.27-.19.5-.4.75-.6l.73-.61-2.07-.8c.24-.19.45-.39.67-.6l.65-.6,2.13.74c.23-.21.44-.43.65-.64l.62-.65-2.19-.68c.2-.2.38-.42.56-.63l.54-.64,2.25.62c.2-.22.36-.45.53-.68l.51-.68c.18-.23.33-.46.48-.69l.45-.7c.16-.23.29-.47.41-.7l.39-.71c.14-.24.24-.47.35-.71l.33-.72c.12-.24.2-.48.29-.72l.27-.73c.1-.24.16-.49.23-.73l.21-.73ZM184.11,169.53c-.12.21-.24.43-.38.64l-2.34-.49c.13-.2.24-.4.35-.6l.33-.61,2.38.42-.35.64ZM142,125.73l.22-.13.77-.45.76-.44.47.27,1.14.66-1.24.72-.51.29-1.61-.93ZM170.23,142.03h0c.24.14.48.28.71.42-.23-.14-.47-.28-.71-.42M188.99,160.92h-2.49c0-.46-.04-.9-.05-1.35l2.48-.06c.02.47.05.95.05,1.42M177.85,176.72c-.22.18-.43.37-.68.55l-2-.86c.23-.17.43-.34.64-.52l.63-.52,2.07.8-.66.55Z" fill="#f7eb17" stroke-width="0"/>
        <polygon points="185.74 37.13 187.51 38.15 189.11 37.22 187.34 36.2 185.74 37.13" fill="#f7eb17" stroke-width="0"/>
        <polygon points="192.28 35.35 190.52 34.33 188.92 35.26 190.68 36.28 192.28 35.35" fill="#f7eb17" stroke-width="0"/>
        <polygon points="187.7 29.93 185.94 28.91 184.34 29.84 186.1 30.86 187.7 29.93" fill="#f7eb17" stroke-width="0"/>
        <polygon points="206.02 30.72 204.26 29.7 202.66 30.63 204.43 31.65 206.02 30.72" fill="#f7eb17" stroke-width="0"/>
        <polygon points="210.38 34.16 208.61 33.14 207.01 34.07 208.78 35.09 210.38 34.16" fill="#f7eb17" stroke-width="0"/>
        <polygon points="207.06 41.1 208.82 42.12 210.42 41.19 208.66 40.17 207.06 41.1" fill="#f7eb17" stroke-width="0"/>
        <polygon points="209.88 36.25 208.12 35.23 206.52 36.16 208.28 37.18 209.88 36.25" fill="#f7eb17" stroke-width="0"/>
        <polygon points="212.99 30.87 211.23 29.85 209.63 30.78 211.4 31.8 212.99 30.87" fill="#f7eb17" stroke-width="0"/>
        <polygon points="216.51 32.9 214.75 31.88 213.15 32.81 214.92 33.83 216.51 32.9" fill="#f7eb17" stroke-width="0"/>
        <polygon points="200.89 44.95 202.66 45.97 204.25 45.04 202.49 44.02 200.89 44.95" fill="#f7eb17" stroke-width="0"/>
        <path d="M206.15,37.8l-1.6.93-1.76-1.02,1.6-.93,1.6-.93-1.76-1.02-1.76-1.02,1.6-.93-1.76-1.02-1.6.93-1.6.93-1.6.93-1.6.93,1.76,1.02-1.6.93-1.76-1.02-1.6.93-1.6.93,1.76,1.02-1.6.93-1.76-1.02-1.6.93-.88.51-.72.42.99.57.78.45-1.03.6-.56.33-.78-.45-.99-.57-1.19.69-.41.24-1.34.78-.26.15-1.5.87-.1.06-1.6.93-.05.03-1.55.9-1.6.93-1.6.93-1.6.93-1.6.93-1.6.93-1.6.93-1.6.93-1.6.93-1.6.93-1.6.93-1.6.93-1.6.93-1.6.93-1.6.93-1.6.93-1.6.93-1.6.93-1.6.93-1.6.93-1.6.93-1.6.93-1.6.93-1.6.93-1.6.93-1.6.93-1.6.93-1.6.93-1.6.93-1.6.93-1.6.93-1.6.93-1.6.93-.8.46-.88.54-.88.54c-.29.18-.56.37-.84.56l-.37.25.87.5.9.52.66.38,1.11.64.44.26,1.33.77.23.13,1.54.89h.01s1.55.9,1.55.9l.21.12c.1-.08.2-.15.31-.22l.64-.43c.21-.14.42-.29.64-.43l.68-.41.67-.41.8-.47,1.6-.93,1.6-.93,1.6-.93,1.6-.93,1.6-.93,1.6-.93,1.6-.93,1.6-.93,1.6-.93,1.6-.93,1.6-.93,1.6-.93,1.6-.93,1.6-.93,1.6-.93,1.6-.93,1.6-.93,1.6-.93,1.6-.93,1.6-.93,1.6-.93,1.6-.93,1.6-.93,1.6-.93,1.6-.93,1.6-.93,1.6-.93,1.6-.93,1.6-.93,1.6-.93,1.6-.93,1.6-.93,1.55-.9.05-.03,1.6-.93.1-.06,1.5-.87.26-.15,1.34-.78.41-.24,1.19-.69.56-.33,1.03-.6-.06-.03-1.55-.9-.15-.09.72-.42.88-.51,1.76,1.02,1.6-.93-1.76-1.02,1.6-.93,1.76,1.02,1.6-.93,1.6-.93,1.6-.93,1.6-.93,1.6-.93-1.76-1.02ZM200.85,34.74l1.76,1.02-1.6.93-1.77-1.02,1.6-.93ZM185.61,46.31l1.19.69-1.5.87-.1.06-1.19-.69-.57-.33.1-.06,1.5-.87.57.33ZM192.32,43.79l-.72.42-1.03.6-.56.33-1.76-1.02.56-.33,1.03-.6.72-.42.88-.51,1.76,1.02-.88.51ZM194.63,40.41l1.6-.93,1.76,1.02-1.6.93-1.76-1.02ZM201.35,40.59l-1.76-1.02,1.6-.93,1.76,1.02-1.6.93Z" fill="#f7eb17" stroke-width="0"/>
        <polygon points="215.73 36.32 214.48 37.05 212.83 36.1 211.23 37.03 212.99 38.05 214.25 37.32 215.9 38.27 217.5 37.34 215.73 36.32" fill="#f7eb17" stroke-width="0"/>
        <path d="M142.75,130.23l-1.04-.6-.87-.5-.06-.04-.68-.39-1.19-.69-.41-.24-1.53-.89-.08-.04-.23-.13-1.38-.8-.3-.17c-.36.07-.72.13-1.09.18l-1.05.17c-.35.05-.71.09-1.07.14-.36.04-.71.09-1.07.13l-1.08.1c-.71.08-1.44.12-2.16.17-.18.01-.36.03-.54.04l-.55.02-1.09.04c-.73.02-1.46.02-2.19.04l-1.09-.02c-.37,0-.73,0-1.1-.02l-1.09-.05-.55-.02-.54-.04-1.09-.08c-.36-.02-.72-.07-1.08-.1l-1.08-.11-1.07-.14c-.36-.05-.72-.08-1.07-.14l-1.06-.17-.53-.08c-.17-.03-.35-.06-.52-.1l-1.04-.19c-.35-.06-.69-.14-1.03-.21l-1.02-.22c-.67-.16-1.34-.33-2.01-.5l-.98-.28c-.32-.1-.66-.18-.97-.29l-.95-.31-.48-.15-.46-.17c-.61-.23-1.25-.44-1.84-.69l-.9-.36c-.3-.12-.58-.26-.87-.38l-.87-.39-.83-.41c-.28-.14-.56-.27-.83-.41l-.79-.44-.4-.22c-.12-.06-.23-.12-.36-.2-.02-.01-.04-.02-.06-.04l-.9-.52-1.79-1.03-1.79-1.03-1.79-1.03-1.79-1.03-1.79-1.03-1.79-1.03-1.79-1.03-1.79-1.03-1.79-1.03-1.75,1.02-1.79-1.03,1.75-1.02-1.79-1.03-1.79-1.03-1.79-1.03-1.79-1.03-1.75,1.02-1.79-1.03,1.75-1.02-1.79-1.03-1.79-1.03-1.75,1.02-1.79-1.03,1.75-1.02-1.79-1.03-1.79-1.03-1.79-1.03-1.79-1.03-1.79-1.03-1.79-1.03-1.79-1.03-1.79-1.03-1.79-1.03-1.79-1.03-1.79-1.03-1.79-1.03-1.79-1.03-1.79-1.03-1.79-1.03-1.79-1.03-1.79-1.03-1.79-1.03-1.75,1.02-1.79-1.03-1.79-1.03-1.75,1.02,1.79,1.03-1.62.94-1.56-.9-1.75,1.02,1.79,1.03,1.62-.94,1.55.9,1.75-1.02,1.79,1.03-1.75,1.02-1.79-1.03-1.75,1.02,1.79,1.03-1.75,1.02,1.79,1.03,1.75-1.02,1.79,1.03-1.75,1.02,1.79,1.03,1.79,1.03,1.79,1.03,1.79,1.03,1.79,1.03,1.79,1.03,1.79,1.03,1.79,1.03,1.79,1.03,1.79,1.03,1.79,1.03,1.79,1.03,1.79,1.03,1.79,1.03,1.75-1.02,1.79,1.03,1.79,1.03,1.79,1.03-1.75,1.02,1.79,1.03,1.75-1.02,1.75-1.02,1.79,1.03-1.75,1.02,1.79,1.03,1.79,1.03-1.75,1.02,1.79,1.03,1.75-1.02,1.79,1.03,1.79,1.03-1.75,1.02,1.79,1.03,1.79,1.03,1.79,1.03,1.79,1.03,1.79,1.03,1.79,1.03,1.79,1.03,1.79,1.03,1.79,1.03.9.52s.04.02.06.04c.13.07.28.16.43.24l.52.29,1.04.57c.35.19.72.36,1.09.54l1.09.54,1.13.51c.38.17.75.34,1.14.5l1.18.47c.77.32,1.6.61,2.41.9l.61.22.63.2,1.25.4c.41.14.85.25,1.28.38l1.29.37c.87.23,1.75.45,2.63.66l1.34.29c.45.09.89.2,1.35.28l1.36.26c.23.04.46.09.68.12l.69.11,1.38.21c.46.08.93.12,1.39.19l1.4.18,1.41.14c.47.04.94.1,1.42.13l1.42.1.71.05.71.03,1.43.06c.48.02.95.02,1.43.03l1.43.02c.95-.01,1.91-.02,2.86-.04l1.43-.06.71-.03c.24-.01.47-.03.71-.05.95-.07,1.9-.12,2.83-.22l1.41-.14c.47-.05.93-.12,1.4-.17.46-.06.93-.11,1.39-.18l1.38-.21c.93-.13,1.83-.32,2.73-.48.23-.04.46-.08.68-.13l.67-.15,1.34-.29c.67-.15,1.32-.32,1.98-.49l-1.33-.77-.57-.33ZM34.64,89.33l1.79,1.03-1.75,1.02-1.79-1.03,1.75-1.02ZM31.02,85.21l1.79,1.03-1.75,1.02-1.79-1.03,1.75-1.02Z" fill="#2b2b2b" stroke-width="0"/>
        <polygon points="60.87 116.04 62.66 117.07 64.42 116.05 62.62 115.02 60.87 116.04" fill="#2b2b2b" stroke-width="0"/>
        <polygon points="59.8 109.76 58.05 110.78 59.84 111.81 61.59 110.8 59.8 109.76" fill="#2b2b2b" stroke-width="0"/>
        <polygon points="50.87 113.33 52.66 114.36 54.41 113.34 52.62 112.31 50.87 113.33" fill="#2b2b2b" stroke-width="0"/>
        <polygon points="50.66 104.92 48.91 105.94 50.7 106.97 52.45 105.95 50.66 104.92" fill="#2b2b2b" stroke-width="0"/>
        <polygon points="13.15 86.95 14.94 87.98 16.7 86.96 14.91 85.93 13.15 86.95" fill="#2b2b2b" stroke-width="0"/>
        <polygon points="18.64 86.19 20.43 87.22 22.18 86.2 20.39 85.17 18.64 86.19" fill="#2b2b2b" stroke-width="0"/>
        <polygon points="9.45 82.78 11.24 83.81 12.99 82.79 11.2 81.76 9.45 82.78" fill="#2b2b2b" stroke-width="0"/>
        <polygon points="17.12 81.25 15.37 82.27 17.16 83.31 18.91 82.29 17.12 81.25" fill="#2b2b2b" stroke-width="0"/>
        <polygon points="37.67 80.17 35.88 79.14 34.13 80.16 35.92 81.19 37.67 80.17" fill="#2b2b2b" stroke-width="0"/>
        <polygon points="19.93 80.19 18.14 79.16 16.38 80.18 18.17 81.21 19.93 80.19" fill="#2b2b2b" stroke-width="0"/>
        <polygon points="43.71 84.06 41.92 83.03 40.17 84.04 41.96 85.08 43.71 84.06" fill="#2b2b2b" stroke-width="0"/>
        <polygon points="143.75 124.71 142.99 125.16 142.22 125.61 142 125.73 143.61 126.66 144.11 126.37 145.36 125.64 144.22 124.98 143.75 124.71" fill="#2b2b2b" stroke-width="0"/>
        <polygon points="29.64 78.75 27.85 77.72 26.1 78.74 27.89 79.77 29.64 78.75" fill="#2b2b2b" stroke-width="0"/>
        <polygon points="26.03 77.68 24.24 76.65 22.48 77.67 24.27 78.7 26.03 77.68" fill="#2b2b2b" stroke-width="0"/>
        <polygon points="292.41 147.83 294.21 148.86 295.96 147.84 294.17 146.81 292.41 147.83" fill="#2b2b2b" stroke-width="0"/>
        <polygon points="292.19 140.94 290.43 141.96 292.23 142.99 293.98 141.97 292.19 140.94" fill="#2b2b2b" stroke-width="0"/>
        <polygon points="281.56 139.86 283.35 140.89 285.11 139.87 283.32 138.84 281.56 139.86" fill="#2b2b2b" stroke-width="0"/>
        <path d="M252.55,115.67l.17-.15.61-.51-.25-.1-1.81-.71-.51.43-.06.05-.29.24c-.1.08-.2.15-.31.23l1.47.64.53.23c.11-.08.22-.16.32-.24l.13-.11Z" fill="#2b2b2b" stroke-width="0"/>
        <path d="M248.67,113.85l.3-.25.24-.2.27-.22c.09-.08.17-.15.25-.23l.5-.47s.08-.07.12-.11c.01-.01.02-.02.03-.03.28-.26.53-.54.79-.81.15-.15.29-.31.43-.46.15-.17.29-.34.44-.51.14-.17.29-.33.41-.49l.28-.37.1-.13c.12-.17.25-.33.37-.51l.33-.51.11-.16.09-.14-1.71-.99-1.79-1.03-.22-.13-.11-.07-.13-.07-.52-.29-1.04-.57c-.34-.19-.72-.37-1.08-.55l-1.09-.54c-.74-.35-1.51-.68-2.26-1.02-.79-.32-1.56-.64-2.36-.94l-1.22-.44c-.41-.15-.81-.3-1.23-.43l-1.25-.4-.63-.2-.64-.18c-.86-.24-1.71-.5-2.59-.71l-1.32-.33c-.44-.1-.89-.2-1.34-.3-.45-.1-.89-.2-1.34-.29l-1.37-.26c-.9-.18-1.83-.31-2.75-.45-.46-.08-.93-.14-1.39-.19l-1.4-.18c-.94-.11-1.88-.19-2.82-.28l-1.42-.1c-.47-.03-.95-.07-1.42-.09l-1.43-.06-.71-.03h-.72s-1.43-.03-1.43-.03c-.48-.01-.95,0-1.43,0l-1.43.02-1.43.06c-.48.02-.95.03-1.42.07l-1.42.1-.71.05-.71.07-1.41.14c-.47.04-.94.11-1.4.16l-1.4.18c-.92.14-1.84.28-2.76.44l-1.36.25c-.45.08-.91.17-1.35.27-.89.2-1.79.38-2.66.61l-1.31.33c-.44.11-.86.24-1.29.36l-1.28.37-1.25.4c-.42.14-.84.26-1.24.41l-1.21.44c-.82.28-1.59.61-2.37.93l-.58.24-.56.25-1.13.51c-.38.17-.74.35-1.1.53l-1.08.54c-.71.37-1.38.76-2.07,1.14l-1.79,1.04,1.76,1.02-1.78,1.03-1.76-1.02-1.57.91-.21.12-1.54.9-.24.14-1.51.88-.27.15-1.49.86-.29.17-1.46.85-.32.18-1.78,1.03-1.78,1.03-1.78,1.03-1.78,1.03-1.78,1.03-1.78,1.03-.89.52-.8.44-.79.44-.83.41c-.28.13-.55.28-.83.41l-.86.39c-.25.12-.52.23-.78.34l.57.33,1.22.7.39.23,1.39.8.22.13-1.57.91-.18.1.95.55.32.19.33.19,1.74-1.01h.01s1.61.92,1.61.92l.12.07,1.49.86.29.16.6-.27c.37-.17.73-.36,1.09-.53l1.08-.54,1.03-.57,1.02-.57.89-.52,1.78-1.03,1.78-1.03,1.78-1.03,1.78-1.03,1.78-1.03,1.78-1.03.32-.18,1.46-.85.29-.17,1.49-.87.26-.15,1.51-.88.24-.14,1.54-.9-.85-.49-.92-.53.21-.12,1.57-.91.92.53.85.49.19-.11,1.59-.93,1.77-1.03c.53-.29,1.05-.59,1.59-.87l.83-.41c.28-.14.55-.28.84-.4l.86-.39.43-.19.45-.18c.6-.24,1.18-.49,1.81-.71l.93-.34c.31-.11.63-.21.95-.31l.95-.31.98-.28c.33-.09.64-.19.98-.27l1-.25c.66-.18,1.35-.31,2.03-.46.34-.08.69-.14,1.03-.2l1.04-.2c.7-.12,1.4-.22,2.11-.33l1.07-.13c.36-.04.71-.1,1.07-.13l1.08-.11.54-.05.54-.04,1.09-.08c.36-.03.73-.03,1.09-.05l1.09-.05h1.09c.36-.01.73-.03,1.09-.02l1.09.02h.55s.55.03.55.03l1.09.04c.36,0,.72.04,1.09.07l1.09.08c.72.07,1.44.13,2.16.21l1.07.14c.35.04.71.09,1.06.15.7.11,1.41.21,2.1.35l1.04.19c.34.07.68.15,1.02.22.34.08.68.15,1.02.22l1,.25c.68.16,1.32.35,1.98.54l.49.14.48.15.96.31c.32.1.63.22.94.33l.93.33c.61.23,1.2.48,1.8.72.57.26,1.16.51,1.73.78l.83.41c.27.14.56.27.82.42l.8.44.4.22.1.05.11.07.22.13,1.79,1.03,1.79,1.03,1.79,1.03.64.37s.04-.03.06-.04l.58-.43c.1-.07.2-.14.29-.22l.27-.23ZM243.05,110.19s.04.03.06.04c-.02-.01-.04-.02-.07-.04-.03-.02-.06-.04-.09-.05.03.02.06.04.1.05M168.74,111.99l1.51-.88,1.55.89.22.12-1.51.88-.27.15-.22-.13-1.55-.89.27-.15Z" fill="#2b2b2b" stroke-width="0"/>
        <polygon points="296.9 139.24 295.14 140.26 296.93 141.29 298.69 140.28 296.9 139.24" fill="#2b2b2b" stroke-width="0"/>
        <polygon points="298 143.54 299.79 144.58 301.55 143.56 299.76 142.52 298 143.54" fill="#2b2b2b" stroke-width="0"/>
        <polygon points="303.71 142.3 305.5 143.34 307.25 142.32 305.46 141.28 303.71 142.3" fill="#2b2b2b" stroke-width="0"/>
        <polygon points="296.86 137.19 295.11 138.21 296.9 139.24 298.65 138.22 296.86 137.19" fill="#2b2b2b" stroke-width="0"/>
        <polygon points="302.01 139.14 300.25 140.16 302.04 141.2 303.8 140.18 302.01 139.14" fill="#2b2b2b" stroke-width="0"/>
        <path d="M259.91,114.3c.1-.1.2-.2.29-.3.28-.3.53-.61.79-.92l-.8-.23-1.44-.41c-.14.16-.27.32-.41.48-.2.23-.4.46-.62.68l.76.24,1.42.45Z" fill="#2b2b2b" stroke-width="0"/>
        <polygon points="303.95 137.22 302.15 136.19 300.4 137.2 302.19 138.24 303.95 137.22" fill="#2b2b2b" stroke-width="0"/>
        <polygon points="307.98 134.88 306.19 133.84 304.43 134.86 306.23 135.9 307.98 134.88" fill="#2b2b2b" stroke-width="0"/>
        <path d="M300.36,135.15l-1.79-1.03-1.79-1.03-1.79-1.03-1.79-1.03-1.75,1.02-1.79-1.03,1.75-1.02-1.79-1.03-1.79-1.03-1.79-1.03-1.79-1.03-1.79-1.03-1.79-1.03-1.79-1.03-1.79-1.03-1.79-1.03-1.79-1.03-1.79-1.03-1.79-1.03-1.79-1.03-1.79-1.03-1.79-1.03-1.32-.76c-.36.43-.72.86-1.14,1.28-.02.02-.04.04-.06.06-.38.4-.75.8-1.18,1.18l-.11.1-.55.51c-.11.1-.22.2-.33.3l-.17.14-.18.15-.15.13-.56.47-.35.3c-.12.1-.25.19-.37.29l-.18.14-.58.43c-.25.19-.5.38-.77.56l-.59-.28-1.33-.64-.05.04,1.21.7,1.79,1.03,1.79,1.03,1.79,1.03,1.79,1.03,1.79,1.03,1.79,1.03,1.79,1.03,1.79,1.03,1.79,1.03,1.79,1.03,1.79,1.03,1.79,1.03,1.79,1.03,1.79,1.03,1.79,1.03,1.79,1.03,1.75-1.02,1.79,1.03,1.79,1.03-1.75,1.02,1.79,1.03,1.79,1.03,1.75-1.02-1.79-1.03,1.75-1.02,1.75-1.02,1.79,1.03,1.75-1.02,1.75-1.02ZM291.52,136.14l-1.79-1.03,1.75-1.02,1.75-1.02,1.79,1.03-1.75,1.02-1.75,1.02Z" fill="#2b2b2b" stroke-width="0"/>
        <polygon points="185.61 46.31 185.04 45.98 183.54 46.85 183.44 46.91 184.01 47.24 185.21 47.93 185.31 47.87 186.8 47 185.61 46.31" fill="#d7d7d7" stroke-width="0"/>
        <polygon points="170.25 111.11 168.74 111.99 168.47 112.15 170.02 113.04 170.23 113.16 170.5 113.01 172.01 112.13 171.8 112 170.25 111.11" fill="#d7d7d7" stroke-width="0"/>
        <polygon points="76.94 49.33 75.39 48.43 73.63 49.45 75.19 50.35 76.94 49.33" fill="#d7d7d7" stroke-width="0"/>
        <polygon points="78.72 52.3 77.17 51.41 75.42 52.42 76.97 53.32 78.72 52.3" fill="#d7d7d7" stroke-width="0"/>
        <polygon points="79.92 54.58 81.67 53.57 80.12 52.67 78.37 53.69 79.92 54.58" fill="#d7d7d7" stroke-width="0"/>
        <polygon points="81.31 54.71 82.87 55.61 84.62 54.59 83.06 53.69 81.31 54.71" fill="#d7d7d7" stroke-width="0"/>
        <polygon points="84.4 56.41 82.64 57.42 82.74 57.48 82.05 57.88 83.51 58.72 81.75 59.74 83.31 60.64 85.06 59.62 83.6 58.78 85.36 57.76 85.26 57.7 85.95 57.3 84.4 56.41" fill="#d7d7d7" stroke-width="0"/>
        <polygon points="86.05 55.56 87.6 56.45 89.36 55.44 87.8 54.54 86.05 55.56" fill="#d7d7d7" stroke-width="0"/>
        <polygon points="89.22 52.29 87.66 51.39 85.91 52.41 87.47 53.31 89.22 52.29" fill="#d7d7d7" stroke-width="0"/>
        <polygon points="86.44 58.93 87.99 59.83 89.74 58.81 88.19 57.91 86.44 58.93" fill="#d7d7d7" stroke-width="0"/>
        <polygon points="97.03 60.88 98.79 59.86 97.23 58.97 95.48 59.98 97.03 60.88" fill="#d7d7d7" stroke-width="0"/>
        <polygon points="96.81 56.51 95.26 55.61 93.5 56.63 95.06 57.53 96.81 56.51" fill="#d7d7d7" stroke-width="0"/>
        <polygon points="99.95 63.69 101.71 62.67 100.15 61.77 98.4 62.79 99.95 63.69" fill="#d7d7d7" stroke-width="0"/>
        <polygon points="110.55 65.64 108.99 64.74 107.24 65.76 108.79 66.66 110.55 65.64" fill="#d7d7d7" stroke-width="0"/>
        <path d="M169.32,106.24l-1.55-.9-1.56-.9-1.55-.9-1.56-.9-1.55-.9-1.56-.9-1.56-.9-1.55-.9-1.55-.9-1.55-.9-1.56-.9-1.55-.9-1.56-.9-1.56-.9-1.55-.9-1.56-.9-1.55-.9-1.56-.9-1.55-.9-1.55-.9-1.55-.9-1.56-.9-1.55-.9-1.55-.9-1.35-.78-.21-.12-1.55-.9h-.01s-1.54-.9-1.54-.9l-.23-.13-1.33-.77-.44-.26-1.11-.64-.66-.38-.9-.52-.87-.5-.68-.4-1.56-.9-1.55-.9-1.56-.9-1.55-.9-1.56-.9-1.56-.9-1.55-.9-1.56-.9-1.55-.9-1.55-.9-1.55-.9-1.75,1.02-1.56-.9,1.75-1.02-1.56-.9-1.55-.9-1.75,1.02-1.56-.9,1.75-1.02-1.55-.9-1.56-.9-1.75,1.02-1.55-.9-1.56-.9,1.75-1.02-1.55-.9-1.75,1.02-1.55-.9-1.75,1.02,1.55.9-1.75,1.02-1.55-.9-1.75,1.02-1.75,1.02,1.55.9,1.75-1.02,1.56.9,1.75-1.02,1.56.9-1.75,1.02-1.56-.9-1.75,1.02,1.55.9,1.55.9,1.56.9,1.55.9,1.56.9,1.75-1.02,1.55.9-1.75,1.02,1.56.9,1.56.9,1.55.9,1.56.9,1.75-1.02,1.55.9-1.75,1.02,1.55.9,1.55.9,1.56.9,1.56.9,1.55.9,1.56.9,1.55.9,1.55.9,1.55.9.96.55.6.35,1.26.73.29.17,1.55.9.03.02.47.27,1.05.61.38.22,1.18.68.73.42.7.4.13.07,1.11.64.44.26,1.55.9,1.56.9,1.55.9,1.56.9,1.55.9,1.56.9,1.55.9,1.56.9,1.55.9,1.56.9,1.55.9,1.55.9,1.56.9,1.55.9,1.56.9,1.55.9,1.56.9,1.56.9,1.55.9,1.56.9,1.55.9,1.55.9,1.55.9,1.56.9,1.35.78,1.46-.85.29-.17,1.49-.87.26-.15,1.51-.88.24-.14,1.54-.9.21-.12,1.57-.91.19-.11-1.35-.78-1.56-.9ZM114.7,76.73l-1.75,1.02-1.55-.9,1.75-1.02,1.55.9ZM87.67,67.22l1.75-1.02,1.75-1.02,1.56.9-1.75,1.02-1.75,1.02-1.56-.9ZM100.31,72.49l1.75-1.02,1.56.9-1.75,1.02-1.56-.9Z" fill="#d7d7d7" stroke-width="0"/>
        <polygon points="66.95 49.5 65.4 48.6 63.64 49.62 65.2 50.52 66.95 49.5" fill="#d7d7d7" stroke-width="0"/>
        <polygon points="81.93 56.53 80.37 55.63 78.62 56.65 79.85 57.36 78.74 58 80.3 58.9 82.05 57.88 80.82 57.17 81.93 56.53" fill="#d7d7d7" stroke-width="0"/>
        <polygon points="58.82 53.32 57.07 54.34 58.62 55.24 60.38 54.22 58.82 53.32" fill="#d7d7d7" stroke-width="0"/>
        <polygon points="84.58 50.84 83.03 49.94 81.27 50.96 82.83 51.86 84.58 50.84" fill="#d7d7d7" stroke-width="0"/>
        <polygon points="72.52 54.41 70.77 55.43 72.32 56.33 74.08 55.31 72.52 54.41" fill="#d7d7d7" stroke-width="0"/>
        <polygon points="71.01 51.87 72.77 50.85 71.21 49.96 69.46 50.97 67.71 51.99 69.26 52.89 71.01 51.87" fill="#d7d7d7" stroke-width="0"/>
        <polygon points="75.31 55.46 75.15 55.55 76.71 56.45 78.46 55.43 76.93 54.55 77.09 54.46 75.54 53.56 73.79 54.58 75.31 55.46" fill="#d7d7d7" stroke-width="0"/>
        <polygon points="75.43 58.12 74.66 57.67 72.9 58.69 74.46 59.59 76.21 58.57 76.99 59.02 78.74 58 77.19 57.1 75.43 58.12" fill="#d7d7d7" stroke-width="0"/>
        <polygon points="79.97 45.77 78.41 44.87 76.66 45.89 78.22 46.79 79.97 45.77" fill="#d7d7d7" stroke-width="0"/>
        <polygon points="64.29 56.68 65.84 57.58 67.59 56.56 66.04 55.66 64.29 56.68" fill="#d7d7d7" stroke-width="0"/>
        <polygon points="77.65 60.89 79.21 61.79 80.96 60.77 79.41 59.87 77.65 60.89" fill="#d7d7d7" stroke-width="0"/>
        <polygon points="83.41 60.69 81.65 61.71 83.21 62.61 84.96 61.59 83.41 60.69" fill="#d7d7d7" stroke-width="0"/>
        <polygon points="93.63 56.99 92.08 56.09 90.32 57.11 91.88 58.01 93.63 56.99" fill="#d7d7d7" stroke-width="0"/>
        <polygon points="65.04 55.35 63.48 54.45 61.73 55.47 63.28 56.37 65.04 55.35" fill="#d7d7d7" stroke-width="0"/>
        <polygon points="73.88 57.23 72.32 56.33 70.57 57.35 72.13 58.24 73.88 57.23" fill="#d7d7d7" stroke-width="0"/>
        <polygon points="70.64 55.51 69.08 54.61 67.33 55.63 68.88 56.53 70.64 55.51" fill="#d7d7d7" stroke-width="0"/>
        <polygon points="70.77 58.13 69.21 57.24 67.46 58.25 69.01 59.15 70.77 58.13" fill="#d7d7d7" stroke-width="0"/>
        <polygon points="68.26 61.36 66.7 60.46 64.95 61.48 66.5 62.38 68.26 61.36" fill="#d7d7d7" stroke-width="0"/>
        <polygon points="80.04 62.81 78.48 61.91 76.73 62.93 78.29 63.83 80.04 62.81" fill="#d7d7d7" stroke-width="0"/>
        <polygon points="76.8 69.04 78.36 69.93 80.11 68.92 78.55 68.02 76.8 69.04" fill="#d7d7d7" stroke-width="0"/>
        <polygon points="86.92 71.26 85.37 70.36 83.62 71.38 85.17 72.28 86.92 71.26" fill="#d7d7d7" stroke-width="0"/>
        <polygon points="62.81 56.64 61.25 55.74 59.5 56.76 61.06 57.66 62.81 56.64" fill="#d7d7d7" stroke-width="0"/>
        <polygon points="60.99 59.91 62.54 60.81 64.3 59.79 62.74 58.89 60.99 59.91" fill="#d7d7d7" stroke-width="0"/>
        <polygon points="72.78 60.81 74.53 59.79 72.97 58.9 71.27 59.88 70.29 59.31 68.53 60.33 70.09 61.23 71.79 60.24 72.78 60.81" fill="#d7d7d7" stroke-width="0"/>
        <polygon points="74.71 62.15 73.15 61.25 71.4 62.27 72.95 63.17 74.71 62.15" fill="#d7d7d7" stroke-width="0"/>
        <polygon points="72.18 64.41 73.73 65.3 75.49 64.29 73.93 63.39 72.18 64.41" fill="#d7d7d7" stroke-width="0"/>
        <polygon points="76.79 60.94 78.41 60 76.86 59.1 75.1 60.12 76.41 60.87 74.79 61.81 76.34 62.71 78.09 61.69 76.79 60.94" fill="#d7d7d7" stroke-width="0"/>
        <polygon points="65.95 66.34 67.5 67.23 69.26 66.21 67.7 65.32 65.95 66.34" fill="#d7d7d7" stroke-width="0"/>
        <polygon points="71.63 67.97 73.19 68.87 74.94 67.85 73.39 66.95 71.63 67.97" fill="#d7d7d7" stroke-width="0"/>
        <polygon points="84.4 75.07 85.96 75.97 87.71 74.95 86.16 74.05 84.4 75.07" fill="#d7d7d7" stroke-width="0"/>
        <path d="M268.36,98.35c-.06-.48-.11-.96-.23-1.43-.1-.48-.19-.95-.34-1.43-.14-.47-.27-.95-.46-1.41l-2.43.29c-.18-.45-.32-.9-.55-1.34l2.41-.36-.33-.69c-.06-.12-.11-.23-.17-.35l-.19-.34-.39-.69-.2-.34-.22-.34-.44-.67-.22-.34-.25-.33-.5-.66c-.16-.22-.33-.44-.52-.65l-.56-.65c-.19-.21-.36-.43-.57-.64-.41-.42-.8-.84-1.23-1.25-.44-.41-.87-.82-1.33-1.22l-1.43-1.18-1.53-1.14c-.53-.37-1.08-.73-1.62-1.1-.55-.36-1.14-.7-1.7-1.05l-.42-.26-.39-.22-.78-.45-1.55-.9-1.55-.9-1.56-.9-1.55-.9-1.56-.9-1.56-.9-1.55-.9-1.56-.9-1.55-.9-1.56-.9-1.55-.9-1.55-.9-1.56-.9-1.75,1.02-1.55-.9,1.75-1.02-1.56-.9-1.55-.9-1.56-.9-1.55-.9-1.55-.9-1.56-.9-1.55-.9-1.55-.9-1.55-.9-1.56-.9-1.55-.9-1.56-.9-1.56-.9-1.55-.9-1.56-.9-1.55-.9-1.56-.9-1.55-.9-1.55-.9-1.56-.9-1.55-.9-1.56-.9-1.55-.9-.15-.09-.72.42.15.09,1.55.9.06.03-1.03.6-.56.33-1.19.69-.41.24-1.34.78-.26.15-1.5.87-.1.06-1.6.93-.05.03,1.5.86,1.55.9,1.55.9,1.56.9,1.55.9,1.56.9,1.55.9,1.56.9,1.55.9,1.55.9,1.56.9,1.55.9,1.55.9,1.55.9,1.56.9,1.55.9,1.56.9,1.56.9,1.55.9,1.55.9,1.55.9,1.56.9,1.55.9,1.55.9,1.56.9,1.55.9,1.56.9,1.55.9,1.56.9,1.55.9,1.55.9,1.56.9,1.55.9,1.56.9,1.55.9,1.56.9.78.45.39.22.33.2c.43.27.89.53,1.3.8.41.28.83.55,1.24.84l1.17.87,1.09.9c.35.31.67.62,1.02.93.33.31.62.64.94.96.16.16.29.32.43.49l.42.49c.15.16.27.33.4.5l.38.5.19.25.17.26.34.51.17.26.15.26.29.52.15.26c.05.09.08.18.13.26l.25.53c.18.35.29.71.44,1.07.15.36.24.72.35,1.08.12.36.18.73.26,1.09.09.36.12.73.17,1.1.06.36.07.73.08,1.1,0,.18.03.37.02.55l-.02.55c0,.18,0,.37-.03.55l-.07.55c-.02.18-.03.37-.07.55l-.11.54c-.04.18-.07.37-.12.55l-.15.54c-.05.18-.1.36-.16.54l-.2.54-.2.54-.25.53-.24.53-.29.52,2.37.44-.31.56-.35.55-1.16-.25-1.17-.25-.33.51c-.12.17-.25.34-.37.5l-.1.13-.28.37c-.12.17-.27.33-.41.49-.14.17-.29.34-.44.51-.14.16-.28.31-.43.46-.26.27-.51.55-.79.81-.01.01-.02.02-.03.03-.04.04-.08.07-.12.11l-.5.47c-.08.08-.16.16-.25.23l-.27.22-.24.2-.3.25-.27.23c-.09.07-.19.15-.29.22l-.58.44s-.04.03-.06.04c-.17.13-.34.26-.53.39-.42.28-.82.56-1.24.83l-1.3.8-1.38.76c-.47.25-.96.48-1.43.72-.23.12-.49.23-.74.34l-.75.34-.37.17-.39.16-.78.31c-.51.22-1.06.4-1.59.6-.52.2-1.08.37-1.64.55-.28.09-.54.18-.83.26l-.85.24c-.28.08-.56.17-.85.24l-.87.22c-.29.07-.58.15-.87.22l-.89.19-.88.19-.9.17-.9.17-.92.14-.91.14c-.31.04-.62.08-.93.12l-.93.12c-.31.04-.62.06-.94.09l-.93.09c-.31.03-.63.04-.94.07l-.94.07c-.32.02-.63.03-.95.04l-.95.04c-.32.02-.63,0-.95.02-.63,0-1.27.02-1.9,0-.63,0-1.27,0-1.9-.04-.63-.03-1.26-.04-1.89-.1-.63-.05-1.26-.08-1.88-.15-.62-.06-1.25-.11-1.87-.2-.62-.08-1.24-.14-1.85-.25l-.92-.14c-.15-.02-.31-.05-.46-.07l-.45-.08-.9-.17-.45-.08-.44-.1-.89-.2-.44-.1c-.15-.03-.29-.07-.44-.11l-.87-.22c-.29-.07-.58-.14-.86-.23l-.85-.24c-.28-.08-.57-.16-.85-.25-.55-.18-1.11-.35-1.65-.54l-1.61-.58-1.56-.63-1.5-.67c-.49-.23-.96-.48-1.45-.71-.25-.12-.47-.25-.7-.37l-.69-.38-.35-.19-.39-.23-.78-.45-1.56-.9-1.55-.9-1.56-.9-.71-.41-.19.11-.85-.49-.92-.53-1.57.91-.21.12.92.53.85.49-1.54.9-.24.14-1.51.88-.27.15-1.49.86-.29.17-1.46.85.71.41,1.56.9,1.55.9,1.56.9.78.45.39.22.45.25.9.49c.3.16.6.33.92.49.63.31,1.25.63,1.89.93l1.97.88,2.04.82c.7.26,1.41.51,2.11.77.71.25,1.45.47,2.17.71.36.12.74.22,1.11.33l1.12.32c.37.11.75.2,1.13.3l1.14.29c.19.05.38.1.57.14l.58.13,1.17.26.58.13.59.11,1.18.22.59.11.6.09,1.2.19c.8.13,1.61.22,2.42.33.81.11,1.63.18,2.45.26.81.09,1.64.13,2.46.19.82.07,1.65.09,2.48.13.82.04,1.65.05,2.48.06.83.02,1.66,0,2.48,0,.41,0,.83,0,1.24-.03l1.24-.05c.41-.02.83-.03,1.24-.06l1.23-.08c.41-.03.82-.05,1.23-.09l1.22-.12c.41-.04.82-.08,1.22-.12l1.21-.15c.4-.05.81-.1,1.21-.16l1.2-.19,1.2-.19,1.18-.22,1.18-.22,1.16-.25,1.16-.25c.38-.09.76-.19,1.14-.29l1.14-.29c.38-.1.75-.21,1.12-.32l1.11-.32c.37-.1.73-.23,1.09-.34.72-.24,1.45-.46,2.15-.73.7-.26,1.42-.5,2.08-.78l1.02-.41.51-.21.49-.22.98-.44c.33-.15.66-.29.97-.45.62-.31,1.26-.62,1.87-.94l1.79-.99,1.7-1.04-1.84-.97c.51-.33.99-.67,1.49-1,.02-.01.04-.03.05-.04l1.33.64.59.28c.27-.18.52-.37.77-.56l.58-.43.18-.14c.12-.1.25-.19.38-.29l.35-.3.56-.47.15-.13.18-.15.17-.14c.12-.1.22-.2.33-.3l.55-.51.11-.1c.43-.38.8-.79,1.18-1.18.02-.02.04-.04.06-.06.41-.41.77-.85,1.13-1.28,0,0,0,0,0,0,.18-.22.37-.43.54-.65l.49-.66c.16-.22.33-.44.49-.66l.44-.67.43-.68.38-.69.38-.69.32-.69.32-.69.27-.7.26-.7c.08-.24.14-.47.21-.71l.2-.71c.06-.24.1-.48.15-.71l.14-.71c.05-.24.06-.48.1-.72l.08-.72c.03-.24.03-.48.04-.72l.02-.72c.01-.24-.01-.48-.02-.72-.02-.48-.03-.96-.11-1.44M260.2,114c-.09.1-.19.2-.29.3l-1.42-.45-.76-.24c.22-.22.43-.45.62-.68.14-.16.27-.32.41-.48l1.44.41.8.22c-.26.31-.52.62-.79.92M253.08,114.92l.25.1-.61.51-.17.15-.13.11c-.1.08-.22.16-.32.24l-.53-.23-1.47-.64c.1-.08.21-.15.31-.23l.29-.24.06-.05.51-.43,1.81.71ZM246.16,117.81l1.77,1.02-1.54.85-1.68-1.06,1.46-.81Z" fill="#d7d7d7" stroke-width="0"/>
        <path d="M281.58,91.3l-2.41.36c.22.44.37.89.55,1.34l2.43-.29c-.18-.47-.34-.94-.57-1.4" fill="#d7d7d7" stroke-width="0"/>
        <polygon points="141.07 26.52 139.52 25.62 137.76 26.64 139.32 27.54 141.07 26.52" fill="#d7d7d7" stroke-width="0"/>
        <polygon points="136.66 27.02 135.1 26.12 133.35 27.14 134.91 28.04 136.66 27.02" fill="#d7d7d7" stroke-width="0"/>
        <polygon points="139.52 22.29 137.96 21.39 136.21 22.41 137.76 23.31 139.52 22.29" fill="#d7d7d7" stroke-width="0"/>
        <polygon points="133.93 21.94 132.18 22.95 133.73 23.85 135.49 22.83 133.93 21.94" fill="#d7d7d7" stroke-width="0"/>
        <polygon points="133.76 21.09 135.51 20.07 133.95 19.17 132.2 20.19 133.76 21.09" fill="#d7d7d7" stroke-width="0"/>
        <polygon points="128.08 20.04 126.53 19.14 124.78 20.16 126.33 21.06 128.08 20.04" fill="#d7d7d7" stroke-width="0"/>
        <path d="M137.46,20.25l1.55.9,1.56.9,1.55.9,1.56.9-1.75,1.02,1.55.9,1.56.9,1.55.9,1.55.9,1.56.9,1.55.9,1.56.9,1.55.9,1.56.9,1.55.9,1.55.9,1.56.9,1.55.9,1.55.9,1.55.9,1.56.9,1.56.9,1.55.9,1.56.9,1.55.9,1.55.9,1.55.9,1.56.9.57.33.05-.03,1.6-.93.1-.06,1.5-.87.26-.15,1.34-.78.41-.24,1.19-.69.99.57.77.45.56-.33,1.03-.6-.78-.45-.99-.57.72-.42-.57-.33-1.55-.9-1.55-.9-1.56-.9-1.55-.9-1.56-.9-1.55-.9-1.56-.9-1.55-.9-1.55-.9-1.56-.9-1.55-.9-1.56-.9-1.55-.9-1.56-.9-1.56-.9-1.55-.9-1.56-.9-1.55-.9-1.55-.9-1.55-.9-1.75,1.02-1.56-.9,1.75-1.02-1.55-.9-1.55-.9-1.56-.9-1.55-.9-1.75,1.02-1.75,1.02-1.55-.9-1.55-.9-1.56-.9-1.75,1.02,1.55.9-1.75,1.02ZM145.24,24.73l1.75-1.02,1.56.9-1.75,1.02-1.56-.9ZM153.41,25.39l-1.75,1.02-1.55-.9,1.75-1.02,1.55.9Z" fill="#d7d7d7" stroke-width="0"/>
        <polygon points="136.53 17.68 134.78 18.7 136.33 19.59 138.09 18.57 136.53 17.68" fill="#d7d7d7" stroke-width="0"/>
        <polygon points="130.15 16.14 128.59 15.24 126.84 16.26 128.39 17.16 130.15 16.14" fill="#d7d7d7" stroke-width="0"/>
        <polygon points="137.53 16.61 135.97 15.71 134.22 16.73 135.77 17.63 137.53 16.61" fill="#d7d7d7" stroke-width="0"/>
        <polygon points="144.84 17.4 143.28 16.5 141.53 17.52 143.09 18.42 144.84 17.4" fill="#d7d7d7" stroke-width="0"/>
        <polygon points="138.19 15.32 139.75 16.22 141.5 15.2 139.95 14.3 138.19 15.32" fill="#d7d7d7" stroke-width="0"/>
        <polygon points="133.01 12.14 131.45 11.25 129.7 12.27 131.25 13.16 133.01 12.14" fill="#d7d7d7" stroke-width="0"/>
        <polygon points="234.46 63.43 232.91 62.53 231.16 63.55 232.71 64.45 234.46 63.43" fill="#d7d7d7" stroke-width="0"/>
        <polygon points="146.03 17.07 147.59 17.97 149.34 16.95 147.79 16.05 146.03 17.07" fill="#d7d7d7" stroke-width="0"/>
        <polygon points="146.13 16.11 147.88 15.09 146.33 14.19 144.58 15.21 146.13 16.11" fill="#d7d7d7" stroke-width="0"/>
        <polygon points="145.98 13.99 144.42 13.09 142.67 14.11 144.22 15.01 145.98 13.99" fill="#d7d7d7" stroke-width="0"/>
        <polygon points="141.44 11.37 139.89 10.48 138.14 11.49 139.69 12.39 141.44 11.37" fill="#d7d7d7" stroke-width="0"/>
      </g>
      <polygon points="100.69 37.19 84.07 46.84 67.35 37.19 83.96 27.53 100.69 37.19" fill="#f7eb17" stroke-width="0"/>
      <polygon points="84.02 31.56 74.46 37.12 84.08 42.68 84.02 31.56" stroke-width="0"/>
      <polygon points="84.02 31.56 93.65 37.12 84.08 42.68 84.02 31.56" fill="#2b2b2b" stroke-width="0"/>
      <polygon points="100.69 37.19 100.63 97.32 84.01 106.98 84.07 46.84 100.69 37.19" fill="#dbcb24" stroke-width="0"/>
      <polygon points="84.07 46.84 84.01 106.98 67.29 97.32 67.34 37.19 84.07 46.84" fill="#eedc10" stroke-width="0"/>
      <polygon points="116.44 123.41 99.82 133.06 83.1 123.4 99.71 113.75 116.44 123.41" fill="#d8d8d8" stroke-width="0"/>
      <g clip-path="url(#clippath-7)">
        <rect x="47.66" y="151.43" width="52.13" height="60.52" transform="translate(-121.03 158.97) rotate(-61.26)" fill="url(#linear-gradient-5)" stroke-width="0"/>
      </g>
      <polygon points="116.44 123.41 116.38 166.24 99.77 175.89 99.82 133.06 116.44 123.41" fill="#bbb" stroke-width="0"/>
      <polygon points="99.82 133.06 99.77 175.89 83.04 166.24 83.1 123.4 99.82 133.06" fill="#cacaca" stroke-width="0"/>
      <polygon points="86 142.4 91.44 156.44 93.24 153.91 89.58 144.47 86 142.4" fill="#2b2b2b" stroke-width="0"/>
      <polygon points="89.58 144.47 93.24 153.91 96.94 148.71 89.58 144.47" stroke-width="0"/>
      <polygon points="203.63 65.21 187.01 74.87 170.29 65.21 186.9 55.56 203.63 65.21" fill="#2b2b2b" stroke-width="0"/>
      <polygon points="203.63 65.21 203.57 85.01 186.96 94.67 187.01 74.87 203.63 65.21" fill="#0e0e0e" stroke-width="0"/>
      <polygon points="187.01 74.87 186.96 94.67 170.23 85.01 170.29 65.21 187.01 74.87" fill="#1d1d1d" stroke-width="0"/>
      <polygon points="246.18 141.59 229.56 151.25 212.84 141.59 229.45 131.94 246.18 141.59" fill="#f7eb17" stroke-width="0"/>
      <polygon points="246.18 141.59 246.12 161.39 229.5 171.05 229.56 151.25 246.18 141.59" fill="#dbcb24" stroke-width="0"/>
      <polygon points="229.56 151.25 229.5 171.05 212.78 161.39 212.84 141.59 229.56 151.25" fill="#eedc10" stroke-width="0"/>
      <polygon points="262.9 151.25 246.29 160.9 229.56 151.25 246.18 141.59 262.9 151.25" fill="#f7eb17" stroke-width="0"/>
      <polygon points="262.9 151.25 262.84 171.05 246.23 180.71 246.29 160.9 262.9 151.25" fill="#dbcb24" stroke-width="0"/>
      <g>
        <path d="M257.69,159.45c.05.31.08.64.08,1,0,3.13-2.24,6.97-4.99,8.57-.97.57-1.88.77-2.65.67.42,2.38,2.44,3.21,4.87,1.79,2.75-1.59,4.98-5.43,4.99-8.57,0-2.02-.92-3.26-2.31-3.45" fill="#2b2b2b" stroke-width="0"/>
        <path d="M252.79,169.02c2.74-1.59,4.98-5.43,4.99-8.57,0-.36-.03-.69-.08-1-.77-.11-1.67.1-2.65.67-2.75,1.59-4.98,5.43-4.99,8.57,0,.36.03.69.08,1,.77.11,1.67-.1,2.65-.67" stroke-width="0"/>
      </g>
      <polygon points="246.29 160.9 246.23 180.71 229.5 171.05 229.56 151.25 246.29 160.9" fill="#eedc10" stroke-width="0"/>
      <line x1="84.01" y1="90.03" x2="84.01" y2="46.84" fill="none" stroke="#333" stroke-miterlimit="10" stroke-width="1.06"/>
      <g>
        <path d="M88.17,84.11c-.2-.13-.47-.07-.6.13l-3.56,5.59-3.56-5.59c-.13-.2-.4-.26-.6-.13-.2.13-.26.4-.13.6l3.92,6.16c.08.12.22.2.37.2s.29-.08.37-.2l3.93-6.16c.05-.07.07-.15.07-.23,0-.14-.07-.28-.2-.37" fill="#333" stroke-width="0"/>
        <line x1="57.46" y1="42.93" x2="93.85" y2="21.79" fill="none" stroke="#333" stroke-dasharray="0 0 13.3 0" stroke-miterlimit="10" stroke-width=".71"/>
        <line x1="130.7" y1="77.56" x2="206.8" y2="33.77" fill="none" stroke="#676767" stroke-miterlimit="10" stroke-width="1.06"/>
        <path d="M203.74,40.33c-.21-.11-.29-.37-.18-.58l3.07-5.87-6.62-.3c-.24-.01-.42-.21-.41-.45.01-.24.21-.42.45-.41l7.3.33c.15,0,.28.09.36.22.07.13.08.29,0,.42l-3.38,6.48c-.04.08-.1.13-.17.17-.12.07-.28.08-.42,0" fill="#676767" stroke-width="0"/>
        <path d="M149.78,129.15l-20.22-11.67c-11.02-6.36-15.49-15.07-13.4-23.34" fill="none" stroke="#676767" stroke-miterlimit="10" stroke-width="1.06"/>
        <path d="M118.68,100.92c-.23.07-.47-.05-.54-.28l-2.01-6.32-4.87,4.49c-.18.16-.45.15-.61-.02-.16-.18-.15-.45.02-.61l5.37-4.95c.11-.1.26-.14.41-.1.14.04.26.15.3.29l2.22,6.96c.03.08.03.16,0,.24-.04.14-.14.26-.29.3" fill="#676767" stroke-width="0"/>
        <line x1="157.2" y1="133.43" x2="154.2" y2="131.69" fill="none" stroke="#676767" stroke-miterlimit="10" stroke-width="1.06"/>
        <line x1="154.2" y1="131.7" x2="152.78" y2="130.88" fill="none" stroke="#676767" stroke-dasharray="0 0 2 0" stroke-miterlimit="10" stroke-width="1.06"/>
        <line x1="152.78" y1="130.88" x2="149.78" y2="129.15" fill="none" stroke="#676767" stroke-miterlimit="10" stroke-width="1.06"/>
        <path d="M170.9,182.04l1.7-.98c.44-.25.87-.51,1.29-.77" fill="none" stroke="#676767" stroke-miterlimit="10" stroke-width="1.06"/>
        <path d="M179.01,176.47c11.79-10.61,9.65-24.88-6.42-34.16l-5.13-2.96" fill="none" stroke="#676767" stroke-dasharray="0 0 7.83 7.83" stroke-miterlimit="10" stroke-width="1.06"/>
        <line x1="164.69" y1="137.75" x2="161.69" y2="136.02" fill="none" stroke="#676767" stroke-miterlimit="10" stroke-width="1.06"/>
        <line x1="73.69" y1="130.78" x2="70.69" y2="129.04" fill="none" stroke="#676767" stroke-miterlimit="10" stroke-width="1.06"/>
        <line x1="70.69" y1="129.04" x2="32.17" y2="106.81" fill="none" stroke="#676767" stroke-dasharray="0 0 9.08 0" stroke-miterlimit="10" stroke-width="1.06"/>
        <line x1="32.17" y1="106.81" x2="29.17" y2="105.07" fill="none" stroke="#676767" stroke-miterlimit="10" stroke-width="1.06"/>
        <path d="M70.64,124.21c-.21.11-.29.37-.18.58l3.06,5.88-6.62.29c-.24.01-.42.21-.41.45.01.24.21.42.45.41l7.3-.32c.15,0,.28-.09.36-.22.07-.13.08-.29,0-.42l-3.38-6.48c-.04-.08-.1-.14-.17-.18-.12-.07-.28-.08-.42,0" fill="#676767" stroke-width="0"/>
        <path d="M177.17,124.24l-23.84,13.77c-8.22,4.75-18.7,7.39-29.44,7.92" fill="none" stroke="#676767" stroke-miterlimit="10" stroke-width="1.06"/>
        <polygon points="172.91 122.61 172.71 123.45 176.88 124.4 175.62 128.49 176.45 128.74 177.98 123.77 172.91 122.61" fill="#676767" stroke-width="0"/>
        <path d="M233.68,118.9c-1.1-.33-2.21-.64-3.34-.92" fill="none" stroke="#676767" stroke-miterlimit="10" stroke-width="1.06"/>
        <path d="M223.83,116.67c-7.58-1.17-15.55-1.24-23.18-.2" fill="none" stroke="#676767" stroke-dasharray="0 0 8.14 8.14" stroke-miterlimit="10" stroke-width="1.06"/>
        <path d="M197.37,116.99c-1.14.21-2.28.44-3.39.69" fill="none" stroke="#676767" stroke-miterlimit="10" stroke-width="1.06"/>
        <line x1="284.2" y1="146.35" x2="253.13" y2="128.41" fill="none" stroke="#676767" stroke-dasharray="0 0 8.49 8.49" stroke-miterlimit="10" stroke-width="1.06"/>
        <path d="M281.15,139.79c-.21.11-.29.37-.18.58l3.06,5.88-6.62.29c-.24.01-.42.21-.41.45.01.24.21.42.45.41l7.3-.32c.15,0,.28-.09.36-.22.07-.13.08-.29,0-.42l-3.38-6.48c-.04-.08-.1-.14-.17-.18-.12-.07-.28-.08-.42,0" fill="#676767" stroke-width="0"/>
        <path d="M181.27,118.48c.42.22.85.44,1.29.65" fill="none" stroke="#676767" stroke-miterlimit="10" stroke-width="1.06"/>
        <path d="M187.74,121.39c22.1,8.56,52.31,7.2,71.84-4.08h0c22.21-12.82,22.21-33.61,0-46.43l-43.14-24.91" fill="none" stroke="#676767" stroke-dasharray="0 0 3.46 6.92" stroke-miterlimit="10" stroke-width="1.06"/>
        <line x1="213.99" y1="44.56" x2="212.73" y2="43.83" fill="none" stroke="#676767" stroke-miterlimit="10" stroke-width="1.06"/>
        <path d="M219.94,43.19c.01.24-.17.44-.41.45l-6.62.29,3.06,5.88c.11.21.03.48-.18.58-.21.11-.47.03-.58-.18l-3.38-6.48c-.07-.13-.06-.29,0-.42.07-.13.21-.21.36-.22l7.3-.32c.08,0,.17.02.24.06.12.07.21.2.22.36" fill="#676767" stroke-width="0"/>
        <line x1="104.76" y1="74.37" x2="106.01" y2="75.09" fill="none" stroke="#676767" stroke-miterlimit="10" stroke-width="1.06"/>
        <line x1="111.04" y1="77.99" x2="161.29" y2="107" fill="none" stroke="#676767" stroke-dasharray="0 0 3.55 7.11" stroke-miterlimit="10" stroke-width="1.06"/>
        <line x1="163.8" y1="108.45" x2="165.05" y2="109.17" fill="none" stroke="#676767" stroke-miterlimit="10" stroke-width="1.06"/>
        <line x1="67.29" y1="97.32" x2="67.29" y2="18.99" fill="none" stroke="#676767" stroke-dasharray="0 0 8.49 8.49" stroke-miterlimit="10" stroke-width="1.06"/>
        <line x1="79.83" y1="164.38" x2="109.89" y2="181.74" fill="none" stroke="#676767" stroke-dasharray="0 0 13.38 0" stroke-miterlimit="10" stroke-width="1.06"/>
        <line x1="85.52" y1="184.18" x2="94.06" y2="179.21" fill="none" stroke="#676767" stroke-miterlimit="10" stroke-width="1.06"/>
        <line x1="103.4" y1="173.78" x2="117.42" y2="165.62" fill="none" stroke="#676767" stroke-dasharray="0 0 13.23 13.23" stroke-miterlimit="10" stroke-width="1.06"/>
        <line x1="122.09" y1="162.91" x2="130.63" y2="157.94" fill="none" stroke="#676767" stroke-miterlimit="10" stroke-width="1.06"/>
        <line x1="237.42" y1="186.15" x2="269.02" y2="167.8" fill="none" stroke="#676767" stroke-dasharray="0 0 7.07 7.07" stroke-miterlimit="10" stroke-width="1.06"/>
        <polygon points="92.04 8.3 84.12 12.9 76.16 8.3 84.07 3.7 92.04 8.3" fill="#d8d8d8" stroke-width="0"/>
        <polygon points="92.04 8.3 92.01 17.73 84.1 22.33 84.12 12.9 92.04 8.3" fill="#bbb" stroke-width="0"/>
        <polygon points="84.12 12.9 84.1 22.33 76.13 17.73 76.16 8.3 84.12 12.9" fill="#cacaca" stroke-width="0"/>
        <path d="M263.56,162.66c-.84-.49-1.99-.42-3.27.32-2.54,1.46-4.58,5.01-4.58,7.93,0,1.45.52,2.47,1.34,2.94l4.31,2.5c-.82-.48-1.34-1.5-1.34-2.94,0-2.91,2.04-6.46,4.58-7.93,1.28-.74,2.43-.81,3.27-.32l-4.31-2.5Z" fill="#d8d8d8" stroke-width="0"/>
        <path d="M264.61,165.48c2.54-1.46,4.6-.29,4.61,2.62,0,2.91-2.04,6.46-4.58,7.93-2.54,1.46-4.6.29-4.61-2.62,0-2.91,2.04-6.46,4.58-7.93" fill="#bbb" stroke-width="0"/>
        <line x1="264.62" y1="169.02" x2="276.4" y2="175.9" fill="none" stroke="#676767" stroke-dasharray="0 0 8.49 8.49" stroke-miterlimit="10" stroke-width="1.06"/>
        <line x1="261.45" y1="175.77" x2="273.26" y2="182.72" fill="none" stroke="#676767" stroke-dasharray="0 0 8.49 8.49" stroke-miterlimit="10" stroke-width="1.06"/>
        <line x1="84.12" y1="17.97" x2="84.12" y2="14.5" fill="none" stroke="#676767" stroke-miterlimit="10" stroke-width="1.06"/>
        <line x1="84.12" y1="10.94" x2="84.12" y2="5.59" fill="none" stroke="#676767" stroke-dasharray="0 0 4.36 4.36" stroke-miterlimit="10" stroke-width="1.06"/>
        <line x1="84.12" y1="3.81" x2="84.12" y2=".35" fill="none" stroke="#676767" stroke-miterlimit="10" stroke-width="1.06"/>
        <line x1="92.04" y1="10.97" x2="92.04" y2=".12" fill="none" stroke="#676767" stroke-dasharray="0 0 8.49 8.49" stroke-miterlimit="10" stroke-width="1.06"/>
        <polygon points="74.61 150.29 83.06 155.16 78.81 161.13 74.61 150.29" fill="#eedc10" stroke-width="0"/>
        <polygon points="74.61 150.29 82.76 145.56 91.2 150.43 83.06 155.16 74.61 150.29" fill="#f7eb17" stroke-width="0"/>
        <line x1="83.48" y1="145.49" x2="65.49" y2="155.74" fill="none" stroke="#676767" stroke-dasharray="0 0 8.49 8.49" stroke-miterlimit="10" stroke-width="1.06"/>
        <polygon points="83.06 155.16 91.2 150.43 86.96 156.4 78.81 161.13 83.06 155.16" fill="#dbcb24" stroke-width="0"/>
      </g>
    </g>
  </g>
</svg>