<?xml version="1.0" encoding="UTF-8"?>
<svg id="_export_" xmlns="http://www.w3.org/2000/svg" xmlns:xlink="http://www.w3.org/1999/xlink" viewBox="0 0 316 231">
  <defs>
    <clipPath id="clippath">
      <rect x="-.4" y=".02" width="316.8" height="231" fill="none" stroke-width="0"/>
    </clipPath>
    <clipPath id="clippath-1">
      <rect x="16.01" y="10.72" width="287.88" height="210.54" fill="none" stroke-width="0"/>
    </clipPath>
    <clipPath id="clippath-2">
      <rect x="93.01" y="44.62" width="60.08" height="81.27" fill="none" stroke-width="0"/>
    </clipPath>
    <clipPath id="clippath-3">
      <rect x="93.01" y="44.62" width="60.08" height="81.27" fill="none" stroke-width="0"/>
    </clipPath>
    <clipPath id="clippath-4">
      <rect x="128.67" y="44.62" width="24.42" height="53.04" fill="none" stroke-width="0"/>
    </clipPath>
    <clipPath id="clippath-5">
      <polygon points="128.78 44.62 128.67 83.63 152.98 97.67 153.09 58.66 128.78 44.62" fill="none" stroke-width="0"/>
    </clipPath>
    <clipPath id="clippath-6">
      <rect x="122.72" y="49.33" width="24.42" height="53.05" fill="none" stroke-width="0"/>
    </clipPath>
    <clipPath id="clippath-7">
      <polygon points="122.83 49.32 122.72 88.34 147.03 102.37 147.14 63.36 122.83 49.32" fill="none" stroke-width="0"/>
    </clipPath>
    <clipPath id="clippath-8">
      <rect x="116.78" y="54.03" width="24.42" height="53.04" fill="none" stroke-width="0"/>
    </clipPath>
    <clipPath id="clippath-9">
      <polygon points="116.89 54.03 116.78 93.04 141.09 107.08 141.2 68.07 116.89 54.03" fill="none" stroke-width="0"/>
    </clipPath>
    <clipPath id="clippath-10">
      <rect x="110.84" y="58.73" width="24.42" height="53.05" fill="none" stroke-width="0"/>
    </clipPath>
    <clipPath id="clippath-11">
      <polygon points="110.95 58.73 110.84 97.75 135.15 111.78 135.26 72.77 110.95 58.73" fill="none" stroke-width="0"/>
    </clipPath>
    <clipPath id="clippath-12">
      <rect x="104.89" y="63.44" width="24.42" height="53.04" fill="none" stroke-width="0"/>
    </clipPath>
    <clipPath id="clippath-13">
      <polygon points="105 63.44 104.89 102.45 129.2 116.48 129.31 77.47 105 63.44" fill="none" stroke-width="0"/>
    </clipPath>
    <clipPath id="clippath-14">
      <rect x="98.95" y="68.14" width="24.42" height="53.05" fill="none" stroke-width="0"/>
    </clipPath>
    <clipPath id="clippath-15">
      <polygon points="99.06 68.14 98.95 107.15 123.26 121.19 123.37 82.18 99.06 68.14" fill="none" stroke-width="0"/>
    </clipPath>
    <clipPath id="clippath-16">
      <rect x="93.01" y="72.85" width="24.42" height="53.05" fill="none" stroke-width="0"/>
    </clipPath>
    <clipPath id="clippath-17">
      <polygon points="93.12 72.85 93.01 111.86 117.32 125.89 117.43 86.88 93.12 72.85" fill="none" stroke-width="0"/>
    </clipPath>
    <clipPath id="clippath-18">
      <rect x="125.34" y="63.15" width="64.78" height="81.81" fill="none" stroke-width="0"/>
    </clipPath>
    <clipPath id="clippath-19">
      <rect x="125.34" y="63.15" width="64.78" height="81.81" fill="none" stroke-width="0"/>
    </clipPath>
    <clipPath id="clippath-20">
      <rect x="165.7" y="63.15" width="24.42" height="53.04" fill="none" stroke-width="0"/>
    </clipPath>
    <clipPath id="clippath-21">
      <polygon points="165.81 63.15 165.7 102.16 190.01 116.19 190.12 77.18 165.81 63.15" fill="none" stroke-width="0"/>
    </clipPath>
    <clipPath id="clippath-22">
      <rect x="158.97" y="67.94" width="24.42" height="53.05" fill="none" stroke-width="0"/>
    </clipPath>
    <clipPath id="clippath-23">
      <polygon points="159.08 67.94 158.97 106.96 183.28 120.99 183.39 81.98 159.08 67.94" fill="none" stroke-width="0"/>
    </clipPath>
    <clipPath id="clippath-24">
      <rect x="152.25" y="72.74" width="24.42" height="53.05" fill="none" stroke-width="0"/>
    </clipPath>
    <clipPath id="clippath-25">
      <polygon points="152.36 72.74 152.25 111.75 176.55 125.78 176.67 86.77 152.36 72.74" fill="none" stroke-width="0"/>
    </clipPath>
    <clipPath id="clippath-26">
      <rect x="145.52" y="77.53" width="24.42" height="53.05" fill="none" stroke-width="0"/>
    </clipPath>
    <clipPath id="clippath-27">
      <polygon points="145.63 77.53 145.52 116.54 169.83 130.58 169.94 91.56 145.63 77.53" fill="none" stroke-width="0"/>
    </clipPath>
    <clipPath id="clippath-28">
      <rect x="138.79" y="82.32" width="24.42" height="53.05" fill="none" stroke-width="0"/>
    </clipPath>
    <clipPath id="clippath-29">
      <polygon points="138.9 82.32 138.79 121.34 163.1 135.37 163.21 96.36 138.9 82.32" fill="none" stroke-width="0"/>
    </clipPath>
    <clipPath id="clippath-30">
      <rect x="132.07" y="87.12" width="24.42" height="53.04" fill="none" stroke-width="0"/>
    </clipPath>
    <clipPath id="clippath-31">
      <polygon points="132.18 87.12 132.07 126.13 156.38 140.17 156.49 101.16 132.18 87.12" fill="none" stroke-width="0"/>
    </clipPath>
    <clipPath id="clippath-32">
      <rect x="125.34" y="91.92" width="24.42" height="53.04" fill="none" stroke-width="0"/>
    </clipPath>
    <clipPath id="clippath-33">
      <polygon points="125.45 91.92 125.34 130.92 149.65 144.96 149.76 105.95 125.45 91.92" fill="none" stroke-width="0"/>
    </clipPath>
    <clipPath id="clippath-34">
      <rect x="166.57" y="83.31" width="62.05" height="85.3" fill="none" stroke-width="0"/>
    </clipPath>
    <clipPath id="clippath-35">
      <rect x="166.57" y="83.31" width="62.05" height="85.29" fill="none" stroke-width="0"/>
    </clipPath>
    <clipPath id="clippath-36">
      <rect x="204.2" y="83.31" width="24.42" height="53.04" fill="none" stroke-width="0"/>
    </clipPath>
    <clipPath id="clippath-37">
      <rect x="197.92" y="88.69" width="24.42" height="53.05" fill="none" stroke-width="0"/>
    </clipPath>
    <clipPath id="clippath-38">
      <rect x="191.65" y="94.06" width="24.42" height="53.05" fill="none" stroke-width="0"/>
    </clipPath>
    <clipPath id="clippath-39">
      <rect x="185.38" y="99.43" width="24.42" height="53.05" fill="none" stroke-width="0"/>
    </clipPath>
    <clipPath id="clippath-40">
      <rect x="179.11" y="104.81" width="24.42" height="53.04" fill="none" stroke-width="0"/>
    </clipPath>
    <clipPath id="clippath-41">
      <rect x="172.84" y="110.18" width="24.42" height="53.05" fill="none" stroke-width="0"/>
    </clipPath>
    <clipPath id="clippath-42">
      <rect x="166.57" y="115.56" width="24.42" height="53.05" fill="none" stroke-width="0"/>
    </clipPath>
    <clipPath id="clippath-43">
      <rect x="16.01" y="10.72" width="287.88" height="210.54" fill="none" stroke-width="0"/>
    </clipPath>
    <clipPath id="clippath-44">
      <rect x="116.09" y="174.49" width="38.25" height="22.11" fill="none" stroke-width="0"/>
    </clipPath>
    <clipPath id="clippath-45">
      <rect x="59.4" y="140.64" width="38.24" height="22.11" fill="none" stroke-width="0"/>
    </clipPath>
  </defs>
  <g clip-path="url(#clippath)">
    <g>
      <polygon points="292.4 124.99 292.27 168.41 106.25 61.01 106.37 17.59 292.4 124.99" fill="#ddcd00" stroke-width="0"/>
      <polygon points="292.4 124.99 299.02 121.13 298.9 164.56 292.27 168.41 292.4 124.99" fill="#f8ec17" stroke-width="0"/>
      <polygon points="106.37 17.59 113 13.73 299.02 121.13 292.4 124.99 106.37 17.59" fill="#f8ec17" stroke-width="0"/>
      <polygon points="113 21.44 113.12 64.86 28.12 113.94 28 70.52 113 21.44" fill="#ddcd00" stroke-width="0"/>
      <polygon points="28.12 113.94 21.49 110.09 21.37 66.66 28 70.52 28.12 113.94" fill="#f8ec17" stroke-width="0"/>
      <polygon points="28 70.52 21.37 66.66 106.37 17.59 113 21.44 28 70.52" fill="#f8ec17" stroke-width="0"/>
      <g clip-path="url(#clippath-1)">
        <g clip-path="url(#clippath-2)">
          <g clip-path="url(#clippath-3)">
            <g isolation="isolate">
              <g clip-path="url(#clippath-4)">
                <g clip-path="url(#clippath-5)">
                  <path d="M140.91,61.01l.13.08h0c4.8,2.86,8.68,9.62,8.66,15.15,0,.8-.05,1.3-.2,2-.5,2.37-1.86,3.85-3.84,4.19-1.45.25-3.1-.15-4.79-1.12-.62-.36-1.23-.79-1.85-1.29-2.3-1.89-4.28-4.6-5.55-7.61-1.28-3.01-1.71-5.98-1.21-8.34.29-1.35.8-2.34,1.61-3.09h0s.08-.07.08-.07l.08-.07h0c1.68-1.43,4.07-1.39,6.75.12h0s.13.08.13.08ZM152.69,58.89l-23.51-13.57-.11,38.09,23.51,13.57.11-38.09" fill="#fff" stroke-width="0"/>
                  <path d="M129.07,83.4l.11-38.09,23.51,13.57-.11,38.09-23.51-13.57ZM153.09,58.66l-24.31-14.03-.11,39.01,24.31,14.03.11-39.01" fill="#231f20" stroke-width="0"/>
                  <path d="M140.77,61.24c-2.59-1.45-4.9-1.49-6.54-.11l2.16,3.19,4.35,6.43.03-9.52Z" fill="#fff" stroke-width="0"/>
                  <path d="M133.94,60.89l-.08.07h0s.05-.05.08-.07M140.77,60.93c-2.68-1.5-5.06-1.54-6.75-.11l.21.31c1.63-1.38,3.94-1.34,6.54.11l-.03,9.52-4.35-6.43,4.35,6.43.03-9.82M141.04,61.08l-.13-.08s.09.05.13.08h0" fill="#231f20" stroke-width="0"/>
                  <path d="M134.07,61.27c-.79.73-1.28,1.69-1.56,3-.48,2.29-.07,5.17,1.17,8.09,1.24,2.92,3.15,5.54,5.38,7.38.6.49,1.2.91,1.79,1.25,1.64.94,3.24,1.33,4.65,1.09,1.88-.32,3.19-1.71,3.7-3.93l-8.39-6.9h0s-.08-.06-.08-.06v-.05l-6.67-9.87Z" fill="#f8ec17" stroke-width="0"/>
                  <path d="M134.03,60.82l-.08.07s-.05.05-.08.07c-.81.75-1.32,1.74-1.61,3.09-.5,2.36-.07,5.33,1.21,8.34,1.28,3.01,3.25,5.71,5.55,7.61.62.51,1.24.94,1.85,1.29,1.69.97,3.34,1.37,4.79,1.12,1.98-.33,3.35-1.82,3.84-4.19l-.03.13-8.65-7.11h0s8.39,6.9,8.39,6.9c-.5,2.22-1.81,3.61-3.7,3.93-1.41.24-3.01-.15-4.65-1.09-.6-.34-1.2-.76-1.79-1.25-2.23-1.84-4.15-4.46-5.38-7.38-1.24-2.92-1.66-5.8-1.17-8.09.28-1.31.77-2.26,1.56-3l6.67,9.87v-.39s-4.35-6.43-4.35-6.43l-2.16-3.19-.21-.31h0Z" fill="#231f20" stroke-width="0"/>
                  <path d="M141.04,61.39l-.03,9.71,8.26,6.79c.12-.61.16-1.08.16-1.8.02-5.37-3.74-11.92-8.39-14.69" stroke-width="0"/>
                  <path d="M149.27,77.89l-8.26-6.79.03-9.71c4.66,2.77,8.41,9.33,8.39,14.69,0,.72-.04,1.19-.16,1.8M140.91,61.01l-.13-.08h0s-.03,9.82-.03,9.82v.39s0,.05,0,.05l.08.06,8.65,7.11.03-.13c.15-.69.2-1.2.2-2,.02-5.54-3.86-12.3-8.66-15.15-.04-.03-.09-.05-.13-.08" fill="#231f20" stroke-width="0"/>
                </g>
              </g>
            </g>
            <g isolation="isolate">
              <g clip-path="url(#clippath-6)">
                <g clip-path="url(#clippath-7)">
                  <path d="M134.96,65.71l.14.08h0c4.8,2.86,8.68,9.62,8.66,15.16,0,.74-.05,1.23-.17,1.86h0s-.03.14-.03.14l-.03.13h0c-.94,4.14-4.59,5.24-8.62,2.92-.61-.35-1.22-.78-1.84-1.28-4.75-3.91-7.79-11.06-6.76-15.95.28-1.35.8-2.34,1.61-3.09l.08-.07c1.69-1.5,4.11-1.48,6.83.04h0s.13.08.13.08ZM146.74,63.59l-23.51-13.57-.11,38.09,23.51,13.57.11-38.09" fill="#fff" stroke-width="0"/>
                  <path d="M123.13,88.11l.11-38.09,23.51,13.57-.11,38.09-23.51-13.57ZM147.14,63.36l-24.31-14.03-.11,39.01,24.31,14.03.11-39.01" fill="#231f20" stroke-width="0"/>
                  <path d="M134.83,65.94c-2.59-1.46-4.9-1.49-6.54-.11l5.18,7.67,1.33,1.96.03-9.52Z" fill="#fff" stroke-width="0"/>
                  <path d="M128,65.59l-.08.07s.05-.05.08-.07M134.83,65.63c-2.72-1.53-5.14-1.54-6.83-.04l.08-.07.21.31c1.63-1.38,3.94-1.34,6.54.11l-.03,9.52-1.33-1.96,1.33,1.96.03-9.82M135.1,65.79l-.13-.08s.09.05.13.08h0" fill="#231f20" stroke-width="0"/>
                  <path d="M128.13,65.98c-.79.73-1.28,1.68-1.56,2.99-1,4.73,1.94,11.67,6.56,15.46.6.49,1.2.91,1.8,1.26,1.63.94,3.24,1.33,4.64,1.09,1.88-.32,3.19-1.71,3.7-3.92l-1.85-1.52-6.62-5.44v-.05l-6.67-9.87Z" fill="#f8ec17" stroke-width="0"/>
                  <path d="M143.59,82.8s-.02.09-.03.14l.03-.14h0ZM128.08,65.52l-.08.07s-.05.05-.08.07c-.81.75-1.32,1.74-1.61,3.09-1.03,4.88,2.01,12.04,6.76,15.95.62.51,1.23.93,1.84,1.28,4.03,2.33,7.68,1.22,8.62-2.92l-2.11-1.74,1.85,1.52c-.51,2.21-1.81,3.61-3.7,3.92-1.41.24-3.01-.14-4.64-1.09-.6-.34-1.2-.77-1.8-1.26-4.61-3.79-7.55-10.73-6.56-15.46.27-1.31.77-2.27,1.56-2.99l6.67,9.87v-.39s-1.33-1.96-1.33-1.96l-5.18-7.67-.21-.31" fill="#231f20" stroke-width="0"/>
                  <path d="M135.1,66.1l-.03,9.71,8.26,6.79c.12-.61.16-1.08.16-1.8.02-5.37-3.74-11.92-8.39-14.69" stroke-width="0"/>
                  <path d="M143.33,82.59l-8.26-6.79.03-9.71c4.65,2.77,8.41,9.32,8.39,14.69,0,.72-.04,1.19-.16,1.8M134.96,65.71l-.13-.08h0s-.03,9.83-.03,9.83v.39s0,.05,0,.05l6.62,5.44,2.11,1.74h0s.03-.13.03-.13c0-.05.02-.09.03-.14.12-.63.17-1.12.17-1.86.02-5.54-3.86-12.3-8.66-15.16-.04-.03-.09-.05-.13-.08" fill="#231f20" stroke-width="0"/>
                </g>
              </g>
            </g>
            <g isolation="isolate">
              <g clip-path="url(#clippath-8)">
                <g clip-path="url(#clippath-9)">
                  <path d="M129.02,70.42l.13.08h0c4.8,2.86,8.68,9.62,8.66,15.15,0,.8-.05,1.3-.2,2-.5,2.37-1.86,3.85-3.84,4.19-1.45.25-3.1-.15-4.79-1.12-.62-.36-1.23-.79-1.85-1.29-2.3-1.9-4.28-4.6-5.55-7.61-1.28-3.01-1.71-5.98-1.21-8.34.29-1.35.8-2.34,1.61-3.09h0s.08-.07.08-.07l.08-.07h0c1.68-1.43,4.07-1.39,6.75.12h0s.13.08.13.08ZM140.8,68.3l-23.51-13.57-.11,38.09,23.51,13.57.11-38.09" fill="#fff" stroke-width="0"/>
                  <path d="M117.18,92.81l.11-38.09,23.51,13.57-.11,38.09-23.51-13.57ZM141.2,68.07l-24.31-14.04-.11,39.01,24.31,14.04.11-39.01" fill="#231f20" stroke-width="0"/>
                  <path d="M128.89,70.65c-2.59-1.45-4.9-1.49-6.54-.11l2.16,3.19,4.35,6.43.03-9.52Z" fill="#fff" stroke-width="0"/>
                  <path d="M122.06,70.3l-.08.07h0s.05-.05.08-.07M128.89,70.34c-2.68-1.5-5.06-1.54-6.75-.11l.21.31c1.63-1.38,3.94-1.34,6.54.11l-.03,9.52-4.35-6.43,4.35,6.43.03-9.82M129.15,70.49l-.13-.08s.09.05.13.08h0" fill="#231f20" stroke-width="0"/>
                  <path d="M122.18,70.68c-.78.73-1.28,1.69-1.56,3-.48,2.29-.07,5.17,1.17,8.09,1.24,2.92,3.15,5.54,5.38,7.38.6.49,1.2.91,1.79,1.25,1.64.94,3.24,1.33,4.65,1.09,1.88-.32,3.19-1.71,3.7-3.93l-8.39-6.9h0s-.07-.06-.07-.06v-.05l-6.67-9.87Z" fill="#f8ec17" stroke-width="0"/>
                  <path d="M122.14,70.22l-.08.07s-.05.05-.08.07c-.81.76-1.32,1.74-1.61,3.09-.5,2.36-.07,5.33,1.21,8.34,1.28,3.01,3.25,5.71,5.55,7.61.62.51,1.24.94,1.85,1.29,1.69.97,3.34,1.37,4.79,1.12,1.98-.33,3.35-1.82,3.84-4.19l-.03.13-8.66-7.12h0s8.39,6.9,8.39,6.9c-.5,2.22-1.81,3.61-3.7,3.93-1.41.24-3.01-.15-4.65-1.09-.6-.34-1.2-.76-1.79-1.25-2.23-1.84-4.15-4.46-5.38-7.38-1.24-2.92-1.66-5.8-1.17-8.09.28-1.31.77-2.26,1.56-3l6.67,9.87v-.39s-4.35-6.43-4.35-6.43l-2.16-3.19-.21-.31h0Z" fill="#231f20" stroke-width="0"/>
                  <path d="M129.15,70.8l-.03,9.71,8.26,6.79c.12-.61.16-1.08.17-1.8.02-5.37-3.74-11.92-8.39-14.69" stroke-width="0"/>
                  <path d="M137.38,87.3l-8.26-6.79.03-9.71c4.66,2.77,8.41,9.33,8.39,14.69,0,.72-.04,1.19-.17,1.8M129.02,70.42l-.13-.08h0s-.03,9.82-.03,9.82v.39s0,.05,0,.05l.07.06,8.66,7.12.03-.13c.15-.69.2-1.2.2-2,.02-5.54-3.86-12.3-8.66-15.15-.04-.03-.09-.05-.13-.08" fill="#231f20" stroke-width="0"/>
                </g>
              </g>
            </g>
            <g isolation="isolate">
              <g clip-path="url(#clippath-10)">
                <g clip-path="url(#clippath-11)">
                  <path d="M123.08,75.12l.13.08h0c4.8,2.86,8.67,9.62,8.66,15.16,0,.74-.05,1.23-.17,1.86h0s-.03.14-.03.14l-.03.13h0c-.94,4.14-4.59,5.24-8.62,2.92-.61-.35-1.22-.78-1.84-1.28-4.75-3.91-7.79-11.06-6.76-15.95.28-1.35.8-2.34,1.61-3.09l.08-.07.08-.07h0c1.68-1.42,4.07-1.39,6.75.11h0s.13.08.13.08ZM134.86,73l-23.51-13.57-.11,38.09,23.51,13.57.11-38.09" fill="#fff" stroke-width="0"/>
                  <path d="M111.24,97.52l.11-38.09,23.51,13.57-.11,38.09-23.51-13.57ZM135.26,72.77l-24.31-14.03-.11,39.01,24.31,14.03.11-39.01" fill="#231f20" stroke-width="0"/>
                  <path d="M122.94,75.35c-2.59-1.45-4.9-1.49-6.54-.11l6.51,9.63.03-9.51Z" fill="#fff" stroke-width="0"/>
                  <path d="M116.11,75l-.08.07s.05-.05.08-.07M122.94,75.04c-2.67-1.5-5.06-1.54-6.75-.11l.21.31c1.63-1.38,3.94-1.34,6.54.11l-.03,9.51.03-9.82M123.21,75.2l-.13-.08s.09.05.13.08h0" fill="#231f20" stroke-width="0"/>
                  <path d="M116.24,75.39c-.79.73-1.28,1.68-1.56,2.99-1,4.74,1.95,11.67,6.56,15.46.6.49,1.19.91,1.78,1.25,3.91,2.26,7.44,1.19,8.36-2.82l-1.4-1.15-7.07-5.81v-.05l-6.67-9.86Z" fill="#f8ec17" stroke-width="0"/>
                  <path d="M131.7,92.21s-.02.09-.03.14l.03-.14h0ZM116.19,74.93l-.08.07s-.05.05-.08.07c-.81.75-1.32,1.74-1.61,3.09-1.03,4.88,2.01,12.04,6.76,15.95.62.51,1.23.93,1.84,1.28,4.03,2.33,7.68,1.22,8.62-2.92l-1.66-1.37,1.4,1.15c-.92,4.01-4.45,5.08-8.36,2.82-.59-.34-1.18-.75-1.78-1.25-4.61-3.79-7.55-10.73-6.56-15.46.28-1.31.77-2.26,1.56-2.99l6.67,9.86v-.39s-6.51-9.63-6.51-9.63l-.21-.31h0" fill="#231f20" stroke-width="0"/>
                  <path d="M123.21,75.51l-.03,9.71,8.26,6.79c.12-.61.16-1.08.16-1.8.02-5.37-3.74-11.92-8.39-14.69" stroke-width="0"/>
                  <path d="M131.44,92l-8.26-6.79.03-9.71c4.65,2.77,8.41,9.32,8.39,14.69,0,.72-.04,1.19-.16,1.8M123.08,75.12l-.13-.08h0s-.03,9.82-.03,9.82v.39s0,.05,0,.05l7.07,5.81,1.66,1.37h0s.03-.13.03-.13c0-.05.02-.09.03-.14.12-.63.17-1.12.17-1.86.02-5.54-3.85-12.3-8.66-15.15-.04-.03-.09-.05-.13-.08" fill="#231f20" stroke-width="0"/>
                </g>
              </g>
            </g>
            <g isolation="isolate">
              <g clip-path="url(#clippath-12)">
                <g clip-path="url(#clippath-13)">
                  <path d="M117.13,79.82l.14.08h0c4.8,2.86,8.68,9.62,8.66,15.15,0,.8-.05,1.3-.2,2-.9,4.25-4.58,5.4-8.65,3.05-.61-.35-1.22-.78-1.83-1.28-2.3-1.89-4.28-4.6-5.55-7.61-1.28-3.01-1.71-5.97-1.21-8.34.28-1.35.8-2.34,1.61-3.09h0s.08-.07.08-.07l.08-.07h0c1.68-1.43,4.07-1.39,6.75.12h0s.13.08.13.08ZM128.91,77.7l-23.51-13.57-.11,38.09,23.51,13.57.11-38.09" fill="#fff" stroke-width="0"/>
                  <path d="M105.3,102.22l.11-38.09,23.51,13.57-.11,38.09-23.51-13.57ZM129.31,77.47l-24.31-14.04-.11,39.01,24.31,14.04.11-39.01" fill="#231f20" stroke-width="0"/>
                  <path d="M117,80.05c-2.59-1.45-4.9-1.49-6.54-.11l.98,1.45,5.53,8.17.03-9.52Z" fill="#fff" stroke-width="0"/>
                  <path d="M110.17,79.71l-.08.07h0s.05-.05.08-.07M117,79.75c-2.68-1.5-5.06-1.54-6.75-.11l.21.31c1.63-1.38,3.94-1.35,6.54.11l-.03,9.52-5.53-8.17,5.53,8.18.03-9.82M117.27,79.9l-.13-.08s.09.05.13.08h0" fill="#231f20" stroke-width="0"/>
                  <path d="M110.3,80.09c-.78.73-1.28,1.69-1.56,3-.48,2.29-.07,5.16,1.17,8.09,1.24,2.92,3.15,5.54,5.38,7.38.6.49,1.19.9,1.78,1.24,3.91,2.26,7.45,1.19,8.36-2.82l-8.39-6.9h0s-.07-.06-.07-.06v-.05l-6.67-9.87Z" fill="#f8ec17" stroke-width="0"/>
                  <path d="M110.25,79.63l-.08.07s-.05.05-.08.07c-.81.75-1.33,1.74-1.61,3.09-.5,2.36-.07,5.33,1.21,8.34,1.28,3.01,3.25,5.72,5.55,7.61.61.5,1.23.93,1.83,1.28,4.08,2.35,7.76,1.2,8.65-3.05l-.03.13-8.66-7.12h0s8.39,6.9,8.39,6.9c-.92,4.01-4.45,5.08-8.36,2.82-.59-.34-1.18-.75-1.78-1.24-2.23-1.84-4.15-4.46-5.38-7.38-1.24-2.92-1.66-5.8-1.17-8.09.28-1.31.77-2.26,1.56-3l6.67,9.87v-.39s-5.53-8.18-5.53-8.18l-.98-1.45-.21-.31h0Z" fill="#231f20" stroke-width="0"/>
                  <path d="M117.27,80.21l-.03,9.71,8.26,6.79c.12-.61.16-1.08.17-1.8.02-5.37-3.74-11.92-8.39-14.69" stroke-width="0"/>
                  <path d="M125.49,96.7l-8.26-6.79.03-9.71c4.66,2.77,8.41,9.32,8.39,14.69,0,.72-.04,1.19-.17,1.8M117.13,79.82l-.13-.08h0s-.03,9.83-.03,9.83v.39s0,.05,0,.05l.07.06,8.66,7.12.03-.13c.15-.7.2-1.2.2-2,.02-5.54-3.86-12.3-8.66-15.15-.04-.03-.09-.05-.13-.08" fill="#231f20" stroke-width="0"/>
                </g>
              </g>
            </g>
            <g isolation="isolate">
              <g clip-path="url(#clippath-14)">
                <g clip-path="url(#clippath-15)">
                  <path d="M111.19,84.53l.13.08h0c4.8,2.86,8.68,9.62,8.66,15.16,0,.74-.05,1.23-.17,1.86h0s-.03.14-.03.14c-.89,4.25-4.58,5.4-8.65,3.05-.61-.35-1.22-.78-1.84-1.28-4.75-3.91-7.79-11.07-6.76-15.95.28-1.35.8-2.34,1.61-3.09h0s.08-.07.08-.07l.08-.07h0c1.68-1.43,4.07-1.39,6.75.12h0s.13.08.13.08ZM122.97,82.41l-23.51-13.57-.11,38.09,23.51,13.57.11-38.09" fill="#fff" stroke-width="0"/>
                  <path d="M99.35,106.92l.11-38.09,23.51,13.57-.11,38.09-23.51-13.57ZM123.37,82.18l-24.31-14.03-.11,39.01,24.31,14.03.11-39.01" fill="#231f20" stroke-width="0"/>
                  <path d="M111.05,84.76c-2.59-1.45-4.9-1.49-6.54-.11l6.51,9.63.03-9.51Z" fill="#fff" stroke-width="0"/>
                  <path d="M104.23,84.41l-.08.07h0s.05-.05.08-.07M111.06,84.45c-2.68-1.5-5.06-1.54-6.75-.11l.21.31c1.63-1.38,3.94-1.34,6.54.11l-.03,9.51.03-9.82M111.32,84.6l-.13-.08s.09.05.13.08h0" fill="#231f20" stroke-width="0"/>
                  <path d="M104.35,84.8c-.79.73-1.28,1.68-1.56,2.99-1,4.74,1.95,11.67,6.56,15.46.6.49,1.2.91,1.8,1.26,1.63.94,3.24,1.33,4.64,1.09,1.88-.32,3.19-1.71,3.7-3.93l-1.44-1.19-7.02-5.77v-.05l-6.67-9.86Z" fill="#f8ec17" stroke-width="0"/>
                  <path d="M104.31,84.34l-.08.07s-.05.05-.08.07c-.81.75-1.32,1.74-1.61,3.09-1.03,4.88,2.01,12.04,6.76,15.95.62.51,1.23.93,1.84,1.28,4.07,2.35,7.75,1.2,8.65-3.05l.03-.14h0s-.02.09-.03.14l-.03.13-1.71-1.4,1.44,1.19c-.5,2.22-1.81,3.61-3.7,3.93-1.41.24-3.01-.14-4.65-1.09-.6-.34-1.2-.77-1.8-1.26-4.61-3.79-7.55-10.73-6.56-15.46.28-1.31.77-2.26,1.56-2.99l6.67,9.86v-.39s-6.51-9.63-6.51-9.63l-.21-.31h0Z" fill="#231f20" stroke-width="0"/>
                  <path d="M111.32,84.91l-.03,9.71,8.26,6.79c.12-.61.16-1.08.16-1.8.02-5.37-3.74-11.92-8.39-14.69" stroke-width="0"/>
                  <path d="M119.55,101.41l-8.26-6.79.03-9.71c4.66,2.77,8.41,9.32,8.39,14.69,0,.72-.04,1.19-.16,1.8M111.19,84.53l-.13-.08h0s-.03,9.82-.03,9.82v.39s0,.05,0,.05l7.02,5.77,1.71,1.4.03-.13s.02-.09.03-.14c.12-.63.17-1.12.17-1.86.02-5.54-3.86-12.3-8.66-15.16-.04-.03-.09-.05-.13-.08" fill="#231f20" stroke-width="0"/>
                </g>
              </g>
            </g>
            <g isolation="isolate">
              <g clip-path="url(#clippath-16)">
                <g clip-path="url(#clippath-17)">
                  <path d="M105.25,89.23l.13.08h0c4.8,2.86,8.68,9.62,8.66,15.15,0,.75-.05,1.23-.17,1.86h0s-.03.13-.03.13l-.03.13h0c-.52,2.29-1.87,3.73-3.81,4.05-1.45.25-3.1-.15-4.79-1.12-.62-.36-1.24-.79-1.85-1.29-4.75-3.91-7.79-11.06-6.76-15.95.28-1.35.8-2.34,1.61-3.09h0s.08-.07.08-.07c1.69-1.5,4.11-1.48,6.83.04h0s.13.08.13.08ZM117.02,87.11l-23.51-13.57-.11,38.09,23.51,13.57.11-38.09" fill="#fff" stroke-width="0"/>
                  <path d="M93.41,111.63l.11-38.09,23.51,13.57-.11,38.09-23.51-13.57ZM117.43,86.88l-24.31-14.04-.11,39.01,24.31,14.04.11-39.01" fill="#231f20" stroke-width="0"/>
                  <path d="M105.11,89.46c-2.59-1.45-4.9-1.49-6.54-.11l.98,1.45,5.53,8.17.03-9.52Z" fill="#fff" stroke-width="0"/>
                  <path d="M98.28,89.11l-.08.07h0s.05-.05.08-.07M105.11,89.16c-2.72-1.53-5.14-1.55-6.83-.04l.08-.07.21.31c1.63-1.38,3.94-1.35,6.54.11l-.03,9.52-5.53-8.17,5.53,8.18.03-9.82M105.38,89.31l-.13-.08s.09.05.13.08h0" fill="#231f20" stroke-width="0"/>
                  <path d="M98.41,89.5c-.79.73-1.28,1.69-1.56,3-1,4.73,1.94,11.67,6.56,15.47.6.49,1.2.91,1.79,1.25,1.64.94,3.24,1.33,4.65,1.09,1.88-.32,3.19-1.71,3.7-3.93l-8.39-6.9h0s-.07-.06-.07-.06v-.05l-6.67-9.87Z" fill="#f8ec17" stroke-width="0"/>
                  <path d="M113.87,106.33s-.02.09-.03.13l.03-.13h0ZM98.37,89.04l-.08.07s-.05.05-.08.07c-.81.76-1.32,1.74-1.61,3.09-1.03,4.88,2.01,12.04,6.76,15.95.62.51,1.24.94,1.85,1.29,1.69.97,3.34,1.37,4.79,1.12,1.94-.33,3.29-1.76,3.81-4.05l-8.65-7.12h0s8.39,6.9,8.39,6.9c-.51,2.22-1.81,3.61-3.7,3.93-1.41.24-3.01-.15-4.65-1.09-.6-.34-1.2-.76-1.79-1.25-4.61-3.79-7.55-10.73-6.56-15.46.27-1.31.77-2.27,1.56-3l6.67,9.87v-.39s-5.53-8.18-5.53-8.18l-.98-1.45-.21-.31" fill="#231f20" stroke-width="0"/>
                  <path d="M105.38,89.62l-.03,9.71,8.26,6.79c.12-.61.16-1.08.17-1.8.02-5.37-3.74-11.92-8.39-14.69" stroke-width="0"/>
                  <path d="M113.61,106.11l-8.26-6.79.03-9.71c4.66,2.77,8.41,9.32,8.39,14.69,0,.72-.04,1.2-.17,1.8M105.25,89.23l-.13-.08h0s-.03,9.83-.03,9.83v.39s0,.05,0,.05l.07.06,8.65,7.12h0s.03-.13.03-.13c0-.04.02-.09.03-.13.13-.63.17-1.12.17-1.86.02-5.54-3.86-12.3-8.66-15.15-.04-.03-.09-.05-.13-.08" fill="#231f20" stroke-width="0"/>
                </g>
              </g>
            </g>
          </g>
        </g>
        <g clip-path="url(#clippath-18)">
          <g clip-path="url(#clippath-19)">
            <g isolation="isolate">
              <g clip-path="url(#clippath-20)">
                <g clip-path="url(#clippath-21)">
                  <path d="M173.79,89.12l-2.95,4.15,5.88,3.39-2.92-7.55ZM180.24,99.19l.02-6.03,5.25,3.03-.02,6.03-5.25-3.03M170.14,93.34l3.65-5.13,3.61,9.33-7.27-4.19M178.24,88.61c-1.66-.96-3-3.29-3-5.19,0-1.9,1.36-2.67,3.02-1.72,1.66.96,3,3.28,2.99,5.19,0,1.9-1.36,2.68-3.01,1.72M189.72,77.41l-23.51-13.57-.11,38.09,23.51,13.57.11-38.09" fill="#fff" stroke-width="0"/>
                  <path d="M166.1,101.93l.11-38.09,23.51,13.57-.11,38.09-23.51-13.57ZM190.12,77.18l-24.31-14.03-.11,39.01,24.31,14.03.11-39.01" fill="#231f20" stroke-width="0"/>
                  <path d="M178.25,82.16c-1.44-.83-2.61-.16-2.61,1.49,0,1.65,1.16,3.67,2.6,4.5,1.44.83,2.61.16,2.61-1.49,0-1.65-1.16-3.67-2.6-4.5" fill="#dbdbdb" stroke-width="0"/>
                  <path d="M178.24,88.14c-1.44-.83-2.6-2.85-2.6-4.5,0-1.65,1.18-2.32,2.61-1.49,1.44.83,2.6,2.85,2.6,4.5,0,1.65-1.18,2.32-2.61,1.49M178.26,81.7c-1.66-.96-3.01-.19-3.02,1.72,0,1.9,1.34,4.23,3,5.19,1.66.96,3.01.18,3.01-1.72,0-1.9-1.34-4.23-2.99-5.19" stroke-width="0"/>
                  <polygon points="185.1 96.42 180.66 93.85 180.64 98.96 185.09 101.53 185.1 96.42" fill="#f8ec17" stroke-width="0"/>
                  <path d="M180.64,98.96v-5.11s4.46,2.57,4.46,2.57v5.11s-4.46-2.57-4.46-2.57ZM185.5,96.19l-5.25-3.03-.02,6.03,5.25,3.03.02-6.03" stroke-width="0"/>
                  <path d="M170.84,93.27l2.95-4.15,2.92,7.55-5.88-3.39ZM173.79,88.2l-3.65,5.13,7.27,4.19-3.61-9.33" stroke-width="0"/>
                </g>
              </g>
            </g>
            <g isolation="isolate">
              <g clip-path="url(#clippath-22)">
                <g clip-path="url(#clippath-23)">
                  <path d="M167.06,93.92l-2.95,4.15,5.88,3.39-2.92-7.55ZM173.51,103.99l.02-6.03,5.25,3.03-.02,6.03-5.25-3.03M163.41,98.13l3.65-5.13,3.61,9.33-7.27-4.19M171.51,93.4c-1.66-.96-3-3.29-3-5.19,0-1.9,1.36-2.67,3.02-1.72,1.66.96,3,3.28,2.99,5.19,0,1.9-1.36,2.68-3.01,1.72M182.99,82.21l-23.51-13.57-.11,38.09,23.51,13.57.11-38.09" fill="#fff" stroke-width="0"/>
                  <path d="M159.37,106.72l.11-38.09,23.51,13.57-.11,38.09-23.51-13.57ZM183.39,81.98l-24.31-14.03-.11,39.01,24.31,14.03.11-39.01" fill="#231f20" stroke-width="0"/>
                  <path d="M171.53,86.95c-1.44-.83-2.61-.16-2.61,1.49,0,1.65,1.16,3.67,2.6,4.5,1.44.83,2.61.16,2.61-1.49,0-1.65-1.16-3.67-2.6-4.5" fill="#dbdbdb" stroke-width="0"/>
                  <path d="M171.51,92.94c-1.44-.83-2.6-2.85-2.6-4.5,0-1.65,1.18-2.32,2.61-1.49,1.44.83,2.6,2.85,2.6,4.5,0,1.65-1.18,2.32-2.61,1.49M171.53,86.49c-1.66-.96-3.01-.19-3.02,1.72,0,1.9,1.34,4.23,3,5.19,1.66.96,3.01.18,3.01-1.72,0-1.9-1.34-4.23-2.99-5.19" stroke-width="0"/>
                  <polygon points="178.37 101.21 173.93 98.65 173.91 103.76 178.36 106.32 178.37 101.21" fill="#f8ec17" stroke-width="0"/>
                  <path d="M173.91,103.76v-5.11s4.46,2.57,4.46,2.57v5.11s-4.46-2.57-4.46-2.57ZM178.78,100.99l-5.25-3.03-.02,6.03,5.25,3.03.02-6.03" stroke-width="0"/>
                  <path d="M164.11,98.07l2.95-4.15,2.92,7.55-5.88-3.39ZM167.06,93l-3.65,5.13,7.27,4.19-3.61-9.33" stroke-width="0"/>
                </g>
              </g>
            </g>
            <g isolation="isolate">
              <g clip-path="url(#clippath-24)">
                <g clip-path="url(#clippath-25)">
                  <path d="M160.34,98.71l-2.96,4.15,5.88,3.39-2.92-7.55ZM166.79,108.78l.02-6.03,5.25,3.03-.02,6.03-5.25-3.03M156.69,102.92l3.65-5.13,3.61,9.33-7.27-4.19M164.78,98.19c-1.66-.96-3-3.29-3-5.19,0-1.9,1.36-2.67,3.02-1.72,1.66.96,3,3.28,3,5.19,0,1.9-1.36,2.68-3.02,1.72M176.27,87l-23.51-13.57-.11,38.09,23.51,13.57.11-38.09" fill="#fff" stroke-width="0"/>
                  <path d="M152.65,111.52l.11-38.09,23.51,13.57-.11,38.09-23.51-13.57ZM176.67,86.77l-24.31-14.03-.11,39.01,24.31,14.03.11-39.01" fill="#231f20" stroke-width="0"/>
                  <path d="M164.8,91.74c-1.44-.83-2.61-.16-2.61,1.49,0,1.65,1.16,3.67,2.6,4.5,1.44.83,2.61.16,2.61-1.49,0-1.65-1.16-3.67-2.6-4.5" fill="#dbdbdb" stroke-width="0"/>
                  <path d="M164.78,97.73c-1.44-.83-2.6-2.85-2.6-4.5,0-1.65,1.18-2.32,2.61-1.49,1.44.83,2.6,2.85,2.6,4.5,0,1.65-1.18,2.32-2.61,1.49M164.8,91.29c-1.66-.96-3.01-.19-3.02,1.72,0,1.9,1.34,4.23,3,5.19,1.66.96,3.01.18,3.02-1.72,0-1.9-1.34-4.23-3-5.19" stroke-width="0"/>
                  <polygon points="171.65 106.01 167.2 103.44 167.19 108.55 171.64 111.12 171.65 106.01" fill="#f8ec17" stroke-width="0"/>
                  <path d="M167.19,108.55v-5.11s4.46,2.57,4.46,2.57v5.11s-4.46-2.57-4.46-2.57ZM172.05,105.78l-5.25-3.03-.02,6.03,5.25,3.03.02-6.03" stroke-width="0"/>
                  <path d="M157.38,102.87l2.96-4.15,2.92,7.55-5.88-3.39ZM160.34,97.79l-3.65,5.13,7.26,4.19-3.61-9.33" stroke-width="0"/>
                </g>
              </g>
            </g>
            <g isolation="isolate">
              <g clip-path="url(#clippath-26)">
                <g clip-path="url(#clippath-27)">
                  <path d="M153.61,103.51l-2.96,4.15,5.88,3.39-2.92-7.55ZM160.06,113.57l.02-6.03,5.25,3.03-.02,6.03-5.25-3.03M149.96,107.72l3.65-5.13,3.61,9.32-7.27-4.19M158.06,102.99c-1.66-.96-3-3.28-3-5.19,0-1.9,1.36-2.67,3.02-1.72,1.66.96,3,3.28,3,5.19,0,1.91-1.36,2.68-3.02,1.72M169.54,91.8l-23.51-13.57-.11,38.09,23.51,13.57.11-38.09" fill="#fff" stroke-width="0"/>
                  <path d="M145.92,116.31l.11-38.09,23.51,13.57-.11,38.09-23.51-13.57ZM169.94,91.56l-24.31-14.03-.11,39.01,24.31,14.03.11-39.01" fill="#231f20" stroke-width="0"/>
                  <path d="M158.07,96.54c-1.44-.83-2.61-.16-2.61,1.49,0,1.65,1.16,3.67,2.6,4.5,1.44.83,2.61.16,2.61-1.49,0-1.65-1.16-3.67-2.6-4.5" fill="#dbdbdb" stroke-width="0"/>
                  <path d="M158.06,102.53c-1.44-.83-2.6-2.85-2.6-4.5,0-1.65,1.18-2.32,2.61-1.49s2.6,2.85,2.6,4.5c0,1.65-1.18,2.32-2.61,1.49M158.07,96.08c-1.66-.96-3.01-.19-3.02,1.72,0,1.91,1.34,4.23,3,5.19,1.66.96,3.01.19,3.02-1.72,0-1.9-1.34-4.23-3-5.19" stroke-width="0"/>
                  <polygon points="164.92 110.8 160.48 108.23 160.46 113.35 164.91 115.91 164.92 110.8" fill="#f8ec17" stroke-width="0"/>
                  <path d="M160.46,113.35v-5.11s4.46,2.57,4.46,2.57v5.11s-4.46-2.57-4.46-2.57ZM165.32,110.58l-5.25-3.03-.02,6.03,5.25,3.03.02-6.03" stroke-width="0"/>
                  <path d="M150.65,107.66l2.96-4.15,2.92,7.55-5.88-3.39ZM153.61,102.59l-3.65,5.13,7.26,4.19-3.61-9.32" stroke-width="0"/>
                </g>
              </g>
            </g>
            <g isolation="isolate">
              <g clip-path="url(#clippath-28)">
                <g clip-path="url(#clippath-29)">
                  <path d="M146.88,108.3l-2.96,4.15,5.88,3.39-2.92-7.55ZM153.33,118.37l.02-6.03,5.25,3.03-.02,6.03-5.25-3.03M143.23,112.51l3.65-5.13,3.61,9.33-7.27-4.19M151.33,107.78c-1.66-.96-3-3.28-2.99-5.19,0-1.91,1.36-2.68,3.01-1.72,1.66.96,3,3.28,3,5.19,0,1.9-1.36,2.67-3.02,1.72M162.81,96.59l-23.51-13.57-.11,38.09,23.51,13.57.11-38.09" fill="#fff" stroke-width="0"/>
                  <path d="M139.2,121.11l.11-38.09,23.51,13.57-.11,38.09-23.51-13.57ZM163.21,96.36l-24.31-14.04-.11,39.01,24.31,14.03.11-39.01" fill="#231f20" stroke-width="0"/>
                  <path d="M151.35,101.33c-1.44-.83-2.61-.16-2.61,1.49,0,1.65,1.16,3.67,2.6,4.5,1.44.83,2.61.16,2.61-1.49,0-1.65-1.16-3.67-2.6-4.5" fill="#dbdbdb" stroke-width="0"/>
                  <path d="M151.33,107.32c-1.44-.83-2.6-2.85-2.6-4.5,0-1.65,1.18-2.32,2.61-1.49s2.6,2.85,2.6,4.5c0,1.65-1.18,2.32-2.61,1.49M151.35,100.87c-1.66-.96-3.01-.19-3.01,1.72,0,1.9,1.34,4.23,2.99,5.19,1.66.96,3.01.19,3.02-1.72,0-1.91-1.34-4.23-3-5.19" stroke-width="0"/>
                  <polygon points="158.2 115.6 153.75 113.03 153.74 118.14 158.18 120.71 158.2 115.6" fill="#f8ec17" stroke-width="0"/>
                  <path d="M153.74,118.14v-5.11s4.46,2.57,4.46,2.57v5.11s-4.46-2.57-4.46-2.57ZM158.6,115.37l-5.25-3.03-.02,6.03,5.25,3.03.02-6.03" stroke-width="0"/>
                  <path d="M143.93,112.45l2.96-4.15,2.92,7.55-5.88-3.39ZM146.89,107.38l-3.65,5.13,7.26,4.19-3.61-9.33" stroke-width="0"/>
                </g>
              </g>
            </g>
            <g isolation="isolate">
              <g clip-path="url(#clippath-30)">
                <g clip-path="url(#clippath-31)">
                  <path d="M140.16,113.09l-2.96,4.15,5.88,3.39-2.92-7.55ZM146.61,123.16l.02-6.03,5.25,3.03-.02,6.03-5.25-3.03M136.5,117.31l3.65-5.13,3.61,9.33-7.27-4.19M144.6,112.57c-1.66-.96-3-3.28-2.99-5.19,0-1.9,1.36-2.68,3.01-1.72,1.66.96,3,3.29,3,5.19,0,1.9-1.36,2.67-3.02,1.72M156.08,101.38l-23.51-13.57-.11,38.09,23.51,13.57.11-38.09" fill="#fff" stroke-width="0"/>
                  <path d="M132.47,125.9l.11-38.09,23.51,13.57-.11,38.09-23.51-13.57ZM156.49,101.16l-24.31-14.04-.11,39.01,24.31,14.04.11-39.01" fill="#231f20" stroke-width="0"/>
                  <path d="M144.62,106.13c-1.44-.83-2.61-.16-2.61,1.49,0,1.65,1.16,3.67,2.6,4.5,1.44.83,2.61.16,2.61-1.49,0-1.65-1.16-3.67-2.6-4.5" fill="#dbdbdb" stroke-width="0"/>
                  <path d="M144.6,112.12c-1.44-.83-2.6-2.85-2.6-4.5,0-1.65,1.18-2.32,2.61-1.49s2.6,2.85,2.6,4.5c0,1.65-1.18,2.32-2.61,1.49M144.62,105.67c-1.66-.96-3.01-.18-3.01,1.72,0,1.9,1.34,4.23,2.99,5.19,1.66.96,3.01.19,3.02-1.72,0-1.9-1.34-4.23-3-5.19" stroke-width="0"/>
                  <polygon points="151.47 120.39 147.02 117.83 147.01 122.94 151.46 125.5 151.47 120.39" fill="#f8ec17" stroke-width="0"/>
                  <path d="M147.01,122.94v-5.11s4.46,2.57,4.46,2.57v5.11s-4.46-2.57-4.46-2.57ZM151.87,120.16l-5.25-3.03-.02,6.03,5.25,3.03.02-6.03" stroke-width="0"/>
                  <path d="M137.2,117.25l2.96-4.15,2.92,7.55-5.88-3.39ZM140.16,112.17l-3.65,5.13,7.26,4.19-3.61-9.33" stroke-width="0"/>
                </g>
              </g>
            </g>
            <g isolation="isolate">
              <g clip-path="url(#clippath-32)">
                <g clip-path="url(#clippath-33)">
                  <path d="M133.43,117.89l-2.96,4.15,5.88,3.39-2.92-7.55ZM139.88,127.96l.02-6.03,5.25,3.03-.02,6.03-5.25-3.03M129.78,122.1l3.65-5.13,3.61,9.33-7.27-4.19M137.87,117.37c-1.66-.96-3-3.28-2.99-5.19,0-1.9,1.36-2.68,3.01-1.72,1.66.96,3,3.29,3,5.19,0,1.9-1.36,2.67-3.02,1.72M149.36,106.18l-23.51-13.57-.11,38.09,23.51,13.57.11-38.09" fill="#fff" stroke-width="0"/>
                  <path d="M125.74,130.7l.11-38.09,23.51,13.57-.11,38.09-23.51-13.57ZM149.76,105.95l-24.31-14.04-.11,39.01,24.31,14.04.11-39.01" fill="#231f20" stroke-width="0"/>
                  <path d="M137.89,110.92c-1.44-.83-2.61-.16-2.61,1.49,0,1.65,1.16,3.67,2.6,4.5,1.44.83,2.61.16,2.61-1.49,0-1.65-1.16-3.67-2.6-4.5" fill="#dbdbdb" stroke-width="0"/>
                  <path d="M137.88,116.91c-1.44-.83-2.6-2.85-2.6-4.5,0-1.65,1.18-2.32,2.61-1.49s2.6,2.85,2.6,4.5-1.18,2.32-2.61,1.49M137.89,110.46c-1.66-.96-3.01-.18-3.01,1.72,0,1.9,1.34,4.23,2.99,5.19,1.66.96,3.01.19,3.02-1.72,0-1.9-1.34-4.23-3-5.19" stroke-width="0"/>
                  <polygon points="144.74 125.19 140.3 122.62 140.28 127.73 144.73 130.3 144.74 125.19" fill="#f8ec17" stroke-width="0"/>
                  <path d="M140.28,127.73v-5.11s4.46,2.57,4.46,2.57v5.11s-4.46-2.57-4.46-2.57ZM145.14,124.96l-5.25-3.03-.02,6.03,5.25,3.03.02-6.03" stroke-width="0"/>
                  <path d="M130.47,122.04l2.96-4.15,2.92,7.55-5.88-3.39ZM133.43,116.97l-3.65,5.13,7.26,4.19-3.61-9.33" stroke-width="0"/>
                </g>
              </g>
            </g>
          </g>
        </g>
        <g clip-path="url(#clippath-34)">
          <g clip-path="url(#clippath-35)">
            <g isolation="isolate">
              <g clip-path="url(#clippath-36)">
                <path d="M219.47,123.16l2.7,1.56v-4.37s-2.69-1.56-2.69-1.56v4.37ZM222.45,120.19l2.7,1.56v-4.37s-2.69-1.56-2.69-1.56v4.37ZM213.54,119.73l2.7,1.56v-4.37s-2.69-1.56-2.69-1.56v4.37ZM216.52,116.77l2.7,1.56v-4.37s-2.69-1.56-2.69-1.56v4.37ZM222.46,115.52l2.7,1.56v-4.37s-2.69-1.56-2.69-1.56v4.37ZM213.55,115.06l2.7,1.56v-4.37s-2.68-1.56-2.68-1.56v4.37ZM219.5,113.81l2.7,1.56v-4.37s-2.69-1.56-2.69-1.56v4.37ZM210.59,113.35l2.7,1.56v-4.37s-2.69-1.56-2.69-1.56v4.37ZM216.53,112.1l2.7,1.56v-4.37s-2.69-1.56-2.69-1.56v4.37ZM222.47,110.84l2.7,1.56v-4.37s-2.69-1.56-2.69-1.56v4.37ZM210.6,108.67l2.7,1.56v-4.37s-2.69-1.56-2.69-1.56v4.37ZM216.54,107.42l2.7,1.56v-4.37s-2.69-1.56-2.69-1.56v4.37ZM213.58,105.7l2.7,1.56v-4.37s-2.68-1.56-2.68-1.56v4.37ZM207.34,116.46l.07-23.69,18.06,10.43-.07,23.69-18.06-10.43ZM204.59,122.09l23.51,13.57.11-38.09-23.51-13.57-.11,38.09Z" fill="#fff" stroke-width="0"/>
                <path d="M204.59,122.09l.11-38.09,23.51,13.57-.11,38.09-23.51-13.57ZM204.31,83.31l-.11,39.01,24.31,14.03.11-39.01-24.31-14.03Z" fill="#231f20" stroke-width="0"/>
                <polygon points="222.43 124.87 225.13 126.43 225.15 122.06 222.45 120.5 222.43 124.87" fill="#fff" stroke-width="0"/>
                <polygon points="222.49 106.16 225.19 107.72 225.2 103.35 222.5 101.79 222.49 106.16" stroke-width="0"/>
                <polygon points="219.48 118.48 222.18 120.04 222.19 115.67 219.5 114.11 219.48 118.48" fill="#f8ec17" stroke-width="0"/>
                <polygon points="219.51 109.13 222.21 110.69 222.22 106.32 219.52 104.76 219.51 109.13" fill="#f8ec17" stroke-width="0"/>
                <polygon points="219.52 104.45 222.22 106.01 222.23 101.64 219.54 100.08 219.52 104.45" stroke-width="0"/>
                <polygon points="216.5 121.45 219.2 123 219.22 118.64 216.52 117.08 216.5 121.45" fill="#f8ec17" stroke-width="0"/>
                <polygon points="216.56 102.74 219.26 104.3 219.27 99.93 216.57 98.37 216.56 102.74" stroke-width="0"/>
                <polygon points="213.57 110.38 216.26 111.94 216.28 107.57 213.58 106.01 213.57 110.38" fill="#f8ec17" stroke-width="0"/>
                <polygon points="213.59 101.03 216.29 102.59 216.3 98.22 213.61 96.66 213.59 101.03" stroke-width="0"/>
                <polygon points="210.57 118.02 213.27 119.58 213.29 115.21 210.59 113.65 210.57 118.02" fill="#f8ec17" stroke-width="0"/>
                <polygon points="210.61 103.99 213.31 105.55 213.33 101.18 210.63 99.62 210.61 103.99" fill="#f8ec17" stroke-width="0"/>
                <polygon points="210.63 99.32 213.33 100.87 213.34 96.51 210.64 94.95 210.63 99.32" stroke-width="0"/>
                <polygon points="207.61 116.31 210.31 117.87 210.32 113.5 207.62 111.94 207.61 116.31" fill="#dbdbdb" stroke-width="0"/>
                <polygon points="207.62 111.63 210.32 113.19 210.33 108.82 207.63 107.27 207.62 111.63" fill="#dbdbdb" stroke-width="0"/>
                <polygon points="207.64 106.96 210.33 108.52 210.34 104.14 207.65 102.59 207.64 106.96" fill="#dbdbdb" stroke-width="0"/>
                <polygon points="207.65 102.28 210.35 103.84 210.36 99.47 207.66 97.91 207.65 102.28" fill="#dbdbdb" stroke-width="0"/>
                <polygon points="207.66 97.6 210.36 99.16 210.37 94.79 207.67 93.23 207.66 97.6" stroke-width="0"/>
                <path d="M207.67,93.24l2.7,1.56v-.16s.27.16.27.16v.16s2.7,1.56,2.7,1.56v-.15l.27.15v.16s2.7,1.56,2.7,1.56v-.15l.27.15v.16s2.7,1.56,2.7,1.56v-.16s.27.15.27.15v.15s2.7,1.56,2.7,1.56v-.16l.27.15v.15l2.7,1.56v4.37s.12.08.12.08v.31s-.13-.08-.13-.08v4.37s.12.08.12.08v.31s-.13-.08-.13-.08v4.37s.12.08.12.08v.31s-.13-.08-.13-.08v4.37s.12.08.12.08v.31s-.13-.08-.13-.08v4.37s-2.71-1.56-2.71-1.56v.15s-.27-.15-.27-.15v-.15l-2.7-1.56v.15l-.27-.15v-.15l-2.7-1.56v.15l-.27-.15v-.15s-2.7-1.56-2.7-1.56v.16l-.27-.15v-.15s-2.7-1.56-2.7-1.56v.16s-.27-.16-.27-.16v-.15l-2.7-1.56v-4.37s-.12-.08-.12-.08v-.31s.14.08.14.08v-4.37s-.12-.08-.12-.08v-.31s.14.08.14.08v-4.37s-.12-.08-.12-.08v-.31s.14.08.14.08v-4.37s-.12-.08-.12-.08v-.31s.14.08.14.08v-4.37ZM207.34,116.46l18.06,10.43.07-23.69-18.06-10.43-.07,23.69Z" stroke-width="0"/>
                <path d="M222.45,120.5l2.7,1.56.13.08v-.31l-.13-.08-2.7-1.56v.31ZM219.48,118.79l2.7,1.56v-.31s-2.7-1.56-2.7-1.56v.31ZM216.52,117.08l2.7,1.56v-.31s-2.7-1.56-2.7-1.56v.31ZM213.55,115.37l2.7,1.56v-.31s-2.7-1.56-2.7-1.56v.31ZM210.59,113.65l2.7,1.56v-.31s-2.7-1.56-2.7-1.56v.31ZM207.49,111.86l.13.08,2.7,1.56v-.31l-2.7-1.56-.13-.08v.31Z" stroke-width="0"/>
                <path d="M222.46,115.83l2.7,1.56.13.08v-.31s-.13-.08-.13-.08l-2.7-1.56v.31ZM219.5,114.11l2.7,1.56v-.31s-2.7-1.56-2.7-1.56v.31ZM216.53,112.4l2.7,1.56v-.31s-2.7-1.56-2.7-1.56v.31ZM213.57,110.69l2.7,1.56v-.31s-2.7-1.56-2.7-1.56v.31ZM210.6,108.98l2.7,1.56v-.31s-2.7-1.56-2.7-1.56v.31ZM207.5,107.19l.13.08,2.7,1.56v-.31s-2.7-1.56-2.7-1.56l-.13-.08v.31Z" stroke-width="0"/>
                <path d="M222.47,111.15l2.7,1.56.13.08v-.31s-.13-.08-.13-.08l-2.7-1.56v.31ZM219.51,109.43l2.7,1.56v-.31s-2.7-1.56-2.7-1.56v.31ZM216.54,107.72l2.7,1.56v-.31s-2.7-1.56-2.7-1.56v.31ZM213.58,106.01l2.7,1.56v-.31s-2.7-1.56-2.7-1.56v.31ZM210.61,104.3l2.7,1.56v-.31s-2.7-1.56-2.7-1.56v.31ZM207.51,102.51l.13.08,2.7,1.56v-.31s-2.7-1.56-2.7-1.56l-.13-.08v.31Z" stroke-width="0"/>
                <path d="M222.49,106.47l2.7,1.56.13.08v-.31s-.13-.08-.13-.08l-2.7-1.56v.31ZM219.52,104.76l2.7,1.56v-.31s-2.7-1.56-2.7-1.56v.31ZM216.56,103.05l2.7,1.56v-.31s-2.7-1.56-2.7-1.56v.31ZM213.59,101.34l2.7,1.56v-.31s-2.7-1.56-2.7-1.56v.31ZM210.63,99.62l2.7,1.56v-.31s-2.7-1.56-2.7-1.56v.31ZM207.53,97.83l.13.08,2.7,1.56v-.31s-2.7-1.56-2.7-1.56l-.13-.08v.31Z" stroke-width="0"/>
                <polygon points="222.23 101.64 222.22 106.01 222.22 106.32 222.21 110.69 222.21 110.99 222.19 115.37 222.19 115.67 222.18 120.04 222.18 120.35 222.17 124.72 222.17 124.87 222.43 125.02 222.43 124.87 222.45 120.5 222.45 120.19 222.46 115.83 222.46 115.52 222.47 111.14 222.47 110.84 222.49 106.47 222.49 106.16 222.5 101.8 222.5 101.64 222.23 101.49 222.23 101.64" stroke-width="0"/>
                <polygon points="219.27 99.93 219.26 104.3 219.26 104.6 219.24 108.97 219.24 109.28 219.23 113.65 219.23 113.96 219.22 118.33 219.22 118.64 219.2 123 219.2 123.16 219.47 123.31 219.47 123.16 219.48 118.79 219.48 118.48 219.5 114.11 219.5 113.81 219.51 109.43 219.51 109.13 219.52 104.76 219.52 104.45 219.54 100.08 219.54 99.93 219.27 99.78 219.27 99.93" stroke-width="0"/>
                <polygon points="216.3 98.22 216.29 102.59 216.29 102.89 216.28 107.26 216.28 107.57 216.27 111.94 216.26 112.25 216.25 116.62 216.25 116.92 216.24 121.29 216.24 121.45 216.5 121.6 216.5 121.45 216.52 117.08 216.52 116.77 216.53 112.4 216.53 112.1 216.54 107.72 216.55 107.42 216.56 103.05 216.56 102.74 216.57 98.37 216.57 98.22 216.3 98.06 216.3 98.22" stroke-width="0"/>
                <polygon points="213.34 96.51 213.33 100.88 213.33 101.18 213.31 105.55 213.31 105.86 213.3 110.23 213.3 110.54 213.29 114.91 213.29 115.21 213.27 119.58 213.27 119.74 213.54 119.89 213.54 119.74 213.55 115.37 213.55 115.06 213.57 110.69 213.57 110.38 213.58 106.01 213.58 105.7 213.59 101.34 213.59 101.03 213.61 96.66 213.61 96.51 213.34 96.35 213.34 96.51" stroke-width="0"/>
                <polygon points="210.37 94.79 210.36 99.16 210.36 99.47 210.35 103.84 210.34 104.14 210.33 108.52 210.33 108.82 210.32 113.19 210.32 113.5 210.31 117.87 210.31 118.02 210.57 118.18 210.58 118.02 210.59 113.65 210.59 113.35 210.6 108.98 210.6 108.67 210.61 104.3 210.61 103.99 210.63 99.62 210.63 99.32 210.64 94.95 210.64 94.79 210.37 94.64 210.37 94.79" stroke-width="0"/>
              </g>
            </g>
            <g isolation="isolate">
              <g clip-path="url(#clippath-37)">
                <path d="M213.2,128.53l2.7,1.56v-4.37s-2.69-1.56-2.69-1.56v4.37ZM216.18,125.57l2.7,1.56v-4.37s-2.69-1.56-2.69-1.56v4.37ZM207.27,125.11l2.7,1.56v-4.37s-2.69-1.56-2.69-1.56v4.37ZM210.25,122.15l2.7,1.56v-4.37s-2.69-1.56-2.69-1.56v4.37ZM216.19,120.89l2.7,1.56v-4.37s-2.69-1.56-2.69-1.56v4.37ZM207.28,120.44l2.7,1.56v-4.37s-2.68-1.56-2.68-1.56v4.37ZM213.22,119.18l2.7,1.56v-4.37s-2.69-1.56-2.69-1.56v4.37ZM204.31,118.72l2.7,1.56v-4.37s-2.69-1.56-2.69-1.56v4.37ZM210.26,117.47l2.7,1.56v-4.37s-2.68-1.56-2.68-1.56v4.37ZM216.2,116.22l2.7,1.56v-4.37s-2.69-1.56-2.69-1.56v4.37ZM204.33,114.05l2.7,1.56v-4.37s-2.69-1.56-2.69-1.56v4.37ZM210.27,112.79l2.7,1.56v-4.37s-2.68-1.56-2.68-1.56v4.37ZM207.31,111.08l2.7,1.56v-4.37s-2.68-1.56-2.68-1.56v4.37ZM201.07,121.84l.07-23.69,18.06,10.43-.07,23.69-18.06-10.43ZM198.32,127.47l23.51,13.57.11-38.09-23.51-13.57-.11,38.09Z" fill="#fff" stroke-width="0"/>
                <path d="M198.32,127.47l.11-38.09,23.51,13.57-.11,38.09-23.51-13.57ZM198.03,88.69l-.11,39.01,24.31,14.04.11-39.01-24.31-14.04h0Z" fill="#231f20" stroke-width="0"/>
                <polygon points="216.16 130.25 218.86 131.8 218.87 127.43 216.18 125.88 216.16 130.25" fill="#fff" stroke-width="0"/>
                <polygon points="216.22 111.54 218.91 113.1 218.93 108.73 216.23 107.17 216.22 111.54" stroke-width="0"/>
                <polygon points="213.21 123.86 215.91 125.42 215.92 121.05 213.22 119.49 213.21 123.86" fill="#f8ec17" stroke-width="0"/>
                <polygon points="213.24 114.5 215.94 116.06 215.95 111.69 213.25 110.13 213.24 114.5" fill="#f8ec17" stroke-width="0"/>
                <polygon points="213.25 109.83 215.95 111.39 215.96 107.02 213.26 105.46 213.25 109.83" stroke-width="0"/>
                <polygon points="210.23 126.82 212.93 128.38 212.94 124.01 210.25 122.45 210.23 126.82" fill="#f8ec17" stroke-width="0"/>
                <polygon points="210.29 108.12 212.98 109.67 213 105.31 210.3 103.75 210.29 108.12" stroke-width="0"/>
                <polygon points="207.3 115.76 209.99 117.32 210.01 112.94 207.31 111.39 207.3 115.76" fill="#f8ec17" stroke-width="0"/>
                <polygon points="207.32 106.41 210.02 107.96 210.03 103.59 207.34 102.04 207.32 106.41" stroke-width="0"/>
                <polygon points="204.3 123.4 207 124.96 207.01 120.59 204.31 119.03 204.3 123.4" fill="#f8ec17" stroke-width="0"/>
                <polygon points="204.34 109.37 207.04 110.93 207.05 106.56 204.35 105 204.34 109.37" fill="#f8ec17" stroke-width="0"/>
                <polygon points="204.35 104.69 207.05 106.25 207.07 101.88 204.37 100.32 204.35 104.69" stroke-width="0"/>
                <polygon points="201.34 121.69 204.04 123.24 204.05 118.88 201.35 117.32 201.34 121.69" fill="#dbdbdb" stroke-width="0"/>
                <polygon points="201.35 117.01 204.05 118.57 204.06 114.2 201.36 112.64 201.35 117.01" fill="#dbdbdb" stroke-width="0"/>
                <polygon points="201.36 112.33 204.06 113.89 204.07 109.52 201.38 107.96 201.36 112.33" fill="#dbdbdb" stroke-width="0"/>
                <polygon points="201.38 107.66 204.07 109.21 204.09 104.84 201.39 103.29 201.38 107.66" fill="#dbdbdb" stroke-width="0"/>
                <polygon points="201.39 102.98 204.09 104.54 204.1 100.17 201.4 98.61 201.39 102.98" stroke-width="0"/>
                <path d="M201.4,98.61l2.7,1.56v-.15s.27.15.27.15v.16s2.7,1.56,2.7,1.56v-.15s.27.16.27.16v.15s2.7,1.56,2.7,1.56v-.16s.27.15.27.15v.15l2.7,1.56v-.16l.27.15v.15s2.7,1.56,2.7,1.56v-.15s.27.15.27.15v.16s2.7,1.56,2.7,1.56v4.37s.12.08.12.08v.31s-.13-.08-.13-.08v4.37s.12.08.12.08v.31s-.14-.08-.14-.08v4.37s.12.08.12.08v.31s-.14-.08-.14-.08v4.37s.12.08.12.08v.31s-.14-.08-.14-.08v4.37s-2.71-1.56-2.71-1.56v.15l-.27-.15v-.15l-2.7-1.56v.15s-.27-.15-.27-.15v-.15l-2.7-1.56v.15s-.27-.15-.27-.15v-.15s-2.7-1.56-2.7-1.56v.15s-.27-.16-.27-.16v-.15l-2.7-1.56v.16l-.27-.15v-.15s-2.7-1.56-2.7-1.56v-4.37s-.12-.08-.12-.08v-.31s.14.08.14.08v-4.37s-.12-.08-.12-.08v-.31s.14.08.14.08v-4.37s-.12-.08-.12-.08v-.31s.14.08.14.08v-4.37s-.12-.08-.12-.08v-.31s.14.08.14.08v-4.37ZM201.07,121.84l18.06,10.43.07-23.69-18.06-10.43-.07,23.69Z" stroke-width="0"/>
                <path d="M216.18,125.88l2.7,1.56.14.08v-.31s-.13-.08-.13-.08l-2.7-1.56v.31ZM213.21,124.17l2.7,1.56v-.31s-2.7-1.56-2.7-1.56v.31ZM210.25,122.45l2.7,1.56v-.31s-2.7-1.56-2.7-1.56v.31ZM207.28,120.74l2.7,1.56v-.31s-2.7-1.56-2.7-1.56v.31ZM204.31,119.03l2.7,1.56v-.31s-2.7-1.56-2.7-1.56v.31ZM201.22,117.24l.13.08,2.7,1.56v-.31s-2.7-1.56-2.7-1.56l-.13-.08v.31Z" stroke-width="0"/>
                <path d="M216.19,121.2l2.7,1.56.14.08v-.31l-.13-.08-2.7-1.56v.31ZM213.22,119.49l2.7,1.56v-.31s-2.7-1.56-2.7-1.56v.31ZM210.26,117.78l2.7,1.56v-.31s-2.7-1.56-2.7-1.56v.31ZM207.3,116.07l2.7,1.56v-.31s-2.7-1.56-2.7-1.56v.31ZM204.33,114.35l2.7,1.56v-.31s-2.7-1.56-2.7-1.56v.31ZM201.23,112.57l.13.08,2.7,1.56v-.31l-2.7-1.56-.13-.08v.31Z" stroke-width="0"/>
                <path d="M216.2,116.52l2.7,1.56.14.08v-.31l-.13-.08-2.7-1.56v.31ZM213.24,114.81l2.7,1.56v-.31s-2.7-1.56-2.7-1.56v.31ZM210.27,113.1l2.7,1.56v-.31s-2.7-1.56-2.7-1.56v.31ZM207.31,111.39l2.7,1.56v-.31s-2.7-1.56-2.7-1.56v.31ZM204.34,109.67l2.7,1.56v-.31s-2.7-1.56-2.7-1.56v.31ZM201.24,107.88l.13.08,2.7,1.56v-.31l-2.7-1.56-.13-.08v.31Z" stroke-width="0"/>
                <path d="M216.22,111.85l2.7,1.56.14.08v-.31l-.13-.08-2.7-1.56v.31ZM213.25,110.13l2.7,1.56v-.31s-2.7-1.56-2.7-1.56v.31ZM210.29,108.42l2.7,1.56v-.31s-2.7-1.56-2.7-1.56v.31ZM207.32,106.71l2.7,1.56v-.31s-2.7-1.56-2.7-1.56v.31ZM204.35,105l2.7,1.56v-.31s-2.7-1.56-2.7-1.56v.31ZM201.26,103.21l.13.08,2.7,1.56v-.31s-2.7-1.56-2.7-1.56l-.13-.08v.31Z" stroke-width="0"/>
                <polygon points="215.96 107.02 215.95 111.39 215.95 111.69 215.94 116.06 215.94 116.37 215.92 120.74 215.92 121.05 215.91 125.42 215.91 125.72 215.9 130.09 215.9 130.25 216.16 130.4 216.16 130.25 216.18 125.88 216.18 125.57 216.19 121.2 216.19 120.89 216.2 116.52 216.2 116.22 216.22 111.85 216.22 111.54 216.23 107.17 216.23 107.02 215.96 106.86 215.96 107.02" stroke-width="0"/>
                <polygon points="213 105.31 212.98 109.67 212.98 109.98 212.97 114.35 212.97 114.66 212.96 119.03 212.96 119.34 212.94 123.71 212.94 124.01 212.93 128.38 212.93 128.54 213.2 128.69 213.2 128.53 213.21 124.17 213.21 123.86 213.22 119.49 213.22 119.18 213.24 114.81 213.24 114.5 213.25 110.13 213.25 109.83 213.26 105.46 213.26 105.3 213 105.15 213 105.31" stroke-width="0"/>
                <polygon points="210.03 103.59 210.02 107.96 210.02 108.27 210.01 112.64 210.01 112.94 209.99 117.32 209.99 117.63 209.98 121.99 209.98 122.3 209.97 126.67 209.97 126.82 210.23 126.98 210.23 126.82 210.25 122.45 210.25 122.15 210.26 117.78 210.26 117.47 210.27 113.1 210.27 112.79 210.29 108.42 210.29 108.12 210.3 103.75 210.3 103.59 210.03 103.44 210.03 103.59" stroke-width="0"/>
                <polygon points="207.07 101.88 207.06 106.25 207.05 106.56 207.04 110.93 207.04 111.23 207.03 115.6 207.03 115.91 207.01 120.28 207.01 120.59 207 124.96 207 125.11 207.27 125.27 207.27 125.11 207.28 120.74 207.28 120.44 207.3 116.07 207.3 115.76 207.31 111.39 207.31 111.08 207.32 106.71 207.32 106.41 207.34 102.04 207.34 101.88 207.07 101.73 207.07 101.88" stroke-width="0"/>
                <polygon points="204.1 100.17 204.09 104.54 204.09 104.84 204.07 109.21 204.07 109.52 204.06 113.89 204.06 114.2 204.05 118.57 204.05 118.88 204.04 123.24 204.04 123.4 204.3 123.55 204.3 123.4 204.31 119.03 204.32 118.72 204.33 114.35 204.33 114.04 204.34 109.67 204.34 109.37 204.35 105 204.35 104.69 204.37 100.32 204.37 100.17 204.1 100.01 204.1 100.17" stroke-width="0"/>
              </g>
            </g>
            <g isolation="isolate">
              <g clip-path="url(#clippath-38)">
                <path d="M206.93,133.91l2.7,1.56v-4.37s-2.68-1.56-2.68-1.56v4.37ZM209.9,130.94l2.7,1.56v-4.37s-2.69-1.56-2.69-1.56v4.37ZM201,130.49l2.7,1.56v-4.37s-2.68-1.56-2.68-1.56v4.37ZM203.98,127.52l2.7,1.56v-4.37s-2.68-1.56-2.68-1.56v4.37ZM209.92,126.27l2.7,1.56v-4.37s-2.69-1.56-2.69-1.56v4.37ZM201.01,125.81l2.7,1.56v-4.37s-2.68-1.56-2.68-1.56v4.37ZM206.95,124.56l2.7,1.56v-4.37s-2.68-1.56-2.68-1.56v4.37ZM198.04,124.1l2.7,1.56v-4.37s-2.69-1.56-2.69-1.56v4.37ZM203.99,122.85l2.7,1.56v-4.37s-2.68-1.56-2.68-1.56v4.37ZM209.93,121.59l2.7,1.56v-4.37s-2.69-1.56-2.69-1.56v4.37ZM198.06,119.42l2.7,1.56v-4.37s-2.69-1.56-2.69-1.56v4.37ZM204,118.17l2.7,1.56v-4.37s-2.68-1.56-2.68-1.56v4.37ZM201.04,116.46l2.7,1.56v-4.37s-2.69-1.56-2.69-1.56v4.37ZM194.8,127.21l.07-23.69,18.06,10.43-.07,23.69-18.06-10.43ZM192.05,132.84l23.51,13.57.11-38.09-23.51-13.57-.11,38.09Z" fill="#fff" stroke-width="0"/>
                <path d="M192.05,132.84l.11-38.09,23.51,13.57-.11,38.09-23.51-13.57ZM191.76,94.06l-.11,39.01,24.31,14.03h0l.11-39.01-24.31-14.03Z" fill="#231f20" stroke-width="0"/>
                <polygon points="209.89 135.62 212.59 137.18 212.6 132.81 209.9 131.25 209.89 135.62" fill="#fff" stroke-width="0"/>
                <polygon points="209.94 116.91 212.64 118.47 212.66 114.1 209.96 112.54 209.94 116.91" stroke-width="0"/>
                <polygon points="206.94 129.23 209.64 130.79 209.65 126.42 206.95 124.86 206.94 129.23" fill="#f8ec17" stroke-width="0"/>
                <polygon points="206.97 119.88 209.66 121.44 209.68 117.07 206.98 115.51 206.97 119.88" fill="#f8ec17" stroke-width="0"/>
                <polygon points="206.98 115.2 209.68 116.76 209.69 112.39 206.99 110.83 206.98 115.2" stroke-width="0"/>
                <polygon points="203.96 132.2 206.66 133.76 206.67 129.39 203.98 127.83 203.96 132.2" fill="#f8ec17" stroke-width="0"/>
                <polygon points="204.02 113.49 206.71 115.05 206.73 110.68 204.03 109.12 204.02 113.49" stroke-width="0"/>
                <polygon points="201.02 121.13 203.72 122.69 203.73 118.32 201.04 116.76 201.02 121.13" fill="#f8ec17" stroke-width="0"/>
                <polygon points="201.05 111.78 203.75 113.34 203.76 108.97 201.06 107.41 201.05 111.78" stroke-width="0"/>
                <polygon points="198.03 128.77 200.73 130.33 200.74 125.96 198.04 124.41 198.03 128.77" fill="#f8ec17" stroke-width="0"/>
                <polygon points="198.07 114.74 200.77 116.3 200.78 111.93 198.08 110.37 198.07 114.74" fill="#f8ec17" stroke-width="0"/>
                <polygon points="198.08 110.07 200.78 111.62 200.8 107.26 198.1 105.7 198.08 110.07" stroke-width="0"/>
                <polygon points="195.07 127.06 197.76 128.62 197.77 124.25 195.08 122.69 195.07 127.06" fill="#dbdbdb" stroke-width="0"/>
                <polygon points="195.08 122.38 197.78 123.94 197.79 119.57 195.09 118.02 195.08 122.38" fill="#dbdbdb" stroke-width="0"/>
                <polygon points="195.09 117.71 197.79 119.27 197.8 114.89 195.1 113.34 195.09 117.71" fill="#dbdbdb" stroke-width="0"/>
                <polygon points="195.1 113.03 197.8 114.59 197.81 110.22 195.12 108.66 195.1 113.03" fill="#dbdbdb" stroke-width="0"/>
                <polygon points="195.12 108.35 197.82 109.91 197.83 105.54 195.13 103.98 195.12 108.35" stroke-width="0"/>
                <path d="M195.13,103.98l2.7,1.56v-.15s.27.16.27.16v.15s2.7,1.56,2.7,1.56v-.15l.27.15v.15s2.7,1.56,2.7,1.56v-.15l.27.16v.15s2.7,1.56,2.7,1.56v-.15s.27.15.27.15v.15s2.7,1.56,2.7,1.56v-.15l.27.15v.15l2.7,1.56v4.37s.12.08.12.08v.31s-.13-.08-.13-.08v4.37s.12.08.12.08v.31s-.13-.08-.13-.08v4.37s.12.08.12.08v.31s-.13-.08-.13-.08v4.37s.12.08.12.08v.31s-.13-.08-.13-.08v4.37s-2.71-1.56-2.71-1.56v.15s-.27-.15-.27-.15v-.15l-2.7-1.56v.15l-.27-.15v-.15s-2.7-1.56-2.7-1.56v.15s-.27-.16-.27-.16v-.15s-2.7-1.56-2.7-1.56v.15l-.27-.15v-.15s-2.7-1.56-2.7-1.56v.15l-.27-.16v-.15l-2.7-1.56v-4.37s-.12-.08-.12-.08v-.31s.14.08.14.08v-4.37s-.12-.08-.12-.08v-.31s.14.08.14.08v-4.37s-.12-.08-.12-.08v-.31s.14.08.14.08v-4.37s-.12-.08-.12-.08v-.31s.14.08.14.08v-4.37ZM194.8,127.21l18.06,10.43.07-23.69-18.06-10.43-.07,23.69Z" stroke-width="0"/>
                <path d="M209.9,131.25l2.7,1.56.13.08v-.31l-.13-.08-2.7-1.56v.31ZM206.94,129.54l2.7,1.56v-.31s-2.7-1.56-2.7-1.56v.31ZM203.98,127.83l2.7,1.56v-.31s-2.7-1.56-2.7-1.56v.31ZM201.01,126.12l2.7,1.56v-.31s-2.7-1.56-2.7-1.56v.31ZM198.04,124.41l2.7,1.56v-.31s-2.7-1.56-2.7-1.56v.31ZM194.94,122.62l.13.08,2.7,1.56v-.31l-2.7-1.56-.13-.08v.31Z" stroke-width="0"/>
                <path d="M209.92,126.58l2.7,1.56.13.08v-.31s-.13-.08-.13-.08l-2.7-1.56v.31ZM206.95,124.86l2.7,1.56v-.31s-2.7-1.56-2.7-1.56v.31ZM203.99,123.15l2.7,1.56v-.31s-2.7-1.56-2.7-1.56v.31ZM201.02,121.44l2.7,1.56v-.31s-2.7-1.56-2.7-1.56v.31ZM198.06,119.73l2.7,1.56v-.31s-2.7-1.56-2.7-1.56v.31ZM194.96,117.94l.13.08,2.7,1.56v-.31s-2.7-1.56-2.7-1.56l-.13-.08v.31Z" stroke-width="0"/>
                <path d="M209.93,121.9l2.7,1.56.13.08v-.31s-.13-.08-.13-.08l-2.7-1.56v.31ZM206.97,120.19l2.7,1.56v-.31s-2.7-1.56-2.7-1.56v.31ZM204,118.48l2.7,1.56v-.31s-2.7-1.56-2.7-1.56v.31ZM201.04,116.76l2.7,1.56v-.31s-2.7-1.56-2.7-1.56v.31ZM198.07,115.05l2.7,1.56v-.31s-2.7-1.56-2.7-1.56v.31ZM194.97,113.26l.13.08,2.7,1.56v-.31s-2.7-1.56-2.7-1.56l-.13-.08v.31Z" stroke-width="0"/>
                <path d="M209.94,117.22l2.7,1.56.13.08v-.31s-.13-.08-.13-.08l-2.7-1.56v.31ZM206.98,115.51l2.7,1.56v-.31s-2.7-1.56-2.7-1.56v.31ZM204.02,113.8l2.7,1.56v-.31s-2.7-1.56-2.7-1.56v.31ZM201.05,112.09l2.7,1.56v-.31s-2.7-1.56-2.7-1.56v.31ZM198.08,110.38l2.7,1.56v-.31s-2.7-1.56-2.7-1.56v.31ZM194.98,108.58l.13.08,2.7,1.56v-.31s-2.7-1.56-2.7-1.56l-.13-.08v.31Z" stroke-width="0"/>
                <polygon points="209.69 112.39 209.68 116.76 209.68 117.07 209.66 121.44 209.66 121.74 209.65 126.11 209.65 126.42 209.64 130.79 209.64 131.1 209.62 135.47 209.62 135.62 209.89 135.77 209.89 135.62 209.9 131.25 209.9 130.94 209.92 126.58 209.92 126.27 209.93 121.9 209.93 121.59 209.94 117.22 209.94 116.91 209.96 112.54 209.96 112.39 209.69 112.24 209.69 112.39" stroke-width="0"/>
                <polygon points="206.73 110.68 206.71 115.05 206.71 115.36 206.7 119.73 206.7 120.03 206.69 124.4 206.69 124.71 206.67 129.08 206.67 129.39 206.66 133.76 206.66 133.91 206.93 134.06 206.93 133.91 206.94 129.54 206.94 129.23 206.95 124.86 206.95 124.56 206.97 120.19 206.97 119.88 206.98 115.51 206.98 115.2 206.99 110.83 206.99 110.68 206.73 110.53 206.73 110.68" stroke-width="0"/>
                <polygon points="203.76 108.97 203.75 113.34 203.75 113.64 203.73 118.01 203.73 118.32 203.72 122.69 203.72 123 203.71 127.37 203.71 127.68 203.69 132.04 203.69 132.2 203.96 132.35 203.96 132.2 203.98 127.83 203.98 127.52 203.99 123.15 203.99 122.85 204 118.47 204 118.17 204.02 113.8 204.02 113.49 204.03 109.12 204.03 108.97 203.76 108.81 203.76 108.97" stroke-width="0"/>
                <polygon points="200.8 107.26 200.78 111.62 200.78 111.93 200.77 116.3 200.77 116.61 200.76 120.98 200.76 121.29 200.74 125.66 200.74 125.96 200.73 130.33 200.73 130.49 201 130.64 201 130.49 201.01 126.12 201.01 125.81 201.02 121.44 201.02 121.13 201.04 116.76 201.04 116.46 201.05 112.09 201.05 111.78 201.06 107.41 201.06 107.26 200.8 107.1 200.8 107.26" stroke-width="0"/>
                <polygon points="197.83 105.54 197.82 109.91 197.81 110.22 197.8 114.59 197.8 114.89 197.79 119.27 197.79 119.57 197.78 123.94 197.78 124.25 197.76 128.62 197.76 128.77 198.03 128.93 198.03 128.77 198.04 124.41 198.04 124.1 198.06 119.73 198.06 119.42 198.07 115.05 198.07 114.74 198.08 110.37 198.08 110.07 198.1 105.7 198.1 105.55 197.83 105.39 197.83 105.54" stroke-width="0"/>
              </g>
            </g>
            <g isolation="isolate">
              <g clip-path="url(#clippath-39)">
                <path d="M200.66,139.29l2.7,1.56v-4.37s-2.69-1.56-2.69-1.56v4.37ZM203.63,136.32l2.7,1.56v-4.37s-2.69-1.56-2.69-1.56v4.37ZM194.73,135.86l2.7,1.56v-4.37s-2.69-1.56-2.69-1.56v4.37ZM197.7,132.9l2.7,1.56v-4.37s-2.69-1.56-2.69-1.56v4.37ZM203.65,131.65l2.7,1.56v-4.37s-2.69-1.56-2.69-1.56v4.37ZM194.74,131.19l2.7,1.56v-4.37s-2.68-1.56-2.68-1.56v4.37ZM200.68,129.93l2.7,1.56v-4.37s-2.68-1.56-2.68-1.56v4.37ZM191.77,129.47l2.7,1.56v-4.37s-2.69-1.56-2.69-1.56v4.37ZM197.72,128.22l2.7,1.56v-4.38s-2.68-1.56-2.68-1.56v4.37ZM203.66,126.97l2.7,1.56v-4.37s-2.69-1.56-2.69-1.56v4.37ZM191.79,124.8l2.7,1.56v-4.37s-2.69-1.56-2.69-1.56v4.37ZM197.73,123.54l2.7,1.56v-4.37s-2.68-1.56-2.68-1.56v4.37ZM194.77,121.83l2.7,1.56v-4.37s-2.68-1.56-2.68-1.56v4.37ZM188.53,132.59l.07-23.69,18.06,10.43-.07,23.69-18.06-10.43ZM185.78,138.22l23.51,13.57.11-38.09-23.51-13.57-.11,38.09Z" fill="#fff" stroke-width="0"/>
                <path d="M185.78,138.22l.11-38.09,23.51,13.57-.11,38.09-23.51-13.57ZM185.49,99.43l-.11,39.01,24.31,14.04.11-39.01-24.31-14.03h0Z" fill="#231f20" stroke-width="0"/>
                <polygon points="203.62 141 206.32 142.55 206.33 138.18 203.63 136.63 203.62 141" fill="#fff" stroke-width="0"/>
                <polygon points="203.67 122.29 206.37 123.85 206.38 119.48 203.69 117.92 203.67 122.29" stroke-width="0"/>
                <polygon points="200.67 134.61 203.37 136.17 203.38 131.8 200.68 130.24 200.67 134.61" fill="#f8ec17" stroke-width="0"/>
                <polygon points="200.7 125.25 203.39 126.81 203.41 122.44 200.71 120.88 200.7 125.25" fill="#f8ec17" stroke-width="0"/>
                <polygon points="200.71 120.58 203.41 122.14 203.42 117.77 200.72 116.21 200.71 120.58" stroke-width="0"/>
                <polygon points="197.69 137.57 200.39 139.13 200.4 134.76 197.7 133.2 197.69 137.57" fill="#f8ec17" stroke-width="0"/>
                <polygon points="197.74 118.87 200.44 120.42 200.45 116.05 197.76 114.5 197.74 118.87" stroke-width="0"/>
                <polygon points="194.75 126.51 197.45 128.07 197.46 123.69 194.77 122.14 194.75 126.51" fill="#f8ec17" stroke-width="0"/>
                <polygon points="194.78 117.16 197.48 118.71 197.49 114.34 194.79 112.79 194.78 117.16" stroke-width="0"/>
                <polygon points="191.76 134.15 194.46 135.71 194.47 131.34 191.77 129.78 191.76 134.15" fill="#f8ec17" stroke-width="0"/>
                <polygon points="191.8 120.12 194.5 121.68 194.51 117.31 191.81 115.75 191.8 120.12" fill="#f8ec17" stroke-width="0"/>
                <polygon points="191.81 115.44 194.51 117 194.53 112.63 191.82 111.07 191.81 115.44" stroke-width="0"/>
                <polygon points="188.79 132.44 191.49 133.99 191.5 129.62 188.81 128.07 188.79 132.44" fill="#dbdbdb" stroke-width="0"/>
                <polygon points="188.81 127.76 191.5 129.32 191.52 124.95 188.82 123.39 188.81 127.76" fill="#dbdbdb" stroke-width="0"/>
                <polygon points="188.82 123.09 191.52 124.64 191.53 120.27 188.83 118.71 188.82 123.09" fill="#dbdbdb" stroke-width="0"/>
                <polygon points="188.83 118.41 191.53 119.96 191.54 115.59 188.85 114.04 188.83 118.41" fill="#dbdbdb" stroke-width="0"/>
                <polygon points="188.85 113.73 191.54 115.29 191.56 110.92 188.86 109.36 188.85 113.73" stroke-width="0"/>
                <path d="M188.86,109.36l2.7,1.56v-.16s.27.15.27.15v.15s2.7,1.56,2.7,1.56v-.15s.27.15.27.15v.16s2.7,1.56,2.7,1.56v-.15s.27.15.27.15v.15l2.7,1.56v-.16s.27.16.27.16v.15s2.7,1.56,2.7,1.56v-.16s.27.15.27.15v.15l2.7,1.56v4.37s.12.08.12.08v.31s-.13-.08-.13-.08v4.37s.12.08.12.08v.31s-.14-.08-.14-.08v4.37s.12.08.12.08v.31s-.14-.08-.14-.08v4.37s.12.08.12.08v.31s-.14-.08-.14-.08v4.37s-2.71-1.56-2.71-1.56v.15l-.27-.15v-.15l-2.7-1.56v.15s-.27-.16-.27-.16v-.15l-2.7-1.56v.15s-.27-.15-.27-.15v-.15s-2.7-1.56-2.7-1.56v.16s-.27-.15-.27-.15v-.15l-2.7-1.56v.15l-.27-.15v-.15l-2.7-1.56v-4.37s-.12-.08-.12-.08v-.31s.14.08.14.08v-4.37s-.12-.08-.12-.08v-.31s.14.08.14.08v-4.38s-.12-.08-.12-.08v-.31s.14.08.14.08v-4.37s-.12-.08-.12-.08v-.31s.14.08.14.08v-4.37ZM188.53,132.59l18.06,10.43.07-23.69-18.06-10.43-.07,23.69Z" stroke-width="0"/>
                <path d="M203.63,136.63l2.7,1.56.13.08v-.31s-.13-.08-.13-.08l-2.7-1.56v.31ZM200.67,134.92l2.7,1.56v-.31s-2.7-1.56-2.7-1.56v.31ZM197.7,133.2l2.7,1.56v-.31s-2.7-1.56-2.7-1.56v.31ZM194.74,131.49l2.7,1.56v-.31s-2.7-1.56-2.7-1.56v.31ZM191.77,129.78l2.7,1.56v-.31s-2.7-1.56-2.7-1.56v.31ZM188.67,127.99l.13.08,2.7,1.56v-.31s-2.7-1.56-2.7-1.56l-.13-.08v.31Z" stroke-width="0"/>
                <path d="M203.65,131.95l2.7,1.56.13.08v-.31s-.13-.08-.13-.08l-2.7-1.56v.31ZM200.68,130.24l2.7,1.56v-.31s-2.7-1.56-2.7-1.56v.31ZM197.72,128.53l2.7,1.56v-.31s-2.7-1.56-2.7-1.56v.31ZM194.75,126.82l2.7,1.56v-.31s-2.7-1.56-2.7-1.56v.31ZM191.78,125.1l2.7,1.56v-.31s-2.7-1.56-2.7-1.56v.31ZM188.69,123.31l.13.08,2.7,1.56v-.31l-2.7-1.56-.13-.08v.31Z" stroke-width="0"/>
                <path d="M203.66,127.27l2.7,1.56.14.08v-.31l-.13-.08-2.7-1.56v.31ZM200.7,125.56l2.7,1.56v-.31s-2.7-1.56-2.7-1.56v.31ZM197.73,123.85l2.7,1.56v-.31s-2.7-1.56-2.7-1.56v.31ZM194.77,122.14l2.7,1.56v-.31s-2.7-1.56-2.7-1.56v.31ZM191.8,120.42l2.7,1.56v-.31s-2.7-1.56-2.7-1.56v.31ZM188.7,118.63l.13.08,2.7,1.56v-.31l-2.7-1.56-.13-.08v.31Z" stroke-width="0"/>
                <path d="M203.67,122.6l2.7,1.56.14.08v-.31l-.13-.08-2.7-1.56v.31ZM200.71,120.89l2.7,1.56v-.31s-2.7-1.56-2.7-1.56v.31ZM197.74,119.17l2.7,1.56v-.31s-2.7-1.56-2.7-1.56v.31ZM194.78,117.46l2.7,1.56v-.31s-2.7-1.56-2.7-1.56v.31ZM191.81,115.75l2.7,1.56v-.31s-2.7-1.56-2.7-1.56v.31ZM188.71,113.96l.13.08,2.7,1.56v-.31l-2.7-1.56-.13-.08v.31Z" stroke-width="0"/>
                <polygon points="203.42 117.77 203.41 122.14 203.41 122.44 203.39 126.81 203.39 127.12 203.38 131.49 203.38 131.8 203.37 136.17 203.37 136.47 203.35 140.84 203.35 141 203.62 141.15 203.62 141 203.63 136.63 203.63 136.32 203.65 131.95 203.65 131.65 203.66 127.27 203.66 126.97 203.67 122.6 203.67 122.29 203.69 117.92 203.69 117.77 203.42 117.61 203.42 117.77" stroke-width="0"/>
                <polygon points="200.45 116.05 200.44 120.42 200.44 120.73 200.43 125.1 200.43 125.4 200.41 129.78 200.41 130.09 200.4 134.45 200.4 134.76 200.39 139.13 200.39 139.28 200.66 139.44 200.66 139.29 200.67 134.92 200.67 134.61 200.68 130.24 200.68 129.93 200.7 125.56 200.7 125.25 200.71 120.88 200.71 120.58 200.72 116.21 200.72 116.06 200.45 115.9 200.45 116.05" stroke-width="0"/>
                <polygon points="197.49 114.34 197.48 118.71 197.48 119.02 197.46 123.39 197.46 123.69 197.45 128.07 197.45 128.37 197.44 132.74 197.44 133.05 197.42 137.42 197.42 137.57 197.69 137.73 197.69 137.57 197.7 133.2 197.7 132.9 197.72 128.53 197.72 128.22 197.73 123.85 197.73 123.54 197.74 119.17 197.74 118.87 197.76 114.5 197.76 114.34 197.49 114.19 197.49 114.34" stroke-width="0"/>
                <polygon points="194.53 112.63 194.51 117 194.51 117.31 194.5 121.68 194.5 121.98 194.49 126.36 194.49 126.66 194.47 131.03 194.47 131.34 194.46 135.71 194.46 135.86 194.73 136.02 194.73 135.86 194.74 131.49 194.74 131.19 194.75 126.82 194.75 126.51 194.77 122.14 194.77 121.83 194.78 117.46 194.78 117.15 194.79 112.79 194.79 112.63 194.53 112.48 194.53 112.63" stroke-width="0"/>
                <polygon points="191.56 110.92 191.54 115.29 191.54 115.59 191.53 119.96 191.53 120.27 191.52 124.64 191.52 124.95 191.5 129.32 191.5 129.62 191.49 133.99 191.49 134.15 191.76 134.3 191.76 134.15 191.77 129.78 191.77 129.47 191.78 125.1 191.79 124.8 191.8 120.42 191.8 120.12 191.81 115.75 191.81 115.44 191.82 111.07 191.82 110.92 191.56 110.76 191.56 110.92" stroke-width="0"/>
              </g>
            </g>
            <g isolation="isolate">
              <g clip-path="url(#clippath-40)">
                <path d="M194.38,144.66l2.7,1.56v-4.37s-2.68-1.56-2.68-1.56v4.37ZM197.36,141.7l2.7,1.56v-4.37s-2.69-1.56-2.69-1.56v4.37ZM188.45,141.24l2.7,1.56v-4.37s-2.69-1.56-2.69-1.56v4.37ZM191.43,138.27l2.7,1.56v-4.37s-2.68-1.56-2.68-1.56v4.37ZM197.37,137.02l2.7,1.56v-4.37s-2.69-1.56-2.69-1.56v4.37ZM188.47,136.56l2.7,1.56v-4.37s-2.69-1.56-2.69-1.56v4.37ZM194.41,135.31l2.7,1.56v-4.37s-2.69-1.56-2.69-1.56v4.37ZM185.5,134.85l2.7,1.56v-4.37s-2.69-1.56-2.69-1.56v4.37ZM191.45,133.6l2.7,1.56v-4.37s-2.68-1.56-2.68-1.56v4.37ZM197.39,132.34l2.7,1.56v-4.37s-2.69-1.56-2.69-1.56v4.37ZM185.51,130.17l2.7,1.56v-4.37s-2.69-1.56-2.69-1.56v4.37ZM191.46,128.92l2.7,1.56v-4.37s-2.68-1.56-2.68-1.56v4.37ZM188.49,127.21l2.7,1.56v-4.37s-2.69-1.56-2.69-1.56v4.37ZM182.25,137.96l.07-23.69,18.06,10.43-.07,23.69-18.06-10.43ZM179.51,143.59l23.51,13.57.11-38.09-23.51-13.57-.11,38.09Z" fill="#fff" stroke-width="0"/>
                <path d="M179.51,143.59l.11-38.09,23.51,13.57-.11,38.09-23.51-13.57ZM179.22,104.81l-.11,39.01,24.31,14.03h0l.11-39.01-24.31-14.03h0Z" fill="#231f20" stroke-width="0"/>
                <polygon points="197.35 146.37 200.05 147.93 200.06 143.56 197.36 142 197.35 146.37" fill="#fff" stroke-width="0"/>
                <polygon points="197.4 127.67 200.1 129.22 200.11 124.86 197.41 123.3 197.4 127.67" stroke-width="0"/>
                <polygon points="194.4 139.99 197.09 141.54 197.11 137.17 194.41 135.62 194.4 139.99" fill="#f8ec17" stroke-width="0"/>
                <polygon points="194.42 130.63 197.12 132.19 197.13 127.82 194.44 126.26 194.42 130.63" fill="#f8ec17" stroke-width="0"/>
                <polygon points="194.44 125.95 197.13 127.51 197.15 123.14 194.45 121.59 194.44 125.95" stroke-width="0"/>
                <polygon points="191.42 142.95 194.12 144.51 194.13 140.14 191.43 138.58 191.42 142.95" fill="#f8ec17" stroke-width="0"/>
                <polygon points="191.47 124.24 194.17 125.8 194.18 121.43 191.48 119.87 191.47 124.24" stroke-width="0"/>
                <polygon points="188.48 131.88 191.18 133.44 191.19 129.07 188.49 127.51 188.48 131.88" fill="#f8ec17" stroke-width="0"/>
                <polygon points="188.51 122.53 191.21 124.09 191.22 119.72 188.52 118.16 188.51 122.53" stroke-width="0"/>
                <polygon points="185.49 139.52 188.19 141.08 188.2 136.71 185.5 135.15 185.49 139.52" fill="#f8ec17" stroke-width="0"/>
                <polygon points="185.53 125.49 188.23 127.05 188.24 122.68 185.54 121.12 185.53 125.49" fill="#f8ec17" stroke-width="0"/>
                <polygon points="185.54 120.82 188.24 122.38 188.25 118.01 185.55 116.45 185.54 120.82" stroke-width="0"/>
                <polygon points="182.52 137.81 185.22 139.37 185.23 135 182.53 133.44 182.52 137.81" fill="#dbdbdb" stroke-width="0"/>
                <polygon points="182.54 133.14 185.23 134.69 185.24 130.32 182.55 128.77 182.54 133.14" fill="#dbdbdb" stroke-width="0"/>
                <polygon points="182.55 128.46 185.25 130.02 185.26 125.64 182.56 124.09 182.55 128.46" fill="#dbdbdb" stroke-width="0"/>
                <polygon points="182.56 123.78 185.26 125.34 185.27 120.97 182.57 119.41 182.56 123.78" fill="#dbdbdb" stroke-width="0"/>
                <polygon points="182.57 119.11 185.27 120.66 185.28 116.29 182.59 114.74 182.57 119.11" stroke-width="0"/>
                <path d="M182.59,114.74l2.7,1.56v-.16s.27.16.27.16v.16s2.7,1.56,2.7,1.56v-.15l.27.15v.16s2.7,1.56,2.7,1.56v-.16l.27.15v.15s2.7,1.56,2.7,1.56v-.16s.27.15.27.15v.15s2.7,1.56,2.7,1.56v-.16l.27.15v.15l2.7,1.56v4.37s.12.08.12.08v.31s-.13-.08-.13-.08v4.37s.12.08.12.08v.31s-.13-.08-.13-.08v4.37s.12.08.12.08v.31s-.13-.08-.13-.08v4.37s.12.08.12.08v.31s-.13-.08-.13-.08v4.37s-2.71-1.56-2.71-1.56v.15s-.27-.15-.27-.15v-.15l-2.7-1.56v.15l-.27-.15v-.15l-2.7-1.56v.15s-.27-.15-.27-.15v-.15s-2.7-1.56-2.7-1.56v.16l-.27-.15v-.15s-2.7-1.56-2.7-1.56v.16l-.27-.16v-.15s-2.7-1.56-2.7-1.56v-4.37s-.12-.08-.12-.08v-.31s.13.08.13.08v-4.37s-.12-.08-.12-.08v-.31s.13.08.13.08v-4.37s-.12-.08-.12-.08v-.31s.13.08.13.08v-4.37s-.12-.08-.12-.08v-.31s.13.08.13.08v-4.37ZM182.25,137.96l18.06,10.43.07-23.69-18.06-10.43-.07,23.69Z" stroke-width="0"/>
                <path d="M197.36,142l2.7,1.56.13.08v-.31s-.13-.08-.13-.08l-2.7-1.56v.31ZM194.4,140.29l2.7,1.56v-.31s-2.7-1.56-2.7-1.56v.31ZM191.43,138.58l2.7,1.56v-.31s-2.7-1.56-2.7-1.56v.31ZM188.47,136.87l2.7,1.56v-.31s-2.7-1.56-2.7-1.56v.31ZM185.5,135.15l2.7,1.56v-.31s-2.7-1.56-2.7-1.56v.31ZM182.4,133.37l.13.08,2.7,1.56v-.31s-2.7-1.56-2.7-1.56l-.13-.08v.31Z" stroke-width="0"/>
                <path d="M197.37,137.33l2.7,1.56.13.08v-.31s-.13-.08-.13-.08l-2.7-1.56v.31ZM194.41,135.62l2.7,1.56v-.31s-2.7-1.56-2.7-1.56v.31ZM191.45,133.91l2.7,1.56v-.31s-2.7-1.56-2.7-1.56v.31ZM188.48,132.19l2.7,1.56v-.31s-2.7-1.56-2.7-1.56v.31ZM185.51,130.48l2.7,1.56v-.31s-2.7-1.56-2.7-1.56v.31ZM182.42,128.69l.13.08,2.7,1.56v-.31s-2.7-1.56-2.7-1.56l-.13-.08v.31Z" stroke-width="0"/>
                <path d="M197.39,132.65l2.7,1.56.13.08v-.31s-.13-.08-.13-.08l-2.7-1.56v.31ZM194.42,130.94l2.7,1.56v-.31s-2.7-1.56-2.7-1.56v.31ZM191.46,129.22l2.7,1.56v-.31s-2.7-1.56-2.7-1.56v.31ZM188.49,127.51l2.7,1.56v-.31s-2.7-1.56-2.7-1.56v.31ZM185.53,125.8l2.7,1.56v-.31s-2.7-1.56-2.7-1.56v.31ZM182.43,124.01l.13.08,2.7,1.56v-.31s-2.7-1.56-2.7-1.56l-.13-.08v.31Z" stroke-width="0"/>
                <path d="M197.4,127.97l2.7,1.56.13.08v-.31s-.13-.08-.13-.08l-2.7-1.56v.31ZM194.44,126.26l2.7,1.56v-.31s-2.7-1.56-2.7-1.56v.31ZM191.47,124.55l2.7,1.56v-.31s-2.7-1.56-2.7-1.56v.31ZM188.51,122.84l2.7,1.56v-.31s-2.7-1.56-2.7-1.56v.31ZM185.54,121.12l2.7,1.56v-.31l-2.7-1.56v.31ZM182.44,119.34l.13.08,2.7,1.56v-.31s-2.7-1.56-2.7-1.56l-.13-.08v.31Z" stroke-width="0"/>
                <polygon points="197.15 123.14 197.13 127.51 197.13 127.82 197.12 132.19 197.12 132.49 197.11 136.86 197.11 137.17 197.09 141.54 197.09 141.85 197.08 146.22 197.08 146.37 197.35 146.53 197.35 146.37 197.36 142 197.36 141.7 197.37 137.33 197.37 137.02 197.39 132.65 197.39 132.34 197.4 127.97 197.4 127.67 197.41 123.3 197.41 123.14 197.15 122.99 197.15 123.14" stroke-width="0"/>
                <polygon points="194.18 121.43 194.17 125.8 194.17 126.11 194.16 130.48 194.16 130.78 194.14 135.15 194.14 135.46 194.13 139.83 194.13 140.14 194.12 144.51 194.12 144.66 194.38 144.81 194.38 144.66 194.4 140.29 194.4 139.98 194.41 135.62 194.41 135.31 194.42 130.94 194.42 130.63 194.44 126.26 194.44 125.95 194.45 121.59 194.45 121.43 194.18 121.28 194.18 121.43" stroke-width="0"/>
                <polygon points="191.22 119.72 191.21 124.09 191.21 124.4 191.19 128.76 191.19 129.07 191.18 133.44 191.18 133.75 191.17 138.12 191.17 138.43 191.15 142.8 191.15 142.95 191.42 143.1 191.42 142.95 191.43 138.58 191.43 138.27 191.45 133.91 191.45 133.6 191.46 129.22 191.46 128.92 191.47 124.55 191.47 124.24 191.49 119.87 191.49 119.72 191.22 119.57 191.22 119.72" stroke-width="0"/>
                <polygon points="188.25 118.01 188.24 122.38 188.24 122.68 188.23 127.05 188.23 127.36 188.21 131.73 188.21 132.04 188.2 136.41 188.2 136.71 188.19 141.08 188.19 141.24 188.45 141.39 188.45 141.24 188.47 136.87 188.47 136.56 188.48 132.19 188.48 131.88 188.49 127.51 188.49 127.21 188.51 122.84 188.51 122.53 188.52 118.16 188.52 118.01 188.25 117.85 188.25 118.01" stroke-width="0"/>
                <polygon points="185.28 116.29 185.27 120.66 185.27 120.97 185.26 125.34 185.26 125.64 185.25 130.02 185.24 130.32 185.23 134.69 185.23 135 185.22 139.37 185.22 139.52 185.49 139.68 185.49 139.52 185.5 135.15 185.5 134.85 185.51 130.48 185.51 130.17 185.53 125.8 185.53 125.49 185.54 121.13 185.54 120.82 185.55 116.45 185.55 116.3 185.29 116.14 185.28 116.29" stroke-width="0"/>
              </g>
            </g>
            <g isolation="isolate">
              <g clip-path="url(#clippath-41)">
                <path d="M188.11,150.04l2.7,1.56v-4.37s-2.69-1.56-2.69-1.56v4.37ZM191.09,147.07l2.7,1.56v-4.37s-2.69-1.56-2.69-1.56v4.37ZM182.18,146.61l2.7,1.56v-4.37s-2.69-1.56-2.69-1.56v4.37ZM185.16,143.65l2.7,1.56v-4.37s-2.69-1.56-2.69-1.56v4.37ZM191.1,142.39l2.7,1.56v-4.37s-2.69-1.56-2.69-1.56v4.37ZM182.2,141.94l2.7,1.56v-4.37s-2.68-1.56-2.68-1.56v4.37ZM188.14,140.68l2.7,1.56v-4.37s-2.69-1.56-2.69-1.56v4.37ZM179.23,140.22l2.7,1.56v-4.37s-2.69-1.56-2.69-1.56v4.37ZM185.17,138.97l2.7,1.56v-4.37s-2.69-1.56-2.69-1.56v4.37ZM191.12,137.72l2.7,1.56v-4.37s-2.69-1.56-2.69-1.56v4.37ZM179.24,135.55l2.7,1.56v-4.37s-2.69-1.56-2.69-1.56v4.37ZM185.19,134.29l2.7,1.56v-4.37s-2.69-1.56-2.69-1.56v4.37ZM182.22,132.58l2.7,1.56v-4.37s-2.68-1.56-2.68-1.56v4.37ZM175.98,143.34l.07-23.69,18.06,10.43-.07,23.69-18.06-10.43ZM173.24,148.97l23.51,13.57.11-38.09-23.51-13.57-.11,38.09Z" fill="#fff" stroke-width="0"/>
                <path d="M173.24,148.97l.11-38.09,23.51,13.57-.11,38.09-23.51-13.57ZM172.95,110.18l-.11,38.78v.23l24.31,14.03.11-39.01-24.31-14.03Z" fill="#231f20" stroke-width="0"/>
                <polygon points="191.08 151.75 193.77 153.3 193.79 148.94 191.09 147.38 191.08 151.75" fill="#fff" stroke-width="0"/>
                <polygon points="191.13 133.04 193.83 134.6 193.84 130.23 191.14 128.67 191.13 133.04" stroke-width="0"/>
                <polygon points="188.13 145.36 190.82 146.92 190.84 142.55 188.14 140.99 188.13 145.36" fill="#f8ec17" stroke-width="0"/>
                <polygon points="188.15 136.01 190.85 137.56 190.86 133.19 188.17 131.64 188.15 136.01" fill="#f8ec17" stroke-width="0"/>
                <polygon points="188.17 131.33 190.86 132.88 190.88 128.52 188.18 126.96 188.17 131.33" stroke-width="0"/>
                <polygon points="185.15 148.32 187.84 149.88 187.86 145.51 185.16 143.95 185.15 148.32" fill="#f8ec17" stroke-width="0"/>
                <polygon points="185.2 129.62 187.9 131.17 187.91 126.8 185.21 125.25 185.2 129.62" stroke-width="0"/>
                <polygon points="182.21 137.26 184.91 138.82 184.92 134.45 182.22 132.89 182.21 137.26" fill="#f8ec17" stroke-width="0"/>
                <polygon points="182.24 127.9 184.93 129.46 184.95 125.09 182.25 123.53 182.24 127.9" stroke-width="0"/>
                <polygon points="179.22 144.9 181.92 146.46 181.93 142.09 179.23 140.53 179.22 144.9" fill="#f8ec17" stroke-width="0"/>
                <polygon points="179.26 130.87 181.96 132.43 181.97 128.06 179.27 126.5 179.26 130.87" fill="#f8ec17" stroke-width="0"/>
                <polygon points="179.27 126.19 181.97 127.75 181.98 123.38 179.28 121.82 179.27 126.19" stroke-width="0"/>
                <polygon points="176.25 143.19 178.95 144.74 178.96 140.38 176.26 138.82 176.25 143.19" fill="#dbdbdb" stroke-width="0"/>
                <polygon points="176.26 138.51 178.96 140.07 178.97 135.7 176.28 134.14 176.26 138.51" fill="#dbdbdb" stroke-width="0"/>
                <polygon points="176.28 133.83 178.98 135.39 178.99 131.02 176.29 129.46 176.28 133.83" fill="#dbdbdb" stroke-width="0"/>
                <polygon points="176.29 129.16 178.99 130.71 179 126.35 176.3 124.79 176.29 129.16" fill="#dbdbdb" stroke-width="0"/>
                <polygon points="176.3 124.48 179 126.04 179.01 121.67 176.32 120.11 176.3 124.48" stroke-width="0"/>
                <path d="M176.32,120.11l2.7,1.56v-.15s.27.15.27.15v.15l2.7,1.56v-.15l.27.15v.15s2.7,1.56,2.7,1.56v-.15l.27.15v.15s2.7,1.56,2.7,1.56v-.15l.27.16v.15s2.7,1.56,2.7,1.56v-.15l.27.15v.15l2.7,1.56v4.37s.12.08.12.08v.31s-.14-.08-.14-.08v4.37s.12.08.12.08v.31s-.14-.08-.14-.08v4.37s.12.08.12.08v.31s-.14-.08-.14-.08v4.37s.12.08.12.08v.31s-.14-.08-.14-.08v4.37s-2.71-1.56-2.71-1.56v.15s-.27-.15-.27-.15v-.15l-2.7-1.56v.15l-.27-.16v-.15s-2.7-1.56-2.7-1.56v.15l-.27-.15v-.15s-2.7-1.56-2.7-1.56v.15l-.27-.15v-.15s-2.7-1.56-2.7-1.56v.15s-.27-.15-.27-.15v-.15s-2.7-1.56-2.7-1.56v-4.37s-.12-.08-.12-.08v-.31s.14.08.14.08v-4.37s-.12-.08-.12-.08v-.31s.14.08.14.08v-4.37s-.12-.08-.12-.08v-.31s.14.08.14.08v-4.37s-.12-.08-.12-.08v-.31s.14.08.14.08v-4.37ZM175.98,143.34l18.06,10.43.07-23.69-18.06-10.43-.07,23.69Z" stroke-width="0"/>
                <path d="M191.09,147.38l2.7,1.56.14.08v-.31l-.13-.08-2.7-1.56v.31ZM188.13,145.67l2.7,1.56v-.31s-2.7-1.56-2.7-1.56v.31ZM185.16,143.95l2.7,1.56v-.31s-2.7-1.56-2.7-1.56v.31ZM182.2,142.24l2.7,1.56v-.31s-2.7-1.56-2.7-1.56v.31ZM179.23,140.53l2.7,1.56v-.31s-2.7-1.56-2.7-1.56v.31ZM176.13,138.74l.13.08,2.7,1.56v-.31l-2.7-1.56-.13-.08v.31Z" stroke-width="0"/>
                <path d="M191.1,142.7l2.7,1.56.14.08v-.31s-.13-.08-.13-.08l-2.7-1.56v.31ZM188.14,140.99l2.7,1.56v-.31s-2.7-1.56-2.7-1.56v.31ZM185.17,139.28l2.7,1.56v-.31s-2.7-1.56-2.7-1.56v.31ZM182.21,137.57l2.7,1.56v-.31s-2.7-1.56-2.7-1.56v.31ZM179.24,135.85l2.7,1.56v-.31s-2.7-1.56-2.7-1.56v.31ZM176.14,134.06l.13.08,2.7,1.56v-.31s-2.7-1.56-2.7-1.56l-.13-.08v.31Z" stroke-width="0"/>
                <path d="M191.12,138.02l2.7,1.56.14.08v-.31s-.13-.08-.13-.08l-2.7-1.56v.31ZM188.15,136.31l2.7,1.56v-.31s-2.7-1.56-2.7-1.56v.31ZM185.19,134.6l2.7,1.56v-.31s-2.7-1.56-2.7-1.56v.31ZM182.22,132.89l2.7,1.56v-.31s-2.7-1.56-2.7-1.56v.31ZM179.25,131.17l2.7,1.56v-.31s-2.7-1.56-2.7-1.56v.31ZM176.16,129.39l.13.08,2.7,1.56v-.31s-2.7-1.56-2.7-1.56l-.13-.08v.31Z" stroke-width="0"/>
                <path d="M191.13,133.35l2.7,1.56.14.08v-.31s-.13-.08-.13-.08l-2.7-1.56v.31ZM188.17,131.64l2.7,1.56v-.31s-2.7-1.56-2.7-1.56v.31ZM185.2,129.92l2.7,1.56v-.31s-2.7-1.56-2.7-1.56v.31ZM182.24,128.21l2.7,1.56v-.31s-2.7-1.56-2.7-1.56v.31ZM179.27,126.5l2.7,1.56v-.31s-2.7-1.56-2.7-1.56v.31ZM176.17,124.71l.13.08,2.7,1.56v-.31s-2.7-1.56-2.7-1.56l-.13-.08v.31Z" stroke-width="0"/>
                <polygon points="190.88 128.52 190.86 132.89 190.86 133.19 190.85 137.56 190.85 137.87 190.84 142.24 190.84 142.55 190.82 146.92 190.82 147.22 190.81 151.59 190.81 151.75 191.08 151.9 191.08 151.75 191.09 147.38 191.09 147.07 191.1 142.7 191.1 142.39 191.12 138.02 191.12 137.72 191.13 133.35 191.13 133.04 191.14 128.67 191.14 128.52 190.88 128.36 190.88 128.52" stroke-width="0"/>
                <polygon points="187.91 126.8 187.9 131.17 187.9 131.48 187.89 135.85 187.88 136.16 187.87 140.53 187.87 140.83 187.86 145.2 187.86 145.51 187.84 149.88 187.84 150.03 188.11 150.19 188.11 150.04 188.13 145.67 188.13 145.36 188.14 140.99 188.14 140.68 188.15 136.31 188.15 136 188.17 131.64 188.17 131.33 188.18 126.96 188.18 126.81 187.91 126.65 187.91 126.8" stroke-width="0"/>
                <polygon points="184.95 125.09 184.93 129.46 184.93 129.77 184.92 134.14 184.92 134.44 184.91 138.82 184.91 139.12 184.89 143.49 184.89 143.8 184.88 148.17 184.88 148.32 185.15 148.47 185.15 148.32 185.16 143.95 185.16 143.65 185.17 139.28 185.17 138.97 185.19 134.6 185.19 134.29 185.2 129.92 185.2 129.61 185.21 125.25 185.21 125.1 184.95 124.94 184.95 125.09" stroke-width="0"/>
                <polygon points="181.98 123.38 181.97 127.75 181.97 128.06 181.96 132.43 181.96 132.73 181.94 137.11 181.94 137.41 181.93 141.78 181.93 142.09 181.92 146.46 181.92 146.61 182.18 146.76 182.18 146.61 182.2 142.24 182.2 141.93 182.21 137.57 182.21 137.26 182.22 132.89 182.22 132.58 182.24 128.21 182.24 127.9 182.25 123.54 182.25 123.38 181.98 123.23 181.98 123.38" stroke-width="0"/>
                <polygon points="179.01 121.67 179 126.04 179 126.35 178.99 130.71 178.99 131.02 178.98 135.39 178.97 135.7 178.96 140.07 178.96 140.38 178.95 144.74 178.95 144.9 179.21 145.05 179.22 144.9 179.23 140.53 179.23 140.22 179.24 135.85 179.24 135.55 179.25 131.17 179.26 130.87 179.27 126.5 179.27 126.19 179.28 121.82 179.28 121.67 179.02 121.52 179.01 121.67" stroke-width="0"/>
              </g>
            </g>
            <g isolation="isolate">
              <g clip-path="url(#clippath-42)">
                <path d="M181.84,155.41l2.7,1.56v-4.37s-2.69-1.56-2.69-1.56v4.37ZM184.82,152.45l2.7,1.56v-4.37s-2.69-1.56-2.69-1.56v4.37ZM175.91,151.98l2.7,1.56v-4.37s-2.69-1.56-2.69-1.56v4.37ZM178.89,149.02l2.7,1.56v-4.37s-2.68-1.56-2.68-1.56v4.37ZM184.83,147.77l2.7,1.56v-4.37s-2.69-1.56-2.69-1.56v4.37ZM175.92,147.31l2.7,1.56v-4.37s-2.69-1.56-2.69-1.56v4.37ZM181.87,146.06l2.7,1.56v-4.37s-2.69-1.56-2.69-1.56v4.37ZM172.96,145.6l2.7,1.56v-4.37s-2.69-1.56-2.69-1.56v4.37ZM178.9,144.35l2.7,1.56v-4.37s-2.69-1.56-2.69-1.56v4.37ZM184.85,143.09l2.7,1.56v-4.37s-2.69-1.56-2.69-1.56v4.37ZM172.97,140.92l2.7,1.56v-4.37s-2.69-1.56-2.69-1.56v4.37ZM178.92,139.67l2.7,1.56v-4.37s-2.69-1.56-2.69-1.56v4.37ZM175.95,137.95l2.7,1.56v-4.37s-2.69-1.56-2.69-1.56v4.37ZM169.71,148.71l.07-23.69,18.06,10.43-.07,23.69-18.06-10.43ZM166.97,154.34l23.51,13.57.11-38.09-23.51-13.57-.11,38.09Z" fill="#fff" stroke-width="0"/>
                <path d="M166.97,154.34l.11-38.09,23.51,13.57-.11,38.09-23.51-13.57ZM166.68,115.56l-.11,39.01,24.31,14.04.11-39.01-24.31-14.04Z" fill="#231f20" stroke-width="0"/>
                <polygon points="184.81 157.12 187.5 158.68 187.52 154.31 184.82 152.75 184.81 157.12" fill="#fff" stroke-width="0"/>
                <polygon points="184.86 138.42 187.56 139.97 187.57 135.6 184.87 134.05 184.86 138.42" stroke-width="0"/>
                <polygon points="181.85 150.73 184.55 152.29 184.57 147.92 181.87 146.36 181.85 150.73" fill="#f8ec17" stroke-width="0"/>
                <polygon points="181.88 141.38 184.58 142.94 184.59 138.57 181.89 137.01 181.88 141.38" fill="#f8ec17" stroke-width="0"/>
                <polygon points="181.89 136.7 184.59 138.26 184.61 133.89 181.91 132.33 181.89 136.7" stroke-width="0"/>
                <polygon points="178.88 153.7 181.57 155.25 181.59 150.89 178.89 149.33 178.88 153.7" fill="#f8ec17" stroke-width="0"/>
                <polygon points="178.93 134.99 181.63 136.55 181.64 132.18 178.94 130.62 178.93 134.99" stroke-width="0"/>
                <polygon points="175.94 142.63 178.64 144.19 178.65 139.82 175.95 138.26 175.94 142.63" fill="#f8ec17" stroke-width="0"/>
                <polygon points="175.96 133.28 178.66 134.84 178.68 130.47 175.98 128.91 175.96 133.28" stroke-width="0"/>
                <polygon points="172.94 150.27 175.64 151.83 175.66 147.46 172.96 145.9 172.94 150.27" fill="#f8ec17" stroke-width="0"/>
                <polygon points="172.98 136.24 175.68 137.8 175.7 133.43 173 131.87 172.98 136.24" fill="#f8ec17" stroke-width="0"/>
                <polygon points="173 131.57 175.7 133.13 175.71 128.76 173.01 127.2 173 131.57" stroke-width="0"/>
                <polygon points="169.98 148.56 172.68 150.12 172.69 145.75 169.99 144.19 169.98 148.56" fill="#dbdbdb" stroke-width="0"/>
                <polygon points="169.99 143.88 172.69 145.44 172.7 141.07 170 139.52 169.99 143.88" fill="#dbdbdb" stroke-width="0"/>
                <polygon points="170.01 139.21 172.7 140.77 172.72 136.39 170.02 134.84 170.01 139.21" fill="#dbdbdb" stroke-width="0"/>
                <polygon points="170.02 134.53 172.72 136.09 172.73 131.72 170.03 130.16 170.02 134.53" fill="#dbdbdb" stroke-width="0"/>
                <polygon points="170.03 129.85 172.73 131.41 172.74 127.04 170.04 125.48 170.03 129.85" stroke-width="0"/>
                <path d="M170.04,125.49l2.7,1.56v-.15s.27.15.27.15v.16l2.7,1.56v-.15s.27.15.27.15v.16s2.7,1.56,2.7,1.56v-.16s.27.15.27.15v.15l2.7,1.56v-.16l.27.15v.15s2.7,1.56,2.7,1.56v-.15l.27.15v.15s2.7,1.56,2.7,1.56v4.37s.12.08.12.08v.31s-.13-.08-.13-.08v4.37s.12.08.12.08v.31s-.13-.08-.13-.08v4.37s.12.08.12.08v.31s-.13-.08-.13-.08v4.37s.12.08.12.08v.31s-.13-.08-.13-.08v4.37s-2.71-1.56-2.71-1.56v.15l-.27-.15v-.15l-2.7-1.56v.15s-.27-.15-.27-.15v-.15l-2.7-1.56v.15s-.27-.15-.27-.15v-.15l-2.7-1.56v.16l-.27-.15v-.15l-2.7-1.56v.16l-.27-.15v-.15s-2.7-1.56-2.7-1.56v-4.37s-.12-.08-.12-.08v-.31s.13.08.13.08v-4.37s-.12-.08-.12-.08v-.31s.13.08.13.08v-4.37s-.12-.08-.12-.08v-.31s.13.08.13.08v-4.37s-.12-.08-.12-.08v-.31s.13.08.13.08v-4.37ZM169.71,148.71l18.06,10.43.07-23.69-18.06-10.43-.07,23.69Z" stroke-width="0"/>
                <path d="M184.82,152.75l2.7,1.56.13.08v-.31s-.13-.08-.13-.08l-2.7-1.56v.31ZM181.85,151.04l2.7,1.56v-.31s-2.7-1.56-2.7-1.56v.31ZM178.89,149.33l2.7,1.56v-.31s-2.7-1.56-2.7-1.56v.31ZM175.92,147.62l2.7,1.56v-.31s-2.7-1.56-2.7-1.56v.31ZM172.96,145.9l2.7,1.56v-.31l-2.7-1.56v.31ZM169.86,144.12l.13.08,2.7,1.56v-.31s-2.7-1.56-2.7-1.56l-.13-.08v.31Z" stroke-width="0"/>
                <path d="M184.83,148.08l2.7,1.56.13.08v-.31s-.13-.08-.13-.08l-2.7-1.56v.31ZM181.87,146.36l2.7,1.56v-.31s-2.7-1.56-2.7-1.56v.31ZM178.9,144.65l2.7,1.56v-.31s-2.7-1.56-2.7-1.56v.31ZM175.94,142.94l2.7,1.56v-.31s-2.7-1.56-2.7-1.56v.31ZM172.97,141.23l2.7,1.56v-.31l-2.7-1.56v.31ZM169.87,139.44l.13.08,2.7,1.56v-.31l-2.7-1.56-.13-.08v.31Z" stroke-width="0"/>
                <path d="M184.85,143.4l2.7,1.56.13.08v-.31s-.13-.08-.13-.08l-2.7-1.56v.31ZM181.88,141.68l2.7,1.56v-.31s-2.7-1.56-2.7-1.56v.31ZM178.92,139.97l2.7,1.56v-.31s-2.7-1.56-2.7-1.56v.31ZM175.95,138.26l2.7,1.56v-.31s-2.7-1.56-2.7-1.56v.31ZM172.98,136.55l2.7,1.56v-.31s-2.7-1.56-2.7-1.56v.31ZM169.89,134.76l.13.08,2.7,1.56v-.31l-2.7-1.56-.13-.08v.31Z" stroke-width="0"/>
                <path d="M184.86,138.72l2.7,1.56.13.08v-.31s-.13-.08-.13-.08l-2.7-1.56v.31ZM181.89,137.01l2.7,1.56v-.31s-2.7-1.56-2.7-1.56v.31ZM178.93,135.3l2.7,1.56v-.31s-2.7-1.56-2.7-1.56v.31ZM175.96,133.59l2.7,1.56v-.31s-2.7-1.56-2.7-1.56v.31ZM173,131.87l2.7,1.56v-.31s-2.7-1.56-2.7-1.56v.31ZM169.9,130.08l.13.08,2.7,1.56v-.31s-2.7-1.56-2.7-1.56l-.13-.08v.31Z" stroke-width="0"/>
                <polygon points="184.61 133.89 184.59 138.26 184.59 138.57 184.58 142.94 184.58 143.24 184.57 147.62 184.57 147.92 184.55 152.29 184.55 152.6 184.54 156.97 184.54 157.12 184.81 157.28 184.81 157.12 184.82 152.75 184.82 152.45 184.83 148.08 184.83 147.77 184.85 143.4 184.85 143.09 184.86 138.72 184.86 138.42 184.87 134.05 184.87 133.89 184.61 133.74 184.61 133.89" stroke-width="0"/>
                <polygon points="181.64 132.18 181.63 136.55 181.63 136.85 181.61 141.22 181.61 141.53 181.6 145.9 181.6 146.21 181.59 150.58 181.59 150.89 181.57 155.25 181.57 155.41 181.84 155.56 181.84 155.41 181.85 151.04 181.85 150.73 181.87 146.36 181.87 146.06 181.88 141.68 181.88 141.38 181.89 137.01 181.89 136.7 181.91 132.33 181.91 132.18 181.64 132.03 181.64 132.18" stroke-width="0"/>
                <polygon points="178.68 130.47 178.66 134.84 178.66 135.14 178.65 139.51 178.65 139.82 178.64 144.19 178.64 144.5 178.62 148.87 178.62 149.17 178.61 153.54 178.61 153.7 178.88 153.85 178.88 153.7 178.89 149.33 178.89 149.02 178.9 144.65 178.9 144.35 178.92 139.97 178.92 139.67 178.93 135.3 178.93 134.99 178.94 130.62 178.94 130.47 178.68 130.31 178.68 130.47" stroke-width="0"/>
                <polygon points="175.71 128.76 175.7 133.13 175.7 133.43 175.68 137.8 175.68 138.11 175.67 142.48 175.67 142.79 175.66 147.16 175.66 147.46 175.64 151.83 175.64 151.99 175.91 152.14 175.91 151.99 175.92 147.62 175.92 147.31 175.94 142.94 175.94 142.63 175.95 138.26 175.95 137.95 175.96 133.59 175.96 133.28 175.98 128.91 175.98 128.76 175.71 128.6 175.71 128.76" stroke-width="0"/>
                <polygon points="172.74 127.04 172.73 131.41 172.73 131.72 172.72 136.09 172.72 136.39 172.71 140.77 172.7 141.08 172.69 145.44 172.69 145.75 172.68 150.12 172.68 150.27 172.94 150.43 172.94 150.27 172.96 145.9 172.96 145.6 172.97 141.23 172.97 140.92 172.98 136.55 172.99 136.24 173 131.87 173 131.57 173.01 127.2 173.01 127.04 172.74 126.89 172.74 127.04" stroke-width="0"/>
              </g>
            </g>
          </g>
        </g>
      </g>
      <polygon points="106.37 115.74 106.25 159.17 21.25 110.09 21.37 66.66 106.37 115.74" fill="#f8ec17" stroke-width="0"/>
      <polygon points="106.37 115.74 113 111.89 112.88 155.31 106.25 159.17 106.37 115.74" fill="#f8ec17" stroke-width="0"/>
      <polygon points="21.37 66.66 28 62.81 113 111.89 106.37 115.74 21.37 66.66" fill="#f8ec17" stroke-width="0"/>
      <polygon points="207.39 174.06 207.27 217.49 122.26 168.41 122.39 124.99 207.39 174.06" fill="#f8ec17" stroke-width="0"/>
      <polygon points="207.39 174.06 214.02 170.21 213.9 213.64 207.27 217.49 207.39 174.06" fill="#f8ec17" stroke-width="0"/>
      <polygon points="122.39 124.99 129.01 121.13 214.02 170.21 207.39 174.06 122.39 124.99" fill="#f8ec17" stroke-width="0"/>
      <polygon points="292.4 124.99 292.52 168.41 207.51 217.49 207.39 174.06 292.4 124.99" fill="#f8ec17" stroke-width="0"/>
      <polygon points="207.27 217.49 200.64 213.64 200.52 170.21 207.14 174.06 207.27 217.49" fill="#f8ec17" stroke-width="0"/>
      <polygon points="207.14 174.06 200.52 170.21 285.52 121.13 292.15 124.99 207.14 174.06" fill="#f8ec17" stroke-width="0"/>
      <line x1="22.5" y1="65.91" x2="22.37" y2="109.34" fill="none" stroke="#231f20" stroke-miterlimit="10" stroke-width=".5"/>
      <line x1="32.34" y1="71.6" x2="107.5" y2="114.99" fill="none" stroke="#231f20" stroke-miterlimit="10" stroke-width=".5"/>
      <line x1="123.39" y1="167.66" x2="212.23" y2="218.95" fill="none" stroke="#231f20" stroke-miterlimit="10" stroke-width=".5"/>
      <line x1="114.13" y1="12.98" x2="300.15" y2="120.38" fill="none" stroke="#231f20" stroke-miterlimit="10" stroke-width=".5"/>
      <line x1="300.16" y1="116.62" x2="300.03" y2="163.81" fill="none" stroke="#231f20" stroke-miterlimit="10" stroke-width=".5"/>
      <line x1="114.13" y1="12.98" x2="22.5" y2="65.91" fill="none" stroke="#231f20" stroke-miterlimit="10" stroke-width=".5"/>
      <line x1="107.5" y1="114.99" x2="107.39" y2="154.45" fill="none" stroke="#231f20" stroke-miterlimit="10" stroke-width=".5"/>
      <line x1="123.51" y1="124.23" x2="123.39" y2="167.66" fill="none" stroke="#231f20" stroke-miterlimit="10" stroke-width=".5"/>
      <line x1="157.73" y1="136.31" x2="208.52" y2="165.63" fill="none" stroke="#231f20" stroke-miterlimit="10" stroke-width=".5"/>
      <line x1="208.52" y1="165.63" x2="289.92" y2="118.49" fill="none" stroke="#000" stroke-miterlimit="10" stroke-width=".5"/>
      <line x1="111.63" y1="19.24" x2="301.63" y2="129.04" fill="none" stroke="#000" stroke-miterlimit="10" stroke-width=".5"/>
      <line x1="204.46" y1="219.01" x2="300.03" y2="163.81" fill="none" stroke="#000" stroke-miterlimit="10" stroke-width=".5"/>
      <line x1="18.26" y1="106.96" x2="107.38" y2="158.41" fill="none" stroke="#000" stroke-miterlimit="10" stroke-width=".5"/>
      <line x1="123.05" y1="15.54" x2="35.8" y2="65.91" fill="none" stroke="#000" stroke-miterlimit="10" stroke-width=".5"/>
      <line x1="22.5" y1="58.23" x2="114.13" y2="111.14" fill="none" stroke="#000" stroke-miterlimit="10" stroke-width=".5"/>
      <line x1="114.13" y1="26.82" x2="114.13" y2="56.69" fill="none" stroke="#000" stroke-dasharray="0 0 5.12 5.12" stroke-miterlimit="10" stroke-width=".5"/>
      <line x1="208.52" y1="160.14" x2="208.52" y2="212.17" fill="none" stroke="#000" stroke-miterlimit="10" stroke-width=".5"/>
      <line x1="300.15" y1="120.38" x2="215.15" y2="169.46" fill="none" stroke="#000" stroke-miterlimit="10" stroke-width=".5"/>
      <line x1="107.38" y1="158.41" x2="114.01" y2="154.56" fill="none" stroke="#000" stroke-miterlimit="10" stroke-width=".5"/>
      <line x1="114.01" y1="154.56" x2="114.01" y2="129.72" fill="none" stroke="#000" stroke-miterlimit="10" stroke-width=".5"/>
      <line x1="123.51" y1="124.23" x2="201.64" y2="169.46" fill="none" stroke="#000" stroke-miterlimit="10" stroke-width=".5"/>
      <g clip-path="url(#clippath-43)">
        <g isolation="isolate">
          <g clip-path="url(#clippath-44)">
            <polygon points="120.28 177.16 147.85 193.08 148.25 192.85 120.68 176.93 120.28 177.16" stroke-width="0"/>
            <polygon points="149.34 188.94 149.37 193.72 141.11 193.72 141.11 194.05 149.94 194.05 149.91 188.94 149.34 188.94" stroke-width="0"/>
          </g>
        </g>
        <g isolation="isolate">
          <g clip-path="url(#clippath-45)">
            <polygon points="65.48 144.4 93.05 160.31 93.45 160.08 65.88 144.16 65.48 144.4" stroke-width="0"/>
            <polygon points="63.8 143.19 63.83 148.3 64.39 148.3 64.36 143.52 72.63 143.52 72.62 143.19 72.62 143.19 63.8 143.19" stroke-width="0"/>
          </g>
        </g>
      </g>
      <line x1="107.38" y1="158.41" x2="67.57" y2="181.76" fill="none" stroke="#000" stroke-dasharray="0 0 5.12 5.12" stroke-miterlimit="10" stroke-width=".5"/>
      <line x1="123.39" y1="167.66" x2="76.97" y2="195.64" fill="none" stroke="#000" stroke-dasharray="0 0 5.12 5.12" stroke-miterlimit="10" stroke-width=".5"/>
    </g>
  </g>
</svg>