<?xml version="1.0" encoding="UTF-8"?>
<svg id="_export_" xmlns="http://www.w3.org/2000/svg" xmlns:xlink="http://www.w3.org/1999/xlink" viewBox="0 0 360 231">
  <defs>
    <clipPath id="clippath">
      <rect x=".4" y=".05" width="360" height="231" fill="none" stroke-width="0"/>
    </clipPath>
    <clipPath id="clippath-1">
      <rect x="42.78" y="11.56" width="287.88" height="210.54" fill="none" stroke-width="0"/>
    </clipPath>
    <clipPath id="clippath-2">
      <rect x="119.78" y="45.45" width="60.08" height="81.27" fill="none" stroke-width="0"/>
    </clipPath>
    <clipPath id="clippath-3">
      <rect x="119.78" y="45.45" width="60.08" height="81.27" fill="none" stroke-width="0"/>
    </clipPath>
    <clipPath id="clippath-4">
      <rect x="155.45" y="45.45" width="24.42" height="53.04" fill="none" stroke-width="0"/>
    </clipPath>
    <clipPath id="clippath-5">
      <polygon points="155.56 45.45 155.45 84.46 179.75 98.5 179.87 59.49 155.56 45.45" fill="none" stroke-width="0"/>
    </clipPath>
    <clipPath id="clippath-6">
      <rect x="149.5" y="50.16" width="24.42" height="53.05" fill="none" stroke-width="0"/>
    </clipPath>
    <clipPath id="clippath-7">
      <polygon points="149.61 50.16 149.5 89.17 173.81 103.2 173.92 64.19 149.61 50.16" fill="none" stroke-width="0"/>
    </clipPath>
    <clipPath id="clippath-8">
      <rect x="143.56" y="54.86" width="24.42" height="53.04" fill="none" stroke-width="0"/>
    </clipPath>
    <clipPath id="clippath-9">
      <polygon points="143.67 54.86 143.56 93.87 167.87 107.91 167.98 68.9 143.67 54.86" fill="none" stroke-width="0"/>
    </clipPath>
    <clipPath id="clippath-10">
      <rect x="137.61" y="59.56" width="24.42" height="53.05" fill="none" stroke-width="0"/>
    </clipPath>
    <clipPath id="clippath-11">
      <polygon points="137.73 59.56 137.61 98.58 161.92 112.61 162.03 73.6 137.73 59.56" fill="none" stroke-width="0"/>
    </clipPath>
    <clipPath id="clippath-12">
      <rect x="131.67" y="64.27" width="24.42" height="53.04" fill="none" stroke-width="0"/>
    </clipPath>
    <clipPath id="clippath-13">
      <polygon points="131.78 64.27 131.67 103.28 155.98 117.32 156.09 78.31 131.78 64.27" fill="none" stroke-width="0"/>
    </clipPath>
    <clipPath id="clippath-14">
      <rect x="125.73" y="68.97" width="24.42" height="53.05" fill="none" stroke-width="0"/>
    </clipPath>
    <clipPath id="clippath-15">
      <polygon points="125.84 68.97 125.73 107.99 150.04 122.02 150.15 83.01 125.84 68.97" fill="none" stroke-width="0"/>
    </clipPath>
    <clipPath id="clippath-16">
      <rect x="119.78" y="73.68" width="24.42" height="53.05" fill="none" stroke-width="0"/>
    </clipPath>
    <clipPath id="clippath-17">
      <polygon points="119.89 73.68 119.78 112.69 144.09 126.72 144.2 87.71 119.89 73.68" fill="none" stroke-width="0"/>
    </clipPath>
    <clipPath id="clippath-18">
      <rect x="152.12" y="63.98" width="64.78" height="81.81" fill="none" stroke-width="0"/>
    </clipPath>
    <clipPath id="clippath-19">
      <rect x="152.12" y="63.98" width="64.78" height="81.81" fill="none" stroke-width="0"/>
    </clipPath>
    <clipPath id="clippath-20">
      <rect x="192.48" y="63.98" width="24.42" height="53.04" fill="none" stroke-width="0"/>
    </clipPath>
    <clipPath id="clippath-21">
      <polygon points="192.59 63.98 192.48 102.99 216.79 117.02 216.9 78.01 192.59 63.98" fill="none" stroke-width="0"/>
    </clipPath>
    <clipPath id="clippath-22">
      <rect x="185.75" y="68.77" width="24.42" height="53.05" fill="none" stroke-width="0"/>
    </clipPath>
    <clipPath id="clippath-23">
      <polygon points="185.86 68.77 185.75 107.79 210.06 121.82 210.17 82.81 185.86 68.77" fill="none" stroke-width="0"/>
    </clipPath>
    <clipPath id="clippath-24">
      <rect x="179.02" y="73.57" width="24.42" height="53.05" fill="none" stroke-width="0"/>
    </clipPath>
    <clipPath id="clippath-25">
      <polygon points="179.13 73.57 179.02 112.58 203.33 126.61 203.44 87.6 179.13 73.57" fill="none" stroke-width="0"/>
    </clipPath>
    <clipPath id="clippath-26">
      <rect x="172.3" y="78.36" width="24.42" height="53.05" fill="none" stroke-width="0"/>
    </clipPath>
    <clipPath id="clippath-27">
      <polygon points="172.41 78.36 172.3 117.37 196.6 131.41 196.72 92.4 172.41 78.36" fill="none" stroke-width="0"/>
    </clipPath>
    <clipPath id="clippath-28">
      <rect x="165.57" y="83.16" width="24.42" height="53.05" fill="none" stroke-width="0"/>
    </clipPath>
    <clipPath id="clippath-29">
      <polygon points="165.68 83.16 165.57 122.17 189.88 136.2 189.99 97.19 165.68 83.16" fill="none" stroke-width="0"/>
    </clipPath>
    <clipPath id="clippath-30">
      <rect x="158.84" y="87.95" width="24.42" height="53.04" fill="none" stroke-width="0"/>
    </clipPath>
    <clipPath id="clippath-31">
      <polygon points="158.95 87.95 158.84 126.96 183.15 141 183.26 101.99 158.95 87.95" fill="none" stroke-width="0"/>
    </clipPath>
    <clipPath id="clippath-32">
      <rect x="152.12" y="92.75" width="24.42" height="53.04" fill="none" stroke-width="0"/>
    </clipPath>
    <clipPath id="clippath-33">
      <polygon points="152.23 92.75 152.12 131.76 176.43 145.79 176.54 106.78 152.23 92.75" fill="none" stroke-width="0"/>
    </clipPath>
    <clipPath id="clippath-34">
      <rect x="193.34" y="84.14" width="62.05" height="85.3" fill="none" stroke-width="0"/>
    </clipPath>
    <clipPath id="clippath-35">
      <rect x="193.34" y="84.14" width="62.05" height="85.29" fill="none" stroke-width="0"/>
    </clipPath>
    <clipPath id="clippath-36">
      <rect x="230.97" y="84.14" width="24.42" height="53.04" fill="none" stroke-width="0"/>
    </clipPath>
    <clipPath id="clippath-37">
      <rect x="224.7" y="89.52" width="24.42" height="53.05" fill="none" stroke-width="0"/>
    </clipPath>
    <clipPath id="clippath-38">
      <rect x="218.43" y="94.89" width="24.42" height="53.05" fill="none" stroke-width="0"/>
    </clipPath>
    <clipPath id="clippath-39">
      <rect x="212.16" y="100.27" width="24.42" height="53.05" fill="none" stroke-width="0"/>
    </clipPath>
    <clipPath id="clippath-40">
      <rect x="205.89" y="105.64" width="24.42" height="53.04" fill="none" stroke-width="0"/>
    </clipPath>
    <clipPath id="clippath-41">
      <rect x="199.62" y="111.02" width="24.42" height="53.05" fill="none" stroke-width="0"/>
    </clipPath>
    <clipPath id="clippath-42">
      <rect x="193.34" y="116.39" width="24.42" height="53.05" fill="none" stroke-width="0"/>
    </clipPath>
    <clipPath id="clippath-43">
      <rect x="42.78" y="11.56" width="287.88" height="210.54" fill="none" stroke-width="0"/>
    </clipPath>
    <clipPath id="clippath-44">
      <rect x="142.86" y="175.32" width="38.25" height="22.11" fill="none" stroke-width="0"/>
    </clipPath>
    <clipPath id="clippath-45">
      <rect x="86.18" y="141.47" width="38.24" height="22.11" fill="none" stroke-width="0"/>
    </clipPath>
  </defs>
  <g clip-path="url(#clippath)">
    <g>
      <polygon points="319.17 125.82 319.05 169.24 133.03 61.84 133.15 18.42 319.17 125.82" fill="#ddcd00" stroke-width="0"/>
      <polygon points="319.17 125.82 325.8 121.96 325.68 165.39 319.05 169.24 319.17 125.82" fill="#f8ec17" stroke-width="0"/>
      <polygon points="133.15 18.42 139.78 14.56 325.8 121.96 319.17 125.82 133.15 18.42" fill="#f8ec17" stroke-width="0"/>
      <polygon points="139.78 22.27 139.9 65.69 54.9 114.77 54.77 71.35 139.78 22.27" fill="#ddcd00" stroke-width="0"/>
      <polygon points="54.9 114.77 48.27 110.92 48.15 67.49 54.77 71.35 54.9 114.77" fill="#f8ec17" stroke-width="0"/>
      <polygon points="54.77 71.35 48.15 67.49 133.15 18.42 139.78 22.27 54.77 71.35" fill="#f8ec17" stroke-width="0"/>
      <g clip-path="url(#clippath-1)">
        <g clip-path="url(#clippath-2)">
          <g clip-path="url(#clippath-3)">
            <g isolation="isolate">
              <g clip-path="url(#clippath-4)">
                <g clip-path="url(#clippath-5)">
                  <path d="M167.69,61.84l.13.08h0c4.8,2.86,8.68,9.62,8.66,15.15,0,.8-.05,1.3-.2,2-.5,2.37-1.86,3.85-3.84,4.19-1.45.25-3.1-.15-4.79-1.12-.62-.36-1.23-.79-1.85-1.29-2.3-1.89-4.28-4.6-5.55-7.61-1.28-3.01-1.71-5.98-1.21-8.34.29-1.35.8-2.34,1.61-3.09h0s.08-.07.08-.07l.08-.07h0c1.68-1.43,4.07-1.39,6.75.12h0s.13.08.13.08ZM179.46,59.72l-23.51-13.57-.11,38.09,23.51,13.57.11-38.09" fill="#fff" stroke-width="0"/>
                  <path d="M155.85,84.24l.11-38.09,23.51,13.57-.11,38.09-23.51-13.57ZM179.87,59.49l-24.31-14.03-.11,39.01,24.31,14.03.11-39.01" fill="#231f20" stroke-width="0"/>
                  <path d="M167.55,62.07c-2.59-1.45-4.9-1.49-6.54-.11l2.16,3.19,4.35,6.43.03-9.52Z" fill="#fff" stroke-width="0"/>
                  <path d="M160.72,61.72l-.08.07h0s.05-.05.08-.07M167.55,61.76c-2.68-1.5-5.06-1.54-6.75-.11l.21.31c1.63-1.38,3.94-1.34,6.54.11l-.03,9.52-4.35-6.43,4.35,6.43.03-9.82M167.82,61.91l-.13-.08s.09.05.13.08h0" fill="#231f20" stroke-width="0"/>
                  <path d="M160.85,62.1c-.79.73-1.28,1.69-1.56,3-.48,2.29-.07,5.17,1.17,8.09,1.24,2.92,3.15,5.54,5.38,7.38.6.49,1.2.91,1.79,1.25,1.64.94,3.24,1.33,4.65,1.09,1.88-.32,3.19-1.71,3.7-3.93l-8.39-6.9h0s-.08-.06-.08-.06v-.05l-6.67-9.87Z" fill="#f8ec17" stroke-width="0"/>
                  <path d="M160.8,61.65l-.08.07s-.05.05-.08.07c-.81.75-1.32,1.74-1.61,3.09-.5,2.36-.07,5.33,1.21,8.34,1.28,3.01,3.25,5.71,5.55,7.61.62.51,1.24.94,1.85,1.29,1.69.97,3.34,1.37,4.79,1.12,1.98-.33,3.35-1.82,3.84-4.19l-.03.13-8.65-7.11h0s8.39,6.9,8.39,6.9c-.5,2.22-1.81,3.61-3.7,3.93-1.41.24-3.01-.15-4.65-1.09-.6-.34-1.2-.76-1.79-1.25-2.23-1.84-4.15-4.46-5.38-7.38-1.24-2.92-1.66-5.8-1.17-8.09.28-1.31.77-2.26,1.56-3l6.67,9.87v-.39s-4.35-6.43-4.35-6.43l-2.16-3.19-.21-.31h0Z" fill="#231f20" stroke-width="0"/>
                  <path d="M167.82,62.22l-.03,9.71,8.26,6.79c.12-.61.16-1.08.16-1.8.02-5.37-3.74-11.92-8.39-14.69" stroke-width="0"/>
                  <path d="M176.05,78.72l-8.26-6.79.03-9.71c4.66,2.77,8.41,9.33,8.39,14.69,0,.72-.04,1.19-.16,1.8M167.69,61.84l-.13-.08h0s-.03,9.82-.03,9.82v.39s0,.05,0,.05l.08.06,8.65,7.11.03-.13c.15-.69.2-1.2.2-2,.02-5.54-3.86-12.3-8.66-15.15-.04-.03-.09-.05-.13-.08" fill="#231f20" stroke-width="0"/>
                </g>
              </g>
            </g>
            <g isolation="isolate">
              <g clip-path="url(#clippath-6)">
                <g clip-path="url(#clippath-7)">
                  <path d="M161.74,66.54l.14.08h0c4.8,2.86,8.68,9.62,8.66,15.16,0,.74-.05,1.23-.17,1.86h0s-.03.14-.03.14l-.03.13h0c-.94,4.14-4.59,5.24-8.62,2.92-.61-.35-1.22-.78-1.84-1.28-4.75-3.91-7.79-11.06-6.76-15.95.28-1.35.8-2.34,1.61-3.09l.08-.07c1.69-1.5,4.11-1.48,6.83.04h0s.13.08.13.08ZM173.52,64.42l-23.51-13.57-.11,38.09,23.51,13.57.11-38.09" fill="#fff" stroke-width="0"/>
                  <path d="M149.9,88.94l.11-38.09,23.51,13.57-.11,38.09-23.51-13.57ZM173.92,64.19l-24.31-14.03-.11,39.01,24.31,14.03.11-39.01" fill="#231f20" stroke-width="0"/>
                  <path d="M161.61,66.77c-2.59-1.46-4.9-1.49-6.54-.11l5.18,7.67,1.33,1.96.03-9.52Z" fill="#fff" stroke-width="0"/>
                  <path d="M154.78,66.42l-.08.07s.05-.05.08-.07M161.61,66.47c-2.72-1.53-5.14-1.54-6.83-.04l.08-.07.21.31c1.63-1.38,3.94-1.34,6.54.11l-.03,9.52-1.33-1.96,1.33,1.96.03-9.82M161.88,66.62l-.13-.08s.09.05.13.08h0" fill="#231f20" stroke-width="0"/>
                  <path d="M154.91,66.81c-.79.73-1.28,1.68-1.56,2.99-1,4.73,1.94,11.67,6.56,15.46.6.49,1.2.91,1.8,1.26,1.63.94,3.24,1.33,4.64,1.09,1.88-.32,3.19-1.71,3.7-3.92l-1.85-1.52-6.62-5.44v-.05l-6.67-9.87Z" fill="#f8ec17" stroke-width="0"/>
                  <path d="M170.36,83.64s-.02.09-.03.14l.03-.14h0ZM154.86,66.35l-.08.07s-.05.05-.08.07c-.81.75-1.32,1.74-1.61,3.09-1.03,4.88,2.01,12.04,6.76,15.95.62.51,1.23.93,1.84,1.28,4.03,2.33,7.68,1.22,8.62-2.92l-2.11-1.74,1.85,1.52c-.51,2.21-1.81,3.61-3.7,3.92-1.41.24-3.01-.14-4.64-1.09-.6-.34-1.2-.77-1.8-1.26-4.61-3.79-7.55-10.73-6.56-15.46.27-1.31.77-2.27,1.56-2.99l6.67,9.87v-.39s-1.33-1.96-1.33-1.96l-5.18-7.67-.21-.31" fill="#231f20" stroke-width="0"/>
                  <path d="M161.87,66.93l-.03,9.71,8.26,6.79c.12-.61.16-1.08.16-1.8.02-5.37-3.74-11.92-8.39-14.69" stroke-width="0"/>
                  <path d="M170.1,83.42l-8.26-6.79.03-9.71c4.65,2.77,8.41,9.32,8.39,14.69,0,.72-.04,1.19-.16,1.8M161.74,66.54l-.13-.08h0s-.03,9.83-.03,9.83v.39s0,.05,0,.05l6.62,5.44,2.11,1.74h0s.03-.13.03-.13c0-.05.02-.09.03-.14.12-.63.17-1.12.17-1.86.02-5.54-3.86-12.3-8.66-15.16-.04-.03-.09-.05-.13-.08" fill="#231f20" stroke-width="0"/>
                </g>
              </g>
            </g>
            <g isolation="isolate">
              <g clip-path="url(#clippath-8)">
                <g clip-path="url(#clippath-9)">
                  <path d="M155.8,71.25l.13.08h0c4.8,2.86,8.68,9.62,8.66,15.15,0,.8-.05,1.3-.2,2-.5,2.37-1.86,3.85-3.84,4.19-1.45.25-3.1-.15-4.79-1.12-.62-.36-1.23-.79-1.85-1.29-2.3-1.9-4.28-4.6-5.55-7.61-1.28-3.01-1.71-5.98-1.21-8.34.29-1.35.8-2.34,1.61-3.09h0s.08-.07.08-.07l.08-.07h0c1.68-1.43,4.07-1.39,6.75.12h0s.13.08.13.08ZM167.58,69.13l-23.51-13.57-.11,38.09,23.51,13.57.11-38.09" fill="#fff" stroke-width="0"/>
                  <path d="M143.96,93.64l.11-38.09,23.51,13.57-.11,38.09-23.51-13.57ZM167.98,68.9l-24.31-14.04-.11,39.01,24.31,14.04.11-39.01" fill="#231f20" stroke-width="0"/>
                  <path d="M155.66,71.48c-2.59-1.45-4.9-1.49-6.54-.11l2.16,3.19,4.35,6.43.03-9.52Z" fill="#fff" stroke-width="0"/>
                  <path d="M148.83,71.13l-.08.07h0s.05-.05.08-.07M155.66,71.17c-2.68-1.5-5.06-1.54-6.75-.11l.21.31c1.63-1.38,3.94-1.34,6.54.11l-.03,9.52-4.35-6.43,4.35,6.43.03-9.82M155.93,71.32l-.13-.08s.09.05.13.08h0" fill="#231f20" stroke-width="0"/>
                  <path d="M148.96,71.51c-.78.73-1.28,1.69-1.56,3-.48,2.29-.07,5.17,1.17,8.09,1.24,2.92,3.15,5.54,5.38,7.38.6.49,1.2.91,1.79,1.25,1.64.94,3.24,1.33,4.65,1.09,1.88-.32,3.19-1.71,3.7-3.93l-8.39-6.9h0s-.07-.06-.07-.06v-.05l-6.67-9.87Z" fill="#f8ec17" stroke-width="0"/>
                  <path d="M148.92,71.06l-.08.07s-.05.05-.08.07c-.81.76-1.32,1.74-1.61,3.09-.5,2.36-.07,5.33,1.21,8.34,1.28,3.01,3.25,5.71,5.55,7.61.62.51,1.24.94,1.85,1.29,1.69.97,3.34,1.37,4.79,1.12,1.98-.33,3.35-1.82,3.84-4.19l-.03.13-8.66-7.12h0s8.39,6.9,8.39,6.9c-.5,2.22-1.81,3.61-3.7,3.93-1.41.24-3.01-.15-4.65-1.09-.6-.34-1.2-.76-1.79-1.25-2.23-1.84-4.15-4.46-5.38-7.38-1.24-2.92-1.66-5.8-1.17-8.09.28-1.31.77-2.26,1.56-3l6.67,9.87v-.39s-4.35-6.43-4.35-6.43l-2.16-3.19-.21-.31h0Z" fill="#231f20" stroke-width="0"/>
                  <path d="M155.93,71.63l-.03,9.71,8.26,6.79c.12-.61.16-1.08.17-1.8.02-5.37-3.74-11.92-8.39-14.69" stroke-width="0"/>
                  <path d="M164.16,88.13l-8.26-6.79.03-9.71c4.66,2.77,8.41,9.33,8.39,14.69,0,.72-.04,1.19-.17,1.8M155.8,71.25l-.13-.08h0s-.03,9.82-.03,9.82v.39s0,.05,0,.05l.07.06,8.66,7.12.03-.13c.15-.69.2-1.2.2-2,.02-5.54-3.86-12.3-8.66-15.15-.04-.03-.09-.05-.13-.08" fill="#231f20" stroke-width="0"/>
                </g>
              </g>
            </g>
            <g isolation="isolate">
              <g clip-path="url(#clippath-10)">
                <g clip-path="url(#clippath-11)">
                  <path d="M149.85,75.95l.13.08h0c4.8,2.86,8.67,9.62,8.66,15.16,0,.74-.05,1.23-.17,1.86h0s-.03.14-.03.14l-.03.13h0c-.94,4.14-4.59,5.24-8.62,2.92-.61-.35-1.22-.78-1.84-1.28-4.75-3.91-7.79-11.06-6.76-15.95.28-1.35.8-2.34,1.61-3.09l.08-.07.08-.07h0c1.68-1.42,4.07-1.39,6.75.11h0s.13.08.13.08ZM161.63,73.83l-23.51-13.57-.11,38.09,23.51,13.57.11-38.09" fill="#fff" stroke-width="0"/>
                  <path d="M138.02,98.35l.11-38.09,23.51,13.57-.11,38.09-23.51-13.57ZM162.03,73.6l-24.31-14.03-.11,39.01,24.31,14.03.11-39.01" fill="#231f20" stroke-width="0"/>
                  <path d="M149.72,76.18c-2.59-1.45-4.9-1.49-6.54-.11l6.51,9.63.03-9.51Z" fill="#fff" stroke-width="0"/>
                  <path d="M142.89,75.83l-.08.07s.05-.05.08-.07M149.72,75.87c-2.67-1.5-5.06-1.54-6.75-.11l.21.31c1.63-1.38,3.94-1.34,6.54.11l-.03,9.51.03-9.82M149.99,76.03l-.13-.08s.09.05.13.08h0" fill="#231f20" stroke-width="0"/>
                  <path d="M143.02,76.22c-.79.73-1.28,1.68-1.56,2.99-1,4.74,1.95,11.67,6.56,15.46.6.49,1.19.91,1.78,1.25,3.91,2.26,7.44,1.19,8.36-2.82l-1.4-1.15-7.07-5.81v-.05l-6.67-9.86Z" fill="#f8ec17" stroke-width="0"/>
                  <path d="M158.48,93.04s-.02.09-.03.14l.03-.14h0ZM142.97,75.76l-.08.07s-.05.05-.08.07c-.81.75-1.32,1.74-1.61,3.09-1.03,4.88,2.01,12.04,6.76,15.95.62.51,1.23.93,1.84,1.28,4.03,2.33,7.68,1.22,8.62-2.92l-1.66-1.37,1.4,1.15c-.92,4.01-4.45,5.08-8.36,2.82-.59-.34-1.18-.75-1.78-1.25-4.61-3.79-7.55-10.73-6.56-15.46.28-1.31.77-2.26,1.56-2.99l6.67,9.86v-.39s-6.51-9.63-6.51-9.63l-.21-.31h0" fill="#231f20" stroke-width="0"/>
                  <path d="M149.99,76.34l-.03,9.71,8.26,6.79c.12-.61.16-1.08.16-1.8.02-5.37-3.74-11.92-8.39-14.69" stroke-width="0"/>
                  <path d="M158.22,92.83l-8.26-6.79.03-9.71c4.65,2.77,8.41,9.32,8.39,14.69,0,.72-.04,1.19-.16,1.8M149.85,75.95l-.13-.08h0s-.03,9.82-.03,9.82v.39s0,.05,0,.05l7.07,5.81,1.66,1.37h0s.03-.13.03-.13c0-.05.02-.09.03-.14.12-.63.17-1.12.17-1.86.02-5.54-3.85-12.3-8.66-15.15-.04-.03-.09-.05-.13-.08" fill="#231f20" stroke-width="0"/>
                </g>
              </g>
            </g>
            <g isolation="isolate">
              <g clip-path="url(#clippath-12)">
                <g clip-path="url(#clippath-13)">
                  <path d="M143.91,80.65l.14.08h0c4.8,2.86,8.68,9.62,8.66,15.15,0,.8-.05,1.3-.2,2-.9,4.25-4.58,5.4-8.65,3.05-.61-.35-1.22-.78-1.83-1.28-2.3-1.89-4.28-4.6-5.55-7.61-1.28-3.01-1.71-5.97-1.21-8.34.28-1.35.8-2.34,1.61-3.09h0s.08-.07.08-.07l.08-.07h0c1.68-1.43,4.07-1.39,6.75.12h0s.13.08.13.08ZM155.69,78.53l-23.51-13.57-.11,38.09,23.51,13.57.11-38.09" fill="#fff" stroke-width="0"/>
                  <path d="M132.07,103.05l.11-38.09,23.51,13.57-.11,38.09-23.51-13.57ZM156.09,78.31l-24.31-14.04-.11,39.01,24.31,14.04.11-39.01" fill="#231f20" stroke-width="0"/>
                  <path d="M143.78,80.88c-2.59-1.45-4.9-1.49-6.54-.11l.98,1.45,5.53,8.17.03-9.52Z" fill="#fff" stroke-width="0"/>
                  <path d="M136.95,80.54l-.08.07h0s.05-.05.08-.07M143.78,80.58c-2.68-1.5-5.06-1.54-6.75-.11l.21.31c1.63-1.38,3.94-1.35,6.54.11l-.03,9.52-5.53-8.17,5.53,8.18.03-9.82M144.04,80.73l-.13-.08s.09.05.13.08h0" fill="#231f20" stroke-width="0"/>
                  <path d="M137.07,80.92c-.78.73-1.28,1.69-1.56,3-.48,2.29-.07,5.16,1.17,8.09,1.24,2.92,3.15,5.54,5.38,7.38.6.49,1.19.9,1.78,1.24,3.91,2.26,7.45,1.19,8.36-2.82l-8.39-6.9h0s-.07-.06-.07-.06v-.05l-6.67-9.87Z" fill="#f8ec17" stroke-width="0"/>
                  <path d="M137.03,80.46l-.08.07s-.05.05-.08.07c-.81.75-1.33,1.74-1.61,3.09-.5,2.36-.07,5.33,1.21,8.34,1.28,3.01,3.25,5.72,5.55,7.61.61.5,1.23.93,1.83,1.28,4.08,2.35,7.76,1.2,8.65-3.05l-.03.13-8.66-7.12h0s8.39,6.9,8.39,6.9c-.92,4.01-4.45,5.08-8.36,2.82-.59-.34-1.18-.75-1.78-1.24-2.23-1.84-4.15-4.46-5.38-7.38-1.24-2.92-1.66-5.8-1.17-8.09.28-1.31.77-2.26,1.56-3l6.67,9.87v-.39s-5.53-8.18-5.53-8.18l-.98-1.45-.21-.31h0Z" fill="#231f20" stroke-width="0"/>
                  <path d="M144.04,81.04l-.03,9.71,8.26,6.79c.12-.61.16-1.08.17-1.8.02-5.37-3.74-11.92-8.39-14.69" stroke-width="0"/>
                  <path d="M152.27,97.53l-8.26-6.79.03-9.71c4.66,2.77,8.41,9.32,8.39,14.69,0,.72-.04,1.19-.17,1.8M143.91,80.65l-.13-.08h0s-.03,9.83-.03,9.83v.39s0,.05,0,.05l.07.06,8.66,7.12.03-.13c.15-.7.2-1.2.2-2,.02-5.54-3.86-12.3-8.66-15.15-.04-.03-.09-.05-.13-.08" fill="#231f20" stroke-width="0"/>
                </g>
              </g>
            </g>
            <g isolation="isolate">
              <g clip-path="url(#clippath-14)">
                <g clip-path="url(#clippath-15)">
                  <path d="M137.97,85.36l.13.08h0c4.8,2.86,8.68,9.62,8.66,15.16,0,.74-.05,1.23-.17,1.86h0s-.03.14-.03.14c-.89,4.25-4.58,5.4-8.65,3.05-.61-.35-1.22-.78-1.84-1.28-4.75-3.91-7.79-11.07-6.76-15.95.28-1.35.8-2.34,1.61-3.09h0s.08-.07.08-.07l.08-.07h0c1.68-1.43,4.07-1.39,6.75.12h0s.13.08.13.08ZM149.74,83.24l-23.51-13.57-.11,38.09,23.51,13.57.11-38.09" fill="#fff" stroke-width="0"/>
                  <path d="M126.13,107.76l.11-38.09,23.51,13.57-.11,38.09-23.51-13.57ZM150.15,83.01l-24.31-14.03-.11,39.01,24.31,14.03.11-39.01" fill="#231f20" stroke-width="0"/>
                  <path d="M137.83,85.59c-2.59-1.45-4.9-1.49-6.54-.11l6.51,9.63.03-9.51Z" fill="#fff" stroke-width="0"/>
                  <path d="M131,85.24l-.08.07h0s.05-.05.08-.07M137.83,85.28c-2.68-1.5-5.06-1.54-6.75-.11l.21.31c1.63-1.38,3.94-1.34,6.54.11l-.03,9.51.03-9.82M138.1,85.43l-.13-.08s.09.05.13.08h0" fill="#231f20" stroke-width="0"/>
                  <path d="M131.13,85.63c-.79.73-1.28,1.68-1.56,2.99-1,4.74,1.95,11.67,6.56,15.46.6.49,1.2.91,1.8,1.26,1.63.94,3.24,1.33,4.64,1.09,1.88-.32,3.19-1.71,3.7-3.93l-1.44-1.19-7.02-5.77v-.05l-6.67-9.86Z" fill="#f8ec17" stroke-width="0"/>
                  <path d="M131.09,85.17l-.08.07s-.05.05-.08.07c-.81.75-1.32,1.74-1.61,3.09-1.03,4.88,2.01,12.04,6.76,15.95.62.51,1.23.93,1.84,1.28,4.07,2.35,7.75,1.2,8.65-3.05l.03-.14h0s-.02.09-.03.14l-.03.13-1.71-1.4,1.44,1.19c-.5,2.22-1.81,3.61-3.7,3.93-1.41.24-3.01-.14-4.65-1.09-.6-.34-1.2-.77-1.8-1.26-4.61-3.79-7.55-10.73-6.56-15.46.28-1.31.77-2.26,1.56-2.99l6.67,9.86v-.39s-6.51-9.63-6.51-9.63l-.21-.31h0Z" fill="#231f20" stroke-width="0"/>
                  <path d="M138.1,85.74l-.03,9.71,8.26,6.79c.12-.61.16-1.08.16-1.8.02-5.37-3.74-11.92-8.39-14.69" stroke-width="0"/>
                  <path d="M146.33,102.24l-8.26-6.79.03-9.71c4.66,2.77,8.41,9.32,8.39,14.69,0,.72-.04,1.19-.16,1.8M137.97,85.36l-.13-.08h0s-.03,9.82-.03,9.82v.39s0,.05,0,.05l7.02,5.77,1.71,1.4.03-.13s.02-.09.03-.14c.12-.63.17-1.12.17-1.86.02-5.54-3.86-12.3-8.66-15.16-.04-.03-.09-.05-.13-.08" fill="#231f20" stroke-width="0"/>
                </g>
              </g>
            </g>
            <g isolation="isolate">
              <g clip-path="url(#clippath-16)">
                <g clip-path="url(#clippath-17)">
                  <path d="M132.02,90.06l.13.08h0c4.8,2.86,8.68,9.62,8.66,15.15,0,.75-.05,1.23-.17,1.86h0s-.03.13-.03.13l-.03.13h0c-.52,2.29-1.87,3.73-3.81,4.05-1.45.25-3.1-.15-4.79-1.12-.62-.36-1.24-.79-1.85-1.29-4.75-3.91-7.79-11.06-6.76-15.95.28-1.35.8-2.34,1.61-3.09h0s.08-.07.08-.07c1.69-1.5,4.11-1.48,6.83.04h0s.13.08.13.08ZM143.8,87.94l-23.51-13.57-.11,38.09,23.51,13.57.11-38.09" fill="#fff" stroke-width="0"/>
                  <path d="M120.19,112.46l.11-38.09,23.51,13.57-.11,38.09-23.51-13.57ZM144.2,87.71l-24.31-14.04-.11,39.01,24.31,14.04.11-39.01" fill="#231f20" stroke-width="0"/>
                  <path d="M131.89,90.29c-2.59-1.45-4.9-1.49-6.54-.11l.98,1.45,5.53,8.17.03-9.52Z" fill="#fff" stroke-width="0"/>
                  <path d="M125.06,89.95l-.08.07h0s.05-.05.08-.07M131.89,89.99c-2.72-1.53-5.14-1.55-6.83-.04l.08-.07.21.31c1.63-1.38,3.94-1.35,6.54.11l-.03,9.52-5.53-8.17,5.53,8.18.03-9.82M132.16,90.14l-.13-.08s.09.05.13.08h0" fill="#231f20" stroke-width="0"/>
                  <path d="M125.19,90.33c-.79.73-1.28,1.69-1.56,3-1,4.73,1.94,11.67,6.56,15.47.6.49,1.2.91,1.79,1.25,1.64.94,3.24,1.33,4.65,1.09,1.88-.32,3.19-1.71,3.7-3.93l-8.39-6.9h0s-.07-.06-.07-.06v-.05l-6.67-9.87Z" fill="#f8ec17" stroke-width="0"/>
                  <path d="M140.64,107.16s-.02.09-.03.13l.03-.13h0ZM125.14,89.87l-.08.07s-.05.05-.08.07c-.81.76-1.32,1.74-1.61,3.09-1.03,4.88,2.01,12.04,6.76,15.95.62.51,1.24.94,1.85,1.29,1.69.97,3.34,1.37,4.79,1.12,1.94-.33,3.29-1.76,3.81-4.05l-8.65-7.12h0s8.39,6.9,8.39,6.9c-.51,2.22-1.81,3.61-3.7,3.93-1.41.24-3.01-.15-4.65-1.09-.6-.34-1.2-.76-1.79-1.25-4.61-3.79-7.55-10.73-6.56-15.46.27-1.31.77-2.27,1.56-3l6.67,9.87v-.39s-5.53-8.18-5.53-8.18l-.98-1.45-.21-.31" fill="#231f20" stroke-width="0"/>
                  <path d="M132.16,90.45l-.03,9.71,8.26,6.79c.12-.61.16-1.08.17-1.8.02-5.37-3.74-11.92-8.39-14.69" stroke-width="0"/>
                  <path d="M140.39,106.94l-8.26-6.79.03-9.71c4.66,2.77,8.41,9.32,8.39,14.69,0,.72-.04,1.2-.17,1.8M132.02,90.06l-.13-.08h0s-.03,9.83-.03,9.83v.39s0,.05,0,.05l.07.06,8.65,7.12h0s.03-.13.03-.13c0-.04.02-.09.03-.13.13-.63.17-1.12.17-1.86.02-5.54-3.86-12.3-8.66-15.15-.04-.03-.09-.05-.13-.08" fill="#231f20" stroke-width="0"/>
                </g>
              </g>
            </g>
          </g>
        </g>
        <g clip-path="url(#clippath-18)">
          <g clip-path="url(#clippath-19)">
            <g isolation="isolate">
              <g clip-path="url(#clippath-20)">
                <g clip-path="url(#clippath-21)">
                  <path d="M200.57,89.95l-2.95,4.15,5.88,3.39-2.92-7.55ZM207.02,100.02l.02-6.03,5.25,3.03-.02,6.03-5.25-3.03M196.92,94.17l3.65-5.13,3.61,9.33-7.27-4.19M205.01,89.44c-1.66-.96-3-3.29-3-5.19,0-1.9,1.36-2.67,3.02-1.72,1.66.96,3,3.28,2.99,5.19,0,1.9-1.36,2.68-3.01,1.72M216.5,78.24l-23.51-13.57-.11,38.09,23.51,13.57.11-38.09" fill="#fff" stroke-width="0"/>
                  <path d="M192.88,102.76l.11-38.09,23.51,13.57-.11,38.09-23.51-13.57ZM216.9,78.01l-24.31-14.03-.11,39.01,24.31,14.03.11-39.01" fill="#231f20" stroke-width="0"/>
                  <path d="M205.03,82.99c-1.44-.83-2.61-.16-2.61,1.49,0,1.65,1.16,3.67,2.6,4.5,1.44.83,2.61.16,2.61-1.49,0-1.65-1.16-3.67-2.6-4.5" fill="#dbdbdb" stroke-width="0"/>
                  <path d="M205.01,88.98c-1.44-.83-2.6-2.85-2.6-4.5,0-1.65,1.18-2.32,2.61-1.49,1.44.83,2.6,2.85,2.6,4.5,0,1.65-1.18,2.32-2.61,1.49M205.03,82.53c-1.66-.96-3.01-.19-3.02,1.72,0,1.9,1.34,4.23,3,5.19,1.66.96,3.01.18,3.01-1.72,0-1.9-1.34-4.23-2.99-5.19" stroke-width="0"/>
                  <polygon points="211.88 97.25 207.43 94.68 207.42 99.79 211.87 102.36 211.88 97.25" fill="#f8ec17" stroke-width="0"/>
                  <path d="M207.42,99.79v-5.11s4.46,2.57,4.46,2.57v5.11s-4.46-2.57-4.46-2.57ZM212.28,97.02l-5.25-3.03-.02,6.03,5.25,3.03.02-6.03" stroke-width="0"/>
                  <path d="M197.61,94.11l2.95-4.15,2.92,7.55-5.88-3.39ZM200.57,89.03l-3.65,5.13,7.27,4.19-3.61-9.33" stroke-width="0"/>
                </g>
              </g>
            </g>
            <g isolation="isolate">
              <g clip-path="url(#clippath-22)">
                <g clip-path="url(#clippath-23)">
                  <path d="M193.84,94.75l-2.95,4.15,5.88,3.39-2.92-7.55ZM200.29,104.82l.02-6.03,5.25,3.03-.02,6.03-5.25-3.03M190.19,98.96l3.65-5.13,3.61,9.33-7.27-4.19M198.29,94.23c-1.66-.96-3-3.29-3-5.19,0-1.9,1.36-2.67,3.02-1.72,1.66.96,3,3.28,2.99,5.19,0,1.9-1.36,2.68-3.01,1.72M209.77,83.04l-23.51-13.57-.11,38.09,23.51,13.57.11-38.09" fill="#fff" stroke-width="0"/>
                  <path d="M186.15,107.56l.11-38.09,23.51,13.57-.11,38.09-23.51-13.57ZM210.17,82.81l-24.31-14.03-.11,39.01,24.31,14.03.11-39.01" fill="#231f20" stroke-width="0"/>
                  <path d="M198.3,87.78c-1.44-.83-2.61-.16-2.61,1.49,0,1.65,1.16,3.67,2.6,4.5,1.44.83,2.61.16,2.61-1.49,0-1.65-1.16-3.67-2.6-4.5" fill="#dbdbdb" stroke-width="0"/>
                  <path d="M198.29,93.77c-1.44-.83-2.6-2.85-2.6-4.5,0-1.65,1.18-2.32,2.61-1.49,1.44.83,2.6,2.85,2.6,4.5,0,1.65-1.18,2.32-2.61,1.49M198.31,87.32c-1.66-.96-3.01-.19-3.02,1.72,0,1.9,1.34,4.23,3,5.19,1.66.96,3.01.18,3.01-1.72,0-1.9-1.34-4.23-2.99-5.19" stroke-width="0"/>
                  <polygon points="205.15 102.04 200.71 99.48 200.69 104.59 205.14 107.15 205.15 102.04" fill="#f8ec17" stroke-width="0"/>
                  <path d="M200.69,104.59v-5.11s4.46,2.57,4.46,2.57v5.11s-4.46-2.57-4.46-2.57ZM205.55,101.82l-5.25-3.03-.02,6.03,5.25,3.03.02-6.03" stroke-width="0"/>
                  <path d="M190.89,98.9l2.95-4.15,2.92,7.55-5.88-3.39ZM193.84,93.83l-3.65,5.13,7.27,4.19-3.61-9.33" stroke-width="0"/>
                </g>
              </g>
            </g>
            <g isolation="isolate">
              <g clip-path="url(#clippath-24)">
                <g clip-path="url(#clippath-25)">
                  <path d="M187.11,99.54l-2.96,4.15,5.88,3.39-2.92-7.55ZM193.56,109.61l.02-6.03,5.25,3.03-.02,6.03-5.25-3.03M183.46,103.75l3.65-5.13,3.61,9.33-7.27-4.19M191.56,99.02c-1.66-.96-3-3.29-3-5.19,0-1.9,1.36-2.67,3.02-1.72,1.66.96,3,3.28,3,5.19,0,1.9-1.36,2.68-3.02,1.72M203.04,87.83l-23.51-13.57-.11,38.09,23.51,13.57.11-38.09" fill="#fff" stroke-width="0"/>
                  <path d="M179.43,112.35l.11-38.09,23.51,13.57-.11,38.09-23.51-13.57ZM203.44,87.6l-24.31-14.03-.11,39.01,24.31,14.03.11-39.01" fill="#231f20" stroke-width="0"/>
                  <path d="M191.58,92.58c-1.44-.83-2.61-.16-2.61,1.49,0,1.65,1.16,3.67,2.6,4.5,1.44.83,2.61.16,2.61-1.49,0-1.65-1.16-3.67-2.6-4.5" fill="#dbdbdb" stroke-width="0"/>
                  <path d="M191.56,98.56c-1.44-.83-2.6-2.85-2.6-4.5,0-1.65,1.18-2.32,2.61-1.49,1.44.83,2.6,2.85,2.6,4.5,0,1.65-1.18,2.32-2.61,1.49M191.58,92.12c-1.66-.96-3.01-.19-3.02,1.72,0,1.9,1.34,4.23,3,5.19,1.66.96,3.01.18,3.02-1.72,0-1.9-1.34-4.23-3-5.19" stroke-width="0"/>
                  <polygon points="198.43 106.84 193.98 104.27 193.96 109.38 198.41 111.95 198.43 106.84" fill="#f8ec17" stroke-width="0"/>
                  <path d="M193.96,109.38v-5.11s4.46,2.57,4.46,2.57v5.11s-4.46-2.57-4.46-2.57ZM198.83,106.61l-5.25-3.03-.02,6.03,5.25,3.03.02-6.03" stroke-width="0"/>
                  <path d="M184.16,103.7l2.96-4.15,2.92,7.55-5.88-3.39ZM187.12,98.62l-3.65,5.13,7.26,4.19-3.61-9.33" stroke-width="0"/>
                </g>
              </g>
            </g>
            <g isolation="isolate">
              <g clip-path="url(#clippath-26)">
                <g clip-path="url(#clippath-27)">
                  <path d="M180.39,104.34l-2.96,4.15,5.88,3.39-2.92-7.55ZM186.84,114.41l.02-6.03,5.25,3.03-.02,6.03-5.25-3.03M176.74,108.55l3.65-5.13,3.61,9.32-7.27-4.19M184.83,103.82c-1.66-.96-3-3.28-3-5.19,0-1.9,1.36-2.67,3.02-1.72,1.66.96,3,3.28,3,5.19,0,1.91-1.36,2.68-3.02,1.72M196.32,92.63l-23.51-13.57-.11,38.09,23.51,13.57.11-38.09" fill="#fff" stroke-width="0"/>
                  <path d="M172.7,117.14l.11-38.09,23.51,13.57-.11,38.09-23.51-13.57ZM196.72,92.4l-24.31-14.03-.11,39.01,24.31,14.03.11-39.01" fill="#231f20" stroke-width="0"/>
                  <path d="M184.85,97.37c-1.44-.83-2.61-.16-2.61,1.49,0,1.65,1.16,3.67,2.6,4.5,1.44.83,2.61.16,2.61-1.49,0-1.65-1.16-3.67-2.6-4.5" fill="#dbdbdb" stroke-width="0"/>
                  <path d="M184.83,103.36c-1.44-.83-2.6-2.85-2.6-4.5,0-1.65,1.18-2.32,2.61-1.49s2.6,2.85,2.6,4.5c0,1.65-1.18,2.32-2.61,1.49M184.85,96.91c-1.66-.96-3.01-.19-3.02,1.72,0,1.91,1.34,4.23,3,5.19,1.66.96,3.01.19,3.02-1.72,0-1.9-1.34-4.23-3-5.19" stroke-width="0"/>
                  <polygon points="191.7 111.63 187.25 109.07 187.24 114.18 191.69 116.75 191.7 111.63" fill="#f8ec17" stroke-width="0"/>
                  <path d="M187.24,114.18v-5.11s4.46,2.57,4.46,2.57v5.11s-4.46-2.57-4.46-2.57ZM192.1,111.41l-5.25-3.03-.02,6.03,5.25,3.03.02-6.03" stroke-width="0"/>
                  <path d="M177.43,108.49l2.96-4.15,2.92,7.55-5.88-3.39ZM180.39,103.42l-3.65,5.13,7.26,4.19-3.61-9.32" stroke-width="0"/>
                </g>
              </g>
            </g>
            <g isolation="isolate">
              <g clip-path="url(#clippath-28)">
                <g clip-path="url(#clippath-29)">
                  <path d="M173.66,109.13l-2.96,4.15,5.88,3.39-2.92-7.55ZM180.11,119.2l.02-6.03,5.25,3.03-.02,6.03-5.25-3.03M170.01,113.34l3.65-5.13,3.61,9.33-7.27-4.19M178.11,108.61c-1.66-.96-3-3.28-2.99-5.19,0-1.91,1.36-2.68,3.01-1.72,1.66.96,3,3.28,3,5.19,0,1.9-1.36,2.67-3.02,1.72M189.59,97.42l-23.51-13.57-.11,38.09,23.51,13.57.11-38.09" fill="#fff" stroke-width="0"/>
                  <path d="M165.97,121.94l.11-38.09,23.51,13.57-.11,38.09-23.51-13.57ZM189.99,97.19l-24.31-14.04-.11,39.01,24.31,14.03.11-39.01" fill="#231f20" stroke-width="0"/>
                  <path d="M178.12,102.17c-1.44-.83-2.61-.16-2.61,1.49,0,1.65,1.16,3.67,2.6,4.5,1.44.83,2.61.16,2.61-1.49,0-1.65-1.16-3.67-2.6-4.5" fill="#dbdbdb" stroke-width="0"/>
                  <path d="M178.11,108.15c-1.44-.83-2.6-2.85-2.6-4.5,0-1.65,1.18-2.32,2.61-1.49s2.6,2.85,2.6,4.5c0,1.65-1.18,2.32-2.61,1.49M178.13,101.7c-1.66-.96-3.01-.19-3.01,1.72,0,1.9,1.34,4.23,2.99,5.19,1.66.96,3.01.19,3.02-1.72,0-1.91-1.34-4.23-3-5.19" stroke-width="0"/>
                  <polygon points="184.97 116.43 180.53 113.86 180.51 118.97 184.96 121.54 184.97 116.43" fill="#f8ec17" stroke-width="0"/>
                  <path d="M180.51,118.97v-5.11s4.46,2.57,4.46,2.57v5.11s-4.46-2.57-4.46-2.57ZM185.37,116.2l-5.25-3.03-.02,6.03,5.25,3.03.02-6.03" stroke-width="0"/>
                  <path d="M170.7,113.28l2.96-4.15,2.92,7.55-5.88-3.39ZM173.66,108.21l-3.65,5.13,7.26,4.19-3.61-9.33" stroke-width="0"/>
                </g>
              </g>
            </g>
            <g isolation="isolate">
              <g clip-path="url(#clippath-30)">
                <g clip-path="url(#clippath-31)">
                  <path d="M166.93,113.92l-2.96,4.15,5.88,3.39-2.92-7.55ZM173.38,123.99l.02-6.03,5.25,3.03-.02,6.03-5.25-3.03M163.28,118.14l3.65-5.13,3.61,9.33-7.27-4.19M171.38,113.41c-1.66-.96-3-3.28-2.99-5.19,0-1.9,1.36-2.68,3.01-1.72,1.66.96,3,3.29,3,5.19,0,1.9-1.36,2.67-3.02,1.72M182.86,102.21l-23.51-13.57-.11,38.09,23.51,13.57.11-38.09" fill="#fff" stroke-width="0"/>
                  <path d="M159.25,126.73l.11-38.09,23.51,13.57-.11,38.09-23.51-13.57ZM183.26,101.99l-24.31-14.04-.11,39.01,24.31,14.04.11-39.01" fill="#231f20" stroke-width="0"/>
                  <path d="M171.4,106.96c-1.44-.83-2.61-.16-2.61,1.49,0,1.65,1.16,3.67,2.6,4.5,1.44.83,2.61.16,2.61-1.49,0-1.65-1.16-3.67-2.6-4.5" fill="#dbdbdb" stroke-width="0"/>
                  <path d="M171.38,112.95c-1.44-.83-2.6-2.85-2.6-4.5,0-1.65,1.18-2.32,2.61-1.49s2.6,2.85,2.6,4.5c0,1.65-1.18,2.32-2.61,1.49M171.4,106.5c-1.66-.96-3.01-.18-3.01,1.72,0,1.9,1.34,4.23,2.99,5.19,1.66.96,3.01.19,3.02-1.72,0-1.9-1.34-4.23-3-5.19" stroke-width="0"/>
                  <polygon points="178.25 121.22 173.8 118.66 173.79 123.77 178.23 126.33 178.25 121.22" fill="#f8ec17" stroke-width="0"/>
                  <path d="M173.79,123.77v-5.11s4.46,2.57,4.46,2.57v5.11s-4.46-2.57-4.46-2.57ZM178.65,120.99l-5.25-3.03-.02,6.03,5.25,3.03.02-6.03" stroke-width="0"/>
                  <path d="M163.98,118.08l2.96-4.15,2.92,7.55-5.88-3.39ZM166.94,113.01l-3.65,5.13,7.26,4.19-3.61-9.33" stroke-width="0"/>
                </g>
              </g>
            </g>
            <g isolation="isolate">
              <g clip-path="url(#clippath-32)">
                <g clip-path="url(#clippath-33)">
                  <path d="M160.21,118.72l-2.96,4.15,5.88,3.39-2.92-7.55ZM166.66,128.79l.02-6.03,5.25,3.03-.02,6.03-5.25-3.03M156.55,122.93l3.65-5.13,3.61,9.33-7.27-4.19M164.65,118.2c-1.66-.96-3-3.28-2.99-5.19,0-1.9,1.36-2.68,3.01-1.72,1.66.96,3,3.29,3,5.19,0,1.9-1.36,2.67-3.02,1.72M176.13,107.01l-23.51-13.57-.11,38.09,23.51,13.57.11-38.09" fill="#fff" stroke-width="0"/>
                  <path d="M152.52,131.53l.11-38.09,23.51,13.57-.11,38.09-23.51-13.57ZM176.54,106.78l-24.31-14.04-.11,39.01,24.31,14.04.11-39.01" fill="#231f20" stroke-width="0"/>
                  <path d="M164.67,111.75c-1.44-.83-2.61-.16-2.61,1.49,0,1.65,1.16,3.67,2.6,4.5,1.44.83,2.61.16,2.61-1.49,0-1.65-1.16-3.67-2.6-4.5" fill="#dbdbdb" stroke-width="0"/>
                  <path d="M164.65,117.74c-1.44-.83-2.6-2.85-2.6-4.5,0-1.65,1.18-2.32,2.61-1.49s2.6,2.85,2.6,4.5-1.18,2.32-2.61,1.49M164.67,111.29c-1.66-.96-3.01-.18-3.01,1.72,0,1.9,1.34,4.23,2.99,5.19,1.66.96,3.01.19,3.02-1.72,0-1.9-1.34-4.23-3-5.19" stroke-width="0"/>
                  <polygon points="171.52 126.02 167.07 123.45 167.06 128.56 171.5 131.13 171.52 126.02" fill="#f8ec17" stroke-width="0"/>
                  <path d="M167.06,128.56v-5.11s4.46,2.57,4.46,2.57v5.11s-4.46-2.57-4.46-2.57ZM171.92,125.79l-5.25-3.03-.02,6.03,5.25,3.03.02-6.03" stroke-width="0"/>
                  <path d="M157.25,122.87l2.96-4.15,2.92,7.55-5.88-3.39ZM160.21,117.8l-3.65,5.13,7.26,4.19-3.61-9.33" stroke-width="0"/>
                </g>
              </g>
            </g>
          </g>
        </g>
        <g clip-path="url(#clippath-34)">
          <g clip-path="url(#clippath-35)">
            <g isolation="isolate">
              <g clip-path="url(#clippath-36)">
                <path d="M246.25,123.99l2.7,1.56v-4.37s-2.69-1.56-2.69-1.56v4.37ZM249.22,121.03l2.7,1.56v-4.37s-2.69-1.56-2.69-1.56v4.37ZM240.32,120.57l2.7,1.56v-4.37s-2.69-1.56-2.69-1.56v4.37ZM243.3,117.6l2.7,1.56v-4.37s-2.69-1.56-2.69-1.56v4.37ZM249.24,116.35l2.7,1.56v-4.37s-2.69-1.56-2.69-1.56v4.37ZM240.33,115.89l2.7,1.56v-4.37s-2.68-1.56-2.68-1.56v4.37ZM246.27,114.64l2.7,1.56v-4.37s-2.69-1.56-2.69-1.56v4.37ZM237.37,114.18l2.7,1.56v-4.37s-2.69-1.56-2.69-1.56v4.37ZM243.31,112.93l2.7,1.56v-4.37s-2.69-1.56-2.69-1.56v4.37ZM249.25,111.67l2.7,1.56v-4.37s-2.69-1.56-2.69-1.56v4.37ZM237.38,109.5l2.7,1.56v-4.37s-2.69-1.56-2.69-1.56v4.37ZM243.32,108.25l2.7,1.56v-4.37s-2.69-1.56-2.69-1.56v4.37ZM240.36,106.54l2.7,1.56v-4.37s-2.68-1.56-2.68-1.56v4.37ZM234.12,117.29l.07-23.69,18.06,10.43-.07,23.69-18.06-10.43ZM231.37,122.92l23.51,13.57.11-38.09-23.51-13.57-.11,38.09Z" fill="#fff" stroke-width="0"/>
                <path d="M231.37,122.92l.11-38.09,23.51,13.57-.11,38.09-23.51-13.57ZM231.08,84.14l-.11,39.01,24.31,14.03.11-39.01-24.31-14.03Z" fill="#231f20" stroke-width="0"/>
                <polygon points="249.21 125.7 251.91 127.26 251.92 122.89 249.22 121.33 249.21 125.7" fill="#fff" stroke-width="0"/>
                <polygon points="249.26 107 251.96 108.55 251.98 104.18 249.28 102.63 249.26 107" stroke-width="0"/>
                <polygon points="246.26 119.31 248.96 120.87 248.97 116.5 246.27 114.95 246.26 119.31" fill="#f8ec17" stroke-width="0"/>
                <polygon points="246.29 109.96 248.98 111.52 249 107.15 246.3 105.59 246.29 109.96" fill="#f8ec17" stroke-width="0"/>
                <polygon points="246.3 105.28 249 106.84 249.01 102.47 246.31 100.91 246.3 105.28" stroke-width="0"/>
                <polygon points="243.28 122.28 245.98 123.84 245.99 119.47 243.29 117.91 243.28 122.28" fill="#f8ec17" stroke-width="0"/>
                <polygon points="243.34 103.57 246.03 105.13 246.05 100.76 243.35 99.2 243.34 103.57" stroke-width="0"/>
                <polygon points="240.34 111.22 243.04 112.77 243.05 108.4 240.36 106.84 240.34 111.22" fill="#f8ec17" stroke-width="0"/>
                <polygon points="240.37 101.86 243.07 103.42 243.08 99.05 240.38 97.49 240.37 101.86" stroke-width="0"/>
                <polygon points="237.35 118.85 240.05 120.41 240.06 116.04 237.36 114.48 237.35 118.85" fill="#f8ec17" stroke-width="0"/>
                <polygon points="237.39 104.82 240.09 106.38 240.1 102.01 237.4 100.45 237.39 104.82" fill="#f8ec17" stroke-width="0"/>
                <polygon points="237.4 100.15 240.1 101.71 240.12 97.34 237.42 95.78 237.4 100.15" stroke-width="0"/>
                <polygon points="234.39 117.14 237.08 118.7 237.1 114.33 234.4 112.77 234.39 117.14" fill="#dbdbdb" stroke-width="0"/>
                <polygon points="234.4 112.47 237.1 114.02 237.11 109.65 234.41 108.1 234.4 112.47" fill="#dbdbdb" stroke-width="0"/>
                <polygon points="234.41 107.79 237.11 109.35 237.12 104.97 234.43 103.42 234.41 107.79" fill="#dbdbdb" stroke-width="0"/>
                <polygon points="234.43 103.11 237.12 104.67 237.14 100.3 234.44 98.74 234.43 103.11" fill="#dbdbdb" stroke-width="0"/>
                <polygon points="234.44 98.44 237.14 99.99 237.15 95.62 234.45 94.07 234.44 98.44" stroke-width="0"/>
                <path d="M234.45,94.07l2.7,1.56v-.16s.27.16.27.16v.16s2.7,1.56,2.7,1.56v-.15l.27.15v.16s2.7,1.56,2.7,1.56v-.15l.27.15v.16s2.7,1.56,2.7,1.56v-.16s.27.15.27.15v.15s2.7,1.56,2.7,1.56v-.16l.27.15v.15l2.7,1.56v4.37s.12.08.12.08v.31s-.13-.08-.13-.08v4.37s.12.08.12.08v.31s-.13-.08-.13-.08v4.37s.12.08.12.08v.31s-.13-.08-.13-.08v4.37s.12.08.12.08v.31s-.13-.08-.13-.08v4.37s-2.71-1.56-2.71-1.56v.15s-.27-.15-.27-.15v-.15l-2.7-1.56v.15l-.27-.15v-.15l-2.7-1.56v.15l-.27-.15v-.15s-2.7-1.56-2.7-1.56v.16l-.27-.15v-.15s-2.7-1.56-2.7-1.56v.16s-.27-.16-.27-.16v-.15l-2.7-1.56v-4.37s-.12-.08-.12-.08v-.31s.14.08.14.08v-4.37s-.12-.08-.12-.08v-.31s.14.08.14.08v-4.37s-.12-.08-.12-.08v-.31s.14.08.14.08v-4.37s-.12-.08-.12-.08v-.31s.14.08.14.08v-4.37ZM234.12,117.29l18.06,10.43.07-23.69-18.06-10.43-.07,23.69Z" stroke-width="0"/>
                <path d="M249.22,121.33l2.7,1.56.13.08v-.31l-.13-.08-2.7-1.56v.31ZM246.26,119.62l2.7,1.56v-.31s-2.7-1.56-2.7-1.56v.31ZM243.29,117.91l2.7,1.56v-.31s-2.7-1.56-2.7-1.56v.31ZM240.33,116.2l2.7,1.56v-.31s-2.7-1.56-2.7-1.56v.31ZM237.36,114.48l2.7,1.56v-.31s-2.7-1.56-2.7-1.56v.31ZM234.26,112.69l.13.08,2.7,1.56v-.31l-2.7-1.56-.13-.08v.31Z" stroke-width="0"/>
                <path d="M249.24,116.66l2.7,1.56.13.08v-.31s-.13-.08-.13-.08l-2.7-1.56v.31ZM246.27,114.95l2.7,1.56v-.31s-2.7-1.56-2.7-1.56v.31ZM243.31,113.23l2.7,1.56v-.31s-2.7-1.56-2.7-1.56v.31ZM240.34,111.52l2.7,1.56v-.31s-2.7-1.56-2.7-1.56v.31ZM237.38,109.81l2.7,1.56v-.31s-2.7-1.56-2.7-1.56v.31ZM234.28,108.02l.13.08,2.7,1.56v-.31s-2.7-1.56-2.7-1.56l-.13-.08v.31Z" stroke-width="0"/>
                <path d="M249.25,111.98l2.7,1.56.13.08v-.31s-.13-.08-.13-.08l-2.7-1.56v.31ZM246.29,110.27l2.7,1.56v-.31s-2.7-1.56-2.7-1.56v.31ZM243.32,108.55l2.7,1.56v-.31s-2.7-1.56-2.7-1.56v.31ZM240.36,106.84l2.7,1.56v-.31s-2.7-1.56-2.7-1.56v.31ZM237.39,105.13l2.7,1.56v-.31s-2.7-1.56-2.7-1.56v.31ZM234.29,103.34l.13.08,2.7,1.56v-.31s-2.7-1.56-2.7-1.56l-.13-.08v.31Z" stroke-width="0"/>
                <path d="M249.26,107.3l2.7,1.56.13.08v-.31s-.13-.08-.13-.08l-2.7-1.56v.31ZM246.3,105.59l2.7,1.56v-.31s-2.7-1.56-2.7-1.56v.31ZM243.33,103.88l2.7,1.56v-.31s-2.7-1.56-2.7-1.56v.31ZM240.37,102.17l2.7,1.56v-.31s-2.7-1.56-2.7-1.56v.31ZM237.4,100.45l2.7,1.56v-.31s-2.7-1.56-2.7-1.56v.31ZM234.3,98.66l.13.08,2.7,1.56v-.31s-2.7-1.56-2.7-1.56l-.13-.08v.31Z" stroke-width="0"/>
                <polygon points="249.01 102.47 249 106.84 249 107.15 248.99 111.52 248.98 111.82 248.97 116.2 248.97 116.5 248.96 120.87 248.96 121.18 248.95 125.55 248.94 125.7 249.21 125.85 249.21 125.7 249.22 121.33 249.23 121.03 249.24 116.66 249.24 116.35 249.25 111.98 249.25 111.67 249.26 107.3 249.27 107 249.28 102.63 249.28 102.47 249.01 102.32 249.01 102.47" stroke-width="0"/>
                <polygon points="246.05 100.76 246.03 105.13 246.03 105.44 246.02 109.81 246.02 110.11 246.01 114.49 246.01 114.79 245.99 119.16 245.99 119.47 245.98 123.84 245.98 123.99 246.25 124.14 246.25 123.99 246.26 119.62 246.26 119.31 246.27 114.95 246.27 114.64 246.29 110.26 246.29 109.96 246.3 105.59 246.3 105.28 246.31 100.92 246.31 100.76 246.05 100.61 246.05 100.76" stroke-width="0"/>
                <polygon points="243.08 99.05 243.07 103.42 243.07 103.72 243.06 108.09 243.05 108.4 243.04 112.77 243.04 113.08 243.03 117.45 243.03 117.75 243.02 122.12 243.02 122.28 243.28 122.43 243.28 122.28 243.29 117.91 243.3 117.6 243.31 113.23 243.31 112.93 243.32 108.55 243.32 108.25 243.33 103.88 243.34 103.57 243.35 99.2 243.35 99.05 243.08 98.89 243.08 99.05" stroke-width="0"/>
                <polygon points="240.12 97.34 240.1 101.71 240.1 102.01 240.09 106.38 240.09 106.69 240.08 111.06 240.08 111.37 240.06 115.74 240.06 116.04 240.05 120.41 240.05 120.57 240.32 120.72 240.32 120.57 240.33 116.2 240.33 115.89 240.34 111.52 240.34 111.22 240.36 106.84 240.36 106.54 240.37 102.17 240.37 101.86 240.38 97.49 240.38 97.34 240.12 97.18 240.12 97.34" stroke-width="0"/>
                <polygon points="237.15 95.62 237.14 99.99 237.14 100.3 237.12 104.67 237.12 104.97 237.11 109.35 237.11 109.65 237.1 114.02 237.1 114.33 237.08 118.7 237.08 118.85 237.35 119.01 237.35 118.85 237.36 114.48 237.37 114.18 237.38 109.81 237.38 109.5 237.39 105.13 237.39 104.82 237.4 100.45 237.4 100.15 237.42 95.78 237.42 95.62 237.15 95.47 237.15 95.62" stroke-width="0"/>
              </g>
            </g>
            <g isolation="isolate">
              <g clip-path="url(#clippath-37)">
                <path d="M239.98,129.37l2.7,1.56v-4.37s-2.69-1.56-2.69-1.56v4.37ZM242.95,126.4l2.7,1.56v-4.37s-2.69-1.56-2.69-1.56v4.37ZM234.05,125.94l2.7,1.56v-4.37s-2.69-1.56-2.69-1.56v4.37ZM237.03,122.98l2.7,1.56v-4.37s-2.69-1.56-2.69-1.56v4.37ZM242.97,121.72l2.7,1.56v-4.37s-2.69-1.56-2.69-1.56v4.37ZM234.06,121.27l2.7,1.56v-4.37s-2.68-1.56-2.68-1.56v4.37ZM240,120.01l2.7,1.56v-4.37s-2.69-1.56-2.69-1.56v4.37ZM231.09,119.55l2.7,1.56v-4.37s-2.69-1.56-2.69-1.56v4.37ZM237.04,118.3l2.7,1.56v-4.37s-2.68-1.56-2.68-1.56v4.37ZM242.98,117.05l2.7,1.56v-4.37s-2.69-1.56-2.69-1.56v4.37ZM231.11,114.88l2.7,1.56v-4.37s-2.69-1.56-2.69-1.56v4.37ZM237.05,113.62l2.7,1.56v-4.37s-2.68-1.56-2.68-1.56v4.37ZM234.09,111.91l2.7,1.56v-4.37s-2.68-1.56-2.68-1.56v4.37ZM227.85,122.67l.07-23.69,18.06,10.43-.07,23.69-18.06-10.43ZM225.1,128.3l23.51,13.57.11-38.09-23.51-13.57-.11,38.09Z" fill="#fff" stroke-width="0"/>
                <path d="M225.1,128.3l.11-38.09,23.51,13.57-.11,38.09-23.51-13.57ZM224.81,89.52l-.11,39.01,24.31,14.04.11-39.01-24.31-14.04h0Z" fill="#231f20" stroke-width="0"/>
                <polygon points="242.94 131.08 245.64 132.64 245.65 128.27 242.95 126.71 242.94 131.08" fill="#fff" stroke-width="0"/>
                <polygon points="242.99 112.37 245.69 113.93 245.7 109.56 243.01 108 242.99 112.37" stroke-width="0"/>
                <polygon points="239.99 124.69 242.69 126.25 242.7 121.88 240 120.32 239.99 124.69" fill="#f8ec17" stroke-width="0"/>
                <polygon points="240.01 115.33 242.71 116.89 242.73 112.52 240.03 110.97 240.01 115.33" fill="#f8ec17" stroke-width="0"/>
                <polygon points="240.03 110.66 242.73 112.22 242.74 107.85 240.04 106.29 240.03 110.66" stroke-width="0"/>
                <polygon points="237.01 127.65 239.71 129.21 239.72 124.84 237.02 123.28 237.01 127.65" fill="#f8ec17" stroke-width="0"/>
                <polygon points="237.06 108.95 239.76 110.51 239.77 106.14 237.08 104.58 237.06 108.95" stroke-width="0"/>
                <polygon points="234.07 116.59 236.77 118.15 236.78 113.78 234.09 112.22 234.07 116.59" fill="#f8ec17" stroke-width="0"/>
                <polygon points="234.1 107.24 236.8 108.79 236.81 104.43 234.11 102.87 234.1 107.24" stroke-width="0"/>
                <polygon points="231.08 124.23 233.78 125.79 233.79 121.42 231.09 119.86 231.08 124.23" fill="#f8ec17" stroke-width="0"/>
                <polygon points="231.12 110.2 233.82 111.76 233.83 107.39 231.13 105.83 231.12 110.2" fill="#f8ec17" stroke-width="0"/>
                <polygon points="231.13 105.52 233.83 107.08 233.84 102.71 231.14 101.15 231.13 105.52" stroke-width="0"/>
                <polygon points="228.12 122.52 230.81 124.08 230.82 119.71 228.13 118.15 228.12 122.52" fill="#dbdbdb" stroke-width="0"/>
                <polygon points="228.13 117.84 230.83 119.4 230.84 115.03 228.14 113.47 228.13 117.84" fill="#dbdbdb" stroke-width="0"/>
                <polygon points="228.14 113.16 230.84 114.72 230.85 110.35 228.15 108.79 228.14 113.16" fill="#dbdbdb" stroke-width="0"/>
                <polygon points="228.16 108.49 230.85 110.04 230.86 105.68 228.17 104.12 228.16 108.49" fill="#dbdbdb" stroke-width="0"/>
                <polygon points="228.17 103.81 230.87 105.37 230.88 101 228.18 99.44 228.17 103.81" stroke-width="0"/>
                <path d="M228.18,99.44l2.7,1.56v-.15s.27.15.27.15v.16s2.7,1.56,2.7,1.56v-.15s.27.16.27.16v.15s2.7,1.56,2.7,1.56v-.16s.27.15.27.15v.15l2.7,1.56v-.16l.27.15v.15s2.7,1.56,2.7,1.56v-.15s.27.15.27.15v.16s2.7,1.56,2.7,1.56v4.37s.12.08.12.08v.31s-.13-.08-.13-.08v4.37s.12.08.12.08v.31s-.14-.08-.14-.08v4.37s.12.08.12.08v.31s-.14-.08-.14-.08v4.37s.12.08.12.08v.31s-.14-.08-.14-.08v4.37s-2.71-1.56-2.71-1.56v.15l-.27-.15v-.15l-2.7-1.56v.15s-.27-.15-.27-.15v-.15l-2.7-1.56v.15s-.27-.15-.27-.15v-.15s-2.7-1.56-2.7-1.56v.15s-.27-.16-.27-.16v-.15l-2.7-1.56v.16l-.27-.15v-.15s-2.7-1.56-2.7-1.56v-4.37s-.12-.08-.12-.08v-.31s.14.08.14.08v-4.37s-.12-.08-.12-.08v-.31s.14.08.14.08v-4.37s-.12-.08-.12-.08v-.31s.14.08.14.08v-4.37s-.12-.08-.12-.08v-.31s.14.08.14.08v-4.37ZM227.85,122.67l18.06,10.43.07-23.69-18.06-10.43-.07,23.69Z" stroke-width="0"/>
                <path d="M242.95,126.71l2.7,1.56.14.08v-.31s-.13-.08-.13-.08l-2.7-1.56v.31ZM239.99,125l2.7,1.56v-.31s-2.7-1.56-2.7-1.56v.31ZM237.02,123.29l2.7,1.56v-.31s-2.7-1.56-2.7-1.56v.31ZM234.06,121.57l2.7,1.56v-.31s-2.7-1.56-2.7-1.56v.31ZM231.09,119.86l2.7,1.56v-.31s-2.7-1.56-2.7-1.56v.31ZM227.99,118.07l.13.08,2.7,1.56v-.31s-2.7-1.56-2.7-1.56l-.13-.08v.31Z" stroke-width="0"/>
                <path d="M242.97,122.03l2.7,1.56.14.08v-.31l-.13-.08-2.7-1.56v.31ZM240,120.32l2.7,1.56v-.31s-2.7-1.56-2.7-1.56v.31ZM237.04,118.61l2.7,1.56v-.31s-2.7-1.56-2.7-1.56v.31ZM234.07,116.9l2.7,1.56v-.31s-2.7-1.56-2.7-1.56v.31ZM231.1,115.19l2.7,1.56v-.31s-2.7-1.56-2.7-1.56v.31ZM228.01,113.4l.13.08,2.7,1.56v-.31l-2.7-1.56-.13-.08v.31Z" stroke-width="0"/>
                <path d="M242.98,117.35l2.7,1.56.14.08v-.31l-.13-.08-2.7-1.56v.31ZM240.01,115.64l2.7,1.56v-.31s-2.7-1.56-2.7-1.56v.31ZM237.05,113.93l2.7,1.56v-.31s-2.7-1.56-2.7-1.56v.31ZM234.09,112.22l2.7,1.56v-.31s-2.7-1.56-2.7-1.56v.31ZM231.12,110.5l2.7,1.56v-.31s-2.7-1.56-2.7-1.56v.31ZM228.02,108.72l.13.08,2.7,1.56v-.31l-2.7-1.56-.13-.08v.31Z" stroke-width="0"/>
                <path d="M242.99,112.68l2.7,1.56.14.08v-.31l-.13-.08-2.7-1.56v.31ZM240.03,110.97l2.7,1.56v-.31s-2.7-1.56-2.7-1.56v.31ZM237.06,109.25l2.7,1.56v-.31s-2.7-1.56-2.7-1.56v.31ZM234.1,107.54l2.7,1.56v-.31s-2.7-1.56-2.7-1.56v.31ZM231.13,105.83l2.7,1.56v-.31s-2.7-1.56-2.7-1.56v.31ZM228.03,104.04l.13.08,2.7,1.56v-.31s-2.7-1.56-2.7-1.56l-.13-.08v.31Z" stroke-width="0"/>
                <polygon points="242.74 107.85 242.73 112.22 242.73 112.52 242.72 116.89 242.71 117.2 242.7 121.57 242.7 121.88 242.69 126.25 242.69 126.55 242.67 130.92 242.67 131.08 242.94 131.23 242.94 131.08 242.95 126.71 242.96 126.4 242.97 122.03 242.97 121.73 242.98 117.35 242.98 117.05 242.99 112.68 242.99 112.37 243.01 108 243.01 107.85 242.74 107.69 242.74 107.85" stroke-width="0"/>
                <polygon points="239.77 106.14 239.76 110.51 239.76 110.81 239.75 115.18 239.75 115.49 239.74 119.86 239.73 120.17 239.72 124.54 239.72 124.84 239.71 129.21 239.71 129.37 239.97 129.52 239.98 129.37 239.99 125 239.99 124.69 240 120.32 240 120.01 240.01 115.64 240.02 115.33 240.03 110.97 240.03 110.66 240.04 106.29 240.04 106.14 239.77 105.98 239.77 106.14" stroke-width="0"/>
                <polygon points="236.81 104.43 236.8 108.79 236.8 109.1 236.78 113.47 236.78 113.78 236.77 118.15 236.77 118.46 236.76 122.82 236.76 123.13 236.74 127.5 236.74 127.65 237.01 127.81 237.01 127.65 237.02 123.28 237.03 122.98 237.04 118.61 237.04 118.3 237.05 113.93 237.05 113.62 237.06 109.25 237.06 108.95 237.08 104.58 237.08 104.43 236.81 104.27 236.81 104.43" stroke-width="0"/>
                <polygon points="233.84 102.71 233.83 107.08 233.83 107.39 233.82 111.76 233.82 112.06 233.81 116.43 233.8 116.74 233.79 121.11 233.79 121.42 233.78 125.79 233.78 125.94 234.05 126.1 234.05 125.94 234.06 121.57 234.06 121.27 234.07 116.9 234.07 116.59 234.09 112.22 234.09 111.91 234.1 107.54 234.1 107.24 234.11 102.87 234.11 102.71 233.84 102.56 233.84 102.71" stroke-width="0"/>
                <polygon points="230.88 101 230.87 105.37 230.86 105.68 230.85 110.04 230.85 110.35 230.84 114.72 230.84 115.03 230.83 119.4 230.82 119.71 230.81 124.07 230.81 124.23 231.08 124.38 231.08 124.23 231.09 119.86 231.09 119.55 231.11 115.19 231.11 114.88 231.12 110.5 231.12 110.2 231.13 105.83 231.13 105.52 231.14 101.15 231.15 101 230.88 100.85 230.88 101" stroke-width="0"/>
              </g>
            </g>
            <g isolation="isolate">
              <g clip-path="url(#clippath-38)">
                <path d="M233.7,134.74l2.7,1.56v-4.37s-2.68-1.56-2.68-1.56v4.37ZM236.68,131.78l2.7,1.56v-4.37s-2.69-1.56-2.69-1.56v4.37ZM227.77,131.32l2.7,1.56v-4.37s-2.68-1.56-2.68-1.56v4.37ZM230.75,128.35l2.7,1.56v-4.37s-2.68-1.56-2.68-1.56v4.37ZM236.69,127.1l2.7,1.56v-4.37s-2.69-1.56-2.69-1.56v4.37ZM227.79,126.64l2.7,1.56v-4.37s-2.68-1.56-2.68-1.56v4.37ZM233.73,125.39l2.7,1.56v-4.37s-2.68-1.56-2.68-1.56v4.37ZM224.82,124.93l2.7,1.56v-4.37s-2.69-1.56-2.69-1.56v4.37ZM230.77,123.68l2.7,1.56v-4.37s-2.68-1.56-2.68-1.56v4.37ZM236.71,122.42l2.7,1.56v-4.37s-2.69-1.56-2.69-1.56v4.37ZM224.83,120.25l2.7,1.56v-4.37s-2.69-1.56-2.69-1.56v4.37ZM230.78,119l2.7,1.56v-4.37s-2.68-1.56-2.68-1.56v4.37ZM227.81,117.29l2.7,1.56v-4.37s-2.69-1.56-2.69-1.56v4.37ZM221.58,128.04l.07-23.69,18.06,10.43-.07,23.69-18.06-10.43ZM218.83,133.67l23.51,13.57.11-38.09-23.51-13.57-.11,38.09Z" fill="#fff" stroke-width="0"/>
                <path d="M218.83,133.67l.11-38.09,23.51,13.57-.11,38.09-23.51-13.57ZM218.54,94.89l-.11,39.01,24.31,14.03h0l.11-39.01-24.31-14.03Z" fill="#231f20" stroke-width="0"/>
                <polygon points="236.67 136.45 239.37 138.01 239.38 133.64 236.68 132.08 236.67 136.45" fill="#fff" stroke-width="0"/>
                <polygon points="236.72 117.74 239.42 119.3 239.43 114.93 236.73 113.38 236.72 117.74" stroke-width="0"/>
                <polygon points="233.72 130.06 236.41 131.62 236.43 127.25 233.73 125.69 233.72 130.06" fill="#f8ec17" stroke-width="0"/>
                <polygon points="233.74 120.71 236.44 122.27 236.45 117.9 233.76 116.34 233.74 120.71" fill="#f8ec17" stroke-width="0"/>
                <polygon points="233.76 116.03 236.45 117.59 236.47 113.22 233.77 111.66 233.76 116.03" stroke-width="0"/>
                <polygon points="230.74 133.03 233.44 134.59 233.45 130.22 230.75 128.66 230.74 133.03" fill="#f8ec17" stroke-width="0"/>
                <polygon points="230.79 114.32 233.49 115.88 233.5 111.51 230.81 109.95 230.79 114.32" stroke-width="0"/>
                <polygon points="227.8 121.97 230.5 123.52 230.51 119.15 227.81 117.59 227.8 121.97" fill="#f8ec17" stroke-width="0"/>
                <polygon points="227.83 112.61 230.52 114.17 230.54 109.8 227.84 108.24 227.83 112.61" stroke-width="0"/>
                <polygon points="224.81 129.61 227.51 131.16 227.52 126.8 224.82 125.24 224.81 129.61" fill="#f8ec17" stroke-width="0"/>
                <polygon points="224.85 115.58 227.55 117.13 227.56 112.76 224.86 111.21 224.85 115.58" fill="#f8ec17" stroke-width="0"/>
                <polygon points="224.86 110.9 227.56 112.46 227.57 108.09 224.87 106.53 224.86 110.9" stroke-width="0"/>
                <polygon points="221.84 127.89 224.54 129.45 224.55 125.08 221.85 123.52 221.84 127.89" fill="#dbdbdb" stroke-width="0"/>
                <polygon points="221.86 123.22 224.55 124.77 224.57 120.4 221.87 118.85 221.86 123.22" fill="#dbdbdb" stroke-width="0"/>
                <polygon points="221.87 118.54 224.57 120.1 224.58 115.73 221.88 114.17 221.87 118.54" fill="#dbdbdb" stroke-width="0"/>
                <polygon points="221.88 113.86 224.58 115.42 224.59 111.05 221.89 109.49 221.88 113.86" fill="#dbdbdb" stroke-width="0"/>
                <polygon points="221.9 109.18 224.59 110.74 224.61 106.37 221.91 104.82 221.9 109.18" stroke-width="0"/>
                <path d="M221.91,104.82l2.7,1.56v-.15s.27.16.27.16v.15s2.7,1.56,2.7,1.56v-.15l.27.15v.15s2.7,1.56,2.7,1.56v-.15l.27.16v.15s2.7,1.56,2.7,1.56v-.15s.27.15.27.15v.15s2.7,1.56,2.7,1.56v-.15l.27.15v.15l2.7,1.56v4.37s.12.08.12.08v.31s-.13-.08-.13-.08v4.37s.12.08.12.08v.31s-.13-.08-.13-.08v4.37s.12.08.12.08v.31s-.13-.08-.13-.08v4.37s.12.08.12.08v.31s-.13-.08-.13-.08v4.37s-2.71-1.56-2.71-1.56v.15s-.27-.15-.27-.15v-.15l-2.7-1.56v.15l-.27-.15v-.15s-2.7-1.56-2.7-1.56v.15s-.27-.16-.27-.16v-.15s-2.7-1.56-2.7-1.56v.15l-.27-.15v-.15s-2.7-1.56-2.7-1.56v.15l-.27-.16v-.15l-2.7-1.56v-4.37s-.12-.08-.12-.08v-.31s.14.08.14.08v-4.37s-.12-.08-.12-.08v-.31s.14.08.14.08v-4.37s-.12-.08-.12-.08v-.31s.14.08.14.08v-4.37s-.12-.08-.12-.08v-.31s.14.08.14.08v-4.37ZM221.58,128.05l18.06,10.43.07-23.69-18.06-10.43-.07,23.69Z" stroke-width="0"/>
                <path d="M236.68,132.08l2.7,1.56.13.08v-.31l-.13-.08-2.7-1.56v.31ZM233.72,130.37l2.7,1.56v-.31s-2.7-1.56-2.7-1.56v.31ZM230.75,128.66l2.7,1.56v-.31s-2.7-1.56-2.7-1.56v.31ZM227.79,126.95l2.7,1.56v-.31s-2.7-1.56-2.7-1.56v.31ZM224.82,125.24l2.7,1.56v-.31s-2.7-1.56-2.7-1.56v.31ZM221.72,123.45l.13.08,2.7,1.56v-.31l-2.7-1.56-.13-.08v.31Z" stroke-width="0"/>
                <path d="M236.69,127.41l2.7,1.56.13.08v-.31s-.13-.08-.13-.08l-2.7-1.56v.31ZM233.73,125.7l2.7,1.56v-.31s-2.7-1.56-2.7-1.56v.31ZM230.77,123.98l2.7,1.56v-.31s-2.7-1.56-2.7-1.56v.31ZM227.8,122.27l2.7,1.56v-.31s-2.7-1.56-2.7-1.56v.31ZM224.83,120.56l2.7,1.56v-.31s-2.7-1.56-2.7-1.56v.31ZM221.73,118.77l.13.08,2.7,1.56v-.31s-2.7-1.56-2.7-1.56l-.13-.08v.31Z" stroke-width="0"/>
                <path d="M236.71,122.73l2.7,1.56.13.08v-.31s-.13-.08-.13-.08l-2.7-1.56v.31ZM233.74,121.02l2.7,1.56v-.31s-2.7-1.56-2.7-1.56v.31ZM230.78,119.31l2.7,1.56v-.31s-2.7-1.56-2.7-1.56v.31ZM227.81,117.59l2.7,1.56v-.31s-2.7-1.56-2.7-1.56v.31ZM224.85,115.88l2.7,1.56v-.31s-2.7-1.56-2.7-1.56v.31ZM221.75,114.09l.13.08,2.7,1.56v-.31s-2.7-1.56-2.7-1.56l-.13-.08v.31Z" stroke-width="0"/>
                <path d="M236.72,118.05l2.7,1.56.13.08v-.31s-.13-.08-.13-.08l-2.7-1.56v.31ZM233.76,116.34l2.7,1.56v-.31s-2.7-1.56-2.7-1.56v.31ZM230.79,114.63l2.7,1.56v-.31s-2.7-1.56-2.7-1.56v.31ZM227.83,112.92l2.7,1.56v-.31s-2.7-1.56-2.7-1.56v.31ZM224.86,111.21l2.7,1.56v-.31s-2.7-1.56-2.7-1.56v.31ZM221.76,109.42l.13.08,2.7,1.56v-.31s-2.7-1.56-2.7-1.56l-.13-.08v.31Z" stroke-width="0"/>
                <polygon points="236.47 113.22 236.46 117.59 236.45 117.9 236.44 122.27 236.44 122.57 236.43 126.95 236.43 127.25 236.42 131.62 236.41 131.93 236.4 136.3 236.4 136.45 236.67 136.6 236.67 136.45 236.68 132.08 236.68 131.77 236.69 127.41 236.7 127.1 236.71 122.73 236.71 122.42 236.72 118.05 236.72 117.74 236.73 113.38 236.73 113.22 236.47 113.07 236.47 113.22" stroke-width="0"/>
                <polygon points="233.5 111.51 233.49 115.88 233.49 116.19 233.48 120.56 233.48 120.86 233.46 125.23 233.46 125.54 233.45 129.91 233.45 130.22 233.44 134.59 233.44 134.74 233.7 134.89 233.7 134.74 233.72 130.37 233.72 130.06 233.73 125.7 233.73 125.39 233.74 121.02 233.74 120.71 233.76 116.34 233.76 116.03 233.77 111.66 233.77 111.51 233.5 111.36 233.5 111.51" stroke-width="0"/>
                <polygon points="230.54 109.8 230.52 114.17 230.52 114.48 230.51 118.84 230.51 119.15 230.5 123.52 230.5 123.83 230.49 128.2 230.48 128.51 230.47 132.88 230.47 133.03 230.74 133.18 230.74 133.03 230.75 128.66 230.75 128.35 230.77 123.98 230.77 123.68 230.78 119.31 230.78 119 230.79 114.63 230.79 114.32 230.81 109.95 230.81 109.8 230.54 109.65 230.54 109.8" stroke-width="0"/>
                <polygon points="227.57 108.09 227.56 112.46 227.56 112.76 227.55 117.13 227.55 117.44 227.53 121.81 227.53 122.12 227.52 126.49 227.52 126.8 227.51 131.16 227.51 131.32 227.77 131.47 227.77 131.32 227.79 126.95 227.79 126.64 227.8 122.27 227.8 121.97 227.81 117.59 227.81 117.29 227.83 112.92 227.83 112.61 227.84 108.24 227.84 108.09 227.57 107.94 227.57 108.09" stroke-width="0"/>
                <polygon points="224.61 106.37 224.59 110.74 224.59 111.05 224.58 115.42 224.58 115.73 224.57 120.1 224.57 120.4 224.55 124.77 224.55 125.08 224.54 129.45 224.54 129.6 224.81 129.76 224.81 129.61 224.82 125.24 224.82 124.93 224.83 120.56 224.83 120.25 224.85 115.88 224.85 115.57 224.86 111.21 224.86 110.9 224.87 106.53 224.87 106.38 224.61 106.22 224.61 106.37" stroke-width="0"/>
              </g>
            </g>
            <g isolation="isolate">
              <g clip-path="url(#clippath-39)">
                <path d="M227.43,140.12l2.7,1.56v-4.37s-2.69-1.56-2.69-1.56v4.37ZM230.41,137.15l2.7,1.56v-4.37s-2.69-1.56-2.69-1.56v4.37ZM221.5,136.69l2.7,1.56v-4.37s-2.69-1.56-2.69-1.56v4.37ZM224.48,133.73l2.7,1.56v-4.37s-2.69-1.56-2.69-1.56v4.37ZM230.42,132.48l2.7,1.56v-4.37s-2.69-1.56-2.69-1.56v4.37ZM221.52,132.02l2.7,1.56v-4.37s-2.68-1.56-2.68-1.56v4.37ZM227.46,130.77l2.7,1.56v-4.37s-2.68-1.56-2.68-1.56v4.37ZM218.55,130.3l2.7,1.56v-4.37s-2.69-1.56-2.69-1.56v4.37ZM224.49,129.05l2.7,1.56v-4.38s-2.68-1.56-2.68-1.56v4.37ZM230.44,127.8l2.7,1.56v-4.37s-2.69-1.56-2.69-1.56v4.37ZM218.56,125.63l2.7,1.56v-4.37s-2.69-1.56-2.69-1.56v4.37ZM224.51,124.37l2.7,1.56v-4.37s-2.68-1.56-2.68-1.56v4.37ZM221.54,122.66l2.7,1.56v-4.37s-2.68-1.56-2.68-1.56v4.37ZM215.3,133.42l.07-23.69,18.06,10.43-.07,23.69-18.06-10.43ZM212.56,139.05l23.51,13.57.11-38.09-23.51-13.57-.11,38.09Z" fill="#fff" stroke-width="0"/>
                <path d="M212.56,139.05l.11-38.09,23.51,13.57-.11,38.09-23.51-13.57ZM212.27,100.27l-.11,39.01,24.31,14.04.11-39.01-24.31-14.03h0Z" fill="#231f20" stroke-width="0"/>
                <polygon points="230.4 141.83 233.09 143.38 233.11 139.02 230.41 137.46 230.4 141.83" fill="#fff" stroke-width="0"/>
                <polygon points="230.45 123.12 233.15 124.68 233.16 120.31 230.46 118.75 230.45 123.12" stroke-width="0"/>
                <polygon points="227.45 135.44 230.14 137 230.16 132.63 227.46 131.07 227.45 135.44" fill="#f8ec17" stroke-width="0"/>
                <polygon points="227.47 126.08 230.17 127.64 230.18 123.27 227.49 121.72 227.47 126.08" fill="#f8ec17" stroke-width="0"/>
                <polygon points="227.49 121.41 230.18 122.97 230.2 118.6 227.5 117.04 227.49 121.41" stroke-width="0"/>
                <polygon points="224.47 138.4 227.16 139.96 227.18 135.59 224.48 134.03 224.47 138.4" fill="#f8ec17" stroke-width="0"/>
                <polygon points="224.52 119.7 227.22 121.25 227.23 116.89 224.53 115.33 224.52 119.7" stroke-width="0"/>
                <polygon points="221.53 127.34 224.23 128.9 224.24 124.52 221.54 122.97 221.53 127.34" fill="#f8ec17" stroke-width="0"/>
                <polygon points="221.56 117.99 224.25 119.54 224.27 115.17 221.57 113.62 221.56 117.99" stroke-width="0"/>
                <polygon points="218.54 134.98 221.24 136.54 221.25 132.17 218.55 130.61 218.54 134.98" fill="#f8ec17" stroke-width="0"/>
                <polygon points="218.58 120.95 221.28 122.51 221.29 118.14 218.59 116.58 218.58 120.95" fill="#f8ec17" stroke-width="0"/>
                <polygon points="218.59 116.27 221.29 117.83 221.3 113.46 218.6 111.9 218.59 116.27" stroke-width="0"/>
                <polygon points="215.57 133.27 218.27 134.82 218.28 130.46 215.58 128.9 215.57 133.27" fill="#dbdbdb" stroke-width="0"/>
                <polygon points="215.59 128.59 218.28 130.15 218.3 125.78 215.6 124.22 215.59 128.59" fill="#dbdbdb" stroke-width="0"/>
                <polygon points="215.6 123.92 218.3 125.47 218.31 121.1 215.61 119.54 215.6 123.92" fill="#dbdbdb" stroke-width="0"/>
                <polygon points="215.61 119.24 218.31 120.79 218.32 116.42 215.62 114.87 215.61 119.24" fill="#dbdbdb" stroke-width="0"/>
                <polygon points="215.63 114.56 218.32 116.12 218.33 111.75 215.64 110.19 215.63 114.56" stroke-width="0"/>
                <path d="M215.64,110.19l2.7,1.56v-.16s.27.15.27.15v.15s2.7,1.56,2.7,1.56v-.15s.27.15.27.15v.16s2.7,1.56,2.7,1.56v-.15s.27.15.27.15v.15l2.7,1.56v-.16s.27.16.27.16v.15s2.7,1.56,2.7,1.56v-.16s.27.15.27.15v.15l2.7,1.56v4.37s.12.08.12.08v.31s-.13-.08-.13-.08v4.37s.12.08.12.08v.31s-.14-.08-.14-.08v4.37s.12.08.12.08v.31s-.14-.08-.14-.08v4.37s.12.08.12.08v.31s-.14-.08-.14-.08v4.37s-2.71-1.56-2.71-1.56v.15l-.27-.15v-.15l-2.7-1.56v.15s-.27-.16-.27-.16v-.15l-2.7-1.56v.15s-.27-.15-.27-.15v-.15s-2.7-1.56-2.7-1.56v.16s-.27-.15-.27-.15v-.15l-2.7-1.56v.15l-.27-.15v-.15l-2.7-1.56v-4.37s-.12-.08-.12-.08v-.31s.14.08.14.08v-4.37s-.12-.08-.12-.08v-.31s.14.08.14.08v-4.38s-.12-.08-.12-.08v-.31s.14.08.14.08v-4.37s-.12-.08-.12-.08v-.31s.14.08.14.08v-4.37ZM215.3,133.42l18.06,10.43.07-23.69-18.06-10.43-.07,23.69Z" stroke-width="0"/>
                <path d="M230.41,137.46l2.7,1.56.13.08v-.31s-.13-.08-.13-.08l-2.7-1.56v.31ZM227.45,135.75l2.7,1.56v-.31s-2.7-1.56-2.7-1.56v.31ZM224.48,134.03l2.7,1.56v-.31s-2.7-1.56-2.7-1.56v.31ZM221.52,132.32l2.7,1.56v-.31s-2.7-1.56-2.7-1.56v.31ZM218.55,130.61l2.7,1.56v-.31s-2.7-1.56-2.7-1.56v.31ZM215.45,128.82l.13.08,2.7,1.56v-.31s-2.7-1.56-2.7-1.56l-.13-.08v.31Z" stroke-width="0"/>
                <path d="M230.42,132.78l2.7,1.56.13.08v-.31s-.13-.08-.13-.08l-2.7-1.56v.31ZM227.46,131.07l2.7,1.56v-.31s-2.7-1.56-2.7-1.56v.31ZM224.49,129.36l2.7,1.56v-.31s-2.7-1.56-2.7-1.56v.31ZM221.53,127.65l2.7,1.56v-.31s-2.7-1.56-2.7-1.56v.31ZM218.56,125.93l2.7,1.56v-.31s-2.7-1.56-2.7-1.56v.31ZM215.46,124.15l.13.08,2.7,1.56v-.31l-2.7-1.56-.13-.08v.31Z" stroke-width="0"/>
                <path d="M230.44,128.1l2.7,1.56.14.08v-.31l-.13-.08-2.7-1.56v.31ZM227.47,126.39l2.7,1.56v-.31s-2.7-1.56-2.7-1.56v.31ZM224.51,124.68l2.7,1.56v-.31s-2.7-1.56-2.7-1.56v.31ZM221.54,122.97l2.7,1.56v-.31s-2.7-1.56-2.7-1.56v.31ZM218.57,121.25l2.7,1.56v-.31s-2.7-1.56-2.7-1.56v.31ZM215.48,119.47l.13.08,2.7,1.56v-.31l-2.7-1.56-.13-.08v.31Z" stroke-width="0"/>
                <path d="M230.45,123.43l2.7,1.56.14.08v-.31l-.13-.08-2.7-1.56v.31ZM227.49,121.72l2.7,1.56v-.31s-2.7-1.56-2.7-1.56v.31ZM224.52,120l2.7,1.56v-.31s-2.7-1.56-2.7-1.56v.31ZM221.56,118.29l2.7,1.56v-.31s-2.7-1.56-2.7-1.56v.31ZM218.59,116.58l2.7,1.56v-.31s-2.7-1.56-2.7-1.56v.31ZM215.49,114.79l.13.08,2.7,1.56v-.31l-2.7-1.56-.13-.08v.31Z" stroke-width="0"/>
                <polygon points="230.2 118.6 230.18 122.97 230.18 123.27 230.17 127.64 230.17 127.95 230.16 132.32 230.16 132.63 230.14 137 230.14 137.3 230.13 141.67 230.13 141.83 230.4 141.98 230.4 141.83 230.41 137.46 230.41 137.15 230.42 132.78 230.42 132.48 230.44 128.1 230.44 127.8 230.45 123.43 230.45 123.12 230.46 118.75 230.46 118.6 230.2 118.44 230.2 118.6" stroke-width="0"/>
                <polygon points="227.23 116.89 227.22 121.26 227.22 121.56 227.21 125.93 227.2 126.24 227.19 130.61 227.19 130.92 227.18 135.29 227.18 135.59 227.16 139.96 227.16 140.12 227.43 140.27 227.43 140.12 227.45 135.75 227.45 135.44 227.46 131.07 227.46 130.77 227.47 126.39 227.47 126.08 227.49 121.72 227.49 121.41 227.5 117.04 227.5 116.89 227.23 116.73 227.23 116.89" stroke-width="0"/>
                <polygon points="224.27 115.18 224.25 119.54 224.25 119.85 224.24 124.22 224.24 124.52 224.23 128.9 224.23 129.21 224.21 133.57 224.21 133.88 224.2 138.25 224.2 138.4 224.47 138.56 224.47 138.4 224.48 134.03 224.48 133.73 224.49 129.36 224.5 129.05 224.51 124.68 224.51 124.37 224.52 120 224.52 119.7 224.53 115.33 224.53 115.17 224.27 115.02 224.27 115.18" stroke-width="0"/>
                <polygon points="221.3 113.46 221.29 117.83 221.29 118.14 221.28 122.51 221.28 122.81 221.26 127.19 221.26 127.49 221.25 131.86 221.25 132.17 221.24 136.54 221.24 136.69 221.5 136.85 221.5 136.69 221.52 132.32 221.52 132.02 221.53 127.65 221.53 127.34 221.54 122.97 221.54 122.66 221.56 118.29 221.56 117.99 221.57 113.62 221.57 113.46 221.3 113.31 221.3 113.46" stroke-width="0"/>
                <polygon points="218.33 111.75 218.32 116.12 218.32 116.42 218.31 120.79 218.31 121.1 218.3 125.47 218.29 125.78 218.28 130.15 218.28 130.46 218.27 134.82 218.27 134.98 218.54 135.13 218.54 134.98 218.55 130.61 218.55 130.3 218.56 125.93 218.56 125.63 218.57 121.25 218.58 120.95 218.59 116.58 218.59 116.27 218.6 111.9 218.6 111.75 218.34 111.6 218.33 111.75" stroke-width="0"/>
              </g>
            </g>
            <g isolation="isolate">
              <g clip-path="url(#clippath-40)">
                <path d="M221.16,145.49l2.7,1.56v-4.37s-2.68-1.56-2.68-1.56v4.37ZM224.14,142.53l2.7,1.56v-4.37s-2.69-1.56-2.69-1.56v4.37ZM215.23,142.07l2.7,1.56v-4.37s-2.69-1.56-2.69-1.56v4.37ZM218.21,139.11l2.7,1.56v-4.37s-2.68-1.56-2.68-1.56v4.37ZM224.15,137.85l2.7,1.56v-4.37s-2.69-1.56-2.69-1.56v4.37ZM215.24,137.39l2.7,1.56v-4.37s-2.69-1.56-2.69-1.56v4.37ZM221.19,136.14l2.7,1.56v-4.37s-2.69-1.56-2.69-1.56v4.37ZM212.28,135.68l2.7,1.56v-4.37s-2.69-1.56-2.69-1.56v4.37ZM218.22,134.43l2.7,1.56v-4.37s-2.68-1.56-2.68-1.56v4.37ZM224.16,133.17l2.7,1.56v-4.37s-2.69-1.56-2.69-1.56v4.37ZM212.29,131l2.7,1.56v-4.37s-2.69-1.56-2.69-1.56v4.37ZM218.24,129.75l2.7,1.56v-4.37s-2.68-1.56-2.68-1.56v4.37ZM215.27,128.04l2.7,1.56v-4.37s-2.69-1.56-2.69-1.56v4.37ZM209.03,138.8l.07-23.69,18.06,10.43-.07,23.69-18.06-10.43ZM206.29,144.42l23.51,13.57.11-38.09-23.51-13.57-.11,38.09Z" fill="#fff" stroke-width="0"/>
                <path d="M206.29,144.42l.11-38.09,23.51,13.57-.11,38.09-23.51-13.57ZM206,105.64l-.11,39.01,24.31,14.03h0l.11-39.01-24.31-14.03h0Z" fill="#231f20" stroke-width="0"/>
                <polygon points="224.12 147.2 226.82 148.76 226.84 144.39 224.14 142.83 224.12 147.2" fill="#fff" stroke-width="0"/>
                <polygon points="224.18 128.5 226.88 130.06 226.89 125.69 224.19 124.13 224.18 128.5" stroke-width="0"/>
                <polygon points="221.17 140.82 223.87 142.37 223.88 138 221.19 136.45 221.17 140.82" fill="#f8ec17" stroke-width="0"/>
                <polygon points="221.2 131.46 223.9 133.02 223.91 128.65 221.21 127.09 221.2 131.46" fill="#f8ec17" stroke-width="0"/>
                <polygon points="221.21 126.79 223.91 128.34 223.92 123.97 221.23 122.42 221.21 126.79" stroke-width="0"/>
                <polygon points="218.2 143.78 220.89 145.34 220.91 140.97 218.21 139.41 218.2 143.78" fill="#f8ec17" stroke-width="0"/>
                <polygon points="218.25 125.07 220.95 126.63 220.96 122.26 218.26 120.71 218.25 125.07" stroke-width="0"/>
                <polygon points="215.26 132.71 217.96 134.27 217.97 129.9 215.27 128.34 215.26 132.71" fill="#f8ec17" stroke-width="0"/>
                <polygon points="215.28 123.36 217.98 124.92 218 120.55 215.3 118.99 215.28 123.36" stroke-width="0"/>
                <polygon points="212.27 140.36 214.97 141.91 214.98 137.54 212.28 135.99 212.27 140.36" fill="#f8ec17" stroke-width="0"/>
                <polygon points="212.3 126.32 215 127.88 215.02 123.51 212.32 121.96 212.3 126.32" fill="#f8ec17" stroke-width="0"/>
                <polygon points="212.32 121.65 215.02 123.21 215.03 118.84 212.33 117.28 212.32 121.65" stroke-width="0"/>
                <polygon points="209.3 138.64 212 140.2 212.01 135.83 209.31 134.27 209.3 138.64" fill="#dbdbdb" stroke-width="0"/>
                <polygon points="209.31 133.97 212.01 135.53 212.02 131.16 209.32 129.6 209.31 133.97" fill="#dbdbdb" stroke-width="0"/>
                <polygon points="209.33 129.29 212.02 130.85 212.03 126.48 209.34 124.92 209.33 129.29" fill="#dbdbdb" stroke-width="0"/>
                <polygon points="209.34 124.61 212.04 126.17 212.05 121.8 209.35 120.24 209.34 124.61" fill="#dbdbdb" stroke-width="0"/>
                <polygon points="209.35 119.94 212.05 121.49 212.06 117.13 209.36 115.57 209.35 119.94" stroke-width="0"/>
                <path d="M209.36,115.57l2.7,1.56v-.16s.27.16.27.16v.16s2.7,1.56,2.7,1.56v-.15l.27.15v.16s2.7,1.56,2.7,1.56v-.16l.27.15v.15s2.7,1.56,2.7,1.56v-.16s.27.15.27.15v.15s2.7,1.56,2.7,1.56v-.16l.27.15v.15l2.7,1.56v4.37s.12.08.12.08v.31s-.13-.08-.13-.08v4.37s.12.08.12.08v.31s-.13-.08-.13-.08v4.37s.12.08.12.08v.31s-.13-.08-.13-.08v4.37s.12.08.12.08v.31s-.13-.08-.13-.08v4.37s-2.71-1.56-2.71-1.56v.15s-.27-.15-.27-.15v-.15l-2.7-1.56v.15l-.27-.15v-.15l-2.7-1.56v.15s-.27-.15-.27-.15v-.15s-2.7-1.56-2.7-1.56v.16l-.27-.15v-.15s-2.7-1.56-2.7-1.56v.16l-.27-.16v-.15s-2.7-1.56-2.7-1.56v-4.37s-.12-.08-.12-.08v-.31s.13.08.13.08v-4.37s-.12-.08-.12-.08v-.31s.13.08.13.08v-4.37s-.12-.08-.12-.08v-.31s.13.08.13.08v-4.37s-.12-.08-.12-.08v-.31s.13.08.13.08v-4.37ZM209.03,138.79l18.06,10.43.07-23.69-18.06-10.43-.07,23.69Z" stroke-width="0"/>
                <path d="M224.14,142.83l2.7,1.56.13.08v-.31s-.13-.08-.13-.08l-2.7-1.56v.31ZM221.17,141.12l2.7,1.56v-.31s-2.7-1.56-2.7-1.56v.31ZM218.21,139.41l2.7,1.56v-.31s-2.7-1.56-2.7-1.56v.31ZM215.24,137.7l2.7,1.56v-.31s-2.7-1.56-2.7-1.56v.31ZM212.28,135.99l2.7,1.56v-.31s-2.7-1.56-2.7-1.56v.31ZM209.18,134.2l.13.08,2.7,1.56v-.31s-2.7-1.56-2.7-1.56l-.13-.08v.31Z" stroke-width="0"/>
                <path d="M224.15,138.16l2.7,1.56.13.08v-.31s-.13-.08-.13-.08l-2.7-1.56v.31ZM221.19,136.45l2.7,1.56v-.31s-2.7-1.56-2.7-1.56v.31ZM218.22,134.74l2.7,1.56v-.31s-2.7-1.56-2.7-1.56v.31ZM215.26,133.02l2.7,1.56v-.31s-2.7-1.56-2.7-1.56v.31ZM212.29,131.31l2.7,1.56v-.31s-2.7-1.56-2.7-1.56v.31ZM209.19,129.52l.13.08,2.7,1.56v-.31s-2.7-1.56-2.7-1.56l-.13-.08v.31Z" stroke-width="0"/>
                <path d="M224.16,133.48l2.7,1.56.13.08v-.31s-.13-.08-.13-.08l-2.7-1.56v.31ZM221.2,131.77l2.7,1.56v-.31s-2.7-1.56-2.7-1.56v.31ZM218.24,130.06l2.7,1.56v-.31s-2.7-1.56-2.7-1.56v.31ZM215.27,128.34l2.7,1.56v-.31s-2.7-1.56-2.7-1.56v.31ZM212.3,126.63l2.7,1.56v-.31s-2.7-1.56-2.7-1.56v.31ZM209.21,124.84l.13.08,2.7,1.56v-.31s-2.7-1.56-2.7-1.56l-.13-.08v.31Z" stroke-width="0"/>
                <path d="M224.18,128.8l2.7,1.56.13.08v-.31s-.13-.08-.13-.08l-2.7-1.56v.31ZM221.21,127.09l2.7,1.56v-.31s-2.7-1.56-2.7-1.56v.31ZM218.25,125.38l2.7,1.56v-.31s-2.7-1.56-2.7-1.56v.31ZM215.28,123.67l2.7,1.56v-.31s-2.7-1.56-2.7-1.56v.31ZM212.32,121.96l2.7,1.56v-.31l-2.7-1.56v.31ZM209.22,120.17l.13.08,2.7,1.56v-.31s-2.7-1.56-2.7-1.56l-.13-.08v.31Z" stroke-width="0"/>
                <polygon points="223.92 123.97 223.91 128.34 223.91 128.65 223.9 133.02 223.9 133.32 223.88 137.7 223.88 138.01 223.87 142.37 223.87 142.68 223.86 147.05 223.86 147.2 224.12 147.36 224.13 147.2 224.14 142.83 224.14 142.53 224.15 138.16 224.15 137.85 224.16 133.48 224.16 133.17 224.18 128.8 224.18 128.5 224.19 124.13 224.19 123.97 223.92 123.82 223.92 123.97" stroke-width="0"/>
                <polygon points="220.96 122.26 220.95 126.63 220.95 126.94 220.93 131.31 220.93 131.61 220.92 135.98 220.92 136.29 220.91 140.66 220.91 140.97 220.89 145.34 220.89 145.49 221.16 145.65 221.16 145.49 221.17 141.12 221.17 140.82 221.19 136.45 221.19 136.14 221.2 131.77 221.2 131.46 221.21 127.09 221.21 126.78 221.23 122.42 221.23 122.26 220.96 122.11 220.96 122.26" stroke-width="0"/>
                <polygon points="218 120.55 217.98 124.92 217.98 125.23 217.97 129.6 217.97 129.9 217.96 134.27 217.96 134.58 217.94 138.95 217.94 139.26 217.93 143.63 217.93 143.78 218.2 143.93 218.2 143.78 218.21 139.41 218.21 139.1 218.22 134.74 218.22 134.43 218.24 130.06 218.24 129.75 218.25 125.38 218.25 125.07 218.26 120.71 218.26 120.55 218 120.4 218 120.55" stroke-width="0"/>
                <polygon points="215.03 118.84 215.02 123.21 215.02 123.51 215.01 127.88 215 128.19 214.99 132.56 214.99 132.87 214.98 137.24 214.98 137.55 214.96 141.91 214.96 142.07 215.23 142.22 215.23 142.07 215.24 137.7 215.24 137.39 215.26 133.02 215.26 132.72 215.27 128.34 215.27 128.04 215.28 123.67 215.28 123.36 215.3 118.99 215.3 118.84 215.03 118.68 215.03 118.84" stroke-width="0"/>
                <polygon points="212.06 117.13 212.05 121.49 212.05 121.8 212.04 126.17 212.04 126.48 212.02 130.85 212.02 131.16 212.01 135.53 212.01 135.83 212 140.2 212 140.35 212.26 140.51 212.27 140.36 212.28 135.99 212.28 135.68 212.29 131.31 212.29 131 212.3 126.63 212.3 126.32 212.32 121.96 212.32 121.65 212.33 117.28 212.33 117.13 212.06 116.97 212.06 117.13" stroke-width="0"/>
              </g>
            </g>
            <g isolation="isolate">
              <g clip-path="url(#clippath-41)">
                <path d="M214.89,150.87l2.7,1.56v-4.37s-2.69-1.56-2.69-1.56v4.37ZM217.87,147.9l2.7,1.56v-4.37s-2.69-1.56-2.69-1.56v4.37ZM208.96,147.44l2.7,1.56v-4.37s-2.69-1.56-2.69-1.56v4.37ZM211.94,144.48l2.7,1.56v-4.37s-2.69-1.56-2.69-1.56v4.37ZM217.88,143.23l2.7,1.56v-4.37s-2.69-1.56-2.69-1.56v4.37ZM208.97,142.77l2.7,1.56v-4.37s-2.68-1.56-2.68-1.56v4.37ZM214.92,141.51l2.7,1.56v-4.37s-2.69-1.56-2.69-1.56v4.37ZM206.01,141.05l2.7,1.56v-4.37s-2.69-1.56-2.69-1.56v4.37ZM211.95,139.8l2.7,1.56v-4.37s-2.69-1.56-2.69-1.56v4.37ZM217.89,138.55l2.7,1.56v-4.37s-2.69-1.56-2.69-1.56v4.37ZM206.02,136.38l2.7,1.56v-4.37s-2.69-1.56-2.69-1.56v4.37ZM211.96,135.12l2.7,1.56v-4.37s-2.69-1.56-2.69-1.56v4.37ZM209,133.41l2.7,1.56v-4.37s-2.68-1.56-2.68-1.56v4.37ZM202.76,144.17l.07-23.69,18.06,10.43-.07,23.69-18.06-10.43ZM200.01,149.8l23.51,13.57.11-38.09-23.51-13.57-.11,38.09Z" fill="#fff" stroke-width="0"/>
                <path d="M200.01,149.8l.11-38.09,23.51,13.57-.11,38.09-23.51-13.57ZM199.73,111.02l-.11,38.78v.23l24.31,14.03.11-39.01-24.31-14.03Z" fill="#231f20" stroke-width="0"/>
                <polygon points="217.85 152.58 220.55 154.14 220.56 149.77 217.87 148.21 217.85 152.58" fill="#fff" stroke-width="0"/>
                <polygon points="217.91 133.87 220.6 135.43 220.62 131.06 217.92 129.5 217.91 133.87" stroke-width="0"/>
                <polygon points="214.9 146.19 217.6 147.75 217.61 143.38 214.92 141.82 214.9 146.19" fill="#f8ec17" stroke-width="0"/>
                <polygon points="214.93 136.84 217.63 138.39 217.64 134.02 214.94 132.47 214.93 136.84" fill="#f8ec17" stroke-width="0"/>
                <polygon points="214.94 132.16 217.64 133.72 217.65 129.35 214.96 127.79 214.94 132.16" stroke-width="0"/>
                <polygon points="211.92 149.15 214.62 150.71 214.63 146.34 211.94 144.79 211.92 149.15" fill="#f8ec17" stroke-width="0"/>
                <polygon points="211.98 130.45 214.67 132 214.69 127.63 211.99 126.08 211.98 130.45" stroke-width="0"/>
                <polygon points="208.99 138.09 211.68 139.65 211.7 135.28 209 133.72 208.99 138.09" fill="#f8ec17" stroke-width="0"/>
                <polygon points="209.01 128.74 211.71 130.29 211.72 125.92 209.03 124.37 209.01 128.74" stroke-width="0"/>
                <polygon points="205.99 145.73 208.69 147.29 208.71 142.92 206 141.36 205.99 145.73" fill="#f8ec17" stroke-width="0"/>
                <polygon points="206.03 131.7 208.73 133.26 208.75 128.89 206.04 127.33 206.03 131.7" fill="#f8ec17" stroke-width="0"/>
                <polygon points="206.05 127.02 208.75 128.58 208.76 124.21 206.06 122.65 206.05 127.02" stroke-width="0"/>
                <polygon points="203.03 144.02 205.73 145.58 205.74 141.21 203.04 139.65 203.03 144.02" fill="#dbdbdb" stroke-width="0"/>
                <polygon points="203.04 139.34 205.74 140.9 205.75 136.53 203.05 134.97 203.04 139.34" fill="#dbdbdb" stroke-width="0"/>
                <polygon points="203.06 134.67 205.75 136.22 205.76 131.85 203.07 130.29 203.06 134.67" fill="#dbdbdb" stroke-width="0"/>
                <polygon points="203.07 129.99 205.77 131.55 205.78 127.18 203.08 125.62 203.07 129.99" fill="#dbdbdb" stroke-width="0"/>
                <polygon points="203.08 125.31 205.78 126.87 205.79 122.5 203.09 120.94 203.08 125.31" stroke-width="0"/>
                <path d="M203.09,120.94l2.7,1.56v-.15s.27.15.27.15v.15l2.7,1.56v-.15l.27.15v.15s2.7,1.56,2.7,1.56v-.15l.27.15v.15s2.7,1.56,2.7,1.56v-.15l.27.16v.15s2.7,1.56,2.7,1.56v-.15l.27.15v.15l2.7,1.56v4.37s.12.08.12.08v.31s-.14-.08-.14-.08v4.37s.12.08.12.08v.31s-.14-.08-.14-.08v4.37s.12.08.12.08v.31s-.14-.08-.14-.08v4.37s.12.08.12.08v.31s-.14-.08-.14-.08v4.37s-2.71-1.56-2.71-1.56v.15s-.27-.15-.27-.15v-.15l-2.7-1.56v.15l-.27-.16v-.15s-2.7-1.56-2.7-1.56v.15l-.27-.15v-.15s-2.7-1.56-2.7-1.56v.15l-.27-.15v-.15s-2.7-1.56-2.7-1.56v.15s-.27-.15-.27-.15v-.15s-2.7-1.56-2.7-1.56v-4.37s-.12-.08-.12-.08v-.31s.14.08.14.08v-4.37s-.12-.08-.12-.08v-.31s.14.08.14.08v-4.37s-.12-.08-.12-.08v-.31s.14.08.14.08v-4.37s-.12-.08-.12-.08v-.31s.14.08.14.08v-4.37ZM202.76,144.17l18.06,10.43.07-23.69-18.06-10.43-.07,23.69Z" stroke-width="0"/>
                <path d="M217.87,148.21l2.7,1.56.14.08v-.31l-.13-.08-2.7-1.56v.31ZM214.9,146.5l2.7,1.56v-.31s-2.7-1.56-2.7-1.56v.31ZM211.94,144.79l2.7,1.56v-.31s-2.7-1.56-2.7-1.56v.31ZM208.97,143.07l2.7,1.56v-.31s-2.7-1.56-2.7-1.56v.31ZM206.01,141.36l2.7,1.56v-.31s-2.7-1.56-2.7-1.56v.31ZM202.91,139.57l.13.08,2.7,1.56v-.31l-2.7-1.56-.13-.08v.31Z" stroke-width="0"/>
                <path d="M217.88,143.53l2.7,1.56.14.08v-.31s-.13-.08-.13-.08l-2.7-1.56v.31ZM214.92,141.82l2.7,1.56v-.31s-2.7-1.56-2.7-1.56v.31ZM211.95,140.11l2.7,1.56v-.31s-2.7-1.56-2.7-1.56v.31ZM208.99,138.4l2.7,1.56v-.31s-2.7-1.56-2.7-1.56v.31ZM206.02,136.68l2.7,1.56v-.31s-2.7-1.56-2.7-1.56v.31ZM202.92,134.89l.13.08,2.7,1.56v-.31s-2.7-1.56-2.7-1.56l-.13-.08v.31Z" stroke-width="0"/>
                <path d="M217.89,138.85l2.7,1.56.14.08v-.31s-.13-.08-.13-.08l-2.7-1.56v.31ZM214.93,137.14l2.7,1.56v-.31s-2.7-1.56-2.7-1.56v.31ZM211.96,135.43l2.7,1.56v-.31s-2.7-1.56-2.7-1.56v.31ZM209,133.72l2.7,1.56v-.31s-2.7-1.56-2.7-1.56v.31ZM206.03,132l2.7,1.56v-.31s-2.7-1.56-2.7-1.56v.31ZM202.93,130.22l.13.08,2.7,1.56v-.31s-2.7-1.56-2.7-1.56l-.13-.08v.31Z" stroke-width="0"/>
                <path d="M217.91,134.18l2.7,1.56.14.08v-.31s-.13-.08-.13-.08l-2.7-1.56v.31ZM214.94,132.47l2.7,1.56v-.31s-2.7-1.56-2.7-1.56v.31ZM211.98,130.76l2.7,1.56v-.31s-2.7-1.56-2.7-1.56v.31ZM209.01,129.04l2.7,1.56v-.31s-2.7-1.56-2.7-1.56v.31ZM206.04,127.33l2.7,1.56v-.31s-2.7-1.56-2.7-1.56v.31ZM202.95,125.54l.13.08,2.7,1.56v-.31s-2.7-1.56-2.7-1.56l-.13-.08v.31Z" stroke-width="0"/>
                <polygon points="217.65 129.35 217.64 133.72 217.64 134.03 217.63 138.39 217.63 138.7 217.61 143.07 217.61 143.38 217.6 147.75 217.6 148.06 217.59 152.42 217.59 152.58 217.86 152.73 217.86 152.58 217.87 148.21 217.87 147.9 217.88 143.53 217.88 143.23 217.89 138.85 217.89 138.55 217.91 134.18 217.91 133.87 217.92 129.5 217.92 129.35 217.65 129.2 217.65 129.35" stroke-width="0"/>
                <polygon points="214.69 127.63 214.68 132 214.67 132.31 214.66 136.68 214.66 136.99 214.65 141.36 214.65 141.67 214.64 146.03 214.63 146.34 214.62 150.71 214.62 150.86 214.89 151.02 214.89 150.87 214.9 146.5 214.9 146.19 214.92 141.82 214.92 141.51 214.93 137.14 214.93 136.84 214.94 132.47 214.94 132.16 214.96 127.79 214.96 127.64 214.69 127.48 214.69 127.63" stroke-width="0"/>
                <polygon points="211.72 125.92 211.71 130.29 211.71 130.6 211.7 134.97 211.7 135.28 211.68 139.65 211.68 139.95 211.67 144.32 211.67 144.63 211.66 149 211.66 149.15 211.92 149.31 211.92 149.15 211.94 144.79 211.94 144.48 211.95 140.11 211.95 139.8 211.96 135.43 211.96 135.12 211.98 130.76 211.98 130.45 211.99 126.08 211.99 125.93 211.72 125.77 211.72 125.92" stroke-width="0"/>
                <polygon points="208.76 124.21 208.75 128.58 208.75 128.89 208.73 133.26 208.73 133.57 208.72 137.94 208.72 138.24 208.71 142.61 208.71 142.92 208.69 147.29 208.69 147.44 208.96 147.6 208.96 147.44 208.97 143.08 208.97 142.77 208.99 138.4 208.99 138.09 209 133.72 209 133.41 209.01 129.04 209.01 128.73 209.03 124.37 209.03 124.21 208.76 124.06 208.76 124.21" stroke-width="0"/>
                <polygon points="205.79 122.5 205.78 126.87 205.78 127.18 205.77 131.54 205.77 131.85 205.75 136.22 205.75 136.53 205.74 140.9 205.74 141.21 205.73 145.58 205.73 145.73 205.99 145.88 205.99 145.73 206.01 141.36 206.01 141.05 206.02 136.68 206.02 136.38 206.03 132.01 206.03 131.7 206.05 127.33 206.05 127.02 206.06 122.65 206.06 122.5 205.79 122.35 205.79 122.5" stroke-width="0"/>
              </g>
            </g>
            <g isolation="isolate">
              <g clip-path="url(#clippath-42)">
                <path d="M208.62,156.24l2.7,1.56v-4.37s-2.69-1.56-2.69-1.56v4.37ZM211.6,153.28l2.7,1.56v-4.37s-2.69-1.56-2.69-1.56v4.37ZM202.69,152.82l2.7,1.56v-4.37s-2.69-1.56-2.69-1.56v4.37ZM205.67,149.85l2.7,1.56v-4.37s-2.68-1.56-2.68-1.56v4.37ZM211.61,148.6l2.7,1.56v-4.37s-2.69-1.56-2.69-1.56v4.37ZM202.7,148.14l2.7,1.56v-4.37s-2.69-1.56-2.69-1.56v4.37ZM208.64,146.89l2.7,1.56v-4.37s-2.69-1.56-2.69-1.56v4.37ZM199.74,146.43l2.7,1.56v-4.37s-2.69-1.56-2.69-1.56v4.37ZM205.68,145.18l2.7,1.56v-4.37s-2.69-1.56-2.69-1.56v4.37ZM211.62,143.92l2.7,1.56v-4.37s-2.69-1.56-2.69-1.56v4.37ZM199.75,141.75l2.7,1.56v-4.37s-2.69-1.56-2.69-1.56v4.37ZM205.69,140.5l2.7,1.56v-4.37s-2.69-1.56-2.69-1.56v4.37ZM202.73,138.79l2.7,1.56v-4.37s-2.69-1.56-2.69-1.56v4.37ZM196.49,149.54l.07-23.69,18.06,10.43-.07,23.69-18.06-10.43ZM193.74,155.17l23.51,13.57.11-38.09-23.51-13.57-.11,38.09Z" fill="#fff" stroke-width="0"/>
                <path d="M193.74,155.17l.11-38.09,23.51,13.57-.11,38.09-23.51-13.57ZM193.45,116.39l-.11,39.01,24.31,14.04.11-39.01-24.31-14.04Z" fill="#231f20" stroke-width="0"/>
                <polygon points="211.58 157.95 214.28 159.51 214.29 155.14 211.6 153.58 211.58 157.95" fill="#fff" stroke-width="0"/>
                <polygon points="211.64 139.25 214.33 140.8 214.35 136.44 211.65 134.88 211.64 139.25" stroke-width="0"/>
                <polygon points="208.63 151.56 211.33 153.12 211.34 148.75 208.64 147.2 208.63 151.56" fill="#f8ec17" stroke-width="0"/>
                <polygon points="208.66 142.21 211.36 143.77 211.37 139.4 208.67 137.84 208.66 142.21" fill="#f8ec17" stroke-width="0"/>
                <polygon points="208.67 137.53 211.37 139.09 211.38 134.72 208.68 133.16 208.67 137.53" stroke-width="0"/>
                <polygon points="205.65 154.53 208.35 156.09 208.36 151.72 205.67 150.16 205.65 154.53" fill="#f8ec17" stroke-width="0"/>
                <polygon points="205.71 135.82 208.4 137.38 208.42 133.01 205.72 131.45 205.71 135.82" stroke-width="0"/>
                <polygon points="202.71 143.47 205.41 145.03 205.43 140.65 202.73 139.09 202.71 143.47" fill="#f8ec17" stroke-width="0"/>
                <polygon points="202.74 134.11 205.44 135.67 205.45 131.3 202.75 129.74 202.74 134.11" stroke-width="0"/>
                <polygon points="199.72 151.1 202.42 152.66 202.43 148.29 199.73 146.73 199.72 151.1" fill="#f8ec17" stroke-width="0"/>
                <polygon points="199.76 137.07 202.46 138.63 202.47 134.26 199.77 132.7 199.76 137.07" fill="#f8ec17" stroke-width="0"/>
                <polygon points="199.78 132.4 202.47 133.96 202.49 129.59 199.79 128.03 199.78 132.4" stroke-width="0"/>
                <polygon points="196.76 149.39 199.46 150.95 199.47 146.58 196.77 145.02 196.76 149.39" fill="#dbdbdb" stroke-width="0"/>
                <polygon points="196.77 144.72 199.47 146.27 199.48 141.91 196.78 140.35 196.77 144.72" fill="#dbdbdb" stroke-width="0"/>
                <polygon points="196.78 140.04 199.48 141.6 199.49 137.23 196.79 135.67 196.78 140.04" fill="#dbdbdb" stroke-width="0"/>
                <polygon points="196.8 135.36 199.49 136.92 199.51 132.55 196.81 130.99 196.8 135.36" fill="#dbdbdb" stroke-width="0"/>
                <polygon points="196.81 130.69 199.51 132.24 199.52 127.88 196.82 126.32 196.81 130.69" stroke-width="0"/>
                <path d="M196.82,126.32l2.7,1.56v-.15s.27.15.27.15v.16l2.7,1.56v-.15s.27.15.27.15v.16s2.7,1.56,2.7,1.56v-.16s.27.15.27.15v.15l2.7,1.56v-.16l.27.15v.15s2.7,1.56,2.7,1.56v-.15l.27.15v.15s2.7,1.56,2.7,1.56v4.37s.12.08.12.08v.31s-.13-.08-.13-.08v4.37s.12.08.12.08v.31s-.13-.08-.13-.08v4.37s.12.08.12.08v.31s-.13-.08-.13-.08v4.37s.12.08.12.08v.31s-.13-.08-.13-.08v4.37s-2.71-1.56-2.71-1.56v.15l-.27-.15v-.15l-2.7-1.56v.15s-.27-.15-.27-.15v-.15l-2.7-1.56v.15s-.27-.15-.27-.15v-.15l-2.7-1.56v.16l-.27-.15v-.15l-2.7-1.56v.16l-.27-.15v-.15s-2.7-1.56-2.7-1.56v-4.37s-.12-.08-.12-.08v-.31s.13.08.13.08v-4.37s-.12-.08-.12-.08v-.31s.13.08.13.08v-4.37s-.12-.08-.12-.08v-.31s.13.08.13.08v-4.37s-.12-.08-.12-.08v-.31s.13.08.13.08v-4.37ZM196.49,149.54l18.06,10.43.07-23.69-18.06-10.43-.07,23.69Z" stroke-width="0"/>
                <path d="M211.6,153.58l2.7,1.56.13.08v-.31s-.13-.08-.13-.08l-2.7-1.56v.31ZM208.63,151.87l2.7,1.56v-.31s-2.7-1.56-2.7-1.56v.31ZM205.67,150.16l2.7,1.56v-.31s-2.7-1.56-2.7-1.56v.31ZM202.7,148.45l2.7,1.56v-.31s-2.7-1.56-2.7-1.56v.31ZM199.73,146.73l2.7,1.56v-.31l-2.7-1.56v.31ZM196.64,144.95l.13.08,2.7,1.56v-.31s-2.7-1.56-2.7-1.56l-.13-.08v.31Z" stroke-width="0"/>
                <path d="M211.61,148.91l2.7,1.56.13.08v-.31s-.13-.08-.13-.08l-2.7-1.56v.31ZM208.64,147.2l2.7,1.56v-.31s-2.7-1.56-2.7-1.56v.31ZM205.68,145.48l2.7,1.56v-.31s-2.7-1.56-2.7-1.56v.31ZM202.71,143.77l2.7,1.56v-.31s-2.7-1.56-2.7-1.56v.31ZM199.75,142.06l2.7,1.56v-.31l-2.7-1.56v.31ZM196.65,140.27l.13.08,2.7,1.56v-.31l-2.7-1.56-.13-.08v.31Z" stroke-width="0"/>
                <path d="M211.62,144.23l2.7,1.56.13.08v-.31s-.13-.08-.13-.08l-2.7-1.56v.31ZM208.66,142.52l2.7,1.56v-.31s-2.7-1.56-2.7-1.56v.31ZM205.69,140.8l2.7,1.56v-.31s-2.7-1.56-2.7-1.56v.31ZM202.73,139.09l2.7,1.56v-.31s-2.7-1.56-2.7-1.56v.31ZM199.76,137.38l2.7,1.56v-.31s-2.7-1.56-2.7-1.56v.31ZM196.66,135.59l.13.08,2.7,1.56v-.31l-2.7-1.56-.13-.08v.31Z" stroke-width="0"/>
                <path d="M211.64,139.55l2.7,1.56.13.08v-.31s-.13-.08-.13-.08l-2.7-1.56v.31ZM208.67,137.84l2.7,1.56v-.31s-2.7-1.56-2.7-1.56v.31ZM205.71,136.13l2.7,1.56v-.31s-2.7-1.56-2.7-1.56v.31ZM202.74,134.42l2.7,1.56v-.31s-2.7-1.56-2.7-1.56v.31ZM199.77,132.7l2.7,1.56v-.31s-2.7-1.56-2.7-1.56v.31ZM196.68,130.92l.13.08,2.7,1.56v-.31s-2.7-1.56-2.7-1.56l-.13-.08v.31Z" stroke-width="0"/>
                <polygon points="211.38 134.72 211.37 139.09 211.37 139.4 211.36 143.77 211.36 144.07 211.34 148.45 211.34 148.75 211.33 153.12 211.33 153.43 211.32 157.8 211.32 157.95 211.58 158.11 211.59 157.95 211.6 153.58 211.6 153.28 211.61 148.91 211.61 148.6 211.62 144.23 211.62 143.92 211.64 139.55 211.64 139.25 211.65 134.88 211.65 134.72 211.38 134.57 211.38 134.72" stroke-width="0"/>
                <polygon points="208.42 133.01 208.4 137.38 208.4 137.69 208.39 142.06 208.39 142.36 208.38 146.74 208.38 147.04 208.37 151.41 208.36 151.72 208.35 156.09 208.35 156.24 208.62 156.39 208.62 156.24 208.63 151.87 208.63 151.56 208.64 147.2 208.65 146.89 208.66 142.52 208.66 142.21 208.67 137.84 208.67 137.53 208.68 133.17 208.68 133.01 208.42 132.86 208.42 133.01" stroke-width="0"/>
                <polygon points="205.45 131.3 205.44 135.67 205.44 135.97 205.43 140.34 205.43 140.65 205.41 145.02 205.41 145.33 205.4 149.7 205.4 150.01 205.39 154.37 205.39 154.53 205.65 154.68 205.65 154.53 205.67 150.16 205.67 149.85 205.68 145.48 205.68 145.18 205.69 140.8 205.69 140.5 205.71 136.13 205.71 135.82 205.72 131.45 205.72 131.3 205.45 131.15 205.45 131.3" stroke-width="0"/>
                <polygon points="202.49 129.59 202.48 133.96 202.47 134.26 202.46 138.63 202.46 138.94 202.45 143.31 202.45 143.62 202.43 147.99 202.43 148.29 202.42 152.66 202.42 152.82 202.69 152.97 202.69 152.82 202.7 148.45 202.7 148.14 202.71 143.77 202.72 143.47 202.73 139.09 202.73 138.79 202.74 134.42 202.74 134.11 202.75 129.74 202.75 129.59 202.49 129.43 202.49 129.59" stroke-width="0"/>
                <polygon points="199.52 127.87 199.51 132.24 199.51 132.55 199.5 136.92 199.49 137.23 199.48 141.6 199.48 141.91 199.47 146.27 199.47 146.58 199.46 150.95 199.46 151.1 199.72 151.26 199.72 151.1 199.73 146.73 199.74 146.43 199.75 142.06 199.75 141.75 199.76 137.38 199.76 137.07 199.77 132.7 199.78 132.4 199.79 128.03 199.79 127.87 199.52 127.72 199.52 127.87" stroke-width="0"/>
              </g>
            </g>
          </g>
        </g>
      </g>
      <polygon points="133.15 116.57 133.03 160 48.02 110.92 48.15 67.49 133.15 116.57" fill="#f8ec17" stroke-width="0"/>
      <polygon points="133.15 116.57 139.78 112.72 139.66 156.15 133.03 160 133.15 116.57" fill="#f8ec17" stroke-width="0"/>
      <polygon points="48.15 67.49 54.77 63.64 139.78 112.72 133.15 116.57 48.15 67.49" fill="#f8ec17" stroke-width="0"/>
      <polygon points="234.17 174.89 234.04 218.32 149.04 169.24 149.16 125.82 234.17 174.89" fill="#f8ec17" stroke-width="0"/>
      <polygon points="234.17 174.89 240.8 171.04 240.67 214.47 234.04 218.32 234.17 174.89" fill="#f8ec17" stroke-width="0"/>
      <polygon points="149.16 125.82 155.79 121.96 240.8 171.04 234.17 174.89 149.16 125.82" fill="#f8ec17" stroke-width="0"/>
      <polygon points="319.17 125.82 319.3 169.24 234.29 218.32 234.17 174.89 319.17 125.82" fill="#f8ec17" stroke-width="0"/>
      <polygon points="234.04 218.32 227.42 214.47 227.29 171.04 233.92 174.89 234.04 218.32" fill="#f8ec17" stroke-width="0"/>
      <polygon points="233.92 174.89 227.29 171.04 312.3 121.97 318.93 125.82 233.92 174.89" fill="#f8ec17" stroke-width="0"/>
      <line x1="49.27" y1="66.74" x2="49.15" y2="110.17" fill="none" stroke="#231f20" stroke-miterlimit="10" stroke-width=".5"/>
      <line x1="59.12" y1="72.43" x2="134.28" y2="115.82" fill="none" stroke="#231f20" stroke-miterlimit="10" stroke-width=".5"/>
      <line x1="150.17" y1="168.49" x2="239" y2="219.78" fill="none" stroke="#231f20" stroke-miterlimit="10" stroke-width=".5"/>
      <line x1="140.91" y1="13.81" x2="326.93" y2="121.21" fill="none" stroke="#231f20" stroke-miterlimit="10" stroke-width=".5"/>
      <line x1="326.94" y1="117.45" x2="326.81" y2="164.64" fill="none" stroke="#231f20" stroke-miterlimit="10" stroke-width=".5"/>
      <line x1="140.91" y1="13.81" x2="49.27" y2="66.74" fill="none" stroke="#231f20" stroke-miterlimit="10" stroke-width=".5"/>
      <line x1="134.28" y1="115.82" x2="134.17" y2="155.28" fill="none" stroke="#231f20" stroke-miterlimit="10" stroke-width=".5"/>
      <line x1="150.29" y1="125.06" x2="150.17" y2="168.49" fill="none" stroke="#231f20" stroke-miterlimit="10" stroke-width=".5"/>
      <line x1="184.51" y1="137.14" x2="235.3" y2="166.46" fill="none" stroke="#231f20" stroke-miterlimit="10" stroke-width=".5"/>
      <line x1="235.3" y1="166.46" x2="316.69" y2="119.32" fill="none" stroke="#000" stroke-miterlimit="10" stroke-width=".5"/>
      <line x1="138.41" y1="20.07" x2="328.4" y2="129.87" fill="none" stroke="#000" stroke-miterlimit="10" stroke-width=".5"/>
      <line x1="231.24" y1="219.84" x2="326.81" y2="164.64" fill="none" stroke="#000" stroke-miterlimit="10" stroke-width=".5"/>
      <line x1="45.04" y1="107.8" x2="134.16" y2="159.25" fill="none" stroke="#000" stroke-miterlimit="10" stroke-width=".5"/>
      <line x1="149.82" y1="16.37" x2="62.57" y2="66.74" fill="none" stroke="#000" stroke-miterlimit="10" stroke-width=".5"/>
      <line x1="49.27" y1="59.06" x2="140.91" y2="111.97" fill="none" stroke="#000" stroke-miterlimit="10" stroke-width=".5"/>
      <line x1="140.91" y1="27.65" x2="140.91" y2="57.53" fill="none" stroke="#000" stroke-dasharray="0 0 5.12 5.12" stroke-miterlimit="10" stroke-width=".5"/>
      <line x1="235.3" y1="160.97" x2="235.3" y2="213" fill="none" stroke="#000" stroke-miterlimit="10" stroke-width=".5"/>
      <line x1="326.93" y1="121.21" x2="241.92" y2="170.29" fill="none" stroke="#000" stroke-miterlimit="10" stroke-width=".5"/>
      <line x1="134.16" y1="159.25" x2="140.78" y2="155.39" fill="none" stroke="#000" stroke-miterlimit="10" stroke-width=".5"/>
      <line x1="140.78" y1="155.39" x2="140.78" y2="130.55" fill="none" stroke="#000" stroke-miterlimit="10" stroke-width=".5"/>
      <line x1="150.29" y1="125.06" x2="228.42" y2="170.29" fill="none" stroke="#000" stroke-miterlimit="10" stroke-width=".5"/>
      <g clip-path="url(#clippath-43)">
        <g isolation="isolate">
          <g clip-path="url(#clippath-44)">
            <polygon points="147.06 177.99 174.63 193.91 175.03 193.68 147.46 177.76 147.06 177.99" stroke-width="0"/>
            <polygon points="176.12 189.77 176.15 194.55 167.89 194.55 167.89 194.88 176.71 194.88 176.68 189.77 176.12 189.77" stroke-width="0"/>
          </g>
        </g>
        <g isolation="isolate">
          <g clip-path="url(#clippath-45)">
            <polygon points="92.26 145.23 119.82 161.14 120.22 160.91 92.66 144.99 92.26 145.23" stroke-width="0"/>
            <polygon points="90.58 144.02 90.61 149.13 91.17 149.13 91.14 144.35 99.4 144.35 99.4 144.02 99.4 144.02 90.58 144.02" stroke-width="0"/>
          </g>
        </g>
      </g>
      <line x1="134.16" y1="159.25" x2="94.34" y2="182.59" fill="none" stroke="#000" stroke-dasharray="0 0 5.12 5.12" stroke-miterlimit="10" stroke-width=".5"/>
      <line x1="150.17" y1="168.49" x2="103.74" y2="196.47" fill="none" stroke="#000" stroke-dasharray="0 0 5.12 5.12" stroke-miterlimit="10" stroke-width=".5"/>
    </g>
  </g>
</svg>