<?xml version="1.0" encoding="UTF-8"?>
<svg id="_export_" xmlns="http://www.w3.org/2000/svg" xmlns:xlink="http://www.w3.org/1999/xlink" viewBox="0 0 360 279">
  <defs>
    <clipPath id="clippath">
      <rect x="-.07" y="-.06" width="360" height="279" fill="none" stroke-width="0"/>
    </clipPath>
  </defs>
  <g clip-path="url(#clippath)">
    <g>
      <rect x="305.59" y="99.59" width="26.75" height="15.55" fill="#ebeaea" stroke-width="0"/>
      <rect x="305.59" y="68.48" width="26.75" height="15.56" fill="#ebeaea" stroke-width="0"/>
      <rect x="305.59" y="37.38" width="26.75" height="15.55" stroke-width="0"/>
      <rect x="278.85" y="115.14" width="26.75" height="15.55" stroke-width="0"/>
      <rect x="278.85" y="84.04" width="26.75" height="15.55" fill="#f8ec17" stroke-width="0"/>
      <rect x="278.85" y="52.93" width="26.75" height="15.55" stroke-width="0"/>
      <rect x="278.85" y="37.38" width="26.75" height="15.55" fill="#ebeaea" stroke-width="0"/>
      <rect x="252.09" y="84.04" width="26.75" height="15.55" stroke-width="0"/>
      <rect x="252.09" y="52.93" width="26.75" height="15.55" fill="#ebeaea" stroke-width="0"/>
      <rect x="225.34" y="84.04" width="26.75" height="15.55" fill="#ebeaea" stroke-width="0"/>
      <rect x="198.58" y="115.14" width="26.75" height="15.55" fill="#f8ec17" stroke-width="0"/>
      <rect x="198.58" y="84.04" width="26.75" height="15.55" fill="#f8ec17" stroke-width="0"/>
      <rect x="198.58" y="68.48" width="26.75" height="15.56" stroke-width="0"/>
      <rect x="171.83" y="130.69" width="26.75" height="15.56" fill="#f8ec17" stroke-width="0"/>
      <rect x="171.83" y="115.14" width="26.75" height="15.55" fill="#ebeaea" stroke-width="0"/>
      <rect x="171.83" y="99.59" width="26.75" height="15.55" fill="#f8ec17" stroke-width="0"/>
      <rect x="145.07" y="146.25" width="26.75" height="15.55" fill="#ebeaea" stroke-width="0"/>
      <rect x="118.33" y="161.8" width="26.75" height="15.55" fill="#f8ec17" stroke-width="0"/>
      <rect x="118.33" y="130.69" width="26.75" height="15.56" fill="#ebeaea" stroke-width="0"/>
      <rect x="225.34" y="68.48" width="13.38" height="7.78" fill="#ebeaea" stroke-width="0"/>
      <rect x="225.34" y="76.26" width="13.38" height="7.78" stroke-width="0"/>
      <rect x="238.71" y="76.26" width="13.38" height="7.78" fill="#ebeaea" stroke-width="0"/>
      <rect x="345.73" y="21.82" width="13.38" height="7.78" fill="#f8ec17" stroke-width="0"/>
      <rect x="332.35" y="29.6" width="13.38" height="7.78" fill="#f8ec17" stroke-width="0"/>
      <rect x="305.59" y="52.93" width="13.38" height="7.78" fill="#ebeaea" stroke-width="0"/>
      <rect x="318.97" y="52.93" width="13.38" height="7.78" fill="#ebeaea" stroke-width="0"/>
      <rect x="305.59" y="60.7" width="13.38" height="7.78" fill="#f8ec17" stroke-width="0"/>
      <rect x="318.97" y="60.7" width="13.38" height="7.78" fill="#ebeaea" stroke-width="0"/>
      <rect x="345.73" y="52.93" width="13.38" height="7.78" fill="#ebeaea" stroke-width="0"/>
      <rect x="332.35" y="60.7" width="13.38" height="7.78" fill="#ebeaea" stroke-width="0"/>
      <rect x="345.73" y="60.7" width="13.38" height="7.78" fill="#ebeaea" stroke-width="0"/>
      <rect x="185.21" y="60.7" width="13.38" height="7.78" stroke-width="0"/>
      <rect x="252.09" y="68.48" width="13.38" height="7.78" fill="#f8ec17" stroke-width="0"/>
      <rect x="265.47" y="68.48" width="13.38" height="7.78" stroke-width="0"/>
      <rect x="252.09" y="76.26" width="13.38" height="7.78" fill="#f8ec17" stroke-width="0"/>
      <rect x="265.47" y="76.26" width="13.38" height="7.78" fill="#f8ec17" stroke-width="0"/>
      <rect x="225.34" y="99.59" width="13.38" height="7.78" fill="#f8ec17" stroke-width="0"/>
      <rect x="238.71" y="99.59" width="13.38" height="7.78" stroke-width="0"/>
      <rect x="225.34" y="107.36" width="13.38" height="7.78" fill="#f8ec17" stroke-width="0"/>
      <rect x="238.71" y="107.36" width="13.38" height="7.78" fill="#f8ec17" stroke-width="0"/>
      <rect x="278.85" y="99.59" width="13.37" height="7.78" fill="#ebeaea" stroke-width="0"/>
      <rect x="278.85" y="107.36" width="13.37" height="7.78" fill="#ebeaea" stroke-width="0"/>
      <rect x="292.22" y="107.36" width="13.37" height="7.78" fill="#ebeaea" stroke-width="0"/>
      <rect x="332.35" y="84.04" width="13.38" height="7.78" fill="#ebeaea" stroke-width="0"/>
      <rect x="345.73" y="84.04" width="13.38" height="7.78" stroke-width="0"/>
      <rect x="332.35" y="91.81" width="13.38" height="7.78" stroke-width="0"/>
      <rect x="345.73" y="91.81" width="13.38" height="7.78" stroke-width="0"/>
      <rect x="252.09" y="130.69" width="13.38" height="7.78" fill="#f8ec17" stroke-width="0"/>
      <rect x="265.47" y="130.69" width="13.38" height="7.78" fill="#ebeaea" stroke-width="0"/>
      <rect x="252.09" y="138.47" width="13.38" height="7.78" fill="#ebeaea" stroke-width="0"/>
      <rect x="265.47" y="138.47" width="13.38" height="7.78" fill="#ebeaea" stroke-width="0"/>
      <rect x="198.58" y="99.59" width="13.38" height="7.78" fill="#f8ec17" stroke-width="0"/>
      <rect x="211.96" y="99.59" width="13.38" height="7.78" stroke-width="0"/>
      <rect x="198.58" y="107.36" width="13.38" height="7.78" stroke-width="0"/>
      <rect x="211.96" y="107.36" width="13.38" height="7.78" stroke-width="0"/>
      <rect x="158.45" y="115.14" width="13.38" height="7.78" stroke-width="0"/>
      <rect x="145.07" y="122.91" width="13.38" height="7.78" stroke-width="0"/>
      <rect x="158.45" y="122.91" width="13.38" height="7.78" stroke-width="0"/>
      <rect x="145.07" y="161.8" width="13.38" height="7.78" stroke-width="0"/>
      <rect x="158.45" y="161.8" width="13.38" height="7.78" stroke-width="0"/>
      <rect x="145.07" y="169.57" width="13.38" height="7.78" stroke-width="0"/>
      <rect x="265.47" y="37.38" width="13.38" height="7.78" fill="#f8ec17" stroke-width="0"/>
      <rect x="252.09" y="45.15" width="13.38" height="7.78" fill="#f8ec17" stroke-width="0"/>
      <rect x="265.47" y="45.15" width="13.38" height="7.78" fill="#f8ec17" stroke-width="0"/>
      <rect x="104.95" y="177.35" width="13.38" height="7.78" fill="#f8ec17" stroke-width="0"/>
      <rect x="91.57" y="185.12" width="13.38" height="7.78" fill="#f8ec17" stroke-width="0"/>
      <rect x="104.95" y="185.12" width="13.38" height="7.78" fill="#f8ec17" stroke-width="0"/>
      <rect x="225.34" y="130.69" width="13.38" height="7.78" stroke-width="0"/>
      <rect x="238.71" y="130.69" width="13.38" height="7.78" stroke-width="0"/>
      <rect x="238.71" y="138.47" width="13.38" height="7.78" stroke-width="0"/>
      <rect x="92.89" y="212.66" width="26.75" height="15.16" fill="#f8ec17" stroke-width="0"/>
      <rect x="92.89" y="242.98" width="26.75" height="15.16" fill="#f8ec17" stroke-width="0"/>
      <line x1="118.33" y1="258.04" x2="118.33" y2="263.34" fill="none" stroke="#000" stroke-miterlimit="10" stroke-width=".5"/>
      <polyline points="91.57 249.24 91.57 196.19 118.33 196.19 118.33 255.51" fill="none" stroke="#000" stroke-miterlimit="10" stroke-width=".5"/>
      <line x1="91.57" y1="260.71" x2="91.57" y2="254.85" fill="none" stroke="#000" stroke-miterlimit="10" stroke-width=".5"/>
      <line x1="138.5" y1="160.48" x2="178.63" y2="160.48" fill="none" stroke="#000" stroke-miterlimit="10" stroke-width=".5"/>
      <line x1="171.83" y1="129.37" x2="214.5" y2="129.37" fill="none" stroke="#000" stroke-miterlimit="10" stroke-width=".5"/>
      <line x1="205.16" y1="98.27" x2="298.8" y2="98.27" fill="none" stroke="#000" stroke-miterlimit="10" stroke-width=".5"/>
      <line x1="245.52" y1="67.16" x2="358.42" y2="67.16" fill="none" stroke="#000" stroke-miterlimit="10" stroke-width=".5"/>
      <line x1="258.89" y1="43.84" x2="318.86" y2="43.84" fill="none" stroke="#000" stroke-miterlimit="10" stroke-width=".5"/>
      <line x1="124.9" y1="144.93" x2="185.43" y2="144.93" fill="none" stroke="#000" stroke-miterlimit="10" stroke-width=".5"/>
      <line x1="104.95" y1="176.03" x2="118.33" y2="176.03" fill="none" stroke="#000" stroke-miterlimit="10" stroke-width=".5"/>
      <line x1="91.57" y1="211.35" x2="118.33" y2="211.35" fill="none" stroke="#000" stroke-miterlimit="10" stroke-width=".5"/>
      <line x1="91.57" y1="241.66" x2="118.33" y2="241.66" fill="none" stroke="#000" stroke-miterlimit="10" stroke-width=".5"/>
      <line x1="124.19" y1="242.29" x2="285.53" y2="242.29" fill="none" stroke="#000" stroke-dasharray="0 0 7.69 7.69" stroke-miterlimit="10" stroke-width=".5"/>
      <line x1="41.14" y1="242.29" x2="86.43" y2="242.29" fill="none" stroke="#000" stroke-dasharray="0 0 7.69 7.69" stroke-miterlimit="10" stroke-width=".5"/>
    </g>
  </g>
</svg>