<?xml version="1.0" encoding="UTF-8"?>
<svg id="_export_" xmlns="http://www.w3.org/2000/svg" xmlns:xlink="http://www.w3.org/1999/xlink" viewBox="0 0 316 244">
  <defs>
    <clipPath id="clippath">
      <rect x=".48" y=".36" width="315.58" height="244.57" fill="none" stroke-width="0"/>
    </clipPath>
  </defs>
  <g clip-path="url(#clippath)">
    <g>
      <rect x="268.43" y="87.71" width="23.45" height="13.63" fill="#ebeaea" stroke-width="0"/>
      <rect x="268.43" y="60.45" width="23.45" height="13.64" fill="#ebeaea" stroke-width="0"/>
      <rect x="268.43" y="33.18" width="23.45" height="13.63" stroke-width="0"/>
      <rect x="244.98" y="101.35" width="23.45" height="13.63" stroke-width="0"/>
      <rect x="244.98" y="74.08" width="23.45" height="13.63" fill="#f8ec17" stroke-width="0"/>
      <rect x="244.98" y="46.81" width="23.45" height="13.63" stroke-width="0"/>
      <rect x="244.98" y="33.18" width="23.45" height="13.63" fill="#ebeaea" stroke-width="0"/>
      <rect x="221.53" y="74.08" width="23.45" height="13.63" stroke-width="0"/>
      <rect x="221.53" y="46.81" width="23.45" height="13.63" fill="#ebeaea" stroke-width="0"/>
      <rect x="198.08" y="74.08" width="23.45" height="13.63" fill="#ebeaea" stroke-width="0"/>
      <rect x="174.62" y="101.35" width="23.45" height="13.63" fill="#f8ec17" stroke-width="0"/>
      <rect x="174.62" y="74.08" width="23.45" height="13.63" fill="#f8ec17" stroke-width="0"/>
      <rect x="174.62" y="60.45" width="23.45" height="13.64" stroke-width="0"/>
      <rect x="151.17" y="114.98" width="23.45" height="13.64" fill="#f8ec17" stroke-width="0"/>
      <rect x="151.17" y="101.35" width="23.45" height="13.63" fill="#ebeaea" stroke-width="0"/>
      <rect x="151.17" y="87.71" width="23.45" height="13.63" fill="#f8ec17" stroke-width="0"/>
      <rect x="127.72" y="128.61" width="23.45" height="13.63" fill="#ebeaea" stroke-width="0"/>
      <rect x="104.27" y="142.25" width="23.45" height="13.63" fill="#f8ec17" stroke-width="0"/>
      <rect x="104.27" y="114.98" width="23.45" height="13.64" fill="#ebeaea" stroke-width="0"/>
      <rect x="198.08" y="60.45" width="11.73" height="6.82" fill="#ebeaea" stroke-width="0"/>
      <rect x="198.08" y="67.26" width="11.73" height="6.82" stroke-width="0"/>
      <rect x="209.8" y="67.26" width="11.73" height="6.82" fill="#ebeaea" stroke-width="0"/>
      <rect x="303.61" y="19.54" width="11.73" height="6.82" fill="#f8ec17" stroke-width="0"/>
      <rect x="291.88" y="26.36" width="11.73" height="6.82" fill="#f8ec17" stroke-width="0"/>
      <rect x="268.43" y="46.81" width="11.73" height="6.82" fill="#ebeaea" stroke-width="0"/>
      <rect x="280.16" y="46.81" width="11.73" height="6.82" fill="#ebeaea" stroke-width="0"/>
      <rect x="268.43" y="53.63" width="11.73" height="6.82" fill="#f8ec17" stroke-width="0"/>
      <rect x="280.16" y="53.63" width="11.73" height="6.82" fill="#ebeaea" stroke-width="0"/>
      <rect x="303.61" y="46.81" width="11.73" height="6.82" fill="#ebeaea" stroke-width="0"/>
      <rect x="291.88" y="53.63" width="11.73" height="6.82" fill="#ebeaea" stroke-width="0"/>
      <rect x="303.61" y="53.63" width="11.73" height="6.82" fill="#ebeaea" stroke-width="0"/>
      <rect x="162.9" y="53.63" width="11.73" height="6.82" stroke-width="0"/>
      <rect x="221.53" y="60.45" width="11.73" height="6.82" fill="#f8ec17" stroke-width="0"/>
      <rect x="233.26" y="60.45" width="11.73" height="6.82" stroke-width="0"/>
      <rect x="221.53" y="67.26" width="11.73" height="6.82" fill="#f8ec17" stroke-width="0"/>
      <rect x="233.26" y="67.26" width="11.73" height="6.82" fill="#f8ec17" stroke-width="0"/>
      <rect x="198.08" y="87.71" width="11.73" height="6.82" fill="#f8ec17" stroke-width="0"/>
      <rect x="209.8" y="87.71" width="11.73" height="6.82" stroke-width="0"/>
      <rect x="198.08" y="94.53" width="11.73" height="6.82" fill="#f8ec17" stroke-width="0"/>
      <rect x="209.8" y="94.53" width="11.73" height="6.82" fill="#f8ec17" stroke-width="0"/>
      <rect x="244.98" y="87.71" width="11.72" height="6.82" fill="#ebeaea" stroke-width="0"/>
      <rect x="244.98" y="94.53" width="11.72" height="6.82" fill="#ebeaea" stroke-width="0"/>
      <rect x="256.71" y="94.53" width="11.72" height="6.82" fill="#ebeaea" stroke-width="0"/>
      <rect x="291.88" y="74.08" width="11.73" height="6.82" fill="#ebeaea" stroke-width="0"/>
      <rect x="303.61" y="74.08" width="11.73" height="6.82" stroke-width="0"/>
      <rect x="291.88" y="80.9" width="11.73" height="6.82" stroke-width="0"/>
      <rect x="303.61" y="80.9" width="11.73" height="6.82" stroke-width="0"/>
      <rect x="221.53" y="114.98" width="11.73" height="6.82" fill="#f8ec17" stroke-width="0"/>
      <rect x="233.26" y="114.98" width="11.73" height="6.82" fill="#ebeaea" stroke-width="0"/>
      <rect x="221.53" y="121.8" width="11.73" height="6.82" fill="#ebeaea" stroke-width="0"/>
      <rect x="233.26" y="121.8" width="11.73" height="6.82" fill="#ebeaea" stroke-width="0"/>
      <rect x="174.62" y="87.71" width="11.73" height="6.82" fill="#f8ec17" stroke-width="0"/>
      <rect x="186.35" y="87.71" width="11.73" height="6.82" stroke-width="0"/>
      <rect x="174.62" y="94.53" width="11.73" height="6.82" stroke-width="0"/>
      <rect x="186.35" y="94.53" width="11.73" height="6.82" stroke-width="0"/>
      <rect x="139.44" y="101.35" width="11.73" height="6.82" stroke-width="0"/>
      <rect x="127.72" y="108.16" width="11.73" height="6.82" stroke-width="0"/>
      <rect x="139.44" y="108.16" width="11.73" height="6.82" stroke-width="0"/>
      <rect x="127.72" y="142.25" width="11.73" height="6.82" stroke-width="0"/>
      <rect x="139.44" y="142.25" width="11.73" height="6.82" stroke-width="0"/>
      <rect x="127.72" y="149.06" width="11.73" height="6.82" stroke-width="0"/>
      <rect x="233.26" y="33.18" width="11.73" height="6.82" fill="#f8ec17" stroke-width="0"/>
      <rect x="221.53" y="40" width="11.73" height="6.82" fill="#f8ec17" stroke-width="0"/>
      <rect x="233.26" y="40" width="11.73" height="6.82" fill="#f8ec17" stroke-width="0"/>
      <rect x="92.54" y="155.88" width="11.73" height="6.82" fill="#f8ec17" stroke-width="0"/>
      <rect x="80.82" y="162.7" width="11.73" height="6.82" fill="#f8ec17" stroke-width="0"/>
      <rect x="92.54" y="162.7" width="11.73" height="6.82" fill="#f8ec17" stroke-width="0"/>
      <rect x="198.08" y="114.98" width="11.73" height="6.82" stroke-width="0"/>
      <rect x="209.8" y="114.98" width="11.73" height="6.82" stroke-width="0"/>
      <rect x="209.8" y="121.8" width="11.73" height="6.82" stroke-width="0"/>
      <rect x="81.97" y="186.84" width="23.45" height="13.29" fill="#f8ec17" stroke-width="0"/>
      <rect x="81.97" y="213.41" width="23.45" height="13.29" fill="#f8ec17" stroke-width="0"/>
      <line x1="104.27" y1="226.61" x2="104.27" y2="231.26" fill="none" stroke="#000" stroke-miterlimit="10" stroke-width=".5"/>
      <polyline points="80.82 218.9 80.82 172.4 104.27 172.4 104.27 224.39" fill="none" stroke="#000" stroke-miterlimit="10" stroke-width=".5"/>
      <line x1="80.82" y1="228.95" x2="80.82" y2="223.82" fill="none" stroke="#000" stroke-miterlimit="10" stroke-width=".5"/>
      <line x1="121.95" y1="141.09" x2="157.13" y2="141.09" fill="none" stroke="#000" stroke-miterlimit="10" stroke-width=".5"/>
      <line x1="151.17" y1="113.82" x2="188.58" y2="113.82" fill="none" stroke="#000" stroke-miterlimit="10" stroke-width=".5"/>
      <line x1="180.39" y1="86.56" x2="262.47" y2="86.56" fill="none" stroke="#000" stroke-miterlimit="10" stroke-width=".5"/>
      <line x1="215.77" y1="59.29" x2="314.74" y2="59.29" fill="none" stroke="#000" stroke-miterlimit="10" stroke-width=".5"/>
      <line x1="227.49" y1="38.85" x2="280.06" y2="38.85" fill="none" stroke="#000" stroke-miterlimit="10" stroke-width=".5"/>
      <line x1="110.03" y1="127.46" x2="163.1" y2="127.46" fill="none" stroke="#000" stroke-miterlimit="10" stroke-width=".5"/>
      <line x1="92.54" y1="154.72" x2="104.27" y2="154.72" fill="none" stroke="#000" stroke-miterlimit="10" stroke-width=".5"/>
      <line x1="80.82" y1="185.68" x2="104.27" y2="185.68" fill="none" stroke="#000" stroke-miterlimit="10" stroke-width=".5"/>
      <line x1="80.82" y1="212.26" x2="104.27" y2="212.26" fill="none" stroke="#000" stroke-miterlimit="10" stroke-width=".5"/>
      <line x1="109.41" y1="212.8" x2="250.84" y2="212.8" fill="none" stroke="#000" stroke-dasharray="0 0 7.69 7.69" stroke-miterlimit="10" stroke-width=".5"/>
      <line x1="36.61" y1="212.8" x2="76.31" y2="212.8" fill="none" stroke="#000" stroke-dasharray="0 0 7.69 7.69" stroke-miterlimit="10" stroke-width=".5"/>
    </g>
  </g>
</svg>