<?xml version="1.0" encoding="UTF-8"?>
<svg id="_export_" xmlns="http://www.w3.org/2000/svg" xmlns:xlink="http://www.w3.org/1999/xlink" viewBox="0 0 316 207">
  <defs>
    <clipPath id="clippath">
      <rect y="-.36" width="316" height="200.14" fill="none" stroke-width="0"/>
    </clipPath>
    <clipPath id="clippath-1">
      <rect x="1.23" y="-.36" width="312.13" height="200.14" fill="none" stroke-width="0"/>
    </clipPath>
    <clipPath id="clippath-2">
      <rect x="156.52" y="109" width="141.02" height="56.37" fill="none" stroke-width="0"/>
    </clipPath>
    <clipPath id="clippath-3">
      <polygon points="189.07 109 156.52 127.79 156.53 165.37 199.92 165.37 297.55 109 297.55 109 189.07 109" fill="none" stroke-width="0"/>
    </clipPath>
    <linearGradient id="linear-gradient" x1="-1961.48" y1="-1177.47" x2="-1960.78" y2="-1177.47" gradientTransform="translate(393156.1 -235778.96) scale(200.36 -200.36)" gradientUnits="userSpaceOnUse">
      <stop offset="0" stop-color="#c4c4c4"/>
      <stop offset=".05" stop-color="#cbcbcb"/>
      <stop offset=".25" stop-color="#e2e2e2"/>
      <stop offset=".46" stop-color="#f2f2f2"/>
      <stop offset=".69" stop-color="#fbfbfb"/>
      <stop offset="1" stop-color="#fff"/>
    </linearGradient>
    <clipPath id="clippath-4">
      <polygon points="156.52 128.14 156.42 165.37 189.02 146.43 189.12 109.2 156.52 128.14" fill="none" stroke-width="0"/>
    </clipPath>
    <clipPath id="clippath-5">
      <rect x="1.23" y="-.36" width="312.13" height="200.14" fill="none" stroke-width="0"/>
    </clipPath>
    <clipPath id="clippath-6">
      <rect x="1.23" y="-.36" width="312.13" height="200.14" fill="none" stroke-width="0"/>
    </clipPath>
  </defs>
  <g clip-path="url(#clippath)">
    <g clip-path="url(#clippath-1)">
      <g opacity=".36">
        <g clip-path="url(#clippath-2)">
          <g clip-path="url(#clippath-3)">
            <rect x="156.52" y="109" width="141.02" height="56.38" fill="url(#linear-gradient)" stroke-width="0"/>
          </g>
        </g>
      </g>
    </g>
    <line x1="262.57" y1="109.38" x2="311.13" y2="109.38" fill="none" stroke="#000" stroke-dasharray="0 0 17.42 4.35" stroke-miterlimit="10" stroke-width=".5"/>
    <line x1="203.44" y1="109.38" x2="252.43" y2="109.38" fill="none" stroke="#000" stroke-dasharray="0 0 17.42 4.35" stroke-miterlimit="10" stroke-width=".5"/>
    <line x1="43.22" y1="109.38" x2="111.6" y2="109.38" fill="none" stroke="#000" stroke-dasharray="0 0 17.42 4.35" stroke-miterlimit="10" stroke-width=".5"/>
    <line x1="3.45" y1="109.38" x2="38.27" y2="109.38" fill="none" stroke="#000" stroke-dasharray="0 0 17.42 4.35" stroke-miterlimit="10" stroke-width=".5"/>
    <polygon points="189.12 109.2 156.52 128.14 123.71 109.2 156.31 90.25 189.12 109.2" fill="#fbef00" stroke-width="0"/>
    <path d="M138.43,109.2l17.93-10.42,18.04,10.42-17.93,10.42-18.04-10.42ZM123.71,109.2l32.81,18.94,32.6-18.94-32.81-18.94-32.6,18.94Z" fill="#fbef00" stroke-width="0"/>
    <polygon points="138.43 109.2 156.48 119.61 156.36 98.78 138.43 109.2" stroke-width="0"/>
    <polygon points="156.48 119.61 174.4 109.2 156.36 98.78 156.48 119.61" fill="#2b2b2b" stroke-width="0"/>
    <polygon points="189.12 109.2 189.02 146.43 156.42 165.37 156.52 128.14 189.12 109.2" fill="#fbef00" stroke-width="0"/>
    <g clip-path="url(#clippath-4)">
      <path d="M172.8,126.08c5.41-3.15,9.79-.68,9.77,5.5-.02,6.18-4.42,13.75-9.84,16.9-5.42,3.15-9.79.68-9.77-5.5.02-6.19,4.42-13.75,9.84-16.9M156.37,165.45l32.69-19,.11-37.33-32.69,19-.11,37.33" fill="#ddcd00" stroke-width="0"/>
      <path d="M178.02,124.77c.11.61.17,1.26.16,1.97-.02,6.18-4.42,13.75-9.84,16.9-1.92,1.12-3.71,1.52-5.22,1.31.83,4.7,4.81,6.32,9.61,3.53,5.41-3.15,9.82-10.71,9.84-16.9.01-3.99-1.81-6.43-4.56-6.81" fill="#2b2b2b" stroke-width="0"/>
      <path d="M168.35,143.64c5.41-3.15,9.82-10.71,9.84-16.9,0-.71-.06-1.36-.16-1.97-1.51-.21-3.3.2-5.22,1.31-5.42,3.15-9.82,10.71-9.84,16.9,0,.71.06,1.36.16,1.97,1.51.21,3.3-.2,5.22-1.31" stroke-width="0"/>
    </g>
    <polygon points="156.52 128.14 156.42 165.37 123.61 146.43 123.71 109.2 156.52 128.14" fill="#efdd00" stroke-width="0"/>
    <polygon points="140.04 148.69 143.2 144.25 136.8 127.72 130.52 124.1 140.04 148.69" fill="#2b2b2b" stroke-width="0"/>
    <polygon points="143.2 144.25 149.67 135.16 136.8 127.72 143.2 144.25" stroke-width="0"/>
    <g clip-path="url(#clippath-5)">
      <path d="M185.52,129c-1.79-1.04-4.27-.89-7,.69-5.44,3.14-9.83,10.75-9.81,16.99,0,3.1,1.1,5.29,2.87,6.31l9.24,5.37c-1.77-1.03-2.86-3.21-2.87-6.31-.02-6.25,4.37-13.85,9.81-16.99,2.74-1.58,5.21-1.73,7-.69l-9.24-5.37Z" fill="#fbef00" stroke-width="0"/>
      <path d="M187.75,135.05c5.44-3.14,9.86-.62,9.87,5.63.02,6.25-4.38,13.85-9.81,16.99-5.44,3.14-9.86.62-9.87-5.63-.02-6.25,4.37-13.85,9.81-16.99" fill="#ddcd00" stroke-width="0"/>
      <path d="M211.02,154.54c-1.79-1.04-4.27-.89-7,.69-5.44,3.14-9.83,10.75-9.81,16.99,0,3.1,1.1,5.29,2.87,6.31l9.24,5.37c-1.77-1.03-2.86-3.21-2.87-6.31-.02-6.25,4.37-13.85,9.81-16.99,2.74-1.58,5.21-1.73,7-.69l-9.24-5.37Z" fill="#d8d8d8" stroke-width="0"/>
      <path d="M213.26,160.59c5.44-3.14,9.86-.62,9.87,5.63.02,6.25-4.38,13.85-9.81,16.99-5.44,3.14-9.86.62-9.87-5.63-.02-6.25,4.37-13.85,9.81-16.99" fill="#bbb" stroke-width="0"/>
      <path d="M247.07,130.24c-1.79-1.04-4.27-.89-7,.69-5.44,3.14-9.83,10.75-9.81,16.99,0,3.1,1.1,5.29,2.87,6.31l9.24,5.37c-1.77-1.03-2.86-3.21-2.87-6.31-.02-6.25,4.37-13.85,9.81-16.99,2.74-1.58,5.21-1.73,7-.69l-9.24-5.37Z" fill="#2b2b2b" stroke-width="0"/>
      <path d="M249.31,136.29c5.44-3.14,9.86-.62,9.87,5.63.02,6.25-4.38,13.85-9.81,16.99-5.44,3.14-9.86.62-9.87-5.63-.02-6.25,4.37-13.85,9.81-16.99" fill="#0e0e0e" stroke-width="0"/>
    </g>
    <polygon points="103.33 136.4 122.48 147.46 112.85 160.98 103.33 136.4" fill="#efdd00" stroke-width="0"/>
    <polygon points="103.33 136.4 121.8 125.66 140.95 136.72 122.48 147.46 103.33 136.4" fill="#fbef00" stroke-width="0"/>
    <polygon points="122.48 147.46 140.95 136.72 131.32 150.25 112.85 160.98 122.48 147.46" fill="#ddcd00" stroke-width="0"/>
    <polygon points="75.53 166.76 94.68 177.82 85.05 191.35 75.53 166.76" fill="#cacaca" stroke-width="0"/>
    <polygon points="75.53 166.76 94 156.03 113.16 167.09 94.68 177.82 75.53 166.76" fill="#d8d8d8" stroke-width="0"/>
    <polygon points="94.68 177.82 113.16 167.09 103.52 180.62 85.05 191.35 94.68 177.82" fill="#bbb" stroke-width="0"/>
    <polygon points="53.19 134.39 72.34 145.45 62.71 158.97 53.19 134.39" fill="#1d1d1d" stroke-width="0"/>
    <polygon points="53.19 134.39 71.66 123.65 90.82 134.71 72.34 145.45 53.19 134.39" fill="#2b2b2b" stroke-width="0"/>
    <polygon points="72.34 145.45 90.82 134.71 81.19 148.24 62.71 158.97 72.34 145.45" fill="#0e0e0e" stroke-width="0"/>
    <polygon points="174.63 77.6 156.7 88.02 138.66 77.6 156.58 67.18 174.63 77.6" fill="#fbef00" stroke-width="0"/>
    <polygon points="174.63 77.6 174.57 98.96 156.64 109.38 156.7 88.02 174.63 77.6" fill="#ddcd00" stroke-width="0"/>
    <polygon points="156.7 88.02 156.64 109.38 138.6 98.96 138.66 77.6 156.7 88.02" fill="#efdd00" stroke-width="0"/>
    <polygon points="132.39 47.38 114.46 57.8 96.41 47.38 114.34 36.96 132.39 47.38" fill="#d8d8d8" stroke-width="0"/>
    <polygon points="132.39 47.38 132.32 68.74 114.4 79.16 114.46 57.8 132.39 47.38" fill="#bbb" stroke-width="0"/>
    <polygon points="114.46 57.8 114.4 79.16 96.35 68.74 96.41 47.38 114.46 57.8" fill="#cacaca" stroke-width="0"/>
    <polygon points="211.83 35.57 193.9 45.99 175.86 35.57 193.78 25.15 211.83 35.57" fill="#2b2b2b" stroke-width="0"/>
    <polygon points="211.83 35.57 211.77 56.94 193.84 67.35 193.9 45.99 211.83 35.57" fill="#0e0e0e" stroke-width="0"/>
    <polygon points="193.9 45.99 193.84 67.35 175.8 56.93 175.86 35.57 193.9 45.99" fill="#1d1d1d" stroke-width="0"/>
    <line x1="204.41" y1="45.66" x2="221.17" y2="55.34" fill="none" stroke="#b3b3b3" stroke-dasharray="0 0 17.42 4.35" stroke-miterlimit="10" stroke-width=".5"/>
    <line x1="201.65" y1="58.55" x2="218.04" y2="67.85" fill="none" stroke="#b3b3b3" stroke-dasharray="0 0 17.42 4.35" stroke-miterlimit="10" stroke-width=".5"/>
    <line x1="105.41" y1="50.2" x2="105.41" y2="5.71" fill="none" stroke="#b3b3b3" stroke-dasharray="0 0 17.42 4.35" stroke-miterlimit="10" stroke-width=".5"/>
    <line x1="118.37" y1="44.19" x2="118.37" y2="23.37" fill="none" stroke="#b3b3b3" stroke-dasharray="0 0 17.42 4.35" stroke-miterlimit="10" stroke-width=".5"/>
    <line x1="73.83" y1="139.22" x2="49.8" y2="153.1" fill="none" stroke="#b3b3b3" stroke-dasharray="0 0 17.42 4.35" stroke-miterlimit="10" stroke-width=".5"/>
    <line x1="53.19" y1="134.39" x2="33.78" y2="145.45" fill="none" stroke="#b3b3b3" stroke-dasharray="0 0 17.42 4.35" stroke-miterlimit="10" stroke-width=".5"/>
    <line x1="213.29" y1="168.17" x2="238.54" y2="182.94" fill="none" stroke="#b3b3b3" stroke-dasharray="0 0 17.42 4.35" stroke-miterlimit="10" stroke-width=".5"/>
    <line x1="206.49" y1="182.65" x2="231.8" y2="197.55" fill="none" stroke="#b3b3b3" stroke-dasharray="0 0 17.42 4.35" stroke-miterlimit="10" stroke-width=".5"/>
    <line x1="243.93" y1="134.66" x2="260.93" y2="124.84" fill="none" stroke="#b3b3b3" stroke-dasharray="0 0 17.42 4.35" stroke-miterlimit="10" stroke-width=".5"/>
    <g clip-path="url(#clippath-6)">
      <path d="M114.64,10.33c12.86-5.45,26.99-8.46,41.83-8.46,56.85,0,103.37,44.23,107.03,100.15" fill="none" stroke="#b3b3b3" stroke-dasharray="0 0 17.42 4.35" stroke-miterlimit="10" stroke-width=".5"/>
      <path d="M49.32,104.32c1.52-34.47,19.31-64.71,45.88-83.24" fill="none" stroke="#b3b3b3" stroke-dasharray="0 0 17.42 4.35" stroke-miterlimit="10" stroke-width=".5"/>
    </g>
    <line x1="99.1" y1="169.06" x2="115.12" y2="178.31" fill="none" stroke="#b3b3b3" stroke-dasharray="0 0 17.42 4.35" stroke-miterlimit="10" stroke-width=".5"/>
  </g>
</svg>