<?xml version="1.0" encoding="UTF-8"?>
<svg id="_export_" xmlns="http://www.w3.org/2000/svg" viewBox="0 0 316 300">
  <g>
    <g>
      <path d="M233.44,27.17l32.44,18.72c-.86-.5-2.06-.43-3.38.33-2.64,1.53-4.78,5.23-4.78,8.28v97.28c0,7.05-4.95,15.62-11.05,19.14-4.4,2.54-8.79,5.08-13.19,7.62-10.81-6.25-21.62-12.49-32.44-18.73,4.4-2.54,8.79-5.08,13.19-7.62,6.1-3.52,11.05-12.09,11.05-19.14V35.77c0-3.05,2.14-6.75,4.78-8.27,1.32-.76,2.51-.83,3.38-.33Z" fill="#fbef00" stroke-width="0"/>
      <path d="M236.47,234.47c0,1.53-.54,2.59-1.4,3.09l-32.44,18.72c.86-.5,1.4-1.57,1.4-3.09,0-2.42-1.35-5.26-3.23-7.09,10.81-6.24,21.62-12.48,32.43-18.72,1.88,1.82,3.24,4.66,3.24,7.09Z" fill="#dbdbdb" stroke-width="0"/>
      <path d="M233.49,178.55c-10.81,6.24-21.63,12.48-32.44,18.72-10.81-6.24-21.63-12.48-32.44-18.73,10.81-6.24,21.63-12.48,32.44-18.72,10.82,6.24,21.63,12.48,32.44,18.73Z" fill="#fbef00" stroke-width="0"/>
      <path d="M233.23,227.39c-10.81,6.25-21.62,12.48-32.43,18.72-.49-.47-1.01-.87-1.54-1.19-10.21-5.89-20.42-11.79-30.63-17.69,10.81-6.25,21.62-12.49,32.43-18.73,10.21,5.9,20.43,11.79,30.64,17.69.54.31,1.06.71,1.54,1.19Z" fill="#dbdbdb" stroke-width="0"/>
      <path d="M191.28,54.5l32.44,18.73c-.86-.5-2.06-.43-3.38.33-2.64,1.52-4.78,5.23-4.78,8.27v45.6c0,7.05-4.95,15.62-11.05,19.14-4.4,2.54-8.79,5.08-13.19,7.62-10.81-6.25-21.63-12.49-32.44-18.73,4.4-2.54,8.79-5.08,13.19-7.62,6.1-3.52,11.05-12.1,11.05-19.14v-45.6c0-3.05,2.14-6.75,4.78-8.27,1.32-.76,2.51-.83,3.38-.33Z" fill="#dbdbdb" stroke-width="0"/>
      <path d="M201.05,208.51c-10.81,6.24-21.62,12.48-32.43,18.73-3.25-1.87-6.49-3.74-9.74-5.62,10.81-6.24,21.63-12.48,32.44-18.72l9.73,5.62Z" fill="#dbdbdb" stroke-width="0"/>
      <path d="M201.05,197.27c-3.24,1.87-6.49,3.74-9.73,5.62-10.82-6.25-21.63-12.48-32.44-18.73,3.24-1.87,6.49-3.74,9.73-5.62,10.81,6.25,21.63,12.49,32.44,18.73Z" fill="#fbef00" stroke-width="0"/>
      <path d="M199.17,261.63c0,1.52-.54,2.59-1.4,3.09l-32.44,18.73c.86-.5,1.4-1.57,1.4-3.09,0-3.05-2.14-6.75-4.78-8.27-1.02-.59-2.04-1.18-3.06-1.77,10.81-6.24,21.62-12.48,32.43-18.72,1.03.59,2.04,1.18,3.07,1.77,2.64,1.52,4.78,5.23,4.78,8.27Z" fill="#fbef00" stroke-width="0"/>
      <path d="M158.88,135.47c10.81,6.24,21.63,12.48,32.44,18.73-10.82,6.24-21.63,12.48-32.44,18.72-10.81-6.24-21.63-12.48-32.44-18.72,10.81-6.25,21.63-12.49,32.44-18.73Z" fill="#fff" stroke-width="0"/>
      <path d="M191.32,202.89c-10.81,6.24-21.63,12.48-32.44,18.72-10.82-6.24-21.63-12.48-32.44-18.72,10.81-6.25,21.63-12.48,32.44-18.73,10.81,6.25,21.62,12.48,32.44,18.73Z" fill="#fbef00" stroke-width="0"/>
      <path d="M191.31,251.58c-10.81,6.25-21.62,12.48-32.43,18.72-10.81-6.24-21.63-12.48-32.44-18.72,10.82-6.25,21.63-12.48,32.44-18.72,10.81,6.24,21.62,12.48,32.43,18.72Z" fill="#fff" stroke-width="0"/>
      <path d="M158.88,221.62c-3.24,1.87-6.49,3.75-9.74,5.62-10.81-6.25-21.62-12.48-32.44-18.73,3.24-1.87,6.49-3.74,9.74-5.62,10.81,6.24,21.62,12.48,32.44,18.72Z" fill="#fbef00" stroke-width="0"/>
      <path d="M158.88,172.92c-3.24,1.87-6.49,3.74-9.73,5.62-10.82-6.25-21.63-12.49-32.44-18.73,3.24-1.87,6.49-3.74,9.73-5.62,10.81,6.24,21.63,12.48,32.44,18.72Z" fill="#dbdbdb" stroke-width="0"/>
      <path d="M158.88,184.16c-10.81,6.25-21.63,12.48-32.44,18.73-3.24-1.87-6.49-3.74-9.73-5.62,10.81-6.24,21.62-12.48,32.44-18.72,3.24,1.87,6.49,3.74,9.73,5.62Z" fill="#dbdbdb" stroke-width="0"/>
      <path d="M158.88,232.86c-10.81,6.24-21.62,12.48-32.44,18.72l-9.73-5.62c10.81-6.25,21.62-12.49,32.43-18.73,3.25,1.87,6.49,3.74,9.74,5.62Z" fill="#fbef00" stroke-width="0"/>
      <path d="M116.71,159.82c10.81,6.24,21.62,12.48,32.44,18.73-10.82,6.24-21.63,12.48-32.44,18.72-10.82-6.24-21.63-12.48-32.44-18.72,10.81-6.25,21.63-12.48,32.44-18.73Z" fill="#dbdbdb" stroke-width="0"/>
      <path d="M149.15,227.24c-10.81,6.24-21.62,12.48-32.43,18.73-10.81-6.25-21.63-12.48-32.44-18.73,10.81-6.25,21.62-12.48,32.43-18.73,10.82,6.25,21.63,12.48,32.44,18.73Z" fill="#fbef00" stroke-width="0"/>
      <path d="M103.52,152.2c4.4,2.54,8.79,5.08,13.19,7.62-10.81,6.25-21.63,12.48-32.44,18.73-4.4-2.54-8.79-5.08-13.19-7.62-6.1-3.52-11.05-12.1-11.05-19.14v-45.6c0-3.05-2.14-6.75-4.78-8.27h0c-1.32-.76-2.51-.83-3.37-.33l32.44-18.73c.86-.5,2.06-.43,3.37.33,2.64,1.53,4.78,5.23,4.78,8.27v45.61c0,7.05,4.95,15.62,11.06,19.14Z" fill="#dbdbdb" stroke-width="0"/>
      <path d="M84.28,227.24c10.81,6.25,21.63,12.48,32.44,18.73-6.97,4.02-13.94,8.04-20.91,12.07-2.64,1.52-4.78,5.23-4.78,8.27,0,1.52.53,2.59,1.4,3.09l-32.44-18.72c-.86-.5-1.4-1.57-1.4-3.09,0-3.05,2.14-6.75,4.78-8.27,2.73-1.58,5.47-3.16,8.2-4.73l12.71-7.34Z" fill="#fbef00" stroke-width="0"/>
      <path d="M116.71,197.27c-3.25,1.88-6.49,3.75-9.74,5.62-10.81-6.25-21.62-12.48-32.44-18.72,3.24-1.88,6.49-3.75,9.74-5.62,10.81,6.24,21.62,12.48,32.44,18.72Z" fill="#dbdbdb" stroke-width="0"/>
      <path d="M116.71,208.51c-10.81,6.25-21.62,12.48-32.43,18.73-3.24-1.87-6.49-3.74-9.73-5.62,10.81-6.24,21.62-12.48,32.43-18.72l9.73,5.62Z" fill="#fbef00" stroke-width="0"/>
      <path d="M106.98,202.89c-10.81,6.24-21.62,12.48-32.43,18.72-10.81-6.24-21.63-12.48-32.44-18.72,10.81-6.24,21.62-12.48,32.43-18.72,10.82,6.24,21.63,12.48,32.44,18.72Z" fill="#fbef00" stroke-width="0"/>
      <path d="M74.55,221.62c-1.03.59-2.04,1.18-3.07,1.77-2.64,1.53-4.78,5.23-4.78,8.27,0,1.53.53,2.59,1.4,3.09l-32.44-18.73c-.86-.5-1.4-1.57-1.4-3.09,0-3.05,2.14-6.75,4.78-8.27,1.03-.59,2.04-1.18,3.07-1.77,10.81,6.25,21.63,12.48,32.44,18.72Z" fill="#dbdbdb" stroke-width="0"/>
      <path d="M13.08,82.93c-1.32-.77-2.51-.83-3.37-.34l32.43-18.72c.86-.5,2.06-.43,3.38.33,2.64,1.52,4.78,5.23,4.78,8.27v84.93c0,7.05,4.95,15.62,11.05,19.14,4.4,2.54,8.79,5.08,13.19,7.62-10.81,6.24-21.62,12.48-32.43,18.72-4.4-2.54-8.79-5.08-13.19-7.62-6.11-3.52-11.06-12.1-11.06-19.14v-84.93c0-3.05-2.14-6.75-4.78-8.27h0Z" fill="#fbef00" stroke-width="0"/>
    </g>
    <g>
      <line x1="99.28" y1="45.35" x2="94.5" y2="48.11" fill="none" stroke="#000" stroke-miterlimit="10" stroke-width=".5"/>
      <path d="M262.87,240.07c-.86.5-2.06.43-3.37-.33" fill="none" stroke="#000" stroke-miterlimit="10" stroke-width=".5"/>
      <line x1="95.9" y1="45.02" x2="128.34" y2="26.29" fill="none" stroke="#000" stroke-miterlimit="10" stroke-width=".5"/>
      <line x1="295.31" y1="221.34" x2="262.87" y2="240.07" fill="none" stroke="#000" stroke-miterlimit="10" stroke-width=".5"/>
      <path d="M204.48,255.05c-.86.5-2.06.43-3.38-.33" fill="none" stroke="#000" stroke-miterlimit="10" stroke-width=".5"/>
      <line x1="259.49" y1="239.74" x2="264.27" y2="236.98" fill="none" stroke="#000" stroke-miterlimit="10" stroke-width=".5"/>
      <path d="M94.5,48.11c0-1.53.54-2.59,1.4-3.09" fill="none" stroke="#000" stroke-miterlimit="10" stroke-width=".5"/>
      <line x1="53.73" y1="96.34" x2="86.17" y2="77.61" fill="none" stroke="#000" stroke-miterlimit="10" stroke-width=".5"/>
      <line x1="236.92" y1="236.33" x2="204.48" y2="255.05" fill="none" stroke="#000" stroke-miterlimit="10" stroke-width=".5"/>
      <line x1="264.36" y1="44.99" x2="269.13" y2="47.75" fill="none" stroke="#000" stroke-miterlimit="10" stroke-width=".5"/>
      <line x1="199.62" y1="263.48" x2="167.18" y2="282.21" fill="none" stroke="#000" stroke-miterlimit="10" stroke-width=".5"/>
      <path d="M94.28,268.16c.86.5,2.06.43,3.38-.33" fill="none" stroke="#000" stroke-miterlimit="10" stroke-width=".5"/>
      <line x1="201.11" y1="254.72" x2="205.88" y2="251.97" fill="none" stroke="#000" stroke-miterlimit="10" stroke-width=".5"/>
      <line x1="94.28" y1="268.16" x2="61.84" y2="249.44" fill="none" stroke="#000" stroke-miterlimit="10" stroke-width=".5"/>
      <line x1="235.3" y1="25.93" x2="267.74" y2="44.65" fill="none" stroke="#000" stroke-miterlimit="10" stroke-width=".5"/>
      <path d="M52.33,99.43c0-1.52.54-2.59,1.4-3.09" fill="none" stroke="#000" stroke-miterlimit="10" stroke-width=".5"/>
      <line x1="97.66" y1="267.83" x2="92.88" y2="265.07" fill="none" stroke="#000" stroke-miterlimit="10" stroke-width=".5"/>
      <path d="M269.13,47.75c0-1.53-.53-2.59-1.4-3.09" fill="none" stroke="#000" stroke-miterlimit="10" stroke-width=".5"/>
      <path d="M183.27,218.61c6.54-3.78,13.09-7.56,19.63-11.34,3.25-1.87,6.49-3.74,9.74-5.62,10.81-6.25,21.62-12.48,32.43-18.72,4.4-2.54,8.79-5.08,13.19-7.62,6.1-3.53,11.05-12.1,11.05-19.14v-39.99c0-3.05,2.14-6.75,4.78-8.27,1.32-.76,2.51-.83,3.37-.33" fill="none" stroke="#000" stroke-miterlimit="10" stroke-width=".5"/>
      <path d="M121.85,263.48c-.86-.49-1.4-1.57-1.4-3.09,0-3.05,2.14-6.75,4.78-8.27,1.03-.59,2.04-1.18,3.07-1.77,10.82-6.25,21.63-12.48,32.44-18.72,3.25-1.88,6.49-3.76,9.74-5.62" fill="none" stroke="#000" stroke-miterlimit="10" stroke-width=".5"/>
      <line x1="222.19" y1="72.33" x2="226.96" y2="75.08" fill="none" stroke="#000" stroke-miterlimit="10" stroke-width=".5"/>
      <path d="M69.95,233.52c.86.5,2.06.43,3.38-.33" fill="none" stroke="#000" stroke-miterlimit="10" stroke-width=".5"/>
      <line x1="163.8" y1="281.88" x2="168.58" y2="279.12" fill="none" stroke="#000" stroke-miterlimit="10" stroke-width=".5"/>
      <line x1="69.95" y1="233.52" x2="37.51" y2="214.79" fill="none" stroke="#000" stroke-miterlimit="10" stroke-width=".5"/>
      <line x1="193.13" y1="53.27" x2="225.57" y2="72" fill="none" stroke="#000" stroke-miterlimit="10" stroke-width=".5"/>
      <polyline points="14.94 81.69 14.93 81.69 10.16 84.45" fill="none" stroke="#000" stroke-miterlimit="10" stroke-width=".5"/>
      <path d="M300.98,180.02c-1.62,5.67-5.61,11.32-10.28,14.02-4.4,2.54-8.8,5.08-13.2,7.62-10.81,6.25-21.62,12.48-32.43,18.72-3.33,1.93-6.66,3.85-9.99,5.77-10.81,6.25-21.62,12.48-32.43,18.72-3.16,1.83-6.32,3.65-9.48,5.47-10.81,6.25-21.62,12.48-32.43,18.72-1.03.59-2.04,1.18-3.07,1.77-2.64,1.53-4.78,5.23-4.78,8.27,0,1.53.54,2.59,1.4,3.09" fill="none" stroke="#000" stroke-miterlimit="10" stroke-width=".5"/>
      <path d="M309.9,126.3c-.86-.5-2.06-.43-3.38.33-2.64,1.53-4.78,5.23-4.78,8.28v11.27" fill="none" stroke="#000" stroke-miterlimit="10" stroke-width=".5"/>
      <path d="M143.29,161.62c5.82,3.36,11.63,6.71,17.45,10.07l9.73,5.62c10.81,6.25,21.63,12.49,32.44,18.73,3.24,1.87,6.49,3.75,9.74,5.62,10.81,6.24,21.62,12.48,32.43,18.72,4.81,2.77,9.62,5.55,14.42,8.33,2.64,1.53,4.78,5.23,4.78,8.27,0,1.53-.54,2.59-1.4,3.09" fill="none" stroke="#000" stroke-miterlimit="10" stroke-width=".5"/>
      <path d="M95.9,45.02c.86-.5,2.06-.43,3.38.33,2.64,1.53,4.78,5.23,4.78,8.28v72.57c0,4.92,2.41,10.58,5.94,14.75" fill="none" stroke="#000" stroke-miterlimit="10" stroke-width=".5"/>
      <path d="M136.49,77.72c0-13.38,0-25.89,0-42.82,0-3.05-2.14-6.75-4.78-8.27-1.32-.77-2.51-.83-3.37-.33" fill="none" stroke="#000" stroke-miterlimit="10" stroke-width=".5"/>
      <path d="M224.58,171.09c-7.22-4.17-14.45-8.34-21.67-12.51-3.24-1.87-6.49-3.74-9.73-5.62-10.81-6.25-21.63-12.49-32.44-18.73-4.4-2.54-8.79-5.08-13.19-7.62-6.1-3.52-11.05-12.1-11.05-19.14v-11.45" fill="none" stroke="#000" stroke-miterlimit="10" stroke-width=".5"/>
      <path d="M295.31,221.34c.86-.5,1.4-1.57,1.4-3.09,0-3.05-2.14-6.75-4.78-8.27-3.41-1.97-6.81-3.93-10.22-5.9" fill="none" stroke="#000" stroke-miterlimit="10" stroke-width=".5"/>
      <path d="M61.84,249.44c-.86-.5-1.4-1.57-1.4-3.09,0-3.05,2.14-6.75,4.78-8.27,2.73-1.58,5.47-3.16,8.2-4.73,4.24-2.45,8.48-4.89,12.71-7.34,10.81-6.25,21.62-12.48,32.43-18.73,3.24-1.87,6.49-3.74,9.74-5.62,10.81-6.25,21.63-12.48,32.44-18.73,3.24-1.87,6.49-3.74,9.73-5.62,10.81-6.24,21.63-12.48,32.44-18.72,4.4-2.54,8.79-5.08,13.19-7.62,6.1-3.52,11.05-12.09,11.05-19.14V34.54c0-3.05,2.14-6.75,4.78-8.27,1.32-.76,2.51-.83,3.38-.33" fill="none" stroke="#000" stroke-miterlimit="10" stroke-width=".5"/>
      <path d="M110.41,249.44c-4.25,2.45-8.5,4.91-12.75,7.36-2.64,1.52-4.78,5.23-4.78,8.27,0,1.52.53,2.59,1.4,3.09" fill="none" stroke="#000" stroke-miterlimit="10" stroke-width=".5"/>
      <path d="M229.07,180.93c-8.72,5.04-17.45,10.07-26.17,15.11-3.24,1.87-6.49,3.74-9.73,5.62-10.81,6.24-21.63,12.48-32.44,18.72-3.24,1.87-6.49,3.75-9.74,5.62-10.81,6.24-21.62,12.48-32.43,18.73" fill="none" stroke="#000" stroke-miterlimit="10" stroke-width=".5"/>
      <path d="M259.58,107.26v43.29c0,7.05-4.95,15.62-11.05,19.14-2.46,1.42-4.92,2.84-7.39,4.27" fill="none" stroke="#000" stroke-miterlimit="10" stroke-width=".5"/>
      <path d="M267.74,44.65c-.86-.5-2.06-.43-3.38.33-2.64,1.53-4.78,5.23-4.78,8.28" fill="none" stroke="#000" stroke-miterlimit="10" stroke-width=".5"/>
      <path d="M184.98,73.14v-11.27c0-3.05,2.14-6.75,4.78-8.27,1.32-.76,2.51-.83,3.38-.33" fill="none" stroke="#000" stroke-miterlimit="10" stroke-width=".5"/>
      <path d="M122.15,156.51l6.15-3.55c10.81-6.25,21.63-12.49,32.44-18.73,4.4-2.54,8.79-5.08,13.19-7.62,3.53-2.04,6.67-5.76,8.7-9.91" fill="none" stroke="#000" stroke-miterlimit="10" stroke-width=".5"/>
      <path d="M37.51,214.79c-.86-.5-1.4-1.57-1.4-3.09,0-3.05,2.14-6.75,4.78-8.27,1.03-.59,2.04-1.18,3.07-1.77,10.81-6.24,21.62-12.48,32.43-18.72,3.24-1.88,6.49-3.75,9.74-5.62,9.06-5.23,18.12-10.46,27.18-15.69" fill="none" stroke="#000" stroke-miterlimit="10" stroke-width=".5"/>
      <path d="M225.57,72c-.86-.5-2.06-.43-3.38.33-2.64,1.52-4.78,5.23-4.78,8.27v45.6c0,7.05-4.95,15.62-11.05,19.14-4.4,2.54-8.79,5.08-13.19,7.62-10.82,6.24-21.63,12.48-32.44,18.72-3.24,1.87-6.49,3.74-9.73,5.62-10.82,6.24-21.63,12.48-32.44,18.72-3.25,1.88-6.49,3.75-9.74,5.62-10.81,6.24-21.62,12.48-32.43,18.72-1.03.59-2.04,1.18-3.07,1.77-2.64,1.53-4.78,5.23-4.78,8.27,0,1.53.53,2.59,1.4,3.09" fill="none" stroke="#000" stroke-miterlimit="10" stroke-width=".5"/>
      <path d="M185.63,234.76c5.16,2.98,10.32,5.96,15.48,8.93.54.32,1.06.72,1.54,1.19,1.88,1.83,3.23,4.67,3.23,7.09,0,1.52-.53,2.59-1.4,3.09" fill="none" stroke="#000" stroke-miterlimit="10" stroke-width=".5"/>
      <path d="M57.11,96.68c2.64,1.53,4.78,5.23,4.78,8.27v45.6c0,7.05,4.95,15.62,11.05,19.14,4.4,2.54,8.79,5.08,13.19,7.62,10.81,6.24,21.62,12.48,32.44,18.72,3.24,1.88,6.49,3.75,9.73,5.62,7.34,4.23,14.68,8.47,22.01,12.71" fill="none" stroke="#000" stroke-miterlimit="10" stroke-width=".5"/>
      <path d="M53.73,96.34c.86-.5,2.06-.43,3.37.33" fill="none" stroke="#000" stroke-miterlimit="10" stroke-width=".5"/>
      <path d="M94.32,86.22c0-3.05-2.14-6.75-4.78-8.27-1.32-.76-2.51-.83-3.37-.33" fill="none" stroke="#000" stroke-miterlimit="10" stroke-width=".5"/>
      <path d="M155.7,180.02l-4.7-2.71c-10.82-6.25-21.63-12.49-32.44-18.73-4.4-2.54-8.79-5.08-13.19-7.62-3.89-2.24-7.31-6.54-9.29-11.19" fill="none" stroke="#000" stroke-miterlimit="10" stroke-width=".5"/>
      <path d="M236.92,236.33c.86-.5,1.4-1.57,1.4-3.09,0-2.42-1.35-5.27-3.24-7.09-.48-.48-1-.88-1.54-1.19-10.21-5.9-20.43-11.79-30.64-17.69l-9.73-5.62c-9.27-5.36-18.55-10.71-27.81-16.06" fill="none" stroke="#000" stroke-miterlimit="10" stroke-width=".5"/>
      <path d="M89.82,228.13c9.58,5.53,19.17,11.07,28.75,16.6l9.73,5.62c10.81,6.25,21.63,12.48,32.44,18.72,1.02.59,2.04,1.19,3.06,1.77,2.64,1.53,4.78,5.23,4.78,8.27,0,1.53-.54,2.59-1.4,3.09" fill="none" stroke="#000" stroke-miterlimit="10" stroke-width=".5"/>
      <path d="M21.6,183.12c1.99,4.54,5.35,8.72,9.17,10.92,4.4,2.54,8.79,5.08,13.19,7.62,10.81,6.25,21.63,12.48,32.44,18.72,1.36.78,2.71,1.57,4.07,2.35" fill="none" stroke="#000" stroke-miterlimit="10" stroke-width=".5"/>
      <path d="M11.57,81.36c.86-.49,2.05-.43,3.37.34h0c2.64,1.52,4.78,5.23,4.78,8.27v28.39" fill="none" stroke="#000" stroke-miterlimit="10" stroke-width=".5"/>
      <path d="M199.62,263.48c.86-.49,1.4-1.57,1.4-3.09,0-3.05-2.14-6.75-4.78-8.27-1.03-.59-2.04-1.18-3.07-1.77-10.81-6.24-21.62-12.48-32.43-18.72-3.24-1.88-6.49-3.75-9.74-5.62-10.81-6.25-21.62-12.48-32.44-18.73l-9.73-5.62c-10.81-6.25-21.62-12.48-32.44-18.72-4.4-2.54-8.79-5.08-13.19-7.62-6.1-3.53-11.05-12.1-11.05-19.14v-84.93c0-3.05-2.14-6.75-4.78-8.27-1.32-.76-2.51-.83-3.38-.33" fill="none" stroke="#000" stroke-miterlimit="10" stroke-width=".5"/>
      <line x1="73.33" y1="233.19" x2="68.55" y2="230.42" fill="none" stroke="#000" stroke-miterlimit="10" stroke-width=".5"/>
      <line x1="306.52" y1="126.64" x2="311.31" y2="129.4" fill="none" stroke="#000" stroke-miterlimit="10" stroke-width=".5"/>
      <path d="M154.29,282.21c.86.5,2.06.43,3.38-.33" fill="none" stroke="#000" stroke-miterlimit="10" stroke-width=".5"/>
      <path d="M226.96,75.08c0-1.52-.53-2.59-1.4-3.09" fill="none" stroke="#000" stroke-miterlimit="10" stroke-width=".5"/>
      <line x1="154.29" y1="282.21" x2="121.85" y2="263.48" fill="none" stroke="#000" stroke-miterlimit="10" stroke-width=".5"/>
      <line x1="277.47" y1="107.58" x2="309.9" y2="126.3" fill="none" stroke="#000" stroke-miterlimit="10" stroke-width=".5"/>
      <path d="M10.16,84.45c0-1.53.54-2.59,1.4-3.09" fill="none" stroke="#000" stroke-miterlimit="10" stroke-width=".5"/>
      <line x1="157.66" y1="281.88" x2="152.89" y2="279.12" fill="none" stroke="#000" stroke-miterlimit="10" stroke-width=".5"/>
      <path d="M311.31,129.4c0-1.53-.54-2.59-1.4-3.09" fill="none" stroke="#000" stroke-miterlimit="10" stroke-width=".5"/>
      <path d="M167.18,282.21c-.86.5-2.06.43-3.38-.33" fill="none" stroke="#000" stroke-miterlimit="10" stroke-width=".5"/>
      <polyline points="57.11 96.68 57.11 96.68 52.33 99.43" fill="none" stroke="#000" stroke-miterlimit="10" stroke-width=".5"/>
      <line x1="11.57" y1="81.36" x2="44" y2="62.63" fill="none" stroke="#000" stroke-miterlimit="10" stroke-width=".5"/>
    </g>
  </g>
  <g>
    <polygon points="262.31 100.21 262.31 100.97 235.84 85.69 235.85 84.93 262.31 100.21" stroke-width="0"/>
    <polygon points="259 92.45 258.99 93.2 235.86 79.84 235.86 79.09 259 92.45" stroke-width="0"/>
    <polygon points="263.16 88.99 263.16 89.75 235.88 74 235.88 73.25 263.16 88.99" stroke-width="0"/>
    <polygon points="264.73 84.05 264.73 84.81 235.89 68.16 235.9 67.4 264.73 84.05" stroke-width="0"/>
    <polygon points="264.74 78.21 264.74 78.96 235.91 62.31 235.91 61.56 264.74 78.21" stroke-width="0"/>
    <polygon points="258.33 68.65 258.33 69.4 235.93 56.47 235.93 55.72 258.33 68.65" stroke-width="0"/>
    <polygon points="264.78 66.52 264.78 67.28 235.94 50.63 235.95 49.87 264.78 66.52" stroke-width="0"/>
    <polygon points="248.56 113 248.56 113.75 235.79 106.38 235.79 105.62 248.56 113" stroke-width="0"/>
  </g>
  <g>
    <polygon points="97.01 130.48 97.01 131.24 91.87 134.21 91.87 133.45 97.01 130.48" stroke-width="0"/>
    <polygon points="91.87 133.45 91.87 134.21 70.55 146.51 70.55 145.76 91.87 133.45" stroke-width="0"/>
    <polygon points="93.67 126.56 93.67 127.31 70.54 140.67 70.53 139.92 93.67 126.56" stroke-width="0"/>
    <polygon points="97.8 118.32 97.8 119.08 70.52 134.83 70.52 134.07 97.8 118.32" stroke-width="0"/>
    <polygon points="99.33 111.58 99.33 112.34 70.5 128.98 70.5 128.23 99.33 111.58" stroke-width="0"/>
    <polygon points="99.32 105.74 99.32 106.49 70.49 123.14 70.48 122.39 99.32 105.74" stroke-width="0"/>
    <polygon points="92.87 103.61 92.87 104.36 70.47 117.3 70.47 116.54 92.87 103.61" stroke-width="0"/>
    <polygon points="99.28 94.05 99.29 94.81 70.45 111.45 70.45 110.7 99.28 94.05" stroke-width="0"/>
    <polygon points="83.36 149.94 83.36 150.7 70.59 158.07 70.58 157.31 83.36 149.94" stroke-width="0"/>
  </g>
  <g>
    <g>
      <ellipse cx="127.33" cy="66.1" rx="6.03" ry="3.49" transform="translate(6.2 142.98) rotate(-59.84)" fill="#dbdbdb" stroke-width="0"/>
      <path d="M127.31,60.43c2.72-1.57,4.94-.31,4.95,2.82,0,3.13-2.2,6.95-4.92,8.52s-4.95.3-4.95-2.82,2.2-6.95,4.92-8.52ZM127.34,71.02c2.36-1.36,4.27-4.68,4.27-7.39s-1.93-3.81-4.29-2.45c-2.36,1.36-4.27,4.68-4.27,7.39s1.93,3.81,4.29,2.45" stroke-width="0"/>
    </g>
    <g>
      <polygon points="139.27 80.89 139.29 89.28 131.99 93.49 131.97 85.1 139.27 80.89" fill="#fbef00" stroke-width="0"/>
      <path d="M131.31,84.73l8.62-4.98.03,9.9-8.62,4.98-.03-9.9ZM139.29,89.28l-.02-8.39-7.3,4.22.02,8.39,7.3-4.22" stroke-width="0"/>
    </g>
    <path d="M117.04,78.76l6,8.43-11.93,6.89,5.93-15.32ZM117.04,80.27l-4.8,12.39,9.65-5.57-4.85-6.82" stroke-width="0"/>
  </g>
  <g>
    <polygon points="289.6 134.49 289.57 146.39 279.21 140.41 279.24 128.51 289.6 134.49" stroke-width="0"/>
    <polygon points="289.4 165.2 289.37 176.85 279.23 171 279.26 159.34 289.4 165.2" fill="#fbef00" stroke-width="0"/>
    <path d="M278.61,158.21l11.46,6.62-.04,13.17-11.46-6.62.04-13.17ZM289.37,176.85l.03-11.66-10.14-5.86-.03,11.66,10.14,5.86" stroke-width="0"/>
    <g isolation="isolate">
      <polygon points="286.56 156.34 287.04 157.14 284.34 158.91 281.66 154.03 282.15 153.79 284.02 157.2 284.34 157.8 284.68 157.58 286.56 156.34" stroke-width="0"/>
      <polygon points="284.71 146.83 284.68 157.58 284.34 157.8 284.02 157.2 284.05 146.45 284.71 146.83" stroke-width="0"/>
    </g>
    <path d="M278.8,127.75l11.24,6.49-.04,12.91-11.24-6.49.04-12.91ZM289.57,146.39l.03-11.91-10.36-5.98-.03,11.91,10.36,5.98" stroke-width="0"/>
    <polygon points="296.17 142.11 296.57 142.94 294.45 143.58 293.99 143.72 294.25 144.21 296.14 147.75 295.64 147.96 293.03 143.06 296.17 142.11" stroke-width="0"/>
    <path d="M294.45,143.58c6.7,4.69,11.84,14.19,11.82,22.02-.02,8.41-6,11.82-13.32,7.59v-.76c6.96,4.02,12.64.78,12.66-7.22.02-7.5-4.92-16.59-11.35-21.01l-.26-.49.45-.14Z" stroke-width="0"/>
  </g>
  <g>
    <g isolation="isolate">
      <polygon points="31.95 160.06 31.95 159.56 36.38 157 36.38 157.51 31.95 160.06" stroke-width="0"/>
      <polygon points="36.35 147.14 36.38 157 31.95 159.56 31.92 149.69 36.35 147.14" fill="#fff" stroke-width="0"/>
    </g>
    <polygon points="31.86 128.96 31.86 128.45 36.29 125.9 36.29 126.4 31.86 128.96" stroke-width="0"/>
    <polygon points="36.29 126.4 36.32 136.26 31.89 138.82 31.86 128.96 36.29 126.4" fill="#fff" stroke-width="0"/>
    <polygon points="31.92 149.69 31.92 149.19 36.35 146.63 36.35 147.14 31.92 149.69" stroke-width="0"/>
    <polygon points="31.89 139.33 31.89 138.82 36.32 136.26 36.32 136.77 31.89 139.33" stroke-width="0"/>
    <g isolation="isolate">
      <polygon points="41.25 154.19 41.47 154.07 41.47 154.57 41.25 154.69 36.82 157.25 36.81 156.75 41.25 154.19" stroke-width="0"/>
      <polygon points="41.22 143.82 41.44 143.7 41.44 144.2 41.22 144.33 36.79 146.88 36.79 146.38 41.22 143.82" stroke-width="0"/>
      <polygon points="41.19 133.45 41.41 133.33 41.41 133.83 41.19 133.96 36.76 136.52 36.76 136.01 41.19 133.45" stroke-width="0"/>
      <polygon points="36.7 115.52 36.7 115.77 36.73 125.64 36.73 126.15 36.76 136.01 36.76 136.52 36.79 146.38 36.79 146.88 36.82 156.75 36.82 157.25 36.84 167.12 36.85 167.37 36.41 167.63 36.41 167.37 36.38 157.51 36.38 157 36.35 147.14 36.35 146.63 36.32 136.77 36.32 136.26 36.29 126.4 36.29 125.9 36.26 116.02 36.26 115.77 36.7 115.52" stroke-width="0"/>
    </g>
    <polygon points="41.25 154.69 41.28 164.56 36.84 167.12 36.82 157.25 41.25 154.69" fill="#fff" stroke-width="0"/>
    <polygon points="41.16 123.08 41.38 122.96 41.38 123.46 41.16 123.59 36.73 126.15 36.73 125.64 41.16 123.08" stroke-width="0"/>
    <polygon points="41.13 113.21 41.16 123.08 36.73 125.64 36.7 115.77 41.13 113.21" stroke-width="0"/>
    <polygon points="36.26 116.02 36.29 125.9 31.86 128.45 31.83 118.58 36.26 116.02" stroke-width="0"/>
    <polygon points="21.65 124.46 21.68 134.33 17.25 136.89 17.22 127.02 21.65 124.46" stroke-width="0"/>
    <polygon points="16.78 127.27 16.81 137.14 12.38 139.7 12.35 129.83 16.78 127.27" stroke-width="0"/>
    <polygon points="31.39 118.83 31.42 128.71 26.99 131.26 26.96 121.39 31.39 118.83" stroke-width="0"/>
    <polygon points="21.77 165.94 21.8 175.81 17.36 178.37 17.34 168.5 21.77 165.94" fill="#fff" stroke-width="0"/>
    <g isolation="isolate">
      <polygon points="27.08 162.88 27.08 162.37 31.51 159.81 31.51 160.32 27.08 162.88" stroke-width="0"/>
      <polygon points="22.21 165.69 22.21 165.19 26.64 162.63 26.64 163.13 22.21 165.69" stroke-width="0"/>
      <polygon points="27.05 152.51 27.05 152 31.48 149.44 31.48 149.95 27.05 152.51" stroke-width="0"/>
      <polygon points="17.34 168.5 17.33 168 21.77 165.44 21.77 165.94 17.34 168.5" stroke-width="0"/>
      <polygon points="16.9 168.75 16.93 178.62 12.5 181.18 12.47 171.31 16.9 168.75" fill="#dbdbdb" stroke-width="0"/>
      <polygon points="12.25 170.94 12.47 170.81 16.9 168.25 16.9 168.75 12.47 171.31 12.25 171.44 12.25 170.94" stroke-width="0"/>
      <polygon points="16.87 158.38 16.9 168.25 12.47 170.81 12.44 160.94 16.87 158.38" fill="#dbdbdb" stroke-width="0"/>
      <polygon points="12.22 160.57 12.44 160.44 16.87 157.88 16.87 158.38 12.44 160.94 12.22 161.07 12.22 160.57" stroke-width="0"/>
      <polygon points="31.83 118.33 31.83 118.58 31.86 128.45 31.86 128.96 31.89 138.82 31.89 139.33 31.92 149.19 31.92 149.69 31.95 159.56 31.95 160.06 31.98 169.93 31.98 170.18 31.54 170.44 31.54 170.18 31.51 160.32 31.51 159.81 31.48 149.95 31.48 149.44 31.45 139.58 31.45 139.07 31.42 129.21 31.42 128.71 31.39 118.83 31.39 118.58 31.83 118.33" stroke-width="0"/>
      <polygon points="22.12 134.58 22.12 134.08 26.55 131.52 26.55 132.02 22.12 134.58" stroke-width="0"/>
      <polygon points="16.84 148.01 16.87 157.88 12.44 160.44 12.41 150.57 16.84 148.01" fill="#dbdbdb" stroke-width="0"/>
      <polygon points="12.19 150.2 12.41 150.07 16.84 147.51 16.84 148.01 12.41 150.57 12.19 150.7 12.19 150.2" stroke-width="0"/>
      <polygon points="16.81 137.65 16.84 147.51 12.41 150.07 12.38 140.2 16.81 137.65" fill="#dbdbdb" stroke-width="0"/>
      <polygon points="22.09 123.95 22.09 124.21 22.12 134.08 22.12 134.58 22.15 144.45 22.15 144.95 22.18 154.82 22.18 155.32 22.21 165.19 22.21 165.69 22.24 175.56 22.24 175.81 21.8 176.06 21.8 175.81 21.77 165.94 21.77 165.44 21.74 155.57 21.74 155.07 21.71 145.2 21.71 144.7 21.68 134.83 21.68 134.33 21.65 124.46 21.65 124.21 22.09 123.95" stroke-width="0"/>
      <polygon points="12.16 139.83 12.38 139.7 16.81 137.14 16.81 137.65 12.38 140.2 12.16 140.33 12.16 139.83" stroke-width="0"/>
      <polygon points="17.22 126.76 17.22 127.02 17.25 136.89 17.25 137.39 17.28 147.26 17.28 147.76 17.31 157.63 17.31 158.13 17.33 168 17.34 168.5 17.36 178.37 17.37 178.62 16.93 178.87 16.93 178.62 16.9 168.75 16.9 168.25 16.87 158.38 16.87 157.88 16.84 148.01 16.84 147.51 16.81 137.65 16.81 137.14 16.78 127.27 16.78 127.02 17.22 126.76" stroke-width="0"/>
      <path d="M11.91,129.58l29.66-17.12.15,52.35-29.66,17.12-.15-52.35ZM41.38,123.46v-.5s-.22.13-.22.13l-.03-9.87-4.43,2.56v-.25s-.44.25-.44.25v.25s-4.43,2.56-4.43,2.56v-.25s-.44.25-.44.25v.25s-4.43,2.56-4.43,2.56v-.25s-.44.25-.44.25v.25s-4.43,2.56-4.43,2.56v-.25s-.44.25-.44.25v.25s-4.43,2.56-4.43,2.56v-.25s-.44.25-.44.25v.25s-4.43,2.56-4.43,2.56l.03,9.87-.22.13v.5s.22-.13.22-.13l.03,9.87-.22.13v.5s.22-.13.22-.13l.03,9.87-.22.13v.5s.22-.13.22-.13l.03,9.87-.22.13v.5s.22-.13.22-.13l.03,9.87,4.43-2.56v.25s.44-.25.44-.25v-.25s4.43-2.56,4.43-2.56v.25s.44-.25.44-.25v-.25s4.43-2.56,4.43-2.56v.25s.44-.25.44-.25v-.25s4.43-2.56,4.43-2.56v.25s.44-.25.44-.25v-.25s4.43-2.56,4.43-2.56v.25s.44-.25.44-.25v-.25s4.43-2.56,4.43-2.56l-.03-9.87.22-.13v-.5s-.22.13-.22.13l-.03-9.87.22-.13v-.5s-.22.13-.22.13l-.03-9.87.22-.13v-.5s-.22.13-.22.13l-.03-9.87.22-.13" stroke-width="0"/>
      <polygon points="31.51 160.32 31.54 170.18 27.11 172.74 27.08 162.88 31.51 160.32" fill="#fff" stroke-width="0"/>
      <polygon points="22.18 155.32 22.18 154.82 26.61 152.26 26.61 152.76 22.18 155.32" stroke-width="0"/>
      <polygon points="27.02 142.14 27.02 141.63 31.45 139.07 31.45 139.58 27.02 142.14" stroke-width="0"/>
      <polygon points="17.31 158.13 17.31 157.63 21.74 155.07 21.74 155.57 17.31 158.13" stroke-width="0"/>
      <polygon points="26.58 142.39 26.61 152.26 22.18 154.82 22.15 144.95 26.58 142.39" fill="#fff" stroke-width="0"/>
      <polygon points="22.15 144.95 22.15 144.45 26.58 141.89 26.58 142.39 22.15 144.95" stroke-width="0"/>
      <polygon points="26.99 131.77 26.99 131.26 31.42 128.71 31.42 129.21 26.99 131.77" stroke-width="0"/>
      <polygon points="17.28 147.76 17.28 147.26 21.71 144.7 21.71 145.2 17.28 147.76" stroke-width="0"/>
      <polygon points="21.68 134.83 21.71 144.7 17.28 147.26 17.25 137.39 21.68 134.83" fill="#fff" stroke-width="0"/>
      <polygon points="26.96 121.14 26.96 121.39 26.99 131.26 26.99 131.77 27.02 141.63 27.02 142.14 27.05 152 27.05 152.51 27.08 162.37 27.08 162.88 27.11 172.74 27.11 173 26.67 173.25 26.67 173 26.64 163.13 26.64 162.63 26.61 152.76 26.61 152.26 26.58 142.39 26.58 141.89 26.55 132.02 26.55 131.52 26.52 121.65 26.52 121.39 26.96 121.14" stroke-width="0"/>
      <polygon points="17.25 137.39 17.25 136.89 21.68 134.33 21.68 134.83 17.25 137.39" stroke-width="0"/>
      <polygon points="26.52 121.65 26.55 131.52 22.12 134.08 22.09 124.21 26.52 121.65" stroke-width="0"/>
    </g>
  </g>
  <g>
    <path d="M191.05,84.65c7.88,4.55,14.25,15.58,14.22,24.64,0,1.28-.08,2.1-.32,3.23l-13.95-11.47.05-16.4Z" stroke-width="0"/>
    <path d="M191.05,84.65l-.05,16.4-11.22-16.59c2.78-2.47,6.77-2.4,11.26.19Z" fill="#fff" stroke-width="0"/>
    <path d="M179.79,84.46l11.22,16.59,13.95,11.47c-1.45,6.88-7.38,8.75-13.98,4.94-.98-.57-1.98-1.26-2.98-2.09-7.7-6.33-12.6-17.88-10.93-25.79.47-2.26,1.34-3.88,2.73-5.12Z" fill="#fbef00" stroke-width="0"/>
  </g>
  <g>
    <polygon points="139.73 154.07 118.67 166.31 97.48 154.07 118.53 141.83 139.73 154.07" fill="#2b2b2b" stroke="#fff" stroke-miterlimit="10" stroke-width=".5"/>
    <polygon points="139.73 154.07 139.66 179.17 118.6 191.41 118.67 166.31 139.73 154.07" fill="#0e0e0e" stroke="#fff" stroke-miterlimit="10" stroke-width=".5"/>
    <polygon points="118.67 166.31 118.6 191.41 97.4 179.17 97.48 154.07 118.67 166.31" fill="#1d1d1d" stroke="#fff" stroke-miterlimit="10" stroke-width=".5"/>
  </g>
  <g>
    <polygon points="182 225.81 160.95 238.05 139.75 225.81 160.81 213.57 182 225.81" fill="#fbef00" stroke="#000" stroke-miterlimit="10" stroke-width=".5"/>
    <polygon points="182 225.81 181.93 250.91 160.87 263.15 160.95 238.05 182 225.81" fill="#ddcd00" stroke="#000" stroke-miterlimit="10" stroke-width=".5"/>
    <polygon points="160.95 238.05 160.87 263.15 139.68 250.91 139.75 225.81 160.95 238.05" fill="#efdd00" stroke="#000" stroke-miterlimit="10" stroke-width=".5"/>
  </g>
  <g>
    <polygon points="266.91 176.65 245.85 188.89 224.65 176.65 245.71 164.42 266.91 176.65" fill="#d8d8d8" stroke="#000" stroke-miterlimit="10" stroke-width=".5"/>
    <polygon points="266.91 176.65 266.84 201.75 245.78 213.99 245.85 188.89 266.91 176.65" fill="#bbb" stroke="#000" stroke-miterlimit="10" stroke-width=".5"/>
    <polygon points="245.85 188.89 245.78 213.99 224.58 201.75 224.65 176.65 245.85 188.89" fill="#cacaca" stroke="#000" stroke-miterlimit="10" stroke-width=".5"/>
  </g>
</svg>