<?xml version="1.0" encoding="UTF-8"?>
<svg id="_export_" xmlns="http://www.w3.org/2000/svg" viewBox="0 0 360 279">
  <g>
    <g>
      <path d="M252.97,12.53l32.44,18.72c-.86-.5-2.06-.43-3.38.33-2.64,1.53-4.78,5.23-4.78,8.28v97.28c0,7.05-4.95,15.62-11.05,19.14-4.4,2.54-8.79,5.08-13.19,7.62-10.81-6.25-21.62-12.49-32.44-18.73,4.4-2.54,8.79-5.08,13.19-7.62,6.1-3.52,11.05-12.09,11.05-19.14V21.14c0-3.05,2.14-6.75,4.78-8.27,1.32-.76,2.51-.83,3.38-.33Z" fill="#fbef00" stroke-width="0"/>
      <path d="M255.99,219.84c0,1.53-.54,2.59-1.4,3.09l-32.44,18.72c.86-.5,1.4-1.57,1.4-3.09,0-2.42-1.35-5.26-3.23-7.09,10.81-6.24,21.62-12.48,32.43-18.72,1.88,1.82,3.24,4.66,3.24,7.09Z" fill="#dbdbdb" stroke-width="0"/>
      <path d="M253.02,163.91c-10.81,6.24-21.63,12.48-32.44,18.72-10.81-6.24-21.63-12.48-32.44-18.73,10.81-6.24,21.63-12.48,32.44-18.72,10.82,6.24,21.63,12.48,32.44,18.73Z" fill="#fbef00" stroke-width="0"/>
      <path d="M252.76,212.75c-10.81,6.25-21.62,12.48-32.43,18.72-.49-.47-1.01-.87-1.54-1.19-10.21-5.89-20.42-11.79-30.63-17.69,10.81-6.25,21.62-12.49,32.43-18.73,10.21,5.9,20.43,11.79,30.64,17.69.54.31,1.06.71,1.54,1.19Z" fill="#dbdbdb" stroke-width="0"/>
      <path d="M210.81,39.87l32.44,18.73c-.86-.5-2.06-.43-3.38.33-2.64,1.52-4.78,5.23-4.78,8.27v45.6c0,7.05-4.95,15.62-11.05,19.14-4.4,2.54-8.79,5.08-13.19,7.62-10.81-6.25-21.63-12.49-32.44-18.73,4.4-2.54,8.79-5.08,13.19-7.62,6.1-3.52,11.05-12.1,11.05-19.14v-45.6c0-3.05,2.14-6.75,4.78-8.27,1.32-.76,2.51-.83,3.38-.33Z" fill="#dbdbdb" stroke-width="0"/>
      <path d="M220.58,193.87c-10.81,6.24-21.62,12.48-32.43,18.73-3.25-1.87-6.49-3.74-9.74-5.62,10.81-6.24,21.63-12.48,32.44-18.72,3.24,1.87,6.49,3.74,9.73,5.62Z" fill="#dbdbdb" stroke-width="0"/>
      <path d="M220.58,182.63c-3.24,1.87-6.49,3.74-9.73,5.62-10.82-6.25-21.63-12.48-32.44-18.73,3.24-1.87,6.49-3.74,9.73-5.62,10.81,6.25,21.63,12.49,32.44,18.73Z" fill="#fbef00" stroke-width="0"/>
      <path d="M218.69,246.99c0,1.52-.54,2.59-1.4,3.09l-32.44,18.73c.86-.5,1.4-1.57,1.4-3.09,0-3.05-2.14-6.75-4.78-8.27-1.02-.59-2.04-1.18-3.06-1.77,10.81-6.24,21.62-12.48,32.43-18.72,1.03.59,2.04,1.18,3.07,1.77,2.64,1.52,4.78,5.23,4.78,8.27Z" fill="#fbef00" stroke-width="0"/>
      <path d="M178.41,120.83c10.81,6.24,21.63,12.48,32.44,18.73-10.82,6.24-21.63,12.48-32.44,18.72-10.81-6.24-21.63-12.48-32.44-18.72,10.81-6.25,21.63-12.49,32.44-18.73Z" fill="#fff" stroke-width="0"/>
      <path d="M210.85,188.26c-10.81,6.24-21.63,12.48-32.44,18.72-10.82-6.24-21.63-12.48-32.44-18.72,10.81-6.25,21.63-12.48,32.44-18.73,10.81,6.25,21.62,12.48,32.44,18.73Z" fill="#fbef00" stroke-width="0"/>
      <path d="M210.84,236.95c-10.81,6.25-21.62,12.48-32.43,18.72-10.81-6.24-21.63-12.48-32.44-18.72,10.82-6.25,21.63-12.48,32.44-18.72,10.81,6.24,21.62,12.48,32.43,18.72Z" fill="#fff" stroke-width="0"/>
      <path d="M178.41,206.98c-3.24,1.87-6.49,3.75-9.74,5.62-10.81-6.25-21.62-12.48-32.44-18.73,3.24-1.87,6.49-3.74,9.74-5.62,10.81,6.24,21.62,12.48,32.44,18.72Z" fill="#fbef00" stroke-width="0"/>
      <path d="M178.41,158.29c-3.24,1.87-6.49,3.74-9.73,5.62-10.82-6.25-21.63-12.49-32.44-18.73,3.24-1.87,6.49-3.74,9.73-5.62,10.81,6.24,21.63,12.48,32.44,18.72Z" fill="#dbdbdb" stroke-width="0"/>
      <path d="M178.41,169.53c-10.81,6.25-21.63,12.48-32.44,18.73-3.24-1.87-6.49-3.74-9.73-5.62,10.81-6.24,21.62-12.48,32.44-18.72,3.24,1.87,6.49,3.74,9.73,5.62Z" fill="#dbdbdb" stroke-width="0"/>
      <path d="M178.41,218.22c-10.81,6.24-21.62,12.48-32.44,18.72l-9.73-5.62c10.81-6.25,21.62-12.49,32.43-18.73,3.25,1.87,6.49,3.74,9.74,5.62Z" fill="#fbef00" stroke-width="0"/>
      <path d="M136.24,145.18c10.81,6.24,21.62,12.48,32.44,18.73-10.82,6.24-21.63,12.48-32.44,18.72-10.82-6.24-21.63-12.48-32.44-18.72,10.81-6.25,21.63-12.48,32.44-18.73Z" fill="#dbdbdb" stroke-width="0"/>
      <path d="M168.67,212.6c-10.81,6.24-21.62,12.48-32.43,18.73-10.81-6.25-21.63-12.48-32.44-18.73,10.81-6.25,21.62-12.48,32.43-18.73,10.82,6.25,21.63,12.48,32.44,18.73Z" fill="#fbef00" stroke-width="0"/>
      <path d="M123.05,137.56c4.4,2.54,8.79,5.08,13.19,7.62-10.81,6.25-21.63,12.48-32.44,18.73-4.4-2.54-8.79-5.08-13.19-7.62-6.1-3.52-11.05-12.1-11.05-19.14v-45.6c0-3.05-2.14-6.75-4.78-8.27h0c-1.32-.76-2.51-.83-3.37-.33l32.44-18.73c.86-.5,2.06-.43,3.37.33,2.64,1.53,4.78,5.23,4.78,8.27v45.61c0,7.05,4.95,15.62,11.06,19.14Z" fill="#dbdbdb" stroke-width="0"/>
      <path d="M103.8,212.6c10.81,6.25,21.63,12.48,32.44,18.73-6.97,4.02-13.94,8.04-20.91,12.07-2.64,1.52-4.78,5.23-4.78,8.27,0,1.52.53,2.59,1.4,3.09l-32.44-18.72c-.86-.5-1.4-1.57-1.4-3.09,0-3.05,2.14-6.75,4.78-8.27,2.73-1.58,5.47-3.16,8.2-4.73l12.71-7.34Z" fill="#fbef00" stroke-width="0"/>
      <path d="M136.24,182.63c-3.25,1.88-6.49,3.75-9.74,5.62-10.81-6.25-21.62-12.48-32.44-18.72,3.24-1.88,6.49-3.75,9.74-5.62,10.81,6.24,21.62,12.48,32.44,18.72Z" fill="#dbdbdb" stroke-width="0"/>
      <path d="M136.24,193.87c-10.81,6.25-21.62,12.48-32.43,18.73-3.24-1.87-6.49-3.74-9.73-5.62,10.81-6.24,21.62-12.48,32.43-18.72l9.73,5.62Z" fill="#fbef00" stroke-width="0"/>
      <path d="M126.51,188.26c-10.81,6.24-21.62,12.48-32.43,18.72-10.81-6.24-21.63-12.48-32.44-18.72,10.81-6.24,21.62-12.48,32.43-18.72,10.82,6.24,21.63,12.48,32.44,18.72Z" fill="#fbef00" stroke-width="0"/>
      <path d="M94.08,206.98c-1.03.59-2.04,1.18-3.07,1.77-2.64,1.53-4.78,5.23-4.78,8.27,0,1.53.53,2.59,1.4,3.09l-32.44-18.73c-.86-.5-1.4-1.57-1.4-3.09,0-3.05,2.14-6.75,4.78-8.27,1.03-.59,2.04-1.18,3.07-1.77,10.81,6.25,21.63,12.48,32.44,18.72Z" fill="#dbdbdb" stroke-width="0"/>
      <path d="M32.61,68.3c-1.32-.77-2.51-.83-3.37-.34l32.43-18.72c.86-.5,2.06-.43,3.38.33,2.64,1.52,4.78,5.23,4.78,8.27v84.93c0,7.05,4.95,15.62,11.05,19.14,4.4,2.54,8.79,5.08,13.19,7.62-10.81,6.24-21.62,12.48-32.43,18.72-4.4-2.54-8.79-5.08-13.19-7.62-6.11-3.52-11.06-12.1-11.06-19.14v-84.93c0-3.05-2.14-6.75-4.78-8.27h0Z" fill="#fbef00" stroke-width="0"/>
    </g>
    <g>
      <line x1="118.81" y1="30.72" x2="114.03" y2="33.48" fill="none" stroke="#000" stroke-miterlimit="10" stroke-width=".5"/>
      <path d="M282.4,225.44c-.86.5-2.06.43-3.37-.33" fill="none" stroke="#000" stroke-miterlimit="10" stroke-width=".5"/>
      <line x1="115.43" y1="30.38" x2="147.87" y2="11.66" fill="none" stroke="#000" stroke-miterlimit="10" stroke-width=".5"/>
      <line x1="314.83" y1="206.71" x2="282.4" y2="225.44" fill="none" stroke="#000" stroke-miterlimit="10" stroke-width=".5"/>
      <path d="M224.01,240.42c-.86.5-2.06.43-3.38-.33" fill="none" stroke="#000" stroke-miterlimit="10" stroke-width=".5"/>
      <line x1="279.02" y1="225.11" x2="283.8" y2="222.34" fill="none" stroke="#000" stroke-miterlimit="10" stroke-width=".5"/>
      <path d="M114.03,33.48c0-1.53.54-2.59,1.4-3.09" fill="none" stroke="#000" stroke-miterlimit="10" stroke-width=".5"/>
      <line x1="73.26" y1="81.71" x2="105.7" y2="62.98" fill="none" stroke="#000" stroke-miterlimit="10" stroke-width=".5"/>
      <line x1="256.45" y1="221.7" x2="224.01" y2="240.42" fill="none" stroke="#000" stroke-miterlimit="10" stroke-width=".5"/>
      <line x1="283.89" y1="30.35" x2="288.66" y2="33.11" fill="none" stroke="#000" stroke-miterlimit="10" stroke-width=".5"/>
      <line x1="219.15" y1="248.85" x2="186.71" y2="267.58" fill="none" stroke="#000" stroke-miterlimit="10" stroke-width=".5"/>
      <path d="M113.81,253.53c.86.5,2.06.43,3.38-.33" fill="none" stroke="#000" stroke-miterlimit="10" stroke-width=".5"/>
      <line x1="220.63" y1="240.09" x2="225.41" y2="237.33" fill="none" stroke="#000" stroke-miterlimit="10" stroke-width=".5"/>
      <line x1="113.81" y1="253.53" x2="81.37" y2="234.8" fill="none" stroke="#000" stroke-miterlimit="10" stroke-width=".5"/>
      <line x1="254.83" y1="11.3" x2="287.26" y2="30.02" fill="none" stroke="#000" stroke-miterlimit="10" stroke-width=".5"/>
      <path d="M71.86,84.8c0-1.52.54-2.59,1.4-3.09" fill="none" stroke="#000" stroke-miterlimit="10" stroke-width=".5"/>
      <line x1="117.19" y1="253.19" x2="112.41" y2="250.44" fill="none" stroke="#000" stroke-miterlimit="10" stroke-width=".5"/>
      <path d="M288.66,33.11c0-1.53-.53-2.59-1.4-3.09" fill="none" stroke="#000" stroke-miterlimit="10" stroke-width=".5"/>
      <path d="M202.8,203.97c6.54-3.78,13.09-7.56,19.63-11.34,3.25-1.87,6.49-3.74,9.74-5.62,10.81-6.25,21.62-12.48,32.43-18.72,4.4-2.54,8.79-5.08,13.19-7.62,6.1-3.53,11.05-12.1,11.05-19.14v-39.99c0-3.05,2.14-6.75,4.78-8.27,1.32-.76,2.51-.83,3.37-.33" fill="none" stroke="#000" stroke-miterlimit="10" stroke-width=".5"/>
      <path d="M141.38,248.85c-.86-.49-1.4-1.57-1.4-3.09,0-3.05,2.14-6.75,4.78-8.27,1.03-.59,2.04-1.18,3.07-1.77,10.82-6.25,21.63-12.48,32.44-18.72,3.25-1.88,6.49-3.76,9.74-5.62" fill="none" stroke="#000" stroke-miterlimit="10" stroke-width=".5"/>
      <line x1="241.72" y1="57.69" x2="246.49" y2="60.45" fill="none" stroke="#000" stroke-miterlimit="10" stroke-width=".5"/>
      <path d="M89.48,218.88c.86.5,2.06.43,3.38-.33" fill="none" stroke="#000" stroke-miterlimit="10" stroke-width=".5"/>
      <line x1="183.33" y1="267.24" x2="188.11" y2="264.48" fill="none" stroke="#000" stroke-miterlimit="10" stroke-width=".5"/>
      <line x1="89.48" y1="218.88" x2="57.04" y2="200.15" fill="none" stroke="#000" stroke-miterlimit="10" stroke-width=".5"/>
      <line x1="212.66" y1="38.63" x2="245.1" y2="57.36" fill="none" stroke="#000" stroke-miterlimit="10" stroke-width=".5"/>
      <polyline points="34.47 67.05 34.46 67.06 29.69 69.81" fill="none" stroke="#000" stroke-miterlimit="10" stroke-width=".5"/>
      <path d="M320.51,165.39c-1.62,5.67-5.61,11.32-10.28,14.02-4.4,2.54-8.8,5.08-13.2,7.62-10.81,6.25-21.62,12.48-32.43,18.72-3.33,1.93-6.66,3.85-9.99,5.77-10.81,6.25-21.62,12.48-32.43,18.72-3.16,1.83-6.32,3.65-9.48,5.47-10.81,6.25-21.62,12.48-32.43,18.72-1.03.59-2.04,1.18-3.07,1.77-2.64,1.53-4.78,5.23-4.78,8.27,0,1.53.54,2.59,1.4,3.09" fill="none" stroke="#000" stroke-miterlimit="10" stroke-width=".5"/>
      <path d="M329.43,111.67c-.86-.5-2.06-.43-3.38.33-2.64,1.53-4.78,5.23-4.78,8.28v11.27" fill="none" stroke="#000" stroke-miterlimit="10" stroke-width=".5"/>
      <path d="M162.82,146.98c5.82,3.36,11.63,6.71,17.45,10.07l9.73,5.62c10.81,6.25,21.63,12.49,32.44,18.73,3.24,1.87,6.49,3.75,9.74,5.62,10.81,6.24,21.62,12.48,32.43,18.72,4.81,2.77,9.62,5.55,14.42,8.33,2.64,1.53,4.78,5.23,4.78,8.27,0,1.53-.54,2.59-1.4,3.09" fill="none" stroke="#000" stroke-miterlimit="10" stroke-width=".5"/>
      <path d="M115.43,30.38c.86-.5,2.06-.43,3.38.33,2.64,1.53,4.78,5.23,4.78,8.28v72.57c0,4.92,2.41,10.58,5.94,14.75" fill="none" stroke="#000" stroke-miterlimit="10" stroke-width=".5"/>
      <path d="M156.02,63.09c0-13.38,0-25.89,0-42.82,0-3.05-2.14-6.75-4.78-8.27-1.32-.77-2.51-.83-3.37-.33" fill="none" stroke="#000" stroke-miterlimit="10" stroke-width=".5"/>
      <path d="M244.11,156.46c-7.22-4.17-14.45-8.34-21.67-12.51-3.24-1.87-6.49-3.74-9.73-5.62-10.81-6.25-21.63-12.49-32.44-18.73-4.4-2.54-8.79-5.08-13.19-7.62-6.1-3.52-11.05-12.1-11.05-19.14v-11.45" fill="none" stroke="#000" stroke-miterlimit="10" stroke-width=".5"/>
      <path d="M314.83,206.71c.86-.5,1.4-1.57,1.4-3.09,0-3.05-2.14-6.75-4.78-8.27-3.41-1.97-6.81-3.93-10.22-5.9" fill="none" stroke="#000" stroke-miterlimit="10" stroke-width=".5"/>
      <path d="M81.37,234.8c-.86-.5-1.4-1.57-1.4-3.09,0-3.05,2.14-6.75,4.78-8.27,2.73-1.58,5.47-3.16,8.2-4.73,4.24-2.45,8.48-4.89,12.71-7.34,10.81-6.25,21.62-12.48,32.43-18.73,3.24-1.87,6.49-3.74,9.74-5.62,10.81-6.25,21.63-12.48,32.44-18.73,3.24-1.87,6.49-3.74,9.73-5.62,10.81-6.24,21.63-12.48,32.44-18.72,4.4-2.54,8.79-5.08,13.19-7.62,6.1-3.52,11.05-12.09,11.05-19.14V19.9c0-3.05,2.14-6.75,4.78-8.27,1.32-.76,2.51-.83,3.38-.33" fill="none" stroke="#000" stroke-miterlimit="10" stroke-width=".5"/>
      <path d="M129.94,234.8c-4.25,2.45-8.5,4.91-12.75,7.36-2.64,1.52-4.78,5.23-4.78,8.27,0,1.52.53,2.59,1.4,3.09" fill="none" stroke="#000" stroke-miterlimit="10" stroke-width=".5"/>
      <path d="M248.6,166.29c-8.72,5.04-17.45,10.07-26.17,15.11-3.24,1.87-6.49,3.74-9.73,5.62-10.81,6.24-21.63,12.48-32.44,18.72-3.24,1.87-6.49,3.75-9.74,5.62-10.81,6.24-21.62,12.48-32.43,18.73" fill="none" stroke="#000" stroke-miterlimit="10" stroke-width=".5"/>
      <path d="M279.11,92.63v43.29c0,7.05-4.95,15.62-11.05,19.14-2.46,1.42-4.92,2.84-7.39,4.27" fill="none" stroke="#000" stroke-miterlimit="10" stroke-width=".5"/>
      <path d="M287.26,30.02c-.86-.5-2.06-.43-3.38.33-2.64,1.53-4.78,5.23-4.78,8.28" fill="none" stroke="#000" stroke-miterlimit="10" stroke-width=".5"/>
      <path d="M204.5,58.51v-11.27c0-3.05,2.14-6.75,4.78-8.27,1.32-.76,2.51-.83,3.38-.33" fill="none" stroke="#000" stroke-miterlimit="10" stroke-width=".5"/>
      <path d="M141.68,141.88l6.15-3.55c10.81-6.25,21.63-12.49,32.44-18.73,4.4-2.54,8.79-5.08,13.19-7.62,3.53-2.04,6.67-5.76,8.7-9.91" fill="none" stroke="#000" stroke-miterlimit="10" stroke-width=".5"/>
      <path d="M57.04,200.15c-.86-.5-1.4-1.57-1.4-3.09,0-3.05,2.14-6.75,4.78-8.27,1.03-.59,2.04-1.18,3.07-1.77,10.81-6.24,21.62-12.48,32.43-18.72,3.24-1.88,6.49-3.75,9.74-5.62,9.06-5.23,18.12-10.46,27.18-15.69" fill="none" stroke="#000" stroke-miterlimit="10" stroke-width=".5"/>
      <path d="M245.1,57.36c-.86-.5-2.06-.43-3.38.33-2.64,1.52-4.78,5.23-4.78,8.27v45.6c0,7.05-4.95,15.62-11.05,19.14-4.4,2.54-8.79,5.08-13.19,7.62-10.82,6.24-21.63,12.48-32.44,18.72-3.24,1.87-6.49,3.74-9.73,5.62-10.82,6.24-21.63,12.48-32.44,18.72-3.25,1.88-6.49,3.75-9.74,5.62-10.81,6.24-21.62,12.48-32.43,18.72-1.03.59-2.04,1.18-3.07,1.77-2.64,1.53-4.78,5.23-4.78,8.27,0,1.53.53,2.59,1.4,3.09" fill="none" stroke="#000" stroke-miterlimit="10" stroke-width=".5"/>
      <path d="M205.16,220.12c5.16,2.98,10.32,5.96,15.48,8.93.54.32,1.06.72,1.54,1.19,1.88,1.83,3.23,4.67,3.23,7.09,0,1.52-.53,2.59-1.4,3.09" fill="none" stroke="#000" stroke-miterlimit="10" stroke-width=".5"/>
      <path d="M76.64,82.04c2.64,1.53,4.78,5.23,4.78,8.27v45.6c0,7.05,4.95,15.62,11.05,19.14,4.4,2.54,8.79,5.08,13.19,7.62,10.81,6.24,21.62,12.48,32.44,18.72,3.24,1.88,6.49,3.75,9.73,5.62,7.34,4.23,14.68,8.47,22.01,12.71" fill="none" stroke="#000" stroke-miterlimit="10" stroke-width=".5"/>
      <path d="M73.26,81.71c.86-.5,2.06-.43,3.37.33" fill="none" stroke="#000" stroke-miterlimit="10" stroke-width=".5"/>
      <path d="M113.85,71.58c0-3.05-2.14-6.75-4.78-8.27-1.32-.76-2.51-.83-3.37-.33" fill="none" stroke="#000" stroke-miterlimit="10" stroke-width=".5"/>
      <path d="M175.23,165.39l-4.7-2.71c-10.82-6.25-21.63-12.49-32.44-18.73-4.4-2.54-8.79-5.08-13.19-7.62-3.89-2.24-7.31-6.54-9.29-11.19" fill="none" stroke="#000" stroke-miterlimit="10" stroke-width=".5"/>
      <path d="M256.45,221.7c.86-.5,1.4-1.57,1.4-3.09,0-2.42-1.35-5.27-3.24-7.09-.48-.48-1-.88-1.54-1.19-10.21-5.9-20.43-11.79-30.64-17.69-3.24-1.87-6.49-3.74-9.73-5.62-9.27-5.36-18.55-10.71-27.81-16.06" fill="none" stroke="#000" stroke-miterlimit="10" stroke-width=".5"/>
      <path d="M109.34,213.5c9.58,5.53,19.17,11.07,28.75,16.6l9.73,5.62c10.81,6.25,21.63,12.48,32.44,18.72,1.02.59,2.04,1.19,3.06,1.77,2.64,1.53,4.78,5.23,4.78,8.27,0,1.53-.54,2.59-1.4,3.09" fill="none" stroke="#000" stroke-miterlimit="10" stroke-width=".5"/>
      <path d="M41.13,168.49c1.99,4.54,5.35,8.72,9.17,10.92,4.4,2.54,8.79,5.08,13.19,7.62,10.81,6.25,21.63,12.48,32.44,18.72,1.36.78,2.71,1.57,4.07,2.35" fill="none" stroke="#000" stroke-miterlimit="10" stroke-width=".5"/>
      <path d="M31.1,66.72c.86-.49,2.05-.43,3.37.34h0c2.64,1.52,4.78,5.23,4.78,8.27v28.39" fill="none" stroke="#000" stroke-miterlimit="10" stroke-width=".5"/>
      <path d="M219.15,248.85c.86-.49,1.4-1.57,1.4-3.09,0-3.05-2.14-6.75-4.78-8.27-1.03-.59-2.04-1.18-3.07-1.77-10.81-6.24-21.62-12.48-32.43-18.72-3.24-1.88-6.49-3.75-9.74-5.62-10.81-6.25-21.62-12.48-32.44-18.73l-9.73-5.62c-10.81-6.25-21.62-12.48-32.44-18.72-4.4-2.54-8.79-5.08-13.19-7.62-6.1-3.53-11.05-12.1-11.05-19.14V56.6c0-3.05-2.14-6.75-4.78-8.27-1.32-.76-2.51-.83-3.38-.33" fill="none" stroke="#000" stroke-miterlimit="10" stroke-width=".5"/>
      <line x1="92.86" y1="218.55" x2="88.08" y2="215.79" fill="none" stroke="#000" stroke-miterlimit="10" stroke-width=".5"/>
      <line x1="326.05" y1="112" x2="330.83" y2="114.76" fill="none" stroke="#000" stroke-miterlimit="10" stroke-width=".5"/>
      <path d="M173.81,267.58c.86.5,2.06.43,3.38-.33" fill="none" stroke="#000" stroke-miterlimit="10" stroke-width=".5"/>
      <path d="M246.49,60.45c0-1.52-.53-2.59-1.4-3.09" fill="none" stroke="#000" stroke-miterlimit="10" stroke-width=".5"/>
      <line x1="173.81" y1="267.58" x2="141.38" y2="248.85" fill="none" stroke="#000" stroke-miterlimit="10" stroke-width=".5"/>
      <line x1="296.99" y1="92.94" x2="329.43" y2="111.67" fill="none" stroke="#000" stroke-miterlimit="10" stroke-width=".5"/>
      <path d="M29.69,69.81c0-1.53.54-2.59,1.4-3.09" fill="none" stroke="#000" stroke-miterlimit="10" stroke-width=".5"/>
      <line x1="177.19" y1="267.24" x2="172.42" y2="264.48" fill="none" stroke="#000" stroke-miterlimit="10" stroke-width=".5"/>
      <path d="M330.83,114.76c0-1.53-.54-2.59-1.4-3.09" fill="none" stroke="#000" stroke-miterlimit="10" stroke-width=".5"/>
      <path d="M186.71,267.58c-.86.5-2.06.43-3.38-.33" fill="none" stroke="#000" stroke-miterlimit="10" stroke-width=".5"/>
      <polyline points="76.64 82.04 76.64 82.04 71.86 84.8" fill="none" stroke="#000" stroke-miterlimit="10" stroke-width=".5"/>
      <line x1="31.1" y1="66.72" x2="63.53" y2="48" fill="none" stroke="#000" stroke-miterlimit="10" stroke-width=".5"/>
    </g>
  </g>
  <g>
    <polygon points="281.84 85.58 281.83 86.33 255.37 71.06 255.38 70.3 281.84 85.58" stroke-width="0"/>
    <polygon points="278.52 77.81 278.52 78.56 255.39 65.21 255.39 64.46 278.52 77.81" stroke-width="0"/>
    <polygon points="282.69 74.36 282.68 75.12 255.41 59.37 255.41 58.61 282.69 74.36" stroke-width="0"/>
    <polygon points="284.26 69.41 284.25 70.17 255.42 53.53 255.43 52.77 284.26 69.41" stroke-width="0"/>
    <polygon points="284.27 63.57 284.27 64.33 255.44 47.68 255.44 46.93 284.27 63.57" stroke-width="0"/>
    <polygon points="277.86 54.01 277.85 54.77 255.46 41.84 255.46 41.08 277.86 54.01" stroke-width="0"/>
    <polygon points="284.31 51.88 284.3 52.64 255.47 36 255.47 35.24 284.31 51.88" stroke-width="0"/>
    <polygon points="268.09 98.36 268.09 99.12 255.31 91.74 255.32 90.99 268.09 98.36" stroke-width="0"/>
  </g>
  <g>
    <polygon points="116.54 115.84 116.54 116.6 111.4 119.57 111.4 118.81 116.54 115.84" stroke-width="0"/>
    <polygon points="111.4 118.81 111.4 119.57 90.08 131.88 90.08 131.12 111.4 118.81" stroke-width="0"/>
    <polygon points="113.2 111.92 113.2 112.68 90.07 126.03 90.06 125.28 113.2 111.92" stroke-width="0"/>
    <polygon points="117.32 103.68 117.33 104.44 90.05 120.19 90.05 119.43 117.32 103.68" stroke-width="0"/>
    <polygon points="118.86 96.95 118.86 97.7 90.03 114.35 90.03 113.59 118.86 96.95" stroke-width="0"/>
    <polygon points="118.85 91.1 118.85 91.86 90.02 108.5 90.01 107.75 118.85 91.1" stroke-width="0"/>
    <polygon points="112.4 88.98 112.4 89.73 90 102.66 90 101.91 112.4 88.98" stroke-width="0"/>
    <polygon points="118.81 79.42 118.81 80.17 89.98 96.82 89.98 96.06 118.81 79.42" stroke-width="0"/>
    <polygon points="102.89 135.3 102.89 136.06 90.11 143.44 90.11 142.68 102.89 135.3" stroke-width="0"/>
  </g>
  <g>
    <g>
      <ellipse cx="146.86" cy="51.47" rx="6.03" ry="3.49" transform="translate(28.57 152.58) rotate(-59.84)" fill="#dbdbdb" stroke-width="0"/>
      <path d="M146.84,45.8c2.72-1.57,4.94-.31,4.95,2.82s-2.2,6.95-4.92,8.52-4.95.3-4.95-2.82,2.2-6.95,4.92-8.52ZM146.87,56.38c2.36-1.36,4.27-4.68,4.27-7.39s-1.93-3.81-4.29-2.45-4.27,4.68-4.27,7.39,1.93,3.81,4.29,2.45" stroke-width="0"/>
    </g>
    <g>
      <polygon points="158.8 66.25 158.82 74.64 151.52 78.86 151.5 70.47 158.8 66.25" fill="#fbef00" stroke-width="0"/>
      <path d="M150.84,70.09l8.62-4.98.03,9.9-8.62,4.98-.03-9.9ZM158.82,74.64l-.02-8.39-7.3,4.22.02,8.39,7.3-4.22" stroke-width="0"/>
    </g>
    <path d="M136.57,64.12l6,8.43-11.93,6.89,5.93-15.32ZM136.57,65.64l-4.8,12.39,9.65-5.57-4.85-6.82" stroke-width="0"/>
  </g>
  <g>
    <polygon points="309.13 119.85 309.1 131.76 298.74 125.78 298.77 113.87 309.13 119.85" stroke-width="0"/>
    <polygon points="308.93 150.56 308.9 162.22 298.76 156.36 298.79 144.71 308.93 150.56" fill="#fbef00" stroke-width="0"/>
    <path d="M298.14,143.57l11.46,6.62-.04,13.17-11.46-6.62.04-13.17ZM308.9,162.22l.03-11.66-10.14-5.86-.03,11.66,10.14,5.86" stroke-width="0"/>
    <g isolation="isolate">
      <polygon points="306.09 141.71 306.57 142.5 303.87 144.27 301.19 139.4 301.68 139.16 303.55 142.57 303.87 143.16 304.21 142.94 306.09 141.71" stroke-width="0"/>
      <polygon points="304.24 132.19 304.21 142.94 303.87 143.16 303.55 142.57 303.58 131.81 304.24 132.19" stroke-width="0"/>
    </g>
    <path d="M298.33,113.11l11.24,6.49-.04,12.91-11.24-6.49.04-12.91ZM309.1,131.76l.03-11.91-10.36-5.98-.03,11.91,10.36,5.98" stroke-width="0"/>
    <polygon points="315.7 127.47 316.1 128.31 313.98 128.95 313.52 129.08 313.78 129.58 315.67 133.11 315.17 133.33 312.56 128.42 315.7 127.47" stroke-width="0"/>
    <path d="M313.98,128.95c6.7,4.69,11.84,14.19,11.82,22.02-.02,8.41-6,11.82-13.32,7.59v-.76c6.96,4.02,12.64.78,12.66-7.22.02-7.5-4.92-16.59-11.35-21.01l-.26-.49.45-.14Z" stroke-width="0"/>
  </g>
  <g>
    <g isolation="isolate">
      <polygon points="51.48 145.43 51.48 144.93 55.91 142.37 55.91 142.87 51.48 145.43" stroke-width="0"/>
      <polygon points="55.88 132.5 55.91 142.37 51.48 144.93 51.45 135.06 55.88 132.5" fill="#fff" stroke-width="0"/>
    </g>
    <polygon points="51.39 114.32 51.39 113.82 55.82 111.26 55.82 111.76 51.39 114.32" stroke-width="0"/>
    <polygon points="55.82 111.76 55.85 121.63 51.42 124.19 51.39 114.32 55.82 111.76" fill="#fff" stroke-width="0"/>
    <polygon points="51.45 135.06 51.45 134.56 55.88 132 55.88 132.5 51.45 135.06" stroke-width="0"/>
    <polygon points="51.42 124.69 51.42 124.19 55.85 121.63 55.85 122.13 51.42 124.69" stroke-width="0"/>
    <g isolation="isolate">
      <polygon points="60.78 139.56 60.99 139.43 61 139.93 60.78 140.06 56.35 142.62 56.34 142.12 60.78 139.56" stroke-width="0"/>
      <polygon points="60.75 129.19 60.96 129.06 60.97 129.56 60.75 129.69 56.32 132.25 56.31 131.75 60.75 129.19" stroke-width="0"/>
      <polygon points="60.72 118.82 60.94 118.69 60.94 119.2 60.72 119.32 56.29 121.88 56.28 121.38 60.72 118.82" stroke-width="0"/>
      <polygon points="56.23 100.88 56.23 101.14 56.26 111.01 56.26 111.51 56.29 121.38 56.29 121.88 56.31 131.75 56.32 132.25 56.34 142.12 56.35 142.62 56.37 152.49 56.37 152.74 55.94 152.99 55.94 152.74 55.91 142.87 55.91 142.37 55.88 132.5 55.88 132 55.85 122.13 55.85 121.63 55.82 111.76 55.82 111.26 55.79 101.39 55.79 101.14 56.23 100.88" stroke-width="0"/>
    </g>
    <polygon points="60.78 140.06 60.81 149.93 56.37 152.49 56.35 142.62 60.78 140.06" fill="#fff" stroke-width="0"/>
    <polygon points="60.69 108.45 60.91 108.32 60.91 108.83 60.69 108.95 56.26 111.51 56.26 111.01 60.69 108.45" stroke-width="0"/>
    <polygon points="60.66 98.58 60.69 108.45 56.26 111.01 56.23 101.14 60.66 98.58" stroke-width="0"/>
    <polygon points="55.79 101.39 55.82 111.26 51.39 113.82 51.36 103.95 55.79 101.39" stroke-width="0"/>
    <polygon points="41.18 109.82 41.21 119.69 36.78 122.25 36.75 112.38 41.18 109.82" stroke-width="0"/>
    <polygon points="36.31 112.64 36.34 122.51 31.91 125.06 31.88 115.19 36.31 112.64" stroke-width="0"/>
    <polygon points="50.92 104.2 50.95 114.07 46.52 116.63 46.49 106.76 50.92 104.2" stroke-width="0"/>
    <polygon points="41.3 151.31 41.33 161.17 36.89 163.73 36.87 153.87 41.3 151.31" fill="#fff" stroke-width="0"/>
    <g isolation="isolate">
      <polygon points="46.61 148.24 46.61 147.74 51.04 145.18 51.04 145.68 46.61 148.24" stroke-width="0"/>
      <polygon points="41.74 151.05 41.73 150.55 46.17 147.99 46.17 148.49 41.74 151.05" stroke-width="0"/>
      <polygon points="46.58 137.87 46.58 137.37 51.01 134.81 51.01 135.31 46.58 137.87" stroke-width="0"/>
      <polygon points="36.87 153.87 36.86 153.36 41.3 150.8 41.3 151.31 36.87 153.87" stroke-width="0"/>
      <polygon points="36.43 154.12 36.46 163.98 32.03 166.54 32 156.68 36.43 154.12" fill="#dbdbdb" stroke-width="0"/>
      <polygon points="31.78 156.3 32 156.17 36.43 153.62 36.43 154.12 32 156.68 31.78 156.8 31.78 156.3" stroke-width="0"/>
      <polygon points="36.4 143.75 36.43 153.62 32 156.17 31.97 146.31 36.4 143.75" fill="#dbdbdb" stroke-width="0"/>
      <polygon points="31.75 145.93 31.97 145.8 36.4 143.25 36.4 143.75 31.97 146.31 31.75 146.43 31.75 145.93" stroke-width="0"/>
      <polygon points="51.36 103.69 51.36 103.95 51.39 113.82 51.39 114.32 51.42 124.19 51.42 124.69 51.45 134.56 51.45 135.06 51.48 144.93 51.48 145.43 51.51 155.3 51.51 155.55 51.07 155.8 51.07 155.55 51.04 145.68 51.04 145.18 51.01 135.31 51.01 134.81 50.98 124.94 50.98 124.44 50.95 114.57 50.95 114.07 50.92 104.2 50.92 103.95 51.36 103.69" stroke-width="0"/>
      <polygon points="41.65 119.95 41.65 119.44 46.08 116.88 46.08 117.39 41.65 119.95" stroke-width="0"/>
      <polygon points="36.37 133.38 36.4 143.25 31.97 145.8 31.94 135.94 36.37 133.38" fill="#dbdbdb" stroke-width="0"/>
      <polygon points="31.72 135.56 31.94 135.43 36.37 132.88 36.37 133.38 31.94 135.94 31.72 136.06 31.72 135.56" stroke-width="0"/>
      <polygon points="36.34 123.01 36.37 132.88 31.94 135.43 31.91 125.57 36.34 123.01" fill="#dbdbdb" stroke-width="0"/>
      <polygon points="41.62 109.32 41.62 109.57 41.65 119.44 41.65 119.95 41.68 129.81 41.68 130.31 41.71 140.18 41.71 140.68 41.73 150.55 41.74 151.05 41.76 160.92 41.76 161.17 41.33 161.43 41.33 161.17 41.3 151.31 41.3 150.8 41.27 140.94 41.27 140.43 41.24 130.57 41.24 130.06 41.21 120.2 41.21 119.69 41.18 109.82 41.18 109.57 41.62 109.32" stroke-width="0"/>
      <polygon points="31.69 125.19 31.91 125.06 36.34 122.51 36.34 123.01 31.91 125.57 31.69 125.69 31.69 125.19" stroke-width="0"/>
      <polygon points="36.75 112.13 36.75 112.38 36.78 122.25 36.78 122.76 36.8 132.62 36.81 133.13 36.83 142.99 36.84 143.5 36.86 153.36 36.87 153.87 36.89 163.73 36.89 163.99 36.46 164.24 36.46 163.98 36.43 154.12 36.43 153.62 36.4 143.75 36.4 143.25 36.37 133.38 36.37 132.88 36.34 123.01 36.34 122.51 36.31 112.64 36.31 112.38 36.75 112.13" stroke-width="0"/>
      <path d="M31.44,114.94l29.66-17.12.15,52.35-29.66,17.12-.15-52.35ZM60.91,108.83v-.5s-.22.13-.22.13l-.03-9.87-4.43,2.56v-.25s-.44.25-.44.25v.25s-4.43,2.56-4.43,2.56v-.25s-.44.25-.44.25v.25s-4.43,2.56-4.43,2.56v-.25s-.44.25-.44.25v.25s-4.43,2.56-4.43,2.56v-.25s-.44.25-.44.25v.25s-4.43,2.56-4.43,2.56v-.25s-.44.25-.44.25v.25s-4.43,2.56-4.43,2.56l.03,9.87-.22.13v.5s.22-.13.22-.13l.03,9.87-.22.13v.5s.22-.13.22-.13l.03,9.87-.22.13v.5s.22-.13.22-.13l.03,9.87-.22.13v.5s.22-.13.22-.13l.03,9.87,4.43-2.56v.25s.44-.25.44-.25v-.25s4.43-2.56,4.43-2.56v.25s.44-.25.44-.25v-.25s4.43-2.56,4.43-2.56v.25s.44-.25.44-.25v-.25s4.43-2.56,4.43-2.56v.25s.44-.25.44-.25v-.25s4.43-2.56,4.43-2.56v.25s.44-.25.44-.25v-.25s4.43-2.56,4.43-2.56l-.03-9.87.22-.13v-.5s-.22.13-.22.13l-.03-9.87.22-.13v-.5s-.22.13-.22.13l-.03-9.87.22-.13v-.5s-.22.13-.22.13l-.03-9.87.22-.13" stroke-width="0"/>
      <polygon points="51.04 145.68 51.07 155.55 46.64 158.11 46.61 148.24 51.04 145.68" fill="#fff" stroke-width="0"/>
      <polygon points="41.71 140.68 41.71 140.18 46.14 137.62 46.14 138.12 41.71 140.68" stroke-width="0"/>
      <polygon points="46.55 127.5 46.55 127 50.98 124.44 50.98 124.94 46.55 127.5" stroke-width="0"/>
      <polygon points="36.84 143.5 36.83 142.99 41.27 140.43 41.27 140.94 36.84 143.5" stroke-width="0"/>
      <polygon points="46.11 127.76 46.14 137.62 41.71 140.18 41.68 130.31 46.11 127.76" fill="#fff" stroke-width="0"/>
      <polygon points="41.68 130.31 41.68 129.81 46.11 127.25 46.11 127.76 41.68 130.31" stroke-width="0"/>
      <polygon points="46.52 117.13 46.52 116.63 50.95 114.07 50.95 114.57 46.52 117.13" stroke-width="0"/>
      <polygon points="36.81 133.13 36.8 132.62 41.24 130.06 41.24 130.57 36.81 133.13" stroke-width="0"/>
      <polygon points="41.21 120.2 41.24 130.06 36.8 132.62 36.78 122.76 41.21 120.2" fill="#fff" stroke-width="0"/>
      <polygon points="46.49 106.51 46.49 106.76 46.52 116.63 46.52 117.13 46.55 127 46.55 127.5 46.58 137.37 46.58 137.87 46.61 147.74 46.61 148.24 46.64 158.11 46.64 158.36 46.2 158.61 46.2 158.36 46.17 148.49 46.17 147.99 46.14 138.12 46.14 137.62 46.11 127.76 46.11 127.25 46.08 117.39 46.08 116.88 46.05 107.01 46.05 106.76 46.49 106.51" stroke-width="0"/>
      <polygon points="36.78 122.76 36.78 122.25 41.21 119.69 41.21 120.2 36.78 122.76" stroke-width="0"/>
      <polygon points="46.05 107.01 46.08 116.88 41.65 119.44 41.62 109.57 46.05 107.01" stroke-width="0"/>
    </g>
  </g>
  <g>
    <path d="M210.58,70.02c7.88,4.55,14.25,15.58,14.22,24.64,0,1.28-.08,2.1-.32,3.23l-13.95-11.47.05-16.4Z" stroke-width="0"/>
    <path d="M210.58,70.02l-.05,16.4-11.22-16.59c2.78-2.47,6.77-2.4,11.26.19Z" fill="#fff" stroke-width="0"/>
    <path d="M199.32,69.82l11.22,16.59,13.95,11.47c-1.45,6.88-7.38,8.75-13.98,4.94-.98-.57-1.98-1.26-2.98-2.09-7.7-6.33-12.6-17.88-10.93-25.79.47-2.26,1.34-3.88,2.73-5.12Z" fill="#fbef00" stroke-width="0"/>
  </g>
  <g>
    <polygon points="159.26 139.44 138.2 151.67 117 139.44 138.06 127.2 159.26 139.44" fill="#2b2b2b" stroke="#fff" stroke-miterlimit="10" stroke-width=".5"/>
    <polygon points="159.26 139.44 159.19 164.53 138.13 176.77 138.2 151.67 159.26 139.44" fill="#0e0e0e" stroke="#fff" stroke-miterlimit="10" stroke-width=".5"/>
    <polygon points="138.2 151.67 138.13 176.77 116.93 164.53 117 139.44 138.2 151.67" fill="#1d1d1d" stroke="#fff" stroke-miterlimit="10" stroke-width=".5"/>
  </g>
  <g>
    <polygon points="201.53 211.18 180.47 223.41 159.28 211.18 180.33 198.94 201.53 211.18" fill="#fbef00" stroke="#000" stroke-miterlimit="10" stroke-width=".5"/>
    <polygon points="201.53 211.18 201.46 236.27 180.4 248.51 180.47 223.41 201.53 211.18" fill="#ddcd00" stroke="#000" stroke-miterlimit="10" stroke-width=".5"/>
    <polygon points="180.47 223.41 180.4 248.51 159.21 236.27 159.28 211.18 180.47 223.41" fill="#efdd00" stroke="#000" stroke-miterlimit="10" stroke-width=".5"/>
  </g>
  <g>
    <polygon points="286.44 162.02 265.38 174.26 244.18 162.02 265.24 149.78 286.44 162.02" fill="#d8d8d8" stroke="#000" stroke-miterlimit="10" stroke-width=".5"/>
    <polygon points="286.44 162.02 286.37 187.11 265.31 199.35 265.38 174.26 286.44 162.02" fill="#bbb" stroke="#000" stroke-miterlimit="10" stroke-width=".5"/>
    <polygon points="265.38 174.26 265.31 199.35 244.11 187.11 244.18 162.02 265.38 174.26" fill="#cacaca" stroke="#000" stroke-miterlimit="10" stroke-width=".5"/>
  </g>
</svg>