<?xml version="1.0" encoding="UTF-8"?>
<svg id="Layer_1" data-name="Layer 1" xmlns="http://www.w3.org/2000/svg" width="595.28" height="841.89" viewBox="0 0 595.28 841.89">
  <defs>
    <style>
      .cls-1 {
        letter-spacing: -.08em;
      }

      .cls-2 {
        letter-spacing: -.04em;
      }

      .cls-3 {
        letter-spacing: 0em;
      }

      .cls-4 {
        letter-spacing: -.02em;
      }

      .cls-5 {
        letter-spacing: -.02em;
      }

      .cls-6 {
        letter-spacing: -.03em;
      }

      .cls-7, .cls-8, .cls-9, .cls-10, .cls-11, .cls-12, .cls-13 {
        stroke: #000;
        stroke-miterlimit: 10;
      }

      .cls-14, .cls-13 {
        fill: #ffef00;
      }

      .cls-15 {
        fill: gray;
        font-family: PTSerif-Italic, 'PT Serif';
        font-size: 36px;
        font-style: italic;
      }

      .cls-16 {
        letter-spacing: -.02em;
      }

      .cls-17 {
        letter-spacing: 0em;
      }

      .cls-18 {
        letter-spacing: -.02em;
      }

      .cls-19 {
        letter-spacing: -.01em;
      }

      .cls-8, .cls-13 {
        stroke-width: 1.25px;
      }

      .cls-9 {
        fill: #e6e6e6;
      }

      .cls-10 {
        fill: #fff100;
      }

      .cls-11 {
        fill: #ccc;
      }

      .cls-20 {
        letter-spacing: 0em;
      }

      .cls-21 {
        font-family: PTSans-Regular, 'PT Sans';
        font-size: 18px;
      }

      .cls-12 {
        fill: none;
      }

      .cls-22 {
        letter-spacing: -.05em;
      }

      .cls-23 {
        letter-spacing: -.01em;
      }

      .cls-24 {
        letter-spacing: .02em;
      }

      .cls-25 {
        letter-spacing: 0em;
      }

      .cls-26 {
        font-family: CHANEY-Regular, CHANEY;
        font-size: 54px;
      }

      .cls-27 {
        letter-spacing: -.07em;
      }
    </style>
  </defs>
  <text class="cls-26" transform="translate(48.87 85.48)"><tspan class="cls-24" x="0" y="0">h</tspan><tspan class="cls-6" x="43.85" y="0">o</tspan><tspan class="cls-25" x="87.1" y="0">w openness</tspan><tspan x="0" y="45">b</tspan><tspan class="cls-5" x="40.93" y="45">e</tspan><tspan x="76.03" y="45">comes</tspan><tspan x="0" y="90">_e</tspan><tspan class="cls-27" x="75.06" y="90">x</tspan><tspan class="cls-20" x="114.26" y="90">c</tspan><tspan class="cls-22" x="158.97" y="90">l</tspan><tspan x="191.32" y="90">us</tspan><tspan class="cls-24" x="274.64" y="90">i</tspan><tspan x="293" y="90">ona</tspan><tspan class="cls-27" x="423.9" y="90">r</tspan><tspan class="cls-17" x="461.48" y="90">y</tspan></text>
  <text class="cls-15" transform="translate(264.36 221.39)"><tspan x="0" y="0">Leonhard Dobusch</tspan></text>
  <text class="cls-21" transform="translate(56.18 750.02)"><tspan x="0" y="0">Sys</tspan><tspan class="cls-19" x="25.52" y="0">t</tspan><tspan x="31.43" y="0">emi</tspan><tspan class="cls-18" x="60.01" y="0">c</tspan><tspan x="67.7" y="0" xml:space="preserve"> bias is qui</tspan><tspan class="cls-23" x="149.76" y="0">t</tspan><tspan class="cls-3" x="155.66" y="0">e </tspan><tspan class="cls-4" x="169.61" y="0">c</tspan><tspan x="177.32" y="0">ommon </tspan><tspan x="0" y="22">in online </tspan><tspan class="cls-4" x="72.84" y="22">c</tspan><tspan class="cls-3" x="80.55" y="22">ommunities</tspan><tspan class="cls-1" x="171.45" y="22">,</tspan><tspan x="173.55" y="22" xml:space="preserve">  which </tspan><tspan class="cls-16" x="233.83" y="22">e</tspan><tspan x="242.57" y="22">xplicitl</tspan><tspan class="cls-2" x="295.95" y="22">y</tspan><tspan x="303.69" y="22"> </tspan><tspan x="0" y="44">describe themsel</tspan><tspan class="cls-19" x="130.82" y="44">v</tspan><tspan x="139.3" y="44">es as open</tspan><tspan class="cls-1" x="220.51" y="44">.</tspan></text>
  <rect class="cls-14" x="470.73" y="798.47" width="124.52" height="43.42"/>
  <g>
    <line class="cls-12" x1="266.85" y1="287.72" x2="266.85" y2="368.65"/>
    <line class="cls-12" x1="290.85" y1="277.72" x2="290.85" y2="368.65"/>
    <line class="cls-12" x1="314.85" y1="297.72" x2="314.85" y2="368.65"/>
    <path class="cls-12" d="M290.91,447.46c0-29.16-20.6-53.46-48.06-59.16l-26.71-26.71c-4.2-4.2-10.9-5.01-15.71-1.52-6.15,4.46-6.65,13.11-1.5,18.25,0,0,13.29,13.29,25.2,25.2,11.99,11.99,18.72,28.25,18.72,45.2h0s96,0,96,0v-89.04h0s0-61.63,0-61.63c0-5.94-4.17-11.25-10.03-12.18-7.5-1.19-13.97,4.57-13.97,11.84v-19.66c0-5.94-4.17-11.25-10.03-12.18-7.5-1.19-13.97,4.57-13.97,11.84v-9.66c0-5.94-4.17-11.25-10.03-12.18-7.5-1.19-13.97,4.57-13.97,11.84v20c0-6.63-5.37-12-12-12s-12,5.37-12,12c0,0,0,66.28,0,71.62v28.97"/>
    <g>
      <rect class="cls-13" x="57.05" y="660.9" width="6.2" height="5.79"/>
      <rect class="cls-13" x="67.74" y="655.91" width="6.2" height="5.79"/>
      <rect class="cls-13" x="83.79" y="660.9" width="6.2" height="5.79"/>
      <rect class="cls-13" x="110.52" y="660.9" width="6.2" height="5.79"/>
      <rect class="cls-13" x="126.56" y="660.9" width="6.2" height="5.79"/>
      <rect class="cls-13" x="73.09" y="650.92" width="6.2" height="5.79"/>
      <rect class="cls-13" x="62.4" y="645.93" width="6.2" height="5.79"/>
      <rect class="cls-13" x="83.79" y="650.92" width="6.2" height="5.79"/>
      <rect class="cls-13" x="105.17" y="650.92" width="6.2" height="5.79"/>
      <rect class="cls-13" x="115.87" y="645.93" width="6.2" height="5.79"/>
      <rect class="cls-13" x="142.6" y="660.9" width="6.2" height="5.79"/>
      <rect class="cls-13" x="153.29" y="660.9" width="6.2" height="5.79"/>
      <rect class="cls-13" x="180.03" y="660.9" width="6.2" height="5.79"/>
      <rect class="cls-13" x="158.64" y="655.91" width="6.2" height="5.79"/>
      <rect class="cls-13" x="163.99" y="655.91" width="6.2" height="5.79"/>
      <rect class="cls-13" x="174.68" y="655.91" width="6.2" height="5.79"/>
      <rect class="cls-13" x="185.37" y="660.9" width="6.2" height="5.79"/>
      <rect class="cls-13" x="196.07" y="660.9" width="6.2" height="5.79"/>
      <rect class="cls-13" x="206.76" y="660.9" width="6.2" height="5.79"/>
      <rect class="cls-13" x="228.15" y="660.9" width="6.2" height="5.79"/>
      <rect class="cls-13" x="190.72" y="655.91" width="6.2" height="5.79"/>
      <rect class="cls-13" x="212.11" y="655.91" width="6.2" height="5.79"/>
      <rect class="cls-13" x="217.45" y="655.91" width="6.2" height="5.79"/>
      <rect class="cls-13" x="222.8" y="655.91" width="6.2" height="5.79"/>
      <rect class="cls-13" x="131.91" y="650.92" width="6.2" height="5.79"/>
      <rect class="cls-13" x="137.25" y="650.92" width="6.2" height="5.79"/>
      <rect class="cls-13" x="147.95" y="650.92" width="6.2" height="5.79"/>
      <rect class="cls-13" x="163.99" y="645.93" width="6.2" height="5.79"/>
      <rect class="cls-13" x="174.68" y="645.93" width="6.2" height="5.79"/>
      <rect class="cls-13" x="185.37" y="650.92" width="6.2" height="5.79"/>
      <rect class="cls-13" x="206.76" y="650.92" width="6.2" height="5.79"/>
      <rect class="cls-13" x="233.49" y="650.92" width="6.2" height="5.79"/>
      <rect class="cls-13" x="185.37" y="645.93" width="6.2" height="5.79"/>
      <rect class="cls-13" x="190.72" y="645.93" width="6.2" height="5.79"/>
      <rect class="cls-13" x="206.76" y="645.93" width="6.2" height="5.79"/>
      <rect class="cls-13" x="212.11" y="645.93" width="6.2" height="5.79"/>
      <rect class="cls-13" x="222.8" y="645.93" width="6.2" height="5.79"/>
      <rect class="cls-13" x="89.13" y="640.94" width="6.2" height="5.79"/>
      <rect class="cls-13" x="99.83" y="640.94" width="6.2" height="5.79"/>
      <rect class="cls-13" x="121.21" y="640.94" width="6.2" height="5.79"/>
      <rect class="cls-13" x="83.79" y="635.95" width="6.2" height="5.79"/>
      <rect class="cls-13" x="110.52" y="635.95" width="6.2" height="5.79"/>
      <rect class="cls-13" x="115.87" y="635.95" width="6.2" height="5.79"/>
      <rect class="cls-13" x="62.4" y="625.97" width="6.2" height="5.79"/>
      <rect class="cls-13" x="73.09" y="625.97" width="6.2" height="5.79"/>
      <rect class="cls-13" x="115.87" y="630.96" width="6.2" height="5.79"/>
      <rect class="cls-13" x="83.79" y="625.97" width="6.2" height="5.79"/>
      <rect class="cls-13" x="126.56" y="625.97" width="6.2" height="5.79"/>
      <rect class="cls-13" x="158.64" y="640.94" width="6.2" height="5.79"/>
      <rect class="cls-13" x="169.33" y="640.94" width="6.2" height="5.79"/>
      <rect class="cls-13" x="174.68" y="640.94" width="6.2" height="5.79"/>
      <rect class="cls-13" x="153.29" y="635.95" width="6.2" height="5.79"/>
      <rect class="cls-13" x="158.64" y="635.95" width="6.2" height="5.79"/>
      <rect class="cls-13" x="180.03" y="635.95" width="6.2" height="5.79"/>
      <rect class="cls-13" x="185.37" y="640.94" width="6.2" height="5.79"/>
      <rect class="cls-13" x="201.41" y="640.94" width="6.2" height="5.79"/>
      <rect class="cls-13" x="217.45" y="640.94" width="6.2" height="5.79"/>
      <rect class="cls-13" x="222.8" y="640.94" width="6.2" height="5.79"/>
      <rect class="cls-13" x="190.72" y="635.95" width="6.2" height="5.79"/>
      <rect class="cls-13" x="222.8" y="635.95" width="6.2" height="5.79"/>
      <rect class="cls-13" x="228.15" y="635.95" width="6.2" height="5.79"/>
      <rect class="cls-13" x="131.91" y="630.96" width="6.2" height="5.79"/>
      <rect class="cls-13" x="142.6" y="630.96" width="6.2" height="5.79"/>
      <rect class="cls-13" x="147.95" y="630.96" width="6.2" height="5.79"/>
      <rect class="cls-13" x="169.33" y="630.96" width="6.2" height="5.79"/>
      <rect class="cls-13" x="131.91" y="625.97" width="6.2" height="5.79"/>
      <rect class="cls-13" x="137.25" y="625.97" width="6.2" height="5.79"/>
      <rect class="cls-13" x="153.29" y="625.97" width="6.2" height="5.79"/>
      <rect class="cls-13" x="158.64" y="625.97" width="6.2" height="5.79"/>
      <rect class="cls-13" x="174.68" y="625.97" width="6.2" height="5.79"/>
      <rect class="cls-13" x="180.03" y="625.97" width="6.2" height="5.79"/>
      <rect class="cls-13" x="185.37" y="630.96" width="6.2" height="5.79"/>
      <rect class="cls-13" x="201.41" y="630.96" width="6.2" height="5.79"/>
      <rect class="cls-13" x="206.76" y="630.96" width="6.2" height="5.79"/>
      <rect class="cls-13" x="222.8" y="630.96" width="6.2" height="5.79"/>
      <rect class="cls-13" x="228.15" y="630.96" width="6.2" height="5.79"/>
      <rect class="cls-13" x="233.49" y="630.96" width="6.2" height="5.79"/>
      <rect class="cls-13" x="196.07" y="625.97" width="6.2" height="5.79"/>
      <rect class="cls-13" x="222.8" y="625.97" width="6.2" height="5.79"/>
      <rect class="cls-13" x="233.49" y="625.97" width="6.2" height="5.79"/>
      <rect class="cls-13" x="249.54" y="660.9" width="6.2" height="5.79"/>
      <rect class="cls-13" x="254.88" y="660.9" width="6.2" height="5.79"/>
      <rect class="cls-13" x="265.58" y="660.9" width="6.2" height="5.79"/>
      <rect class="cls-13" x="276.27" y="660.9" width="6.2" height="5.79"/>
      <rect class="cls-13" x="281.62" y="660.9" width="6.2" height="5.79"/>
      <rect class="cls-13" x="244.19" y="655.91" width="6.2" height="5.79"/>
      <rect class="cls-13" x="249.54" y="655.91" width="6.2" height="5.79"/>
      <rect class="cls-13" x="254.88" y="655.91" width="6.2" height="5.79"/>
      <rect class="cls-8" x="265.58" y="655.91" width="6.2" height="5.79"/>
      <rect class="cls-13" x="276.27" y="655.91" width="6.2" height="5.79"/>
      <rect class="cls-13" x="286.96" y="655.91" width="6.2" height="5.79"/>
      <rect class="cls-13" x="297.66" y="660.9" width="6.2" height="5.79"/>
      <rect class="cls-13" x="308.35" y="660.9" width="6.2" height="5.79"/>
      <rect class="cls-13" x="313.7" y="660.9" width="6.2" height="5.79"/>
      <rect class="cls-13" x="319.04" y="660.9" width="6.2" height="5.79"/>
      <rect class="cls-13" x="329.74" y="660.9" width="6.2" height="5.79"/>
      <rect class="cls-13" x="335.08" y="660.9" width="6.2" height="5.79"/>
      <rect class="cls-13" x="340.43" y="660.9" width="6.2" height="5.79"/>
      <rect class="cls-13" x="292.31" y="655.91" width="6.2" height="5.79"/>
      <rect class="cls-13" x="308.35" y="655.91" width="6.2" height="5.79"/>
      <rect class="cls-13" x="313.7" y="655.91" width="6.2" height="5.79"/>
      <rect class="cls-13" x="329.74" y="655.91" width="6.2" height="5.79"/>
      <rect class="cls-13" x="335.08" y="655.91" width="6.2" height="5.79"/>
      <rect class="cls-13" x="340.43" y="655.91" width="6.2" height="5.79"/>
      <rect class="cls-13" x="249.53" y="650.92" width="6.2" height="5.79"/>
      <rect class="cls-13" x="260.23" y="650.92" width="6.2" height="5.79"/>
      <rect class="cls-13" x="265.58" y="650.92" width="6.2" height="5.79"/>
      <rect class="cls-13" x="270.92" y="650.92" width="6.2" height="5.79"/>
      <rect class="cls-13" x="281.62" y="650.92" width="6.2" height="5.79"/>
      <rect class="cls-13" x="238.84" y="645.93" width="6.2" height="5.79"/>
      <rect class="cls-13" x="244.19" y="645.93" width="6.2" height="5.79"/>
      <rect class="cls-13" x="260.23" y="645.93" width="6.2" height="5.79"/>
      <rect class="cls-13" x="270.92" y="645.93" width="6.2" height="5.79"/>
      <rect class="cls-13" x="276.27" y="645.93" width="6.2" height="5.79"/>
      <rect class="cls-13" x="281.62" y="645.93" width="6.2" height="5.79"/>
      <rect class="cls-13" x="286.96" y="645.93" width="6.2" height="5.79"/>
      <rect class="cls-13" x="297.66" y="650.92" width="6.2" height="5.79"/>
      <rect class="cls-13" x="303" y="650.92" width="6.2" height="5.79"/>
      <rect class="cls-13" x="324.39" y="650.92" width="6.2" height="5.79"/>
      <rect class="cls-13" x="340.43" y="650.92" width="6.2" height="5.79"/>
      <rect class="cls-13" x="292.31" y="645.93" width="6.2" height="5.79"/>
      <rect class="cls-13" x="313.7" y="645.93" width="6.2" height="5.79"/>
      <rect class="cls-13" x="324.39" y="645.93" width="6.2" height="5.79"/>
      <rect class="cls-13" x="329.74" y="645.93" width="6.2" height="5.79"/>
      <rect class="cls-13" x="335.08" y="645.93" width="6.2" height="5.79"/>
      <rect class="cls-13" x="340.43" y="645.93" width="6.2" height="5.79"/>
      <rect class="cls-13" x="345.78" y="660.9" width="6.2" height="5.79"/>
      <rect class="cls-13" x="351.12" y="660.9" width="6.2" height="5.79"/>
      <rect class="cls-13" x="356.47" y="660.9" width="6.2" height="5.79"/>
      <rect class="cls-13" x="372.51" y="660.9" width="6.2" height="5.79"/>
      <rect class="cls-13" x="377.86" y="660.9" width="6.2" height="5.79"/>
      <rect class="cls-13" x="383.2" y="660.9" width="6.2" height="5.79"/>
      <rect class="cls-8" x="388.55" y="660.9" width="6.2" height="5.79"/>
      <rect class="cls-13" x="393.9" y="660.9" width="6.2" height="5.79"/>
      <rect class="cls-13" x="351.12" y="655.91" width="6.2" height="5.79"/>
      <rect class="cls-13" x="356.47" y="655.91" width="6.2" height="5.79"/>
      <rect class="cls-13" x="361.82" y="655.91" width="6.2" height="5.79"/>
      <rect class="cls-13" x="367.16" y="655.91" width="6.2" height="5.79"/>
      <rect class="cls-13" x="372.51" y="655.91" width="6.2" height="5.79"/>
      <rect class="cls-13" x="377.86" y="655.91" width="6.2" height="5.79"/>
      <rect class="cls-13" x="383.2" y="655.91" width="6.2" height="5.79"/>
      <rect class="cls-13" x="393.9" y="655.91" width="6.2" height="5.79"/>
      <rect class="cls-13" x="399.24" y="660.9" width="6.2" height="5.79"/>
      <rect class="cls-13" x="404.59" y="660.9" width="6.2" height="5.79"/>
      <rect class="cls-13" x="409.94" y="660.9" width="6.2" height="5.79"/>
      <rect class="cls-13" x="415.28" y="660.9" width="6.2" height="5.79"/>
      <rect class="cls-13" x="420.63" y="660.9" width="6.2" height="5.79"/>
      <rect class="cls-13" x="431.33" y="660.9" width="6.2" height="5.79"/>
      <rect class="cls-13" x="442.02" y="660.9" width="6.2" height="5.79"/>
      <rect class="cls-13" x="399.24" y="655.91" width="6.2" height="5.79"/>
      <rect class="cls-13" x="415.28" y="655.91" width="6.2" height="5.79"/>
      <rect class="cls-13" x="420.63" y="655.91" width="6.2" height="5.79"/>
      <rect class="cls-13" x="425.98" y="655.91" width="6.2" height="5.79"/>
      <rect class="cls-13" x="431.33" y="655.91" width="6.2" height="5.79"/>
      <rect class="cls-13" x="436.67" y="655.91" width="6.2" height="5.79"/>
      <rect class="cls-13" x="442.02" y="655.91" width="6.2" height="5.79"/>
      <rect class="cls-13" x="447.37" y="655.91" width="6.2" height="5.79"/>
      <rect class="cls-8" x="345.78" y="645.93" width="11.55" height="10.78"/>
      <rect class="cls-13" x="367.16" y="645.93" width="11.55" height="10.78"/>
      <rect class="cls-13" x="388.55" y="645.93" width="11.55" height="10.78"/>
      <rect class="cls-13" x="399.24" y="645.93" width="11.55" height="10.78"/>
      <rect class="cls-13" x="409.94" y="645.93" width="11.55" height="10.78"/>
      <rect class="cls-13" x="420.63" y="645.93" width="11.55" height="10.78"/>
      <rect class="cls-13" x="431.33" y="645.93" width="11.55" height="10.78"/>
      <rect class="cls-8" x="442.02" y="645.93" width="11.55" height="10.78"/>
      <rect class="cls-8" x="238.84" y="635.95" width="11.55" height="10.78"/>
      <rect class="cls-13" x="249.53" y="635.95" width="11.55" height="10.78"/>
      <rect class="cls-13" x="260.23" y="635.95" width="11.55" height="10.78"/>
      <rect class="cls-13" x="292.31" y="635.95" width="11.55" height="10.78"/>
      <rect class="cls-8" x="303" y="635.95" width="11.55" height="10.78"/>
      <rect class="cls-13" x="313.7" y="635.95" width="11.55" height="10.78"/>
      <rect class="cls-13" x="324.39" y="635.95" width="11.55" height="10.78"/>
      <rect class="cls-13" x="244.19" y="630.96" width="6.2" height="5.79"/>
      <rect class="cls-13" x="249.53" y="630.96" width="6.2" height="5.79"/>
      <rect class="cls-13" x="260.23" y="630.96" width="6.2" height="5.79"/>
      <rect class="cls-13" x="276.27" y="630.96" width="6.2" height="5.79"/>
      <rect class="cls-13" x="286.96" y="630.96" width="6.2" height="5.79"/>
      <rect class="cls-13" x="244.19" y="625.97" width="6.2" height="5.79"/>
      <rect class="cls-13" x="249.53" y="625.97" width="6.2" height="5.79"/>
      <rect class="cls-13" x="265.58" y="625.97" width="6.2" height="5.79"/>
      <rect class="cls-13" x="270.92" y="625.97" width="6.2" height="5.79"/>
      <rect class="cls-13" x="281.62" y="625.97" width="6.2" height="5.79"/>
      <rect class="cls-13" x="286.96" y="625.97" width="6.2" height="5.79"/>
      <rect class="cls-13" x="297.66" y="630.96" width="6.2" height="5.79"/>
      <rect class="cls-13" x="303" y="630.96" width="6.2" height="5.79"/>
      <rect class="cls-13" x="313.7" y="630.96" width="6.2" height="5.79"/>
      <rect class="cls-13" x="319.04" y="630.96" width="6.2" height="5.79"/>
      <rect class="cls-13" x="324.39" y="630.96" width="6.2" height="5.79"/>
      <rect class="cls-13" x="335.08" y="630.96" width="6.2" height="5.79"/>
      <rect class="cls-13" x="340.43" y="630.96" width="6.2" height="5.79"/>
      <rect class="cls-13" x="297.66" y="625.97" width="6.2" height="5.79"/>
      <rect class="cls-13" x="303" y="625.97" width="6.2" height="5.79"/>
      <rect class="cls-13" x="313.7" y="625.97" width="6.2" height="5.79"/>
      <rect class="cls-13" x="324.39" y="625.97" width="6.2" height="5.79"/>
      <rect class="cls-13" x="335.08" y="625.97" width="6.2" height="5.79"/>
      <rect class="cls-13" x="345.78" y="640.94" width="6.2" height="5.79"/>
      <rect class="cls-13" x="351.12" y="640.94" width="6.2" height="5.79"/>
      <rect class="cls-13" x="356.47" y="640.94" width="6.2" height="5.79"/>
      <rect class="cls-13" x="361.82" y="640.94" width="6.2" height="5.79"/>
      <rect class="cls-13" x="372.51" y="640.94" width="6.2" height="5.79"/>
      <rect class="cls-13" x="377.86" y="640.94" width="6.2" height="5.79"/>
      <rect class="cls-13" x="383.2" y="640.94" width="6.2" height="5.79"/>
      <rect class="cls-13" x="388.55" y="640.94" width="6.2" height="5.79"/>
      <rect class="cls-13" x="393.9" y="640.94" width="6.2" height="5.79"/>
      <rect class="cls-13" x="345.78" y="635.95" width="6.2" height="5.79"/>
      <rect class="cls-13" x="351.12" y="635.95" width="6.2" height="5.79"/>
      <rect class="cls-13" x="361.82" y="635.95" width="6.2" height="5.79"/>
      <rect class="cls-13" x="367.16" y="635.95" width="6.2" height="5.79"/>
      <rect class="cls-13" x="372.51" y="635.95" width="6.2" height="5.79"/>
      <rect class="cls-13" x="377.86" y="635.95" width="6.2" height="5.79"/>
      <rect class="cls-13" x="388.55" y="635.95" width="6.2" height="5.79"/>
      <rect class="cls-13" x="393.9" y="635.95" width="6.2" height="5.79"/>
      <rect class="cls-13" x="399.24" y="640.94" width="6.2" height="5.79"/>
      <rect class="cls-13" x="404.59" y="640.94" width="6.2" height="5.79"/>
      <rect class="cls-13" x="415.28" y="640.94" width="6.2" height="5.79"/>
      <rect class="cls-13" x="420.63" y="640.94" width="6.2" height="5.79"/>
      <rect class="cls-13" x="425.98" y="640.94" width="6.2" height="5.79"/>
      <rect class="cls-13" x="431.33" y="640.94" width="6.2" height="5.79"/>
      <rect class="cls-13" x="436.67" y="640.94" width="6.2" height="5.79"/>
      <rect class="cls-13" x="442.02" y="640.94" width="6.2" height="5.79"/>
      <rect class="cls-13" x="399.24" y="635.95" width="6.2" height="5.79"/>
      <rect class="cls-13" x="404.59" y="635.95" width="6.2" height="5.79"/>
      <rect class="cls-13" x="409.94" y="635.95" width="6.2" height="5.79"/>
      <rect class="cls-13" x="415.28" y="635.95" width="6.2" height="5.79"/>
      <rect class="cls-13" x="425.98" y="635.95" width="6.2" height="5.79"/>
      <rect class="cls-13" x="436.67" y="635.95" width="6.2" height="5.79"/>
      <rect class="cls-13" x="442.02" y="635.95" width="6.2" height="5.79"/>
      <rect class="cls-13" x="447.37" y="635.95" width="6.2" height="5.79"/>
      <rect class="cls-13" x="345.78" y="630.96" width="6.2" height="5.79"/>
      <rect class="cls-13" x="351.12" y="630.96" width="6.2" height="5.79"/>
      <rect class="cls-13" x="356.47" y="630.96" width="6.2" height="5.79"/>
      <rect class="cls-13" x="361.82" y="630.96" width="6.2" height="5.79"/>
      <rect class="cls-13" x="367.16" y="630.96" width="6.2" height="5.79"/>
      <rect class="cls-13" x="377.86" y="630.96" width="6.2" height="5.79"/>
      <rect class="cls-13" x="383.2" y="630.96" width="6.2" height="5.79"/>
      <rect class="cls-13" x="393.9" y="630.96" width="6.2" height="5.79"/>
      <rect class="cls-13" x="345.78" y="625.97" width="6.2" height="5.79"/>
      <rect class="cls-13" x="351.12" y="625.97" width="6.2" height="5.79"/>
      <rect class="cls-13" x="356.47" y="625.97" width="6.2" height="5.79"/>
      <rect class="cls-13" x="367.16" y="625.97" width="6.2" height="5.79"/>
      <rect class="cls-13" x="377.86" y="625.97" width="6.2" height="5.79"/>
      <rect class="cls-13" x="388.55" y="625.97" width="6.2" height="5.79"/>
      <rect class="cls-13" x="393.9" y="625.97" width="6.2" height="5.79"/>
      <rect class="cls-13" x="399.24" y="630.96" width="6.2" height="5.79"/>
      <rect class="cls-13" x="404.59" y="630.96" width="6.2" height="5.79"/>
      <rect class="cls-13" x="409.94" y="630.96" width="6.2" height="5.79"/>
      <rect class="cls-13" x="415.28" y="630.96" width="6.2" height="5.79"/>
      <rect class="cls-13" x="425.98" y="630.96" width="6.2" height="5.79"/>
      <rect class="cls-13" x="431.33" y="630.96" width="6.2" height="5.79"/>
      <rect class="cls-13" x="436.67" y="630.96" width="6.2" height="5.79"/>
      <rect class="cls-13" x="447.37" y="630.96" width="6.2" height="5.79"/>
      <rect class="cls-13" x="404.59" y="625.97" width="6.2" height="5.79"/>
      <rect class="cls-13" x="415.28" y="625.97" width="6.2" height="5.79"/>
      <rect class="cls-13" x="420.63" y="625.97" width="6.2" height="5.79"/>
      <rect class="cls-13" x="431.33" y="625.97" width="6.2" height="5.79"/>
      <rect class="cls-13" x="436.67" y="625.97" width="6.2" height="5.79"/>
      <rect class="cls-13" x="442.02" y="625.97" width="6.2" height="5.79"/>
      <rect class="cls-13" x="447.37" y="625.97" width="6.2" height="5.79"/>
      <rect class="cls-13" x="57.05" y="620.98" width="6.2" height="5.79"/>
      <rect class="cls-13" x="41.01" y="615.98" width="6.2" height="5.79"/>
      <rect class="cls-13" x="73.09" y="615.98" width="6.2" height="5.79"/>
      <rect class="cls-13" x="89.13" y="620.98" width="6.2" height="5.79"/>
      <rect class="cls-13" x="105.17" y="620.98" width="6.2" height="5.79"/>
      <rect class="cls-13" x="115.87" y="620.98" width="6.2" height="5.79"/>
      <rect class="cls-13" x="83.79" y="615.98" width="6.2" height="5.79"/>
      <rect class="cls-13" x="126.56" y="615.98" width="6.2" height="5.79"/>
      <rect class="cls-13" x="46.36" y="606" width="6.2" height="5.79"/>
      <rect class="cls-13" x="67.74" y="606" width="6.2" height="5.79"/>
      <rect class="cls-13" x="110.52" y="610.99" width="6.2" height="5.79"/>
      <rect class="cls-13" x="121.21" y="610.99" width="6.2" height="5.79"/>
      <rect class="cls-13" x="94.48" y="606" width="6.2" height="5.79"/>
      <rect class="cls-13" x="126.56" y="606" width="6.2" height="5.79"/>
      <rect class="cls-13" x="137.25" y="620.98" width="6.2" height="5.79"/>
      <rect class="cls-13" x="142.6" y="620.98" width="6.2" height="5.79"/>
      <rect class="cls-13" x="174.68" y="620.98" width="6.2" height="5.79"/>
      <rect class="cls-13" x="137.25" y="615.98" width="6.2" height="5.79"/>
      <rect class="cls-13" x="153.29" y="615.98" width="6.2" height="5.79"/>
      <rect class="cls-13" x="163.99" y="615.98" width="6.2" height="5.79"/>
      <rect class="cls-13" x="169.33" y="615.98" width="6.2" height="5.79"/>
      <rect class="cls-13" x="185.37" y="620.98" width="6.2" height="5.79"/>
      <rect class="cls-13" x="190.72" y="620.98" width="6.2" height="5.79"/>
      <rect class="cls-13" x="196.07" y="620.98" width="6.2" height="5.79"/>
      <rect class="cls-13" x="201.41" y="620.98" width="6.2" height="5.79"/>
      <rect class="cls-13" x="217.45" y="620.98" width="6.2" height="5.79"/>
      <rect class="cls-13" x="228.15" y="620.98" width="6.2" height="5.79"/>
      <rect class="cls-13" x="206.76" y="615.98" width="6.2" height="5.79"/>
      <rect class="cls-13" x="212.11" y="615.98" width="6.2" height="5.79"/>
      <rect class="cls-13" x="222.8" y="615.98" width="6.2" height="5.79"/>
      <rect class="cls-13" x="228.15" y="615.98" width="6.2" height="5.79"/>
      <rect class="cls-13" x="233.49" y="615.98" width="6.2" height="5.79"/>
      <rect class="cls-13" x="174.68" y="610.99" width="6.2" height="5.79"/>
      <rect class="cls-13" x="180.03" y="610.99" width="6.2" height="5.79"/>
      <rect class="cls-13" x="147.95" y="606" width="6.2" height="5.79"/>
      <rect class="cls-13" x="169.33" y="606" width="6.2" height="5.79"/>
      <rect class="cls-13" x="180.03" y="606" width="6.2" height="5.79"/>
      <rect class="cls-13" x="206.76" y="610.99" width="6.2" height="5.79"/>
      <rect class="cls-13" x="217.45" y="610.99" width="6.2" height="5.79"/>
      <rect class="cls-13" x="222.8" y="610.99" width="6.2" height="5.79"/>
      <rect class="cls-13" x="228.15" y="610.99" width="6.2" height="5.79"/>
      <rect class="cls-13" x="233.49" y="610.99" width="6.2" height="5.79"/>
      <rect class="cls-13" x="185.37" y="606" width="6.2" height="5.79"/>
      <rect class="cls-13" x="201.41" y="606" width="6.2" height="5.79"/>
      <rect class="cls-13" x="217.45" y="606" width="6.2" height="5.79"/>
      <rect class="cls-13" x="222.8" y="606" width="6.2" height="5.79"/>
      <rect class="cls-13" x="228.15" y="606" width="6.2" height="5.79"/>
      <rect class="cls-13" x="233.49" y="606" width="6.2" height="5.79"/>
      <rect class="cls-13" x="35.66" y="601.01" width="6.2" height="5.79"/>
      <rect class="cls-13" x="67.74" y="601.01" width="6.2" height="5.79"/>
      <rect class="cls-13" x="78.44" y="591.03" width="6.2" height="5.79"/>
      <rect class="cls-13" x="83.78" y="586.04" width="6.2" height="5.79"/>
      <rect class="cls-13" x="99.83" y="586.04" width="6.2" height="5.79"/>
      <rect class="cls-13" x="105.17" y="586.04" width="6.2" height="5.79"/>
      <rect class="cls-13" x="115.87" y="586.04" width="6.2" height="5.79"/>
      <rect class="cls-8" x="206.76" y="596.02" width="11.55" height="10.78"/>
      <rect class="cls-13" x="228.15" y="596.02" width="11.55" height="10.78"/>
      <rect class="cls-13" x="158.64" y="591.03" width="6.2" height="5.79"/>
      <rect class="cls-13" x="163.99" y="591.03" width="6.2" height="5.79"/>
      <rect class="cls-13" x="174.68" y="591.03" width="6.2" height="5.79"/>
      <rect class="cls-13" x="147.95" y="586.04" width="6.2" height="5.79"/>
      <rect class="cls-13" x="169.33" y="586.04" width="6.2" height="5.79"/>
      <rect class="cls-13" x="174.68" y="586.04" width="6.2" height="5.79"/>
      <rect class="cls-13" x="180.03" y="586.04" width="6.2" height="5.79"/>
      <rect class="cls-13" x="190.72" y="591.03" width="6.2" height="5.79"/>
      <rect class="cls-13" x="196.07" y="586.04" width="6.2" height="5.79"/>
      <rect class="cls-13" x="201.41" y="586.04" width="6.2" height="5.79"/>
      <rect class="cls-13" x="206.76" y="586.04" width="6.2" height="5.79"/>
      <rect class="cls-13" x="217.45" y="586.04" width="6.2" height="5.79"/>
      <rect class="cls-13" x="222.8" y="586.04" width="6.2" height="5.79"/>
      <rect class="cls-13" x="238.84" y="615.98" width="11.55" height="10.78"/>
      <rect class="cls-13" x="281.62" y="615.98" width="11.55" height="10.78"/>
      <rect class="cls-13" x="292.31" y="615.98" width="11.55" height="10.78"/>
      <rect class="cls-13" x="313.7" y="615.98" width="11.55" height="10.78"/>
      <rect class="cls-13" x="244.19" y="610.99" width="6.2" height="5.79"/>
      <rect class="cls-13" x="254.88" y="610.99" width="6.2" height="5.79"/>
      <rect class="cls-13" x="270.92" y="610.99" width="6.2" height="5.79"/>
      <rect class="cls-13" x="276.27" y="610.99" width="6.2" height="5.79"/>
      <rect class="cls-13" x="286.96" y="610.99" width="6.2" height="5.79"/>
      <rect class="cls-13" x="249.53" y="606" width="6.2" height="5.79"/>
      <rect class="cls-13" x="265.58" y="606" width="6.2" height="5.79"/>
      <rect class="cls-13" x="270.92" y="606" width="6.2" height="5.79"/>
      <rect class="cls-13" x="276.27" y="606" width="6.2" height="5.79"/>
      <rect class="cls-13" x="281.62" y="606" width="6.2" height="5.79"/>
      <rect class="cls-13" x="286.96" y="606" width="6.2" height="5.79"/>
      <rect class="cls-13" x="292.31" y="610.99" width="6.2" height="5.79"/>
      <rect class="cls-13" x="297.66" y="610.99" width="6.2" height="5.79"/>
      <rect class="cls-13" x="303" y="610.99" width="6.2" height="5.79"/>
      <rect class="cls-13" x="308.35" y="610.99" width="6.2" height="5.79"/>
      <rect class="cls-13" x="319.04" y="610.99" width="6.2" height="5.79"/>
      <rect class="cls-13" x="329.74" y="610.99" width="6.2" height="5.79"/>
      <rect class="cls-13" x="335.08" y="610.99" width="6.2" height="5.79"/>
      <rect class="cls-13" x="297.66" y="606" width="6.2" height="5.79"/>
      <rect class="cls-13" x="308.35" y="606" width="6.2" height="5.79"/>
      <rect class="cls-13" x="313.7" y="606" width="6.2" height="5.79"/>
      <rect class="cls-13" x="329.74" y="606" width="6.2" height="5.79"/>
      <rect class="cls-13" x="340.43" y="606" width="6.2" height="5.79"/>
      <rect class="cls-13" x="345.78" y="620.98" width="6.2" height="5.79"/>
      <rect class="cls-13" x="351.12" y="620.98" width="6.2" height="5.79"/>
      <rect class="cls-13" x="361.82" y="620.98" width="6.2" height="5.79"/>
      <rect class="cls-13" x="367.16" y="620.98" width="6.2" height="5.79"/>
      <rect class="cls-13" x="372.51" y="620.97" width="6.2" height="5.79"/>
      <rect class="cls-13" x="388.55" y="620.97" width="6.2" height="5.79"/>
      <rect class="cls-13" x="393.9" y="620.97" width="6.2" height="5.79"/>
      <rect class="cls-13" x="351.12" y="615.98" width="6.2" height="5.79"/>
      <rect class="cls-13" x="356.47" y="615.98" width="6.2" height="5.79"/>
      <rect class="cls-13" x="372.51" y="615.98" width="6.2" height="5.79"/>
      <rect class="cls-13" x="377.86" y="615.98" width="6.2" height="5.79"/>
      <rect class="cls-13" x="383.2" y="615.98" width="6.2" height="5.79"/>
      <rect class="cls-13" x="388.55" y="615.98" width="6.2" height="5.79"/>
      <rect class="cls-13" x="393.9" y="615.98" width="6.2" height="5.79"/>
      <rect class="cls-13" x="399.24" y="620.97" width="6.2" height="5.79"/>
      <rect class="cls-13" x="404.59" y="620.97" width="6.2" height="5.79"/>
      <rect class="cls-13" x="409.94" y="620.97" width="6.2" height="5.79"/>
      <rect class="cls-13" x="420.63" y="620.97" width="6.2" height="5.79"/>
      <rect class="cls-13" x="425.98" y="620.97" width="6.2" height="5.79"/>
      <rect class="cls-13" x="431.33" y="620.97" width="6.2" height="5.79"/>
      <rect class="cls-13" x="436.67" y="620.97" width="6.2" height="5.79"/>
      <rect class="cls-13" x="442.02" y="620.97" width="6.2" height="5.79"/>
      <rect class="cls-13" x="447.37" y="620.97" width="6.2" height="5.79"/>
      <rect class="cls-13" x="399.24" y="615.98" width="6.2" height="5.79"/>
      <rect class="cls-13" x="409.94" y="615.98" width="6.2" height="5.79"/>
      <rect class="cls-13" x="415.28" y="615.98" width="6.2" height="5.79"/>
      <rect class="cls-13" x="420.63" y="615.98" width="6.2" height="5.79"/>
      <rect class="cls-13" x="425.98" y="615.98" width="6.2" height="5.79"/>
      <rect class="cls-13" x="431.33" y="615.98" width="6.2" height="5.79"/>
      <rect class="cls-13" x="436.67" y="615.98" width="6.2" height="5.79"/>
      <rect class="cls-13" x="442.02" y="615.98" width="6.2" height="5.79"/>
      <rect class="cls-13" x="447.37" y="615.98" width="6.2" height="5.79"/>
      <rect class="cls-13" x="345.78" y="606" width="11.55" height="10.78"/>
      <rect class="cls-8" x="367.16" y="606" width="11.55" height="10.78"/>
      <rect class="cls-13" x="377.86" y="606" width="11.55" height="10.78"/>
      <rect class="cls-13" x="388.55" y="606" width="11.55" height="10.78"/>
      <rect class="cls-13" x="399.24" y="606" width="11.55" height="10.78"/>
      <rect class="cls-13" x="409.94" y="606" width="11.55" height="10.78"/>
      <rect class="cls-13" x="420.63" y="606" width="11.55" height="10.78"/>
      <rect class="cls-13" x="431.33" y="606" width="11.55" height="10.78"/>
      <rect class="cls-13" x="238.84" y="596.02" width="11.55" height="10.78"/>
      <rect class="cls-13" x="260.23" y="596.02" width="11.55" height="10.78"/>
      <rect class="cls-13" x="270.92" y="596.02" width="11.55" height="10.78"/>
      <rect class="cls-13" x="292.31" y="596.02" width="11.55" height="10.78"/>
      <rect class="cls-13" x="303" y="596.02" width="11.55" height="10.78"/>
      <rect class="cls-13" x="324.39" y="596.02" width="11.55" height="10.78"/>
      <rect class="cls-13" x="335.08" y="596.02" width="11.55" height="10.78"/>
      <rect class="cls-13" x="249.53" y="586.04" width="11.55" height="10.78"/>
      <rect class="cls-13" x="270.92" y="586.04" width="11.55" height="10.78"/>
      <rect class="cls-13" x="281.62" y="586.04" width="11.55" height="10.78"/>
      <rect class="cls-8" x="292.31" y="586.04" width="11.55" height="10.78"/>
      <rect class="cls-13" x="303" y="586.04" width="11.55" height="10.78"/>
      <rect class="cls-13" x="313.7" y="586.04" width="11.55" height="10.78"/>
      <rect class="cls-13" x="324.39" y="586.04" width="11.55" height="10.78"/>
      <rect class="cls-13" x="345.78" y="596.02" width="11.55" height="10.78"/>
      <rect class="cls-13" x="356.47" y="596.02" width="11.55" height="10.78"/>
      <rect class="cls-13" x="367.16" y="596.02" width="11.55" height="10.78"/>
      <rect class="cls-13" x="377.86" y="596.02" width="11.55" height="10.78"/>
      <rect class="cls-13" x="388.55" y="596.02" width="11.55" height="10.78"/>
      <rect class="cls-13" x="409.94" y="596.02" width="11.55" height="10.78"/>
      <rect class="cls-8" x="420.63" y="596.02" width="11.55" height="10.78"/>
      <rect class="cls-13" x="431.33" y="596.02" width="11.55" height="10.78"/>
      <rect class="cls-13" x="442.02" y="596.02" width="11.55" height="10.78"/>
      <rect class="cls-13" x="345.78" y="591.03" width="6.2" height="5.79"/>
      <rect class="cls-13" x="351.12" y="591.03" width="6.2" height="5.79"/>
      <rect class="cls-13" x="356.47" y="591.03" width="6.2" height="5.79"/>
      <rect class="cls-13" x="367.16" y="591.03" width="6.2" height="5.79"/>
      <rect class="cls-13" x="372.51" y="591.03" width="6.2" height="5.79"/>
      <rect class="cls-13" x="377.86" y="591.03" width="6.2" height="5.79"/>
      <rect class="cls-13" x="383.2" y="591.03" width="6.2" height="5.79"/>
      <rect class="cls-13" x="388.55" y="591.03" width="6.2" height="5.79"/>
      <rect class="cls-13" x="393.9" y="591.03" width="6.2" height="5.79"/>
      <rect class="cls-13" x="345.78" y="586.04" width="6.2" height="5.79"/>
      <rect class="cls-13" x="356.47" y="586.04" width="6.2" height="5.79"/>
      <rect class="cls-13" x="367.16" y="586.04" width="6.2" height="5.79"/>
      <rect class="cls-13" x="372.51" y="586.04" width="6.2" height="5.79"/>
      <rect class="cls-13" x="377.86" y="586.04" width="6.2" height="5.79"/>
      <rect class="cls-13" x="383.2" y="586.04" width="6.2" height="5.79"/>
      <rect class="cls-13" x="388.55" y="586.04" width="6.2" height="5.79"/>
      <rect class="cls-13" x="393.9" y="586.04" width="6.2" height="5.79"/>
      <rect class="cls-13" x="399.24" y="591.03" width="6.2" height="5.79"/>
      <rect class="cls-13" x="404.59" y="591.03" width="6.2" height="5.79"/>
      <rect class="cls-13" x="409.94" y="591.03" width="6.2" height="5.79"/>
      <rect class="cls-13" x="415.28" y="591.03" width="6.2" height="5.79"/>
      <rect class="cls-13" x="420.63" y="591.03" width="6.2" height="5.79"/>
      <rect class="cls-13" x="431.33" y="591.03" width="6.2" height="5.79"/>
      <rect class="cls-13" x="436.67" y="591.03" width="6.2" height="5.79"/>
      <rect class="cls-13" x="442.02" y="591.03" width="6.2" height="5.79"/>
      <rect class="cls-13" x="447.37" y="591.03" width="6.2" height="5.79"/>
      <rect class="cls-13" x="399.24" y="586.04" width="6.2" height="5.79"/>
      <rect class="cls-13" x="404.59" y="586.04" width="6.2" height="5.79"/>
      <rect class="cls-13" x="409.94" y="586.04" width="6.2" height="5.79"/>
      <rect class="cls-13" x="415.28" y="586.04" width="6.2" height="5.79"/>
      <rect class="cls-13" x="420.63" y="586.04" width="6.2" height="5.79"/>
      <rect class="cls-13" x="431.33" y="586.04" width="6.2" height="5.79"/>
      <rect class="cls-13" x="436.67" y="586.04" width="6.2" height="5.79"/>
      <rect class="cls-13" x="442.02" y="586.04" width="6.2" height="5.79"/>
      <path class="cls-8" d="M452.71,666.69h32.72c.56,.02,2.68-.05,4.28-.12,1.68-.08,3.37-.17,5.05-.29,1.68-.17,3.36-.44,5.04-.68,1.67-.28,3.36-.49,5.01-.9l-8.63-39.8c-.87,.24-1.78,.3-2.66,.46-.89,.13-1.78,.3-2.67,.39-1.8,.07-3.59,.23-5.41,.23h-10.91s-21.81,0-21.81,0v40.73Z"/>
      <path class="cls-13" d="M503.25,665.03c13.36-2.62,26.03-8.54,36.69-16.86,10.72-8.28,19.28-19.2,25.08-31.48l-36.86-17.33c-3.08,6.5-7.61,12.37-13.35,16.75-5.69,4.41-12.38,7.57-19.46,8.96l7.9,39.95Z"/>
      <path class="cls-13" d="M564.32,618.12c5.99-12.17,9.17-25.88,8.95-39.32-.15-13.46-3.53-27.09-9.78-39.14l-36.13,18.79c3.3,6.41,5.09,13.58,5.19,20.79,.14,7.22-1.6,14.42-4.76,20.88l36.53,18Z"/>
      <path class="cls-13" d="M564.2,541.09c-1.42-3.09-3.25-5.95-5.03-8.84-.87-1.46-1.92-2.78-2.92-4.15-1.02-1.35-2.02-2.72-3.1-4.02-4.41-5.12-9.23-9.92-14.71-13.91-1.37-1-2.7-2.04-4.13-2.95-1.43-.91-2.88-1.79-4.34-2.66l-2.19-1.28-2.28-1.14c-1.52-.75-3.06-1.48-4.6-2.19-1.55-.7-3.16-1.25-4.75-1.85-1.6-.56-3.19-1.19-4.83-1.64-1.64-.45-3.29-.89-4.94-1.29l-2.48-.6-2.51-.43-7.03,40.11,1.34,.21,1.31,.34,2.62,.67c.87,.22,1.7,.6,2.55,.88,.84,.33,1.71,.58,2.52,.97l2.44,1.17,1.22,.59,1.16,.7,2.31,1.4c.77,.47,1.46,1.06,2.19,1.59,2.94,2.1,5.47,4.7,7.85,7.4,.57,.69,1.09,1.44,1.64,2.15,.52,.74,1.13,1.41,1.56,2.2,.91,1.55,1.95,3.04,2.66,4.7l36.47-18.12Z"/>
      <path class="cls-13" d="M502.98,494.39c-1.67-.29-3.35-.55-5.03-.79l-2.52-.35c-.84-.09-1.68-.13-2.52-.19-1.68-.1-3.37-.19-5.05-.25l-1.26-.04h-.45s-.34,0-.34,0h-34.09v40.73h21.81s10.91,0,10.91,0c1.83-.04,3.62,.09,5.42,.18,.45,.03,.9,.03,1.35,.08l1.34,.2,2.67,.41,7.77-39.98Z"/>
      <rect class="cls-13" x="408.94" y="492.77" width="43.63" height="40.73"/>
      <rect class="cls-8" x="366.16" y="492.77" width="43.63" height="40.73"/>
      <path class="cls-13" d="M367.02,492.77h-21.81s-5.45,0-5.45,0h-2.05c-.2,0-.55,0-.49-.01-.13-.04-.26-.06-.39-.06-.54,.04-.96-.17-1.44-.21l-11.91,38.95c3.53,.98,7.14,1.75,10.8,1.91l2.75,.14c.91,.02,1.82,0,2.73,.01h27.27v-40.73Z"/>
      <path class="cls-13" d="M335.49,492.5c-.92-.17-1.73-.77-2.5-1.43-.25-.11-.32-.39-.54-.53-.14-.05-.14-.21-.22-.31-.07-.11-.17-.19-.26-.28-.18-.46-.53-.83-.61-1.3l-38.17,14.2c1.2,3.47,3.02,6.69,4.96,9.79,.53,.75,1.09,1.47,1.63,2.21,.56,.72,1.06,1.5,1.71,2.15,1.25,1.34,2.41,2.77,3.82,3.95,5.39,4.95,11.89,8.78,18.98,10.71l11.19-39.16Z"/>
      <path class="cls-13" d="M331.4,488.75c-.02-.12-.07-.22-.13-.32l-.05-.08v-.09c0-.06,0-.12-.02-.18-.02-.12-.09-.22-.13-.33,.02-.13,.01-.25-.01-.37-.14-.22,0-.51-.07-.76l-.03-.1-.02-.05s0-.04,0-.11v-26.08s-40.73,0-40.73,0v21.81c.02,1.82-.06,3.63,.06,5.46,.12,1.83,.1,3.67,.46,5.47l.42,2.72c.19,.9,.45,1.78,.67,2.67l.34,1.33,.17,.67,.23,.65,.95,2.58,37.9-14.91Z"/>
      <rect class="cls-13" x="452.71" y="615.98" width="11.55" height="10.78"/>
      <rect class="cls-13" x="463.41" y="615.98" width="11.55" height="10.78"/>
      <rect class="cls-13" x="474.1" y="615.98" width="11.55" height="10.78"/>
      <path class="cls-13" d="M484.79,626.76c1.92,.05,3.87-.14,5.8-.21,.97-.04,1.92-.26,2.88-.38,.95-.17,1.93-.24,2.87-.49l-2.28-10.54c-.72,.21-1.48,.24-2.21,.37-.74,.09-1.47,.29-2.22,.3l-2.25,.11-1.15,.06h-1.44v10.78Z"/>
      <path class="cls-13" d="M495.51,625.86c.95-.18,1.88-.47,2.83-.69,.93-.26,1.9-.43,2.8-.81,1.82-.68,3.67-1.27,5.39-2.19l-4.64-9.73c-1.31,.72-2.75,1.15-4.14,1.69-.69,.31-1.43,.41-2.15,.61-.73,.17-1.44,.41-2.17,.54l2.09,10.58Z"/>
      <path class="cls-13" d="M505.74,622.54l2.62-1.26c.87-.43,1.67-.99,2.51-1.47,1.7-.94,3.22-2.17,4.77-3.32l-6.73-8.42c-1.21,.88-2.36,1.85-3.69,2.56-.65,.37-1.26,.82-1.93,1.14l-2.02,.97,4.46,9.82Z"/>
      <path class="cls-13" d="M514.96,617l1.17-.87c.38-.3,.72-.65,1.09-.97l2.15-1.96c.7-.68,1.32-1.42,1.98-2.13,.65-.72,1.33-1.41,1.89-2.22l-8.46-6.68c-.41,.63-.96,1.15-1.46,1.71-.51,.54-.98,1.13-1.52,1.65l-1.67,1.51c-.28,.25-.54,.52-.83,.75l-.91,.67,6.57,8.55Z"/>
      <path class="cls-13" d="M522.72,609.54l1.74-2.33,.87-1.17,.76-1.24,1.51-2.49c.45-.86,.85-1.74,1.28-2.61l-9.76-4.59c-.33,.67-.63,1.36-.98,2.02l-1.17,1.91-.58,.96-.68,.89-1.34,1.8,8.33,6.84Z"/>
      <path class="cls-13" d="M528.51,600.47c.41-.88,.86-1.74,1.24-2.63l1-2.73,.5-1.37,.37-1.41,.72-2.82-10.55-2.23-.57,2.17-.27,1.09-.4,1.05-.76,2.11c-.3,.68-.65,1.34-.97,2.02l9.67,4.77Z"/>
      <path class="cls-13" d="M532.13,590.35c.28-.93,.42-1.89,.55-2.86l.44-2.88,.15-2.91c.03-.97,.14-1.94,.05-2.91l-10.78,.21c.09,.75-.02,1.5-.04,2.25l-.11,2.25-.35,2.22c-.1,.74-.2,1.48-.42,2.2l10.5,2.43Z"/>
      <rect class="cls-13" x="452.71" y="606" width="11.55" height="10.78"/>
      <rect class="cls-13" x="463.41" y="606" width="11.55" height="10.78"/>
      <rect class="cls-13" x="474.1" y="606" width="11.55" height="10.78"/>
      <path class="cls-8" d="M484.79,616.78h1.44l1.17-.06,2.3-.11c.77-.02,1.51-.22,2.27-.31,.75-.14,1.52-.17,2.26-.38l-2.28-10.54c-.52,.16-1.07,.15-1.6,.26-.54,.06-1.06,.23-1.61,.23-.55,.01-1.09,.04-1.64,.07-.29,.02-.5,.05-.87,.06h-1.44v10.78Z"/>
      <path class="cls-13" d="M493.57,616.06c.75-.14,1.48-.38,2.22-.55,.73-.21,1.5-.32,2.2-.63,1.43-.54,2.89-.99,4.24-1.73l-4.64-9.73c-.94,.55-1.99,.82-2.99,1.22-.49,.24-1.04,.29-1.55,.44-.53,.12-1.03,.31-1.57,.4l2.09,10.58Z"/>
      <path class="cls-13" d="M501.62,613.45l2.07-.99c.69-.33,1.31-.79,1.97-1.17,1.35-.73,2.53-1.72,3.77-2.62l-6.73-8.42c-.89,.62-1.7,1.36-2.68,1.85-.47,.26-.9,.61-1.39,.84-.49,.22-.98,.45-1.46,.69l4.46,9.82Z"/>
      <path class="cls-13" d="M508.87,609.08l.92-.68c.3-.24,.57-.51,.85-.77l1.7-1.54c.55-.53,1.03-1.13,1.56-1.69,.51-.57,1.07-1.1,1.49-1.75l-8.46-6.68c-.29,.47-.7,.83-1.06,1.24-.38,.39-.71,.83-1.1,1.21-.42,.35-.82,.72-1.22,1.09-.2,.18-.39,.39-.6,.55l-.66,.47,6.57,8.55Z"/>
      <path class="cls-13" d="M515,603.21l1.37-1.84,.7-.91,.59-.98,1.2-1.96c.35-.68,.66-1.38,1-2.06l-9.76-4.59c-.25,.48-.45,.98-.7,1.46-.3,.45-.58,.91-.86,1.38l-.41,.71-.5,.64c-.33,.43-.65,.87-.96,1.32l8.33,6.84Z"/>
      <path class="cls-13" d="M519.55,596.06c.32-.69,.68-1.37,.99-2.07l.78-2.15,.4-1.07,.28-1.11,.58-2.22-10.55-2.23c-.15,.52-.29,1.04-.42,1.56l-.18,.79-.3,.75c-.19,.5-.37,1.01-.54,1.52-.22,.49-.49,.96-.71,1.46l9.67,4.77Z"/>
      <path class="cls-8" d="M522.4,588.1c.23-.73,.33-1.49,.43-2.25l.36-2.27,.11-2.3c.03-.77,.13-1.53,.05-2.3l-10.78,.21c.08,.55-.02,1.09-.04,1.64l-.06,1.64c-.1,.53-.19,1.07-.27,1.6-.07,.54-.12,1.08-.3,1.59l10.5,2.43Z"/>
      <polygon class="cls-13" points="533.37 579.66 533.21 576.54 533.13 574.97 532.9 573.43 527.17 574.2 527.37 575.55 527.44 576.92 527.58 579.67 533.37 579.66"/>
      <path class="cls-13" d="M533.03,574.28c-.33-2.06-.55-4.14-1.16-6.14l-5.61,1.42c.54,1.75,.72,3.58,1.02,5.38l5.75-.66Z"/>
      <path class="cls-13" d="M532.09,568.98l-.78-3.03c-.32-.99-.71-1.96-1.06-2.94l-5.41,2.06c.3,.86,.65,1.71,.93,2.58l.68,2.65,5.64-1.32Z"/>
      <path class="cls-13" d="M530.55,563.81c-.38-.97-.66-1.98-1.13-2.91l-1.36-2.82-5.14,2.67,1.19,2.47c.41,.82,.65,1.71,.98,2.55l5.45-1.96Z"/>
      <path class="cls-13" d="M528.44,558.86l-.68-1.41c-.25-.46-.53-.9-.8-1.34l-1.62-2.67-4.8,3.24,1.42,2.35c.23,.39,.49,.77,.7,1.18l.59,1.24,5.19-2.58Z"/>
      <path class="cls-13" d="M525.79,554.17c-.5-.92-1.2-1.7-1.8-2.55-.64-.82-1.2-1.71-1.94-2.45l-4.4,3.77c.65,.64,1.13,1.44,1.7,2.15,.53,.75,1.15,1.43,1.58,2.24l4.86-3.15Z"/>
      <path class="cls-13" d="M522.63,549.81l-2.1-2.31c-.36-.38-.69-.78-1.06-1.14l-1.16-1.05-3.94,4.24,1.02,.92c.33,.32,.62,.67,.93,1.01l1.85,2.03,4.46-3.69Z"/>
      <path class="cls-13" d="M518.94,545.88l-2.31-2.1c-.78-.7-1.65-1.27-2.47-1.91l-3.43,4.66c.72,.56,1.5,1.06,2.17,1.67l2.03,1.85,4.02-4.17Z"/>
      <path class="cls-13" d="M514.84,542.38c-.84-.61-1.65-1.28-2.53-1.84l-2.67-1.62-2.87,5.03,2.35,1.42c.77,.49,1.47,1.09,2.21,1.62l3.51-4.6Z"/>
      <path class="cls-13" d="M510.38,539.36c-1.74-1.16-3.69-1.94-5.55-2.88l-2.28,5.32c1.62,.84,3.34,1.49,4.86,2.53l2.97-4.97Z"/>
      <polygon class="cls-13" points="528.38 579.67 528.23 576.87 528.17 575.47 527.96 574.09 522.22 574.86 522.41 576.05 522.46 577.26 522.59 579.68 528.38 579.67"/>
      <path class="cls-13" d="M528.08,574.85c-.3-1.84-.48-3.7-1.04-5.49l-5.61,1.42c.49,1.53,.62,3.14,.9,4.73l5.75-.66Z"/>
      <path class="cls-13" d="M527.23,570.11l-.69-2.71c-.29-.88-.64-1.75-.95-2.63l-5.41,2.06c.26,.76,.57,1.5,.82,2.26l.59,2.33,5.64-1.32Z"/>
      <path class="cls-13" d="M525.86,565.5c-.34-.86-.59-1.77-1-2.6l-1.21-2.52-5.14,2.67,1.05,2.17c.37,.72,.56,1.5,.86,2.24l5.45-1.96Z"/>
      <path class="cls-13" d="M523.97,561.08l-.6-1.26c-.22-.41-.48-.8-.72-1.2l-1.45-2.39-4.8,3.24,1.24,2.07c.2,.35,.44,.68,.62,1.03l.51,1.09,5.19-2.58Z"/>
      <path class="cls-13" d="M521.6,556.89c-.44-.82-1.08-1.52-1.62-2.28-.58-.73-1.06-1.54-1.73-2.19l-4.4,3.77c.58,.56,.99,1.27,1.49,1.89,.46,.66,1.02,1.25,1.4,1.96l4.86-3.15Z"/>
      <path class="cls-13" d="M518.78,552.98l-1.88-2.07c-.32-.34-.61-.7-.95-1.03l-1.04-.94-3.94,4.24,.9,.81c.29,.28,.54,.6,.82,.89l1.63,1.78,4.46-3.69Z"/>
      <path class="cls-13" d="M515.48,549.47l-2.07-1.88c-.69-.63-1.48-1.13-2.21-1.7l-3.43,4.66c.63,.5,1.32,.92,1.91,1.47l1.78,1.63,4.02-4.17Z"/>
      <path class="cls-13" d="M511.81,546.35c-.76-.54-1.47-1.15-2.26-1.65l-2.39-1.45-2.87,5.03,2.06,1.25c.68,.43,1.29,.96,1.94,1.43l3.51-4.6Z"/>
      <path class="cls-13" d="M507.82,543.65c-1.55-1.05-3.3-1.72-4.96-2.57l-2.28,5.32c1.42,.75,2.94,1.3,4.27,2.22l2.97-4.97Z"/>
      <path class="cls-13" d="M505.61,536.86c-.92-.49-1.92-.8-2.9-1.17-.99-.33-1.94-.77-2.95-1.02l-1.65,5.55c.89,.21,1.72,.61,2.59,.9,.85,.32,1.73,.58,2.54,1.02l2.38-5.28Z"/>
      <path class="cls-13" d="M500.59,534.91c-.99-.31-2.02-.53-3.02-.81l-1.51-.39c-.51-.12-1.03-.17-1.54-.26l-1,5.7c.45,.08,.91,.11,1.35,.22l1.33,.35c.88,.24,1.78,.43,2.65,.7l1.75-5.52Z"/>
      <path class="cls-13" d="M495.36,533.59c-2.06-.28-4.11-.73-6.2-.74l-.34,5.78c1.84,0,3.63,.41,5.44,.65l1.1-5.68Z"/>
      <path class="cls-13" d="M490.02,532.89l-3.12-.16c-1.04-.06-2.07-.02-3.11-.03v5.79h1.55c.51,0,1.06,0,1.49,.03l2.74,.14,.45-5.77Z"/>
      <rect class="cls-13" x="478.44" y="532.7" width="6.2" height="5.79"/>
      <rect class="cls-13" x="473.1" y="532.7" width="6.2" height="5.79"/>
      <rect class="cls-13" x="467.75" y="532.7" width="6.2" height="5.79"/>
      <rect class="cls-13" x="462.4" y="532.7" width="6.2" height="5.79"/>
      <rect class="cls-13" x="457.06" y="532.7" width="6.2" height="5.79"/>
      <rect class="cls-13" x="451.71" y="532.7" width="6.2" height="5.79"/>
      <path class="cls-13" d="M503.56,541.41c-.82-.45-1.72-.72-2.59-1.04-.88-.29-1.73-.7-2.64-.91l-1.65,5.55c.78,.18,1.51,.54,2.27,.79,.75,.28,1.53,.5,2.23,.9l2.38-5.28Z"/>
      <path class="cls-13" d="M499.08,539.67c-.89-.28-1.8-.47-2.7-.71l-1.35-.35c-.45-.11-.92-.15-1.38-.23l-1,5.7c.4,.07,.8,.09,1.19,.19l1.16,.31c.77,.21,1.56,.37,2.33,.61l1.75-5.52Z"/>
      <path class="cls-13" d="M494.41,538.49c-1.85-.24-3.67-.66-5.55-.66l-.34,5.78c1.62-.02,3.19,.37,4.79,.56l1.1-5.68Z"/>
      <path class="cls-13" d="M489.63,537.86l-2.8-.14c-.93-.05-2.04-.02-3.05-.03v5.79h1.55c.51,0,1.08,0,1.43,.03l2.42,.13,.45-5.77Z"/>
      <rect class="cls-13" x="478.44" y="537.69" width="6.2" height="5.79"/>
      <rect class="cls-13" x="473.1" y="537.69" width="6.2" height="5.79"/>
      <rect class="cls-13" x="467.75" y="537.69" width="6.2" height="5.79"/>
      <rect class="cls-13" x="462.4" y="537.69" width="6.2" height="5.79"/>
      <rect class="cls-13" x="457.06" y="537.69" width="6.2" height="5.79"/>
      <rect class="cls-13" x="451.71" y="537.69" width="6.2" height="5.79"/>
      <path class="cls-13" d="M523.39,579.67c-.13-3.06-.35-6.14-1.19-9.08l-10.45,2.65c.62,2.07,.72,4.26,.86,6.44l10.78-.02Z"/>
      <path class="cls-13" d="M522.37,571.25l-.56-2.22c-.19-.74-.52-1.43-.76-2.16-.45-1.46-1.19-2.81-1.83-4.19l-9.56,4.97c.44,.99,1,1.92,1.29,2.96,.17,.51,.42,1,.55,1.52,.12,.53,.25,1.05,.39,1.57l10.5-2.46Z"/>
      <path class="cls-13" d="M519.5,563.3l-.49-1.04c-.16-.35-.39-.66-.58-.99l-1.19-1.96c-.4-.65-.91-1.23-1.35-1.85-.47-.6-.87-1.26-1.42-1.8l-8.19,7.01c.41,.37,.67,.86,1.01,1.28,.31,.45,.69,.84,.97,1.31,.27,.47,.55,.94,.84,1.39,.14,.23,.31,.45,.42,.69l.34,.74,9.66-4.8Z"/>
      <path class="cls-13" d="M514.93,556.16l-1.55-1.69-.77-.86c-.27-.27-.57-.51-.85-.77l-1.7-1.55c-.59-.49-1.23-.92-1.83-1.38l-6.39,8.68c.43,.34,.89,.63,1.31,.97,.39,.38,.79,.75,1.2,1.11,.2,.18,.42,.35,.61,.54l.54,.62c.36,.41,.73,.8,1.11,1.19l8.31-6.86Z"/>
      <path class="cls-13" d="M508.78,550.31c-.62-.45-1.22-.93-1.84-1.37l-1.96-1.18-.98-.6-1.04-.49-2.06-1-4.24,9.91c.48,.25,.96,.49,1.45,.72l.74,.33,.68,.44c.46,.29,.92,.56,1.4,.83l1.3,.98,6.54-8.57Z"/>
      <path class="cls-13" d="M501.51,545.96c-.67-.37-1.4-.6-2.12-.86-.72-.25-1.43-.54-2.15-.78l-2.22-.56-1.11-.29c-.37-.08-.76-.11-1.13-.17l-1.86,10.62c.27,.04,.54,.06,.8,.11l.78,.22c.52,.14,1.04,.27,1.57,.38l1.51,.57c.51,.18,1.03,.32,1.5,.6l4.42-9.83Z"/>
      <path class="cls-13" d="M493.46,543.39l-2.27-.34c-.38-.05-.75-.13-1.13-.17l-1.15-.05-2.3-.12c-.17-.02-.4-.02-.65-.02h-2.17v10.78h2.53l.22,.02c.55,.05,1.09,.08,1.64,.1l.82,.02c.27,.03,.53,.09,.8,.13,.53,.09,1.07,.17,1.61,.23l2.06-10.58Z"/>
      <rect class="cls-13" x="473.1" y="542.68" width="11.55" height="10.78"/>
      <rect class="cls-13" x="462.4" y="542.68" width="11.55" height="10.78"/>
      <rect class="cls-13" x="451.71" y="542.68" width="11.55" height="10.78"/>
      <rect class="cls-13" x="452.71" y="601.01" width="6.2" height="5.79"/>
      <rect class="cls-13" x="458.06" y="601.01" width="6.2" height="5.79"/>
      <rect class="cls-13" x="463.41" y="601.01" width="6.2" height="5.79"/>
      <rect class="cls-13" x="468.75" y="601.01" width="6.2" height="5.79"/>
      <rect class="cls-13" x="474.1" y="601.01" width="6.2" height="5.79"/>
      <rect class="cls-13" x="479.45" y="601.01" width="6.2" height="5.79"/>
      <path class="cls-13" d="M484.79,606.8h1.55l.91-.07c.6-.04,1.21-.06,1.81-.07l-.57-5.76c-.48,0-.96,.01-1.43,.05l-.72,.06h-1.55v5.79Z"/>
      <path class="cls-13" d="M488.56,606.67c.61,.03,1.19-.15,1.79-.22,.59-.12,1.2-.12,1.77-.29l-1.23-5.66c-.45,.14-.93,.12-1.39,.22-.47,.06-.92,.22-1.41,.18l.47,5.77Z"/>
      <path class="cls-13" d="M491.64,606.27c.59-.11,1.15-.31,1.73-.44l.87-.21c.29-.06,.56-.21,.84-.31l-1.87-5.48c-.22,.07-.43,.2-.66,.25l-.69,.15c-.46,.1-.9,.27-1.36,.36l1.12,5.68Z"/>
      <path class="cls-13" d="M494.62,605.5c1.1-.46,2.27-.75,3.31-1.35l-2.49-5.23c-.81,.5-1.74,.68-2.59,1.07l1.77,5.51Z"/>
      <rect class="cls-13" x="452.71" y="596.02" width="6.2" height="5.79"/>
      <rect class="cls-13" x="458.06" y="596.02" width="6.2" height="5.79"/>
      <rect class="cls-13" x="463.41" y="596.02" width="6.2" height="5.79"/>
      <rect class="cls-13" x="468.75" y="596.02" width="6.2" height="5.79"/>
      <rect class="cls-13" x="474.1" y="596.02" width="6.2" height="5.79"/>
      <rect class="cls-13" x="479.45" y="596.02" width="6.2" height="5.79"/>
      <path class="cls-13" d="M484.79,601.81h1.55l.74-.06c.49-.03,.99-.05,1.49-.05l-.57-5.76c-.37-.01-.74,0-1.11,.03-.18,.02-.37,.04-.55,.06h-1.55v5.79Z"/>
      <path class="cls-13" d="M488.16,601.7c.5,.04,.97-.13,1.46-.18,.48-.1,.98-.08,1.44-.23l-1.23-5.66c-.34,.12-.72,.08-1.06,.16-.36,.04-.7,.19-1.08,.14l.47,5.77Z"/>
      <path class="cls-13" d="M490.67,601.38c.48-.09,.93-.27,1.41-.37l.71-.16c.24-.05,.45-.18,.68-.25l-1.87-5.48c-.17,.06-.32,.17-.5,.19-.18,.03-.35,.07-.52,.11-.35,.07-.68,.22-1.03,.28l1.12,5.68Z"/>
      <path class="cls-13" d="M493.1,600.74c.89-.4,1.85-.6,2.69-1.11l-2.49-5.23c-.61,.4-1.33,.5-1.97,.82l1.77,5.51Z"/>
      <path class="cls-13" d="M497.49,604.36c.53-.27,1.07-.52,1.62-.77,.52-.29,1.01-.64,1.53-.94l-3.07-4.91c-.41,.23-.79,.51-1.2,.74-.43,.18-.86,.38-1.28,.59l2.39,5.27Z"/>
      <path class="cls-13" d="M500.22,602.92c.5-.34,1.06-.56,1.53-.95,.47-.37,.95-.73,1.44-1.08l-3.61-4.52c-.39,.27-.77,.55-1.14,.85-.36,.32-.82,.48-1.2,.74l2.98,4.96Z"/>
      <path class="cls-13" d="M502.79,601.17l.73-.52,.66-.62,1.34-1.21-4.1-4.08c-.36,.32-.72,.62-1.07,.94l-.51,.5-.58,.41,3.53,4.59Z"/>
      <path class="cls-13" d="M505.16,599.15l.34-.3,.29-.34,.6-.67c.39-.45,.86-.85,1.18-1.37l-4.54-3.59c-.24,.42-.62,.72-.93,1.07l-.47,.53-.23,.27-.27,.23,4.03,4.16Z"/>
      <path class="cls-13" d="M507.28,596.88c.35-.49,.7-.98,1.07-1.45,.17-.25,.4-.46,.54-.72l.45-.78-4.92-3.05-.35,.62c-.11,.21-.29,.37-.43,.57-.29,.37-.57,.75-.83,1.15l4.48,3.67Z"/>
      <path class="cls-13" d="M509.09,594.35c.3-.52,.61-1.03,.94-1.53,.31-.52,.51-1.08,.79-1.61l-5.24-2.46c-.22,.41-.36,.87-.61,1.27-.26,.39-.51,.79-.74,1.2l4.87,3.14Z"/>
      <path class="cls-13" d="M510.6,591.65c.24-.55,.56-1.06,.77-1.62,.19-.57,.39-1.13,.61-1.68l-5.49-1.84c-.18,.43-.33,.87-.47,1.32-.16,.44-.43,.83-.61,1.27l5.19,2.56Z"/>
      <path class="cls-13" d="M511.8,588.81c.51-1.09,.64-2.29,1.01-3.43l-5.66-1.2c-.32,.88-.38,1.84-.8,2.68l5.45,1.94Z"/>
      <path class="cls-13" d="M512.68,585.85c.2-.57,.24-1.17,.33-1.76,.07-.6,.22-1.18,.27-1.78l-5.76-.54c-.03,.47-.17,.93-.22,1.4-.07,.47-.08,.94-.26,1.38l5.64,1.3Z"/>
      <path class="cls-13" d="M513.22,582.81c.1-.59,.05-1.21,.1-1.81,.01-.6,.14-1.21,.05-1.81l-5.79,.11c.09,.48-.04,.95-.04,1.43-.05,.47,.01,.96-.07,1.43l5.75,.65Z"/>
      <path class="cls-13" d="M495.43,599.82c.43-.22,.87-.43,1.32-.62,.42-.24,.82-.53,1.25-.77l-3.07-4.91c-.32,.17-.6,.4-.91,.58-.34,.13-.66,.28-.98,.45l2.39,5.27Z"/>
      <path class="cls-13" d="M497.65,598.64c.4-.28,.88-.45,1.25-.77,.38-.31,.77-.6,1.18-.88l-3.61-4.52c-.3,.2-.59,.42-.87,.65-.27,.25-.63,.35-.92,.56l2.98,4.96Z"/>
      <path class="cls-13" d="M499.75,597.22l.61-.42,.53-.51c.35-.34,.74-.65,1.1-.98l-4.1-4.08c-.28,.24-.57,.46-.83,.72l-.39,.39c-.16,.1-.31,.2-.46,.3l3.53,4.59Z"/>
      <path class="cls-13" d="M501.68,595.57l.28-.24,.24-.28,.49-.55c.32-.37,.72-.68,.96-1.11l-4.54-3.59c-.17,.33-.48,.54-.72,.82-.12,.13-.24,.27-.36,.41l-.17,.22-.21,.17,4.03,4.16Z"/>
      <path class="cls-13" d="M503.42,593.71c.28-.41,.56-.81,.87-1.19,.14-.2,.33-.37,.44-.59l.36-.64-4.92-3.05c-.09,.16-.18,.31-.26,.48-.07,.17-.23,.28-.33,.43-.23,.28-.44,.58-.63,.89l4.48,3.67Z"/>
      <path class="cls-13" d="M504.89,591.64c.24-.43,.5-.84,.77-1.25,.25-.42,.4-.89,.63-1.32l-5.24-2.46c-.18,.31-.27,.67-.46,.97-.21,.3-.4,.6-.57,.92l4.87,3.14Z"/>
      <path class="cls-13" d="M506.12,589.44c.19-.45,.47-.86,.63-1.31,.15-.46,.31-.92,.49-1.37l-5.49-1.84c-.14,.33-.26,.66-.35,1.01-.11,.34-.34,.63-.47,.96l5.19,2.56Z"/>
      <path class="cls-13" d="M507.1,587.13c.43-.88,.51-1.87,.83-2.79l-5.66-1.2c-.27,.66-.27,1.4-.62,2.04l5.45,1.94Z"/>
      <path class="cls-13" d="M507.81,584.73c.18-.46,.2-.95,.27-1.43,.05-.49,.19-.96,.23-1.45l-5.76-.54c-.02,.37-.14,.71-.18,1.07-.05,.36-.05,.72-.19,1.05l5.64,1.3Z"/>
      <path class="cls-13" d="M508.26,582.25c.09-.48,.03-.99,.08-1.48,0-.49,.13-.99,.04-1.48l-5.79,.11c.09,.37-.04,.74-.04,1.1-.04,.36,.03,.75-.05,1.1l5.75,.65Z"/>
      <rect class="cls-13" x="452.71" y="586.04" width="11.55" height="10.78"/>
      <rect class="cls-13" x="463.41" y="586.04" width="11.55" height="10.78"/>
      <rect class="cls-13" x="474.1" y="586.04" width="11.55" height="10.78"/>
      <path class="cls-13" d="M484.79,596.82h1.44c.16,0,.14,0,.2-.01l.13-.02,.27-.03c.36-.03,.72-.04,1.08-.04,.36,.02,.69-.13,1.05-.16,.34-.08,.71-.03,1.04-.16l-2.28-10.54c-.11,.07-.26,0-.38,.03-.13,0-.24,.12-.38,.08-.14-.03-.28-.03-.42,0l-.1,.02-.05,.02s.02,.02-.14,.01h-1.44v10.78Z"/>
      <path class="cls-13" d="M489.7,596.48c.35-.06,.67-.21,1.01-.27,.33-.1,.7-.09,1.01-.27,.64-.28,1.33-.41,1.93-.8l-4.64-9.73c-.19,.19-.47,.15-.68,.3-.09,.11-.25,.04-.36,.08-.12,.01-.23,.11-.35,.12l2.09,10.58Z"/>
      <path class="cls-13" d="M493.37,595.27c.31-.16,.62-.31,.95-.44,.32-.14,.59-.39,.9-.55,.65-.29,1.15-.81,1.75-1.2l-6.73-8.42c-.25,.11-.39,.37-.66,.43-.12,.05-.19,.19-.32,.22-.13,.03-.24,.07-.35,.15l4.46,9.82Z"/>
      <path class="cls-13" d="M496.7,593.26l.44-.3c.14-.11,.25-.25,.38-.37,.26-.25,.52-.48,.8-.7,.26-.25,.46-.55,.71-.8,.24-.26,.53-.49,.7-.8l-8.46-6.68c-.03,.15-.18,.2-.27,.3-.1,.09-.15,.23-.25,.32-.12,.07-.23,.15-.32,.25-.05,.05-.07,.12-.13,.16-.06,.03-.13,.06-.18,.09l6.57,8.55Z"/>
      <path class="cls-13" d="M499.57,590.55c.19-.3,.4-.59,.62-.87l.34-.41,.25-.47c.17-.31,.36-.6,.57-.89,.16-.31,.27-.65,.44-.95l-9.76-4.59c-.07,.11-.08,.24-.13,.36-.1,.09-.18,.2-.23,.32-.03,.06-.05,.12-.07,.19-.06,.04-.11,.09-.15,.14-.09,.1-.16,.21-.21,.34l8.33,6.84Z"/>
      <path class="cls-13" d="M501.65,587.24c.14-.32,.33-.62,.47-.94,.09-.34,.21-.67,.34-.99l.21-.48,.1-.51c.08-.34,.17-.67,.28-1.01l-10.55-2.23c-.07,.11-.11,.23-.12,.35,0,.06,0,.13,0,.19-.04,.05-.08,.11-.1,.16-.06,.11-.09,.23-.1,.36-.06,.11-.16,.21-.2,.33l9.67,4.77Z"/>
      <path class="cls-13" d="M502.95,583.61c.14-.32,.15-.68,.19-1.03,.04-.35,.11-.69,.19-1.04,0-.36,0-.72,.02-1.08,0-.36,.11-.72,.03-1.08l-10.78,.21c.08,.14-.02,.28-.03,.42-.02,.14,0,.28,.03,.42-.06,.12-.09,.25-.1,.37,0,.13,.03,.27-.06,.37l10.5,2.43Z"/>
      <path class="cls-13" d="M513.41,579.69c-.13-2.25-.24-4.5-.88-6.64l-10.45,2.65c.42,1.26,.42,2.63,.55,4l10.78-.02Z"/>
      <path class="cls-13" d="M512.65,573.53c-.15-.54-.28-1.07-.4-1.62-.13-.54-.39-1.04-.56-1.57-.3-1.07-.88-2.04-1.33-3.06l-9.56,4.97c.25,.62,.64,1.18,.79,1.83,.09,.32,.28,.6,.35,.93,.06,.33,.13,.65,.23,.97l10.5-2.46Z"/>
      <path class="cls-13" d="M510.56,567.74l-.35-.76c-.11-.26-.29-.47-.43-.72-.3-.47-.58-.95-.86-1.44-.29-.48-.68-.89-1-1.35-.35-.44-.62-.94-1.04-1.32l-8.19,7.01c.28,.21,.41,.54,.62,.8,.18,.28,.45,.51,.61,.81,.15,.3,.32,.59,.51,.87,.08,.14,.21,.27,.27,.42,.06,.16,.12,.31,.19,.46l9.65-4.8Z"/>
      <path class="cls-13" d="M507.23,562.52c-.39-.4-.77-.81-1.15-1.23l-.55-.63c-.2-.2-.42-.37-.63-.56-.42-.37-.83-.75-1.24-1.14-.43-.36-.91-.66-1.35-1l-6.39,8.68c.26,.22,.56,.38,.82,.59,.23,.25,.48,.48,.74,.7,.13,.11,.27,.21,.39,.33l.32,.4c.22,.26,.46,.5,.71,.73l8.31-6.86Z"/>
      <path class="cls-8" d="M502.72,558.24l-1.34-1.01c-.49-.27-.97-.56-1.44-.86l-.71-.45-.76-.34c-.5-.24-1-.48-1.5-.74l-4.24,9.91c.29,.17,.58,.32,.89,.46l.46,.19c.14,.1,.27,.2,.42,.29,.28,.18,.57,.35,.87,.5,.27,.2,.52,.43,.8,.63l6.54-8.57Z"/>
      <path class="cls-13" d="M497.42,555.06c-.48-.29-1.02-.43-1.54-.62l-1.56-.58c-.54-.12-1.08-.25-1.62-.4l-.8-.23c-.27-.06-.55-.07-.83-.12l-1.86,10.62c.17,.02,.34,.02,.5,.05,.16,.06,.32,.11,.47,.15,.32,.09,.64,.17,.97,.22,.31,.12,.61,.26,.92,.37,.31,.11,.65,.17,.92,.37l4.42-9.83Z"/>
      <path class="cls-13" d="M491.55,553.18c-.55-.07-1.11-.15-1.66-.24-.28-.04-.55-.11-.83-.14l-.85-.02c-.56-.02-1.12-.05-1.69-.1l-.22-.02h-2.53v10.78h2.53c.08,0,.1,.01,.15,.02,.34,.04,.68,.07,1.03,.08h.52c.17,.02,.33,.07,.49,.09,.33,.06,.66,.11,1,.13l2.06-10.58Z"/>
      <rect class="cls-13" x="473.1" y="552.67" width="11.55" height="10.78"/>
      <rect class="cls-13" x="462.4" y="552.67" width="11.55" height="10.78"/>
      <rect class="cls-8" x="451.71" y="552.67" width="11.55" height="10.78"/>
      <path class="cls-13" d="M503.43,579.71c-.13-1.44-.14-2.87-.57-4.2l-10.45,2.65c.21,.46,.11,1,.24,1.56l10.78-.02Z"/>
      <path class="cls-13" d="M502.93,575.81c-.1-.33-.18-.67-.24-1.02-.07-.34-.27-.64-.37-.98-.16-.68-.56-1.27-.83-1.92l-9.56,4.97c.06,.25,.28,.43,.28,.69,.02,.12,.14,.21,.15,.34,0,.13,.02,.25,.07,.37l10.5-2.46Z"/>
      <path class="cls-13" d="M501.62,572.18l-.2-.48c-.06-.17-.2-.29-.28-.45-.19-.29-.37-.6-.54-.91-.17-.31-.45-.55-.64-.85-.22-.27-.36-.62-.65-.84l-8.19,7.01c.14,.06,.14,.23,.23,.32,.06,.12,.21,.18,.26,.3,.04,.13,.1,.24,.18,.34,.03,.06,.11,.09,.12,.15,.01,.07,.03,.13,.05,.19l9.66-4.8Z"/>
      <path class="cls-13" d="M499.53,568.87c-.26-.25-.51-.5-.74-.77l-.34-.41c-.12-.13-.28-.23-.41-.35-.27-.23-.53-.47-.78-.73-.27-.23-.59-.4-.86-.62l-6.39,8.68c.09,.09,.24,.13,.34,.21,.08,.12,.17,.21,.28,.29,.05,.04,.12,.07,.17,.11,.03,.06,.07,.12,.11,.17,.08,.11,.18,.2,.3,.27l8.31-6.86Z"/>
      <path class="cls-13" d="M496.66,566.18c-.29-.2-.55-.44-.84-.65-.32-.16-.62-.34-.92-.53l-.44-.3-.49-.2c-.32-.14-.63-.3-.93-.48l-4.24,9.91c.1,.09,.21,.15,.33,.19,.06,.02,.12,.04,.19,.05,.05,.05,.09,.1,.15,.14,.1,.08,.22,.14,.35,.17,.1,.09,.18,.2,.3,.27l6.54-8.57Z"/>
      <path class="cls-13" d="M493.32,564.17c-.29-.2-.64-.27-.97-.38-.33-.11-.65-.26-.97-.38-.35-.06-.68-.14-1.02-.23l-.5-.16c-.17-.04-.35-.03-.52-.06l-1.86,10.62c.06,0,.13-.02,.2,0,.06,.03,.11,.06,.17,.08,.12,.04,.24,.06,.37,.06,.11,.06,.21,.14,.34,.16,.12,.04,.26,.02,.35,.13l4.42-9.83Z"/>
      <path class="cls-8" d="M489.65,562.98c-.35-.03-.7-.08-1.04-.14-.17-.03-.34-.08-.52-.1h-.54c-.36,0-.72-.03-1.08-.07-.05,0-.07-.01-.15-.02h-2.53v10.78h2.53c.06,0,.05,.01,.08,.02,.14,.04,.28,.06,.42,.05,.07,0,.14-.01,.21-.03,.07,0,.12,.05,.19,.06,.12,.04,.25,.05,.38,.03l2.06-10.58Z"/>
      <rect class="cls-13" x="473.1" y="562.65" width="11.55" height="10.78"/>
      <rect class="cls-13" x="462.4" y="562.65" width="11.55" height="10.78"/>
      <rect class="cls-13" x="451.71" y="562.65" width="11.55" height="10.78"/>
      <rect class="cls-13" x="430.32" y="532.7" width="22.24" height="20.76"/>
      <rect class="cls-13" x="408.94" y="532.7" width="22.24" height="20.76"/>
      <rect class="cls-13" x="387.55" y="532.7" width="22.24" height="20.76"/>
      <rect class="cls-13" x="366.16" y="532.7" width="22.24" height="20.76"/>
      <rect class="cls-13" x="344.77" y="532.7" width="22.24" height="20.76"/>
      <path class="cls-8" d="M345.63,532.7h-5.56s-2.78,0-2.78,0l-2.75-.14c-3.68-.13-7.29-.92-10.83-1.89l-6.07,19.85c5.13,1.46,10.4,2.54,15.7,2.76l3.96,.17h8.34v-20.76Z"/>
      <path class="cls-13" d="M324.52,530.89c-.9-.19-1.76-.53-2.62-.85l-2.59-.95-2.49-1.19c-.82-.4-1.67-.77-2.44-1.28-1.57-.96-3.17-1.86-4.6-3.02-.73-.56-1.49-1.08-2.19-1.67l-2.04-1.85-14.24,15.11,2.96,2.67c1.01,.86,2.1,1.63,3.16,2.44,2.09,1.65,4.39,3,6.68,4.37,1.12,.72,2.34,1.27,3.54,1.86,1.2,.58,2.4,1.16,3.62,1.71l3.75,1.4c1.25,.46,2.51,.92,3.81,1.22l5.7-19.96Z"/>
      <path class="cls-13" d="M306.19,520.65c-2.79-2.41-5.08-5.31-7.24-8.28-1.96-3.1-3.79-6.32-4.99-9.8l-19.46,7.24c1.78,5.04,4.38,9.74,7.27,14.2,3.08,4.33,6.46,8.48,10.46,11.99l13.97-15.36Z"/>
      <path class="cls-13" d="M294.24,503.37l-.95-2.59c-.34-.85-.49-1.77-.74-2.65-.21-.89-.49-1.77-.65-2.68l-.42-2.73c-.52-3.63-.47-7.33-.47-11.04h-20.76v4.9s.04,.99,.04,.99l.2,3.98c.05,.66,.06,1.33,.14,1.98l.28,1.98,.62,3.95c.24,1.31,.61,2.6,.93,3.89,.36,1.28,.62,2.6,1.09,3.85l1.37,3.76,19.32-7.6Z"/>
      <rect class="cls-13" x="270.24" y="459.44" width="20.76" height="22.24"/>
      <rect class="cls-13" x="430.32" y="552.67" width="22.24" height="20.76"/>
      <rect class="cls-8" x="408.94" y="552.67" width="22.24" height="20.76"/>
      <rect class="cls-13" x="387.55" y="552.67" width="22.24" height="20.76"/>
      <rect class="cls-13" x="366.16" y="552.67" width="22.24" height="20.76"/>
      <rect class="cls-13" x="344.77" y="552.67" width="22.24" height="20.76"/>
      <path class="cls-13" d="M345.63,552.67h-8.34l-3.91-.17c-5.24-.22-10.45-1.29-15.52-2.73l-6.07,19.85c6.66,1.92,13.52,3.29,20.39,3.6,1.7,.09,3.48,.16,5.11,.21h8.34v-20.76Z"/>
      <path class="cls-8" d="M319.04,550.08c-1.29-.3-2.52-.76-3.76-1.21l-3.71-1.38c-1.2-.54-2.39-1.11-3.57-1.69-1.18-.58-2.38-1.13-3.49-1.84-2.26-1.35-4.53-2.69-6.6-4.32-1.05-.8-2.12-1.56-3.12-2.41l-2.93-2.64-14.24,15.11c1.27,1.17,2.55,2.32,3.85,3.46,1.31,1.11,2.71,2.13,4.09,3.17,2.72,2.12,5.69,3.91,8.67,5.67,1.47,.91,3.04,1.65,4.59,2.42,1.56,.76,3.12,1.5,4.71,2.2,1.61,.63,3.24,1.24,4.87,1.83,1.63,.59,3.26,1.17,4.95,1.59l5.7-19.96Z"/>
      <path class="cls-13" d="M292.76,535.42c-3.95-3.47-7.29-7.57-10.34-11.85-2.85-4.41-5.42-9.05-7.18-14.03l-19.46,7.24c2.34,6.54,5.67,12.66,9.45,18.44,3.97,5.64,8.39,10.99,13.56,15.56l13.97-15.36Z"/>
      <path class="cls-13" d="M275.66,510.68l-1.35-3.72c-.47-1.23-.72-2.53-1.08-3.8-.31-1.28-.68-2.55-.92-3.84l-.61-3.9-.28-1.95c-.08-.65-.09-1.31-.14-1.96l-.19-3.93-.04-.98v-.73s0-1.39,0-1.39v-2.78h-20.76v4.94s.04,1.29,.04,1.29c.06,1.72,.14,3.44,.25,5.15,.06,.86,.09,1.71,.19,2.57l.35,2.57c.25,1.71,.52,3.42,.81,5.13,.32,1.7,.78,3.38,1.2,5.06,.46,1.67,.83,3.37,1.43,5,.57,1.64,1.16,3.27,1.77,4.89l19.32-7.6Z"/>
      <rect class="cls-13" x="250.28" y="459.44" width="20.76" height="22.24"/>
    </g>
    <rect class="cls-11" x="279.3" y="401.51" width="22.62" height="114.53" transform="translate(749.28 168.01) rotate(89.98)"/>
    <rect class="cls-12" x="370.39" y="342.91" width="19.45" height="19.45"/>
    <rect class="cls-12" x="31.27" y="374.77" width="19.45" height="19.45"/>
    <rect class="cls-12" x="155.36" y="374.77" width="19.45" height="19.45"/>
    <rect class="cls-12" x="65.57" y="342.63" width="19.45" height="19.45"/>
    <rect class="cls-12" x="97.52" y="374.77" width="19.45" height="19.45"/>
    <rect class="cls-12" x="131.91" y="342.63" width="19.45" height="19.45"/>
    <rect class="cls-12" x="126.18" y="405.33" width="19.45" height="19.45"/>
    <rect class="cls-12" x="67.06" y="405.33" width="19.45" height="19.45"/>
    <rect class="cls-12" x="513.07" y="368.65" width="19.45" height="19.45"/>
    <rect class="cls-10" x="411.65" y="368.65" width="19.45" height="19.45"/>
    <rect class="cls-10" x="542.96" y="395.61" width="19.45" height="19.45"/>
    <rect class="cls-10" x="329.12" y="368.65" width="19.45" height="19.45"/>
    <rect class="cls-10" x="274.26" y="375.05" width="19.45" height="19.45"/>
    <rect class="cls-10" x="464.73" y="394.5" width="19.45" height="19.45"/>
    <rect class="cls-9" x="421.38" y="323.46" width="19.45" height="19.45"/>
    <rect class="cls-9" x="305.12" y="323.46" width="19.45" height="19.45"/>
    <rect class="cls-9" x="503.35" y="333.46" width="19.45" height="19.45"/>
    <rect class="cls-7" x="461.01" y="352.63" width="19.45" height="19.45"/>
    <rect class="cls-7" x="371.11" y="394.5" width="19.45" height="19.45"/>
    <line class="cls-12" x1="329.12" y1="323.46" x2="354.05" y2="323.46"/>
    <line class="cls-12" x1="329.12" y1="333.18" x2="346" y2="333.18"/>
    <line class="cls-12" x1="341.59" y1="378.37" x2="363.53" y2="378.37"/>
    <line class="cls-12" x1="354.05" y1="384.77" x2="365.42" y2="384.77"/>
    <line class="cls-12" x1="380.11" y1="352.63" x2="409.49" y2="352.63"/>
    <line class="cls-12" x1="394.8" y1="345.68" x2="411.65" y2="345.68"/>
    <line class="cls-12" x1="430.83" y1="333.18" x2="451.01" y2="333.18"/>
    <line class="cls-12" x1="446.93" y1="324.46" x2="470.73" y2="324.46"/>
    <line class="cls-12" x1="421.38" y1="378.37" x2="454.04" y2="378.37"/>
    <line class="cls-12" x1="437.71" y1="372.08" x2="446.93" y2="372.08"/>
    <line class="cls-12" x1="394.23" y1="404.22" x2="414.71" y2="404.22"/>
    <line class="cls-12" x1="488.32" y1="413.95" x2="503.95" y2="413.95"/>
    <line class="cls-12" x1="474.46" y1="404.22" x2="501.11" y2="404.22"/>
    <line class="cls-12" x1="522.8" y1="378.37" x2="552.96" y2="378.37"/>
    <line class="cls-12" x1="542.18" y1="372.08" x2="558.76" y2="372.08"/>
    <line class="cls-12" x1="552.68" y1="405.33" x2="575.3" y2="405.33"/>
    <line class="cls-12" x1="528.44" y1="343.18" x2="545.97" y2="343.18"/>
    <line class="cls-12" x1="283.99" y1="384.77" x2="305.12" y2="384.77"/>
    <line class="cls-12" x1="301.45" y1="392.11" x2="312.35" y2="392.11"/>
    <line class="cls-12" x1="485.77" y1="362.36" x2="498.06" y2="362.36"/>
  </g>
</svg>