<?xml version="1.0" encoding="UTF-8"?>
<svg id="Layer_2" data-name="Layer 2" xmlns="http://www.w3.org/2000/svg" width="200.6" height="83.63" viewBox="0 0 200.6 83.63">
  <defs>
    <style>
      .cls-1 {
        fill: #fcf000;
      }

      .cls-2 {
        fill: #656565;
      }

      .cls-3 {
        fill: #222;
      }

      .cls-4 {
        fill: #181818;
      }

      .cls-5 {
        fill: #3e3e3e;
      }

      .cls-6 {
        fill: #6e6e6e;
      }

      .cls-7 {
        fill: #5b5b5b;
      }

      .cls-8 {
        fill: #2b2b2b;
      }

      .cls-9 {
        fill: #484848;
      }

      .cls-10 {
        fill: #353535;
      }

      .cls-11 {
        fill: #787878;
      }

      .cls-12 {
        fill: #525252;
      }
    </style>
  </defs>
  <g id="Layer_3" data-name="Layer 3">
    <g>
      <g id="text">
        <g>
          <path id="o" d="M107.55,34.27c0,4.65-3.43,7.75-8.22,7.75h-.06c-4.69,0-8.22-3.1-8.22-7.75s3.43-7.75,8.22-7.75h.06c4.8,0,8.22,3.13,8.22,7.75Zm-4.8,0c0-1.95-1.39-3.36-3.43-3.36h-.06c-2.03,0-3.43,1.41-3.43,3.36s1.39,3.36,3.43,3.36h.06c2.03,0,3.43-1.39,3.43-3.36Z"/>
          <path id="p" d="M123.77,32.56c0,3.19-2.53,5.78-6.36,5.78h-3.45v3.43h-4.71v-14.98h8.16c3.83,0,6.36,2.59,6.36,5.78Zm-4.71,0c0-.92-.75-1.65-1.65-1.65h-3.45v3.3h3.45c.9,0,1.65-.73,1.65-1.65Z"/>
          <path id="e" d="M130.19,30.84v1.5h6.04v3.9h-6.04v1.43h7.49v4.09h-12.2v-14.98h12.2v4.07h-7.49Z"/>
          <path id="n" d="M154.88,26.78v14.98h-4.62l-5.8-7.88v7.88h-4.62v-14.98h4.62l5.8,7.69v-7.69h4.62Z"/>
          <path id="underscore" d="M91.47,63.09h13.27v4.43h-13.27v-4.43Z"/>
          <path id="f" d="M111.59,50.88v2.06h6.04v4.07h-6.04v4.8h-4.71v-14.98h12.2v4.07h-7.49Z"/>
          <path id="u1" d="M121.22,54.97v-8.16h4.71v7.73c0,1.58,.71,2.98,2.68,2.98h.06c1.99,0,2.68-1.39,2.68-2.98v-7.73h4.71v8.16c0,4.65-2.8,7.09-7.39,7.09h-.06c-4.58,0-7.39-2.44-7.39-7.09Z"/>
          <path id="t" d="M152.88,50.95h-4.99v10.85h-4.71v-10.85h-4.99v-4.13h14.69v4.13h0Z"/>
          <path id="u2" d="M155.02,54.97v-8.16h4.71v7.73c0,1.58,.71,2.98,2.68,2.98h.06c1.99,0,2.68-1.39,2.68-2.98v-7.73h4.71v8.16c0,4.65-2.8,7.09-7.39,7.09h-.06c-4.58,0-7.39-2.44-7.39-7.09Z"/>
          <path id="r" d="M172,46.82h8.16c3.83,0,6.36,2.59,6.36,5.78,0,1.95-.94,3.68-2.57,4.73l2.95,4.47h-5.46l-2.03-3.43h-2.68v3.43h-4.73v-14.98Zm8.16,7.43c.9,0,1.65-.73,1.65-1.65s-.75-1.65-1.65-1.65h-3.43v3.3h3.43Z"/>
          <path id="e2" d="M193.11,50.88v1.5h6.04v3.9h-6.04v1.43h7.49v4.09h-12.2v-14.98h12.2v4.07h-7.49Z"/>
        </g>
      </g>
      <g id="icon">
        <path class="cls-12" d="M67.16,47.77c-.09,.37-.18,.75-.29,1.12l-1.35-.38c.1-.35,.19-.7,.27-1.06l1.37,.32Z"/>
        <path class="cls-2" d="M66.61,49.74c-.12,.37-.24,.73-.37,1.09l-1.32-.49c.13-.34,.24-.68,.35-1.03l1.34,.43Z"/>
        <path class="cls-8" d="M64.06,53.01c-.17,.33-.34,.65-.52,.97l-1.22-.69c.17-.3,.33-.61,.49-.92l1.25,.63Z"/>
        <path class="cls-5" d="M63.12,54.72c-.19,.31-.39,.62-.59,.93l-1.17-.78c.19-.29,.38-.58,.56-.88l1.2,.73Z"/>
        <path class="cls-12" d="M62.04,56.35c-.21,.3-.44,.59-.66,.88l-1.1-.87c.21-.27,.42-.55,.63-.83l1.14,.82Z"/>
        <path class="cls-2" d="M60.84,57.9c-.24,.28-.48,.56-.73,.83l-1.03-.95c.24-.25,.47-.51,.69-.78l1.07,.91Z"/>
        <path class="cls-12" d="M62.95,57.01c-.22,.31-.46,.62-.69,.92l-1.1-.87c.23-.29,.44-.58,.66-.87l1.14,.82Z"/>
        <path class="cls-2" d="M61.7,58.62c-.25,.29-.5,.58-.76,.86l-1.03-.95c.25-.27,.49-.54,.72-.82l1.07,.91Z"/>
        <path class="cls-8" d="M62.56,59.35c-.26,.31-.52,.61-.8,.9l-1.03-.95c.26-.28,.51-.56,.76-.85l1.07,.91Z"/>
        <path class="cls-3" d="M61.85,60.15c-.27,.3-.55,.59-.83,.87l-.99-.99c.27-.27,.53-.54,.79-.82l1.03,.95Z"/>
        <path class="cls-6" d="M67.56,53.53c-.17,.38-.35,.76-.54,1.13l-1.25-.64c.18-.35,.35-.71,.52-1.07l1.28,.58Z"/>
        <path class="cls-2" d="M67.08,54.53c-.19,.37-.38,.74-.59,1.11l-1.22-.69c.19-.35,.38-.7,.56-1.05l1.25,.63Z"/>
        <path class="cls-8" d="M63.42,60.08c-.27,.32-.55,.63-.83,.94l-1.03-.95c.27-.29,.53-.59,.79-.89l1.07,.91Z"/>
        <path class="cls-11" d="M59.51,59.34c-.26,.26-.52,.52-.79,.77l-.95-1.03c.25-.24,.5-.48,.75-.72l1,.99Z"/>
        <path class="cls-6" d="M58.81,60.02c-.27,.25-.54,.5-.82,.73l-.91-1.07c.26-.23,.52-.46,.78-.69l.96,1.03Z"/>
        <path class="cls-2" d="M58.09,60.67c-.28,.24-.56,.47-.85,.7l-.87-1.1c.27-.21,.54-.44,.8-.66l.92,1.06Z"/>
        <path class="cls-10" d="M54.09,63.48c-.32,.18-.64,.36-.97,.52l-.64-1.25c.31-.16,.61-.32,.92-.49l.69,1.22Z"/>
        <path class="cls-8" d="M53.23,63.95c-.33,.17-.66,.33-.99,.48l-.59-1.27c.31-.15,.63-.3,.93-.46l.64,1.25Z"/>
        <path class="cls-4" d="M60.32,60.13c-.27,.27-.55,.54-.83,.8l-.95-1.03c.27-.25,.53-.5,.78-.76l1,.99Z"/>
        <path class="cls-10" d="M58.04,62.18c-.3,.24-.61,.47-.92,.7l-.82-1.13c.29-.21,.58-.43,.87-.66l.87,1.1Z"/>
        <path class="cls-12" d="M55.53,63.94c-.33,.2-.66,.4-.99,.59l-.69-1.22c.32-.18,.63-.36,.94-.55l.74,1.19Z"/>
        <path class="cls-8" d="M49.63,65.46c-.35,.12-.7,.22-1.05,.32l-.38-1.35c.33-.09,.67-.2,.99-.3l.44,1.33Z"/>
        <path class="cls-9" d="M46.8,66.22c-.36,.07-.72,.14-1.08,.2l-.22-1.39c.34-.05,.68-.12,1.02-.19l.28,1.37Z"/>
        <path class="cls-12" d="M45.84,66.4c-.36,.06-.73,.11-1.09,.15l-.16-1.39c.34-.04,.69-.09,1.03-.15l.23,1.38Z"/>
        <path class="cls-2" d="M43.89,66.63c-.37,.03-.73,.05-1.1,.07l-.06-1.4c.35-.01,.69-.03,1.04-.06l.12,1.4Z"/>
        <path class="cls-6" d="M50.95,66.19c-.36,.13-.72,.26-1.09,.38l-.43-1.33c.35-.11,.69-.23,1.03-.36l.49,1.31Z"/>
        <path class="cls-7" d="M49.01,66.84c-.37,.11-.74,.2-1.11,.29l-.33-1.36c.35-.08,.7-.18,1.05-.28l.39,1.35Z"/>
        <path class="cls-9" d="M47.02,67.32c-.38,.08-.75,.15-1.13,.21l-.22-1.39c.36-.06,.72-.12,1.07-.19l.28,1.37Z"/>
        <path class="cls-5" d="M46.02,67.51c-.38,.06-.76,.12-1.14,.16l-.16-1.39c.36-.04,.72-.09,1.08-.15l.23,1.38Z"/>
        <path class="cls-10" d="M45.01,67.65c-.38,.05-.76,.09-1.15,.12l-.11-1.4c.36-.03,.72-.07,1.08-.11l.17,1.39Z"/>
        <path class="cls-8" d="M43.99,67.76c-.38,.03-.77,.06-1.15,.07l-.06-1.4c.36-.01,.73-.04,1.09-.07l.12,1.4Z"/>
        <path class="cls-3" d="M42.97,67.82c-.38,.02-.77,.03-1.15,.03v-1.4c.36,0,.73,0,1.09-.02l.06,1.4Z"/>
        <path class="cls-6" d="M60.35,61.67c-.29,.27-.59,.54-.9,.8l-.91-1.07c.29-.25,.57-.5,.85-.76l.96,1.03Z"/>
        <path class="cls-8" d="M60.3,63.23c-.32,.27-.64,.54-.97,.8l-.87-1.1c.31-.25,.62-.5,.92-.76l.92,1.06Z"/>
        <path class="cls-10" d="M59.44,63.94c-.33,.26-.66,.51-1,.76l-.82-1.13c.32-.23,.64-.47,.95-.72l.87,1.1Z"/>
        <path class="cls-6" d="M53.79,67.45c-.38,.18-.76,.34-1.15,.5l-.54-1.3c.37-.15,.73-.31,1.09-.48l.59,1.27Z"/>
        <path class="cls-3" d="M51.34,67.25c-.38,.14-.75,.27-1.13,.4l-.43-1.33c.36-.12,.72-.24,1.08-.38l.49,1.31Z"/>
        <path class="cls-8" d="M50.34,67.6c-.38,.13-.76,.24-1.15,.35l-.38-1.35c.37-.1,.73-.21,1.09-.33l.44,1.33Z"/>
        <path class="cls-10" d="M49.32,67.92c-.39,.11-.77,.21-1.16,.31l-.33-1.36c.37-.09,.74-.19,1.1-.29l.39,1.35Z"/>
        <path class="cls-5" d="M48.29,68.19c-.39,.1-.78,.18-1.17,.26l-.27-1.38c.37-.07,.74-.16,1.11-.25l.33,1.36Z"/>
        <path class="cls-9" d="M47.25,68.43c-.39,.08-.79,.15-1.18,.21l-.22-1.39c.38-.06,.75-.13,1.12-.2l.28,1.37Z"/>
        <path class="cls-2" d="M44.08,68.88c-.4,.03-.8,.06-1.2,.07l-.06-1.4c.38-.01,.76-.04,1.14-.07l.12,1.4Z"/>
        <path class="cls-2" d="M50.69,68.68c-.4,.13-.8,.25-1.2,.37l-.38-1.35c.38-.11,.76-.22,1.14-.35l.44,1.33Z"/>
        <path class="cls-9" d="M47.47,69.53c-.41,.08-.82,.16-1.23,.22l-.22-1.39c.39-.06,.78-.13,1.17-.21l.28,1.37Z"/>
        <path class="cls-5" d="M46.38,69.73c-.41,.07-.83,.13-1.24,.17l-.16-1.39c.39-.05,.79-.1,1.18-.17l.23,1.38Z"/>
        <path class="cls-3" d="M43.07,70.08c-.42,.02-.83,.03-1.25,.03v-1.4c.4,0,.79,0,1.19-.03l.06,1.4Z"/>
        <path class="cls-9" d="M66.36,58.04c-.24,.36-.49,.72-.74,1.07l-1.13-.82c.24-.33,.48-.67,.71-1.02l1.17,.77Z"/>
        <path class="cls-10" d="M65.01,59.91c-.27,.34-.54,.68-.82,1.01l-1.07-.91c.27-.31,.53-.63,.78-.96l1.11,.86Z"/>
        <path class="cls-10" d="M68.54,56.61c-.22,.39-.45,.78-.68,1.17l-1.2-.73c.22-.37,.44-.74,.65-1.11l1.23,.68Z"/>
        <path class="cls-9" d="M67.3,58.66c-.25,.38-.51,.75-.77,1.11l-1.13-.82c.25-.35,.5-.7,.73-1.06l1.17,.77Z"/>
        <path class="cls-2" d="M65.14,61.54c-.29,.34-.59,.68-.9,1.01l-1.03-.95c.29-.32,.58-.64,.85-.97l1.07,.91Z"/>
        <path class="cls-10" d="M73.28,45.38c-.05,.46-.12,.93-.19,1.39l-1.39-.22c.07-.44,.13-.88,.18-1.33l1.39,.16Z"/>
        <path class="cls-2" d="M71.98,51.45c-.14,.45-.29,.89-.46,1.33l-1.32-.49c.15-.42,.3-.84,.44-1.27l1.34,.43Z"/>
        <path class="cls-8" d="M73.06,51.8c-.15,.46-.3,.92-.47,1.37l-1.32-.49c.16-.43,.31-.87,.45-1.31l1.34,.43Z"/>
        <path class="cls-3" d="M72.64,53.01c-.17,.45-.34,.91-.53,1.35l-1.3-.54c.18-.43,.35-.86,.5-1.3l1.32,.48Z"/>
        <path class="cls-7" d="M66.79,61.3c-.29,.37-.58,.73-.89,1.09l-1.07-.91c.29-.34,.57-.69,.85-1.04l1.11,.86Z"/>
        <path class="cls-2" d="M66,62.26c-.3,.36-.61,.71-.93,1.05l-1.03-.95c.3-.33,.6-.66,.89-1l1.07,.91Z"/>
        <path class="cls-2" d="M71.11,56.56c-.22,.43-.44,.86-.68,1.28l-1.22-.69c.23-.4,.44-.81,.65-1.23l1.25,.63Z"/>
        <path class="cls-9" d="M69.18,59.9c-.27,.4-.54,.8-.83,1.19l-1.13-.82c.27-.37,.54-.76,.79-1.14l1.17,.77Z"/>
        <path class="cls-5" d="M68.45,60.96c-.28,.39-.57,.78-.87,1.16l-1.1-.87c.29-.36,.57-.73,.84-1.11l1.14,.82Z"/>
        <path class="cls-3" d="M66.01,63.96c-.33,.36-.66,.71-1,1.05l-.99-.99c.33-.33,.65-.66,.96-1l1.03,.95Z"/>
        <path class="cls-4" d="M62.72,62.51c-.31,.31-.62,.61-.94,.9l-.95-1.03c.3-.28,.6-.57,.89-.86l1,.99Z"/>
        <path class="cls-8" d="M61.03,64.09c-.33,.28-.66,.56-1,.83l-.87-1.1c.32-.26,.64-.52,.96-.79l.92,1.06Z"/>
        <path class="cls-5" d="M59.22,65.53c-.35,.26-.71,.51-1.07,.75l-.78-1.17c.34-.23,.68-.47,1.02-.71l.83,1.13Z"/>
        <path class="cls-7" d="M56.32,67.41c-.38,.21-.76,.42-1.15,.62l-.64-1.25c.37-.19,.73-.38,1.09-.59l.69,1.22Z"/>
        <path class="cls-2" d="M55.3,67.96c-.39,.2-.78,.39-1.17,.57l-.59-1.27c.38-.17,.75-.35,1.11-.54l.64,1.25Z"/>
        <path class="cls-4" d="M63.52,63.3c-.32,.32-.64,.63-.97,.94l-.95-1.03c.32-.29,.63-.59,.93-.9l1,.99Z"/>
        <path class="cls-9" d="M58.91,67.13c-.37,.25-.75,.5-1.14,.73l-.73-1.2c.37-.22,.73-.46,1.08-.7l.78,1.16Z"/>
        <path class="cls-6" d="M54.74,69.49c-.41,.19-.82,.37-1.24,.54l-.54-1.3c.4-.16,.79-.34,1.18-.52l.59,1.27Z"/>
        <path class="cls-11" d="M53.21,68.94c-.4,.17-.8,.33-1.21,.48l-.49-1.32c.39-.14,.77-.29,1.15-.45l.54,1.29Z"/>
        <path class="cls-7" d="M49.94,70.09c-.42,.12-.84,.23-1.26,.33l-.33-1.36c.4-.1,.8-.2,1.2-.32l.39,1.35Z"/>
        <path class="cls-10" d="M45.42,71.01c-.43,.05-.86,.1-1.3,.13l-.11-1.4c.41-.03,.82-.07,1.23-.12l.17,1.39Z"/>
        <path class="cls-3" d="M43.12,71.2c-.43,.02-.87,.03-1.3,.03v-1.4c.41,0,.83,0,1.24-.03l.06,1.4Z"/>
        <path class="cls-4" d="M53.65,69.98c-.42,.17-.83,.34-1.26,.5l-.49-1.32c.4-.15,.8-.31,1.2-.47l.54,1.29Z"/>
        <path class="cls-3" d="M52.53,70.42c-.42,.16-.85,.31-1.28,.45l-.43-1.33c.41-.13,.81-.27,1.22-.43l.49,1.31Z"/>
        <path class="cls-5" d="M49.1,71.48c-.44,.11-.88,.21-1.32,.29l-.27-1.38c.42-.08,.84-.18,1.26-.28l.33,1.36Z"/>
        <path class="cls-7" d="M45.56,72.13c-.45,.06-.9,.1-1.35,.14l-.11-1.4c.43-.03,.86-.08,1.28-.13l.17,1.39Z"/>
        <path class="cls-2" d="M44.37,72.25c-.45,.04-.9,.07-1.35,.08l-.06-1.4c.43-.02,.86-.04,1.29-.08l.12,1.4Z"/>
        <path class="cls-11" d="M64.32,64.1c-.33,.33-.66,.66-1.01,.97l-.95-1.03c.33-.3,.65-.61,.96-.93l1,.99Z"/>
        <path class="cls-2" d="M62.5,65.8c-.35,.31-.71,.6-1.08,.89l-.87-1.1c.35-.28,.7-.56,1.03-.85l.92,1.06Z"/>
        <path class="cls-5" d="M58.5,68.74c-.4,.25-.8,.48-1.21,.71l-.69-1.22c.39-.22,.77-.45,1.15-.68l.74,1.19Z"/>
        <path class="cls-8" d="M56.34,69.96c-.42,.21-.84,.42-1.26,.61l-.59-1.27c.41-.19,.81-.38,1.2-.59l.64,1.25Z"/>
        <path class="cls-3" d="M55.22,70.51c-.42,.2-.85,.39-1.28,.57l-.54-1.3c.41-.17,.82-.35,1.23-.54l.59,1.27Z"/>
        <path class="cls-6" d="M64.2,65.79c-.35,.33-.71,.65-1.08,.97l-.91-1.07c.35-.3,.7-.61,1.04-.93l.96,1.03Z"/>
        <path class="cls-7" d="M62.25,67.47c-.38,.3-.76,.59-1.16,.88l-.82-1.13c.37-.27,.74-.55,1.11-.84l.87,1.1Z"/>
        <path class="cls-3" d="M52.93,71.47c-.44,.16-.88,.32-1.32,.46l-.43-1.33c.42-.14,.85-.29,1.26-.44l.49,1.31Z"/>
        <path class="cls-8" d="M51.75,71.89c-.44,.15-.89,.28-1.34,.41l-.38-1.35c.43-.12,.86-.25,1.28-.39l.44,1.33Z"/>
        <path class="cls-5" d="M49.36,72.57c-.45,.11-.91,.21-1.37,.3l-.27-1.38c.44-.09,.87-.18,1.31-.29l.33,1.36Z"/>
        <path class="cls-7" d="M45.7,73.25c-.46,.06-.93,.1-1.39,.14l-.11-1.4c.45-.04,.89-.08,1.33-.13l.17,1.39Z"/>
        <path class="cls-6" d="M43.22,73.46c-.47,.02-.93,.03-1.4,.03v-1.4c.45,0,.89,0,1.34-.03l.06,1.4Z"/>
        <path class="cls-2" d="M52.11,72.96c-.46,.15-.92,.29-1.39,.42l-.38-1.35c.45-.13,.89-.26,1.33-.41l.44,1.33Z"/>
        <path class="cls-7" d="M50.88,73.34c-.47,.13-.93,.26-1.4,.37l-.33-1.36c.45-.11,.9-.23,1.34-.35l.39,1.35Z"/>
        <path class="cls-12" d="M49.63,73.67c-.47,.12-.94,.22-1.42,.31l-.27-1.38c.45-.09,.91-.19,1.36-.3l.33,1.36Z"/>
        <path class="cls-10" d="M45.83,74.37c-.48,.06-.96,.11-1.44,.15l-.11-1.4c.46-.04,.92-.08,1.38-.14l.17,1.39Z"/>
        <path class="cls-11" d="M41.94,66.72c-.37,0-.74,0-1.1-.02l.06-1.4c.35,.01,.69,.02,1.04,.02v1.4Z"/>
        <path class="cls-6" d="M40.96,66.71c-.37-.01-.73-.03-1.1-.06l.11-1.4c.35,.03,.69,.05,1.04,.06l-.05,1.4Z"/>
        <path class="cls-2" d="M39.99,66.65c-.37-.03-.73-.06-1.1-.11l.16-1.39c.34,.04,.69,.07,1.04,.1l-.1,1.4Z"/>
        <path class="cls-7" d="M39.01,66.56c-.37-.04-.73-.09-1.09-.15l.22-1.39c.34,.05,.69,.1,1.03,.14l-.16,1.39Z"/>
        <path class="cls-9" d="M37.08,66.27c-.36-.07-.72-.15-1.08-.23l.33-1.36c.34,.08,.68,.15,1.02,.22l-.27,1.38Z"/>
        <path class="cls-5" d="M36.12,66.06c-.36-.08-.71-.18-1.07-.28l.38-1.35c.33,.09,.67,.18,1.01,.26l-.32,1.37Z"/>
        <path class="cls-10" d="M35.18,65.82c-.35-.1-.71-.2-1.06-.32l.43-1.33c.33,.11,.66,.21,1,.3l-.37,1.35Z"/>
        <path class="cls-8" d="M34.24,65.54c-.35-.11-.7-.23-1.04-.36l.49-1.32c.33,.12,.65,.23,.98,.34l-.43,1.34Z"/>
        <path class="cls-3" d="M33.31,65.22c-.35-.13-.69-.26-1.03-.4l.54-1.3c.32,.13,.64,.26,.97,.38l-.48,1.32Z"/>
        <path class="cls-4" d="M41.95,67.85c-.38,0-.77,0-1.15-.02l.06-1.4c.36,.01,.73,.02,1.09,.02v1.4Z"/>
        <path class="cls-3" d="M40.92,67.83c-.38-.01-.77-.03-1.15-.06l.11-1.4c.36,.03,.73,.05,1.09,.06l-.05,1.4Z"/>
        <path class="cls-10" d="M38.89,67.68c-.38-.04-.76-.09-1.14-.16l.22-1.39c.36,.06,.72,.11,1.08,.15l-.16,1.39Z"/>
        <path class="cls-9" d="M36.87,67.37c-.38-.07-.75-.15-1.13-.24l.33-1.36c.35,.08,.71,.16,1.07,.23l-.27,1.38Z"/>
        <path class="cls-12" d="M35.87,67.16c-.37-.09-.75-.18-1.12-.29l.38-1.35c.35,.1,.7,.19,1.06,.27l-.32,1.37Z"/>
        <path class="cls-2" d="M33.9,66.61c-.37-.12-.73-.24-1.09-.37l.49-1.32c.34,.13,.68,.24,1.03,.35l-.43,1.34Z"/>
        <path class="cls-11" d="M32.4,64.87c-.34-.14-.68-.29-1.01-.44l.59-1.27c.31,.15,.63,.28,.95,.41l-.53,1.3Z"/>
        <path class="cls-6" d="M31.5,64.49c-.33-.15-.67-.31-.99-.48l.64-1.25c.31,.16,.62,.31,.94,.45l-.58,1.28Z"/>
        <path class="cls-2" d="M30.62,64.06c-.33-.17-.65-.34-.97-.52l.69-1.22c.3,.17,.61,.33,.92,.49l-.63,1.25Z"/>
        <path class="cls-7" d="M29.76,63.61c-.32-.18-.64-.36-.95-.56l.73-1.2c.3,.18,.6,.36,.9,.52l-.68,1.23Z"/>
        <path class="cls-12" d="M28.91,63.12c-.31-.19-.62-.39-.93-.59l.78-1.17c.29,.19,.58,.38,.88,.56l-.73,1.2Z"/>
        <path class="cls-5" d="M27.28,62.04c-.3-.21-.59-.44-.88-.66l.87-1.1c.27,.21,.55,.42,.83,.63l-.82,1.14Z"/>
        <path class="cls-10" d="M26.5,61.45c-.29-.23-.57-.46-.85-.7l.91-1.07c.26,.23,.53,.44,.81,.66l-.86,1.11Z"/>
        <path class="cls-8" d="M25.74,60.84c-.28-.24-.56-.48-.83-.73l.95-1.03c.25,.24,.51,.47,.78,.69l-.91,1.07Z"/>
        <path class="cls-3" d="M25,60.19c-.27-.25-.54-.5-.8-.76l.99-.99c.25,.25,.5,.49,.75,.72l-.95,1.03Z"/>
        <path class="cls-11" d="M31.98,65.92c-.36-.15-.71-.3-1.06-.46l.59-1.27c.33,.15,.66,.3,1,.43l-.53,1.3Z"/>
        <path class="cls-2" d="M30.11,65.07c-.34-.17-.68-.35-1.02-.54l.69-1.22c.32,.18,.64,.35,.96,.51l-.63,1.25Z"/>
        <path class="cls-7" d="M29.21,64.59c-.34-.19-.67-.38-1-.58l.73-1.2c.31,.19,.62,.37,.94,.55l-.68,1.23Z"/>
        <path class="cls-9" d="M27.46,63.53c-.32-.21-.64-.43-.95-.66l.82-1.13c.29,.21,.59,.42,.9,.62l-.77,1.17Z"/>
        <path class="cls-5" d="M26.62,62.95c-.31-.22-.62-.46-.92-.69l.87-1.1c.29,.23,.58,.44,.87,.66l-.82,1.14Z"/>
        <path class="cls-10" d="M25.8,62.34c-.3-.24-.6-.48-.89-.73l.91-1.07c.28,.24,.56,.47,.84,.69l-.86,1.11Z"/>
        <path class="cls-3" d="M24.24,61.02c-.28-.26-.56-.52-.83-.8l.99-.99c.26,.26,.52,.51,.79,.75l-.95,1.03Z"/>
        <path class="cls-3" d="M40.89,68.96c-.4-.01-.8-.04-1.2-.07l.11-1.4c.38,.03,.76,.05,1.14,.06l-.05,1.4Z"/>
        <path class="cls-8" d="M39.82,68.9c-.4-.03-.8-.07-1.2-.11l.16-1.39c.38,.04,.76,.08,1.13,.11l-.1,1.4Z"/>
        <path class="cls-10" d="M38.76,68.8c-.4-.05-.8-.1-1.19-.16l.22-1.39c.38,.06,.75,.11,1.13,.15l-.16,1.39Z"/>
        <path class="cls-9" d="M36.65,68.48c-.39-.08-.79-.16-1.17-.25l.33-1.36c.37,.09,.74,.17,1.11,.24l-.27,1.38Z"/>
        <path class="cls-12" d="M35.61,68.26c-.39-.09-.78-.19-1.16-.3l.38-1.35c.37,.1,.73,.2,1.1,.29l-.32,1.37Z"/>
        <path class="cls-2" d="M33.55,67.69c-.38-.12-.76-.25-1.14-.39l.49-1.32c.36,.13,.72,.26,1.08,.37l-.43,1.34Z"/>
        <path class="cls-6" d="M32.54,67.34c-.38-.14-.75-.28-1.12-.44l.54-1.3c.35,.15,.71,.28,1.06,.41l-.48,1.32Z"/>
        <path class="cls-11" d="M41.96,70.1c-.42,0-.83,0-1.25-.02l.06-1.4c.4,.02,.79,.02,1.19,.02v1.4Z"/>
        <path class="cls-2" d="M39.74,70.03c-.42-.03-.83-.07-1.25-.12l.16-1.39c.39,.05,.79,.08,1.18,.11l-.1,1.4Z"/>
        <path class="cls-12" d="M37.53,69.78c-.41-.06-.82-.14-1.23-.22l.27-1.38c.39,.08,.78,.15,1.17,.21l-.21,1.39Z"/>
        <path class="cls-9" d="M36.44,69.59c-.41-.08-.82-.17-1.22-.27l.33-1.36c.39,.09,.77,.18,1.16,.25l-.27,1.38Z"/>
        <path class="cls-5" d="M35.35,69.35c-.41-.1-.81-.2-1.21-.31l.38-1.35c.38,.11,.77,.21,1.15,.3l-.32,1.37Z"/>
        <path class="cls-8" d="M33.21,68.76c-.4-.13-.79-.26-1.18-.41l.49-1.32c.37,.14,.75,.27,1.13,.39l-.43,1.34Z"/>
        <path class="cls-11" d="M31.55,66.96c-.37-.15-.74-.31-1.1-.48l.59-1.27c.35,.16,.69,.31,1.05,.45l-.53,1.3Z"/>
        <path class="cls-6" d="M30.57,66.54c-.36-.17-.73-.34-1.08-.52l.64-1.25c.34,.17,.68,.34,1.03,.5l-.58,1.28Z"/>
        <path class="cls-2" d="M29.61,66.08c-.36-.18-.71-.37-1.06-.56l.69-1.22c.33,.19,.67,.36,1.01,.53l-.63,1.25Z"/>
        <path class="cls-12" d="M27.74,65.04c-.34-.21-.68-.42-1.01-.65l.78-1.17c.32,.21,.64,.42,.96,.61l-.73,1.2Z"/>
        <path class="cls-9" d="M26.84,64.47c-.33-.22-.66-.45-.99-.68l.82-1.13c.31,.22,.62,.44,.94,.65l-.77,1.17Z"/>
        <path class="cls-5" d="M25.96,63.87c-.33-.23-.65-.48-.96-.72l.87-1.1c.3,.24,.6,.46,.91,.69l-.82,1.14Z"/>
        <path class="cls-10" d="M25.11,63.23c-.32-.25-.63-.5-.93-.76l.91-1.07c.29,.25,.58,.49,.88,.72l-.86,1.11Z"/>
        <path class="cls-8" d="M24.28,62.56c-.31-.26-.61-.52-.9-.8l.95-1.03c.28,.26,.56,.51,.85,.76l-.91,1.07Z"/>
        <path class="cls-3" d="M23.48,61.85c-.3-.27-.59-.55-.87-.83l.99-.99c.27,.27,.54,.53,.82,.79l-.95,1.03Z"/>
        <path class="cls-11" d="M31.12,68c-.39-.16-.77-.32-1.15-.5l.59-1.27c.36,.17,.72,.32,1.09,.47l-.53,1.3Z"/>
        <path class="cls-6" d="M30.1,67.56c-.38-.17-.76-.35-1.13-.54l.64-1.25c.35,.18,.71,.35,1.07,.52l-.58,1.28Z"/>
        <path class="cls-12" d="M27.16,66.01c-.36-.22-.71-.44-1.06-.67l.78-1.17c.33,.22,.66,.43,1,.64l-.73,1.2Z"/>
        <path class="cls-9" d="M26.22,65.41c-.35-.23-.69-.47-1.03-.71l.82-1.13c.32,.23,.65,.46,.98,.68l-.77,1.17Z"/>
        <path class="cls-5" d="M25.3,64.78c-.34-.24-.67-.49-1-.75l.87-1.1c.31,.25,.63,.48,.95,.72l-.82,1.14Z"/>
        <path class="cls-8" d="M23.55,63.42c-.32-.27-.63-.55-.94-.83l.95-1.03c.29,.27,.59,.53,.89,.79l-.91,1.07Z"/>
        <path class="cls-3" d="M22.11,58.82c-.47-.55-.92-1.12-1.35-1.7l2.05-1.49c.38,.53,.79,1.04,1.22,1.54l-1.92,1.65Z"/>
        <path class="cls-8" d="M20.83,57.22c-.43-.58-.83-1.19-1.21-1.8l2.16-1.32c.34,.56,.71,1.1,1.09,1.63l-2.04,1.5Z"/>
        <path class="cls-10" d="M19.69,55.53c-.38-.62-.74-1.25-1.07-1.89l2.25-1.15c.3,.58,.62,1.15,.96,1.71l-2.15,1.33Z"/>
        <path class="cls-5" d="M18.68,53.75c-.33-.64-.64-1.3-.92-1.97l2.34-.97c.25,.6,.53,1.2,.83,1.78l-2.25,1.16Z"/>
        <path class="cls-9" d="M17.82,51.9c-.28-.67-.53-1.35-.76-2.04l2.41-.78c.2,.62,.43,1.24,.68,1.84l-2.33,.98Z"/>
        <path class="cls-12" d="M17.1,49.98c-.23-.69-.43-1.39-.6-2.09l2.46-.59c.15,.64,.33,1.27,.54,1.89l-2.4,.79Z"/>
        <path class="cls-7" d="M16.53,48.02c-.17-.7-.32-1.42-.43-2.13l2.5-.4c.1,.65,.23,1.29,.39,1.92l-2.46,.6Z"/>
        <path class="cls-2" d="M16.13,46.02c-.12-.72-.2-1.44-.26-2.16l2.52-.2c.05,.65,.13,1.3,.24,1.95l-2.5,.41Z"/>
        <path class="cls-6" d="M15.88,43.99c-.06-.72-.09-1.45-.09-2.17h2.53c0,.65,.03,1.31,.08,1.96l-2.52,.21Z"/>
        <path class="cls-4" d="M22.71,61.12c-.28-.28-.56-.57-.84-.86l1.03-.95c.26,.28,.52,.55,.79,.82l-.99,1Z"/>
        <path class="cls-3" d="M21.97,60.35c-.27-.29-.54-.59-.8-.9l1.07-.91c.25,.29,.5,.57,.76,.85l-1.03,.96Z"/>
        <path class="cls-8" d="M21.25,59.56c-.26-.3-.52-.61-.77-.93l1.1-.87c.24,.3,.48,.59,.73,.88l-1.06,.92Z"/>
        <path class="cls-10" d="M20.57,58.74c-.25-.31-.49-.63-.73-.96l1.13-.82c.22,.31,.45,.61,.69,.91l-1.1,.87Z"/>
        <path class="cls-5" d="M19.92,57.89c-.24-.32-.47-.65-.69-.98l1.17-.78c.21,.32,.43,.63,.65,.93l-1.13,.83Z"/>
        <path class="cls-9" d="M19.31,57.02c-.22-.33-.44-.67-.65-1.01l1.2-.73c.2,.32,.4,.64,.62,.96l-1.16,.78Z"/>
        <path class="cls-12" d="M18.73,56.12c-.21-.34-.41-.69-.61-1.04l1.22-.69c.19,.33,.38,.66,.58,.98l-1.19,.74Z"/>
        <path class="cls-7" d="M18.19,55.21c-.2-.35-.39-.7-.57-1.06l1.25-.64c.17,.34,.35,.67,.54,1l-1.22,.69Z"/>
        <path class="cls-2" d="M17.68,54.27c-.18-.36-.36-.72-.53-1.08l1.27-.59c.16,.35,.33,.69,.5,1.02l-1.25,.64Z"/>
        <path class="cls-6" d="M17.21,53.31c-.17-.36-.33-.73-.48-1.1l1.3-.54c.15,.35,.3,.7,.46,1.04l-1.27,.59Z"/>
        <path class="cls-3" d="M21.14,61.12c-.28-.31-.56-.62-.83-.93l1.07-.91c.26,.3,.52,.6,.79,.89l-1.03,.96Z"/>
        <path class="cls-8" d="M20.4,60.3c-.27-.32-.54-.64-.8-.97l1.1-.87c.25,.31,.5,.62,.76,.92l-1.06,.92Z"/>
        <path class="cls-5" d="M19.02,58.56c-.25-.34-.49-.68-.72-1.03l1.17-.78c.22,.33,.45,.65,.68,.97l-1.13,.83Z"/>
        <path class="cls-9" d="M18.38,57.65c-.23-.35-.46-.7-.68-1.05l1.2-.73c.21,.34,.42,.67,.64,1l-1.16,.78Z"/>
        <path class="cls-7" d="M17.21,55.76c-.21-.36-.4-.73-.59-1.1l1.25-.64c.18,.35,.37,.7,.56,1.05l-1.22,.69Z"/>
        <path class="cls-2" d="M16.68,54.78c-.19-.37-.37-.75-.55-1.13l1.27-.59c.17,.36,.34,.72,.52,1.07l-1.25,.64Z"/>
        <path class="cls-6" d="M16.19,53.79c-.18-.38-.34-.76-.5-1.15l1.3-.54c.15,.37,.31,.73,.48,1.09l-1.27,.59Z"/>
        <path class="cls-3" d="M16.38,51.34c-.14-.38-.27-.75-.4-1.13l1.33-.43c.12,.36,.24,.72,.38,1.08l-1.31,.49Z"/>
        <path class="cls-8" d="M16.03,50.34c-.13-.38-.24-.76-.35-1.15l1.35-.38c.1,.37,.21,.73,.33,1.09l-1.33,.44Z"/>
        <path class="cls-10" d="M15.71,49.32c-.11-.39-.21-.77-.31-1.16l1.36-.33c.09,.37,.19,.74,.29,1.1l-1.35,.39Z"/>
        <path class="cls-9" d="M15.21,47.25c-.08-.39-.15-.79-.21-1.18l1.39-.22c.06,.38,.13,.75,.2,1.12l-1.37,.28Z"/>
        <path class="cls-12" d="M15.01,46.2c-.06-.4-.12-.79-.17-1.19l1.39-.16c.04,.38,.1,.75,.16,1.13l-1.38,.23Z"/>
        <path class="cls-7" d="M14.86,45.14c-.05-.4-.09-.8-.12-1.2l1.4-.11c.03,.38,.07,.76,.11,1.13l-1.39,.17Z"/>
        <path class="cls-2" d="M14.75,44.08c-.03-.4-.06-.8-.07-1.2l1.4-.06c.01,.38,.04,.76,.07,1.14l-1.4,.12Z"/>
        <path class="cls-6" d="M14.68,43.02c-.02-.4-.03-.8-.03-1.2h1.4c0,.38,0,.76,.03,1.14l-1.4,.06Z"/>
        <path class="cls-11" d="M15.74,52.77c-.16-.38-.31-.77-.46-1.16l1.32-.49c.14,.37,.28,.74,.44,1.11l-1.29,.54Z"/>
        <path class="cls-6" d="M15.33,51.74c-.15-.39-.28-.79-.41-1.18l1.33-.43c.12,.38,.25,.75,.39,1.12l-1.31,.49Z"/>
        <path class="cls-7" d="M14.63,49.63c-.12-.4-.22-.8-.32-1.21l1.36-.33c.09,.39,.19,.77,.3,1.15l-1.35,.39Z"/>
        <path class="cls-12" d="M14.34,48.56c-.1-.41-.19-.81-.27-1.22l1.38-.27c.08,.39,.16,.78,.26,1.16l-1.36,.33Z"/>
        <path class="cls-5" d="M13.9,46.38c-.07-.41-.13-.83-.17-1.24l1.39-.16c.05,.39,.1,.79,.17,1.18l-1.38,.23Z"/>
        <path class="cls-10" d="M13.74,45.28c-.05-.41-.09-.83-.13-1.25l1.4-.11c.03,.4,.07,.79,.12,1.18l-1.39,.17Z"/>
        <path class="cls-8" d="M13.63,44.18c-.03-.42-.06-.83-.08-1.25l1.4-.06c.02,.4,.04,.79,.07,1.19l-1.4,.12Z"/>
        <path class="cls-3" d="M13.56,43.07c-.02-.42-.03-.83-.03-1.25h1.4c0,.4,0,.79,.03,1.19l-1.4,.06Z"/>
        <path class="cls-4" d="M41.98,74.61c-1.77,0-3.54-.13-5.29-.4l.75-4.73c1.5,.24,3.01,.35,4.52,.34l.02,4.78Z"/>
        <path class="cls-3" d="M36.85,74.24c-1.75-.27-3.48-.68-5.17-1.23l1.48-4.55c1.44,.47,2.92,.82,4.41,1.05l-.72,4.73Z"/>
        <path class="cls-10" d="M27.07,71.11c-1.58-.8-3.1-1.72-4.53-2.76l2.81-3.87c1.23,.89,2.52,1.68,3.87,2.36l-2.15,4.27Z"/>
        <path class="cls-5" d="M22.67,68.45c-1.44-1.03-2.79-2.18-4.05-3.44l3.38-3.38c1.07,1.07,2.23,2.05,3.46,2.94l-2.79,3.89Z"/>
        <path class="cls-9" d="M18.74,65.12c-1.26-1.25-2.42-2.59-3.46-4.03l3.87-2.81c.89,1.23,1.88,2.38,2.95,3.44l-3.37,3.4Z"/>
        <path class="cls-12" d="M15.38,61.23c-1.05-1.43-1.98-2.94-2.79-4.52l4.26-2.17c.69,1.35,1.48,2.64,2.38,3.86l-3.86,2.83Z"/>
        <path class="cls-7" d="M12.67,56.85c-.81-1.58-1.5-3.21-2.04-4.9l4.55-1.48c.47,1.44,1.05,2.84,1.75,4.19l-4.25,2.19Z"/>
        <path class="cls-2" d="M10.68,52.11c-.56-1.68-.98-3.41-1.25-5.16l4.73-.75c.24,1.5,.59,2.97,1.07,4.41l-4.54,1.5Z"/>
        <path class="cls-6" d="M9.45,47.11c-.29-1.75-.43-3.52-.43-5.29h4.78c0,1.51,.12,3.03,.37,4.52l-4.72,.77Z"/>
        <path class="cls-7" d="M68.56,62.69c-.31,.39-.62,.78-.95,1.16l-1.07-.91c.31-.36,.62-.74,.91-1.12l1.11,.86Z"/>
        <path class="cls-7" d="M72.48,58.79c-.25,.45-.51,.9-.78,1.34l-1.2-.73c.26-.42,.51-.85,.75-1.29l1.23,.68Z"/>
        <path class="cls-10" d="M69.45,63.38c-.32,.41-.65,.81-.98,1.2l-1.07-.91c.32-.38,.64-.76,.94-1.15l1.11,.86Z"/>
        <path class="cls-10" d="M77.77,51.76c-.15,.53-.31,1.06-.48,1.58l-1.33-.43c.16-.5,.32-1.01,.46-1.52l1.35,.37Z"/>
        <path class="cls-6" d="M74.75,56.8c-.22,.49-.45,.97-.7,1.44l-1.25-.64c.23-.46,.46-.92,.67-1.39l1.28,.58Z"/>
        <path class="cls-7" d="M73.47,59.34c-.26,.47-.53,.93-.81,1.38l-1.2-.73c.27-.44,.53-.88,.78-1.33l1.23,.68Z"/>
        <path class="cls-8" d="M69.44,65.18c-.34,.41-.7,.81-1.06,1.2l-1.03-.95c.35-.38,.69-.76,1.02-1.15l1.07,.91Z"/>
        <path class="cls-10" d="M71.23,64.77c-.34,.43-.69,.86-1.04,1.28l-1.07-.91c.34-.4,.68-.81,1.01-1.23l1.11,.86Z"/>
        <path class="cls-9" d="M55.39,74.13c-.9,.38-1.82,.72-2.74,1.02l-.78-2.41c.86-.28,1.71-.6,2.55-.95l.98,2.33Z"/>
        <path class="cls-3" d="M66.51,68.26c-.39,.36-.79,.72-1.19,1.07l-.91-1.07c.39-.33,.77-.68,1.15-1.03l.96,1.03Z"/>
        <path class="cls-10" d="M64.36,70.12c-.42,.33-.84,.66-1.27,.97l-.82-1.13c.42-.3,.82-.61,1.23-.93l.87,1.1Z"/>
        <path class="cls-12" d="M60.87,72.57c-.45,.28-.91,.55-1.38,.81l-.69-1.22c.45-.25,.89-.51,1.33-.78l.74,1.19Z"/>
        <path class="cls-7" d="M59.65,73.29c-.46,.26-.93,.52-1.41,.76l-.64-1.25c.46-.23,.91-.48,1.36-.73l.69,1.22Z"/>
        <path class="cls-6" d="M57.13,74.6c-.48,.23-.97,.44-1.47,.65l-.54-1.3c.47-.2,.94-.4,1.41-.62l.59,1.27Z"/>
        <path class="cls-3" d="M67.28,69.09c-.4,.38-.81,.74-1.23,1.1l-.91-1.07c.4-.34,.8-.7,1.19-1.06l.96,1.03Z"/>
        <path class="cls-12" d="M61.47,73.53c-.47,.29-.94,.57-1.42,.84l-.69-1.22c.46-.26,.92-.53,1.37-.81l.74,1.19Z"/>
        <path class="cls-2" d="M58.92,74.97c-.49,.25-.98,.49-1.48,.72l-.59-1.27c.48-.22,.96-.45,1.43-.7l.64,1.25Z"/>
        <path class="cls-3" d="M54.51,75.7c-.5,.19-1,.36-1.51,.53l-.43-1.33c.49-.16,.97-.33,1.45-.51l.49,1.31Z"/>
        <path class="cls-5" d="M50.44,76.95c-.52,.13-1.04,.24-1.56,.35l-.27-1.38c.5-.1,1-.21,1.5-.33l.33,1.36Z"/>
        <path class="cls-12" d="M47.66,77.52c-.53,.09-1.06,.16-1.59,.22l-.16-1.39c.51-.06,1.02-.13,1.52-.21l.23,1.38Z"/>
        <path class="cls-2" d="M44.84,77.87c-.53,.04-1.07,.08-1.6,.1l-.06-1.4c.51-.02,1.03-.05,1.54-.09l.12,1.4Z"/>
        <path class="cls-6" d="M54.9,76.75c-.52,.19-1.04,.37-1.56,.54l-.43-1.33c.5-.16,1-.34,1.5-.52l.49,1.31Z"/>
        <path class="cls-7" d="M52.12,77.67c-.53,.15-1.06,.29-1.6,.42l-.33-1.36c.52-.12,1.03-.26,1.54-.41l.39,1.35Z"/>
        <path class="cls-12" d="M50.71,78.05c-.53,.13-1.07,.25-1.61,.36l-.27-1.38c.52-.1,1.04-.22,1.55-.34l.33,1.36Z"/>
        <path class="cls-5" d="M47.84,78.63c-.54,.09-1.09,.17-1.64,.23l-.16-1.39c.53-.06,1.05-.14,1.57-.22l.23,1.38Z"/>
        <path class="cls-10" d="M46.39,78.84c-.55,.07-1.09,.12-1.64,.17l-.11-1.4c.53-.04,1.06-.09,1.58-.16l.17,1.39Z"/>
        <path class="cls-8" d="M81.27,44.72c-.04,.58-.1,1.16-.17,1.74l-1.39-.16c.07-.56,.12-1.12,.16-1.68l1.4,.1Z"/>
        <path class="cls-2" d="M79.5,53.85c-.18,.56-.37,1.11-.57,1.66l-1.32-.49c.19-.53,.38-1.06,.55-1.6l1.34,.43Z"/>
        <path class="cls-9" d="M73.88,63.01c-.31,.47-.64,.94-.97,1.4l-1.13-.82c.32-.44,.63-.89,.93-1.35l1.17,.77Z"/>
        <path class="cls-5" d="M73.02,64.25c-.33,.46-.67,.91-1.02,1.36l-1.1-.87c.34-.43,.67-.87,.99-1.31l1.14,.82Z"/>
        <path class="cls-8" d="M72.03,67.36c-.38,.45-.76,.88-1.16,1.31l-1.03-.95c.38-.41,.76-.84,1.12-1.27l1.07,.91Z"/>
        <path class="cls-3" d="M71,68.53c-.39,.43-.8,.85-1.21,1.27l-.99-.99c.4-.4,.79-.81,1.17-1.22l1.03,.95Z"/>
        <path class="cls-5" d="M83.15,48.15c-.09,.61-.2,1.22-.32,1.82l-1.38-.27c.12-.58,.22-1.17,.31-1.76l1.39,.21Z"/>
        <path class="cls-4" d="M79.49,57.2c-.23,.56-.47,1.11-.72,1.65l-1.27-.59c.24-.53,.47-1.06,.69-1.6l1.3,.53Z"/>
        <path class="cls-8" d="M78.16,60.11c-.27,.54-.55,1.07-.85,1.59l-1.22-.69c.28-.51,.56-1.02,.82-1.54l1.25,.63Z"/>
        <path class="cls-9" d="M75.76,64.25c-.33,.5-.67,.99-1.03,1.48l-1.13-.82c.34-.47,.67-.95,.99-1.43l1.17,.77Z"/>
        <path class="cls-10" d="M74.79,67.54c-.38,.49-.77,.96-1.17,1.43l-1.07-.91c.39-.45,.76-.92,1.13-1.39l1.11,.86Z"/>
        <path class="cls-7" d="M65.76,71.88c-.44,.35-.9,.7-1.35,1.03l-.82-1.13c.44-.32,.88-.65,1.3-.99l.87,1.1Z"/>
        <path class="cls-8" d="M59.44,75.97c-.5,.26-1.01,.51-1.53,.75l-.59-1.27c.5-.23,.99-.47,1.47-.72l.64,1.25Z"/>
        <path class="cls-6" d="M68.82,70.73c-.43,.4-.86,.79-1.31,1.17l-.91-1.07c.43-.37,.85-.74,1.26-1.13l.96,1.03Z"/>
        <path class="cls-7" d="M66.46,72.76c-.46,.36-.92,.72-1.39,1.06l-.82-1.13c.46-.33,.9-.67,1.34-1.02l.87,1.1Z"/>
        <path class="cls-10" d="M61.32,76.24c-.51,.29-1.02,.56-1.54,.83l-.64-1.25c.5-.26,1-.52,1.49-.8l.69,1.22Z"/>
        <path class="cls-8" d="M59.95,76.98c-.52,.27-1.04,.52-1.57,.77l-.59-1.27c.51-.24,1.02-.48,1.52-.74l.64,1.25Z"/>
        <path class="cls-9" d="M49.5,79.47c-.56,.11-1.11,.21-1.67,.3l-.22-1.39c.54-.09,1.08-.18,1.61-.29l.28,1.37Z"/>
        <path class="cls-5" d="M48.02,79.75c-.56,.09-1.12,.17-1.68,.24l-.16-1.39c.54-.06,1.08-.14,1.62-.23l.23,1.38Z"/>
        <path class="cls-10" d="M46.53,79.96c-.56,.07-1.13,.13-1.69,.17l-.11-1.4c.54-.04,1.09-.1,1.63-.16l.17,1.39Z"/>
        <path class="cls-3" d="M43.52,80.21c-.57,.03-1.13,.04-1.7,.04v-1.4c.55,0,1.09-.01,1.64-.04l.06,1.4Z"/>
        <path class="cls-3" d="M55.7,78.86c-.55,.2-1.1,.4-1.65,.58l-.43-1.33c.54-.17,1.07-.36,1.59-.56l.49,1.31Z"/>
        <path class="cls-8" d="M54.23,79.38c-.55,.18-1.11,.35-1.67,.51l-.38-1.35c.54-.15,1.08-.32,1.62-.49l.44,1.33Z"/>
        <path class="cls-10" d="M52.75,79.84c-.56,.16-1.13,.31-1.69,.45l-.33-1.36c.55-.13,1.09-.28,1.63-.43l.39,1.35Z"/>
        <path class="cls-7" d="M46.66,81.08c-.58,.07-1.16,.13-1.74,.18l-.11-1.4c.56-.04,1.12-.1,1.68-.17l.17,1.39Z"/>
        <path class="cls-8" d="M68.4,72.62c-.45,.39-.92,.77-1.39,1.15l-.87-1.1c.46-.36,.9-.73,1.34-1.11l.92,1.06Z"/>
        <path class="cls-10" d="M67.17,73.64c-.47,.37-.95,.74-1.43,1.09l-.82-1.13c.47-.34,.93-.69,1.38-1.05l.87,1.1Z"/>
        <path class="cls-9" d="M64.59,75.54c-.5,.34-1,.66-1.51,.97l-.73-1.2c.49-.3,.98-.62,1.46-.94l.78,1.16Z"/>
        <path class="cls-7" d="M61.88,77.22c-.52,.3-1.05,.58-1.59,.85l-.64-1.25c.52-.26,1.03-.54,1.53-.82l.69,1.22Z"/>
        <path class="cls-10" d="M67.87,74.53c-.48,.38-.97,.76-1.47,1.12l-.82-1.13c.48-.35,.96-.71,1.42-1.08l.87,1.1Z"/>
        <path class="cls-5" d="M66.56,75.52c-.5,.37-1,.72-1.52,1.06l-.78-1.17c.5-.33,.98-.67,1.47-1.03l.83,1.13Z"/>
        <path class="cls-9" d="M65.22,76.47c-.51,.35-1.03,.68-1.56,1l-.73-1.2c.51-.31,1.01-.63,1.5-.97l.78,1.16Z"/>
        <path class="cls-7" d="M62.43,78.2c-.54,.3-1.08,.6-1.63,.88l-.64-1.25c.53-.27,1.06-.55,1.58-.85l.69,1.22Z"/>
        <path class="cls-2" d="M60.99,78.98c-.55,.28-1.1,.55-1.66,.81l-.59-1.27c.54-.25,1.08-.51,1.61-.78l.64,1.25Z"/>
        <path class="cls-6" d="M59.51,79.7c-.56,.26-1.12,.51-1.69,.75l-.54-1.3c.55-.23,1.1-.47,1.64-.72l.59,1.27Z"/>
        <path class="cls-11" d="M57.58,79.33c-.55,.23-1.11,.45-1.68,.66l-.49-1.32c.54-.2,1.08-.41,1.62-.64l.54,1.29Z"/>
        <path class="cls-6" d="M56.09,79.92c-.56,.21-1.13,.41-1.7,.59l-.43-1.33c.55-.18,1.1-.37,1.64-.57l.49,1.31Z"/>
        <path class="cls-12" d="M51.51,81.33c-.58,.14-1.17,.27-1.76,.39l-.27-1.38c.57-.11,1.13-.24,1.7-.38l.33,1.36Z"/>
        <path class="cls-9" d="M49.95,81.68c-.59,.12-1.18,.23-1.77,.32l-.22-1.39c.57-.09,1.14-.19,1.71-.31l.28,1.37Z"/>
        <path class="cls-8" d="M45.21,82.36c-.6,.05-1.2,.09-1.8,.11l-.06-1.4c.58-.02,1.16-.06,1.74-.11l.12,1.4Z"/>
        <path class="cls-3" d="M43.62,82.47c-.6,.03-1.2,.04-1.8,.04v-1.4c.58,0,1.16-.01,1.74-.04l.06,1.4Z"/>
        <path class="cls-10" d="M53.37,82.01c-.59,.17-1.19,.33-1.79,.47l-.33-1.36c.58-.14,1.16-.29,1.73-.46l.39,1.35Z"/>
        <path class="cls-5" d="M51.78,82.43c-.6,.15-1.2,.28-1.81,.4l-.27-1.38c.58-.12,1.17-.25,1.75-.39l.33,1.36Z"/>
        <path class="cls-6" d="M43.67,83.59c-.62,.03-1.23,.04-1.85,.04v-1.4c.6,0,1.19-.01,1.79-.04l.06,1.4Z"/>
        <path class="cls-6" d="M40.65,75.72c-.5-.02-1-.05-1.5-.08l.11-1.4c.48,.04,.96,.06,1.44,.08l-.05,1.4Z"/>
        <path class="cls-9" d="M35.36,75.12c-.49-.1-.98-.2-1.47-.32l.33-1.36c.47,.11,.94,.21,1.41,.31l-.27,1.38Z"/>
        <path class="cls-5" d="M34.06,74.84c-.49-.11-.97-.24-1.45-.38l.38-1.35c.46,.13,.93,.25,1.39,.36l-.32,1.37Z"/>
        <path class="cls-8" d="M31.49,74.13c-.48-.15-.95-.32-1.42-.49l.49-1.32c.45,.17,.9,.32,1.36,.47l-.43,1.34Z"/>
        <path class="cls-3" d="M30.23,73.7c-.47-.17-.94-.35-1.4-.54l.54-1.3c.44,.18,.89,.36,1.34,.52l-.48,1.32Z"/>
        <path class="cls-3" d="M40.62,76.85c-.52-.02-1.03-.05-1.55-.09l.11-1.4c.5,.04,.99,.07,1.49,.08l-.05,1.4Z"/>
        <path class="cls-8" d="M39.24,76.77c-.52-.04-1.03-.09-1.54-.15l.16-1.39c.49,.06,.99,.11,1.48,.14l-.1,1.4Z"/>
        <path class="cls-10" d="M37.87,76.65c-.51-.06-1.03-.13-1.54-.21l.22-1.39c.49,.08,.98,.14,1.48,.2l-.16,1.39Z"/>
        <path class="cls-9" d="M35.15,76.23c-.51-.1-1.01-.21-1.52-.33l.33-1.36c.48,.12,.97,.22,1.46,.32l-.27,1.38Z"/>
        <path class="cls-6" d="M29.85,74.76c-.49-.18-.97-.36-1.45-.56l.54-1.3c.46,.19,.92,.37,1.39,.54l-.48,1.32Z"/>
        <path class="cls-8" d="M26.57,72.12c-.45-.23-.89-.46-1.33-.7l.69-1.22c.42,.23,.84,.46,1.27,.68l-.63,1.25Z"/>
        <path class="cls-5" d="M24.24,70.83c-.43-.26-.85-.53-1.27-.81l.78-1.17c.4,.27,.8,.52,1.21,.77l-.73,1.2Z"/>
        <path class="cls-9" d="M23.11,70.12c-.42-.28-.83-.56-1.23-.86l.82-1.13c.39,.28,.78,.56,1.18,.82l-.77,1.17Z"/>
        <path class="cls-7" d="M20.95,68.56c-.39-.31-.78-.62-1.16-.95l.91-1.07c.36,.31,.74,.62,1.12,.91l-.86,1.11Z"/>
        <path class="cls-6" d="M18.91,66.84c-.37-.34-.73-.68-1.09-1.04l.99-.99c.34,.34,.69,.67,1.04,1l-.95,1.03Z"/>
        <path class="cls-3" d="M27.3,73.72c-.47-.21-.94-.44-1.4-.67l.64-1.25c.44,.23,.89,.44,1.34,.65l-.58,1.28Z"/>
        <path class="cls-8" d="M26.06,73.13c-.46-.23-.92-.48-1.37-.73l.69-1.22c.43,.24,.87,.48,1.32,.7l-.63,1.25Z"/>
        <path class="cls-10" d="M24.84,72.48c-.45-.25-.9-.51-1.34-.78l.73-1.2c.42,.26,.85,.51,1.29,.75l-.68,1.23Z"/>
        <path class="cls-9" d="M22.49,71.06c-.43-.29-.86-.58-1.28-.88l.82-1.13c.4,.29,.81,.57,1.22,.85l-.77,1.17Z"/>
        <path class="cls-12" d="M21.36,70.28c-.42-.3-.83-.61-1.24-.93l.87-1.1c.39,.31,.79,.61,1.19,.9l-.82,1.14Z"/>
        <path class="cls-7" d="M20.25,69.45c-.41-.32-.81-.65-1.2-.98l.91-1.07c.38,.32,.76,.64,1.15,.94l-.86,1.11Z"/>
        <path class="cls-2" d="M19.19,68.58c-.4-.33-.78-.68-1.16-1.03l.95-1.03c.36,.34,.74,.67,1.12,.99l-.91,1.07Z"/>
        <path class="cls-6" d="M18.15,67.67c-.38-.35-.76-.71-1.12-1.07l.99-.99c.35,.35,.71,.69,1.08,1.03l-.95,1.03Z"/>
        <path class="cls-4" d="M42,78c-.53,0-1.07,0-1.6-.03l.06-1.4c.51,.02,1.03,.03,1.54,.03v1.4Z"/>
        <path class="cls-10" d="M37.74,77.77c-.53-.06-1.06-.13-1.59-.22l.22-1.39c.51,.08,1.02,.15,1.53,.21l-.16,1.39Z"/>
        <path class="cls-5" d="M36.34,77.58c-.53-.08-1.05-.17-1.58-.28l.27-1.38c.5,.1,1.01,.19,1.52,.27l-.21,1.39Z"/>
        <path class="cls-7" d="M32.17,76.69c-.51-.14-1.03-.3-1.53-.46l.43-1.33c.49,.16,.98,.31,1.47,.44l-.37,1.35Z"/>
        <path class="cls-4" d="M42,79.12c-.55,0-1.1,0-1.65-.03l.06-1.4c.53,.02,1.06,.03,1.59,.03v1.4Z"/>
        <path class="cls-3" d="M40.54,79.1c-.55-.02-1.1-.05-1.65-.09l.11-1.4c.53,.04,1.06,.07,1.59,.09l-.05,1.4Z"/>
        <path class="cls-10" d="M37.62,78.89c-.55-.06-1.09-.14-1.64-.22l.22-1.39c.52,.08,1.05,.15,1.57,.21l-.16,1.39Z"/>
        <path class="cls-12" d="M33.29,78.14c-.54-.13-1.07-.26-1.6-.41l.38-1.35c.51,.14,1.02,.28,1.54,.4l-.32,1.37Z"/>
        <path class="cls-7" d="M31.87,77.77c-.53-.15-1.06-.31-1.58-.48l.43-1.33c.5,.16,1.01,.32,1.52,.46l-.37,1.35Z"/>
        <path class="cls-2" d="M30.47,77.35c-.52-.17-1.05-.35-1.56-.54l.49-1.32c.5,.18,1,.36,1.5,.52l-.43,1.34Z"/>
        <path class="cls-6" d="M29.08,76.88c-.52-.19-1.03-.39-1.54-.6l.54-1.3c.49,.2,.98,.39,1.48,.58l-.48,1.32Z"/>
        <path class="cls-11" d="M28.14,75.31c-.49-.2-.98-.41-1.47-.64l.59-1.27c.47,.21,.94,.42,1.41,.61l-.53,1.3Z"/>
        <path class="cls-7" d="M24.3,73.47c-.47-.26-.93-.53-1.38-.81l.73-1.2c.44,.27,.88,.53,1.33,.78l-.68,1.23Z"/>
        <path class="cls-12" d="M23.07,72.76c-.46-.28-.91-.56-1.35-.86l.78-1.17c.43,.29,.86,.56,1.3,.83l-.73,1.2Z"/>
        <path class="cls-9" d="M21.87,72c-.45-.29-.88-.6-1.32-.91l.82-1.13c.42,.3,.84,.59,1.27,.88l-.77,1.17Z"/>
        <path class="cls-10" d="M19.56,70.34c-.42-.33-.83-.67-1.24-1.01l.91-1.07c.39,.33,.79,.66,1.19,.97l-.86,1.11Z"/>
        <path class="cls-3" d="M17.39,68.51c-.39-.36-.78-.73-1.16-1.11l.99-.99c.36,.36,.73,.72,1.11,1.06l-.95,1.03Z"/>
        <path class="cls-7" d="M23.75,74.46c-.48-.27-.96-.54-1.43-.83l.73-1.2c.45,.28,.91,.54,1.37,.8l-.68,1.23Z"/>
        <path class="cls-9" d="M21.25,72.94c-.46-.3-.91-.62-1.36-.94l.82-1.13c.43,.31,.86,.61,1.31,.91l-.77,1.17Z"/>
        <path class="cls-10" d="M18.87,71.23c-.43-.34-.86-.69-1.28-1.04l.91-1.07c.4,.34,.81,.68,1.23,1.01l-.86,1.11Z"/>
        <path class="cls-8" d="M17.73,70.31c-.42-.36-.83-.72-1.24-1.09l.95-1.03c.39,.36,.79,.71,1.19,1.05l-.91,1.07Z"/>
        <path class="cls-3" d="M16.63,69.34c-.41-.37-.8-.75-1.19-1.14l.99-.99c.37,.37,.76,.74,1.15,1.1l-.95,1.03Z"/>
        <path class="cls-11" d="M17.95,65.92c-.36-.35-.7-.71-1.04-1.08l1.03-.95c.33,.35,.66,.7,1,1.04l-.99,1Z"/>
        <path class="cls-2" d="M16.13,63.98c-.33-.38-.65-.77-.96-1.16l1.1-.87c.3,.38,.6,.75,.92,1.11l-1.06,.92Z"/>
        <path class="cls-7" d="M15.28,62.95c-.31-.39-.62-.79-.91-1.2l1.13-.82c.28,.39,.57,.77,.87,1.15l-1.1,.87Z"/>
        <path class="cls-12" d="M14.47,61.89c-.3-.4-.58-.81-.86-1.23l1.17-.78c.27,.4,.54,.79,.83,1.18l-1.13,.83Z"/>
        <path class="cls-5" d="M12.98,59.69c-.26-.43-.52-.86-.76-1.29l1.22-.69c.23,.42,.48,.83,.73,1.24l-1.19,.74Z"/>
        <path class="cls-10" d="M12.3,58.54c-.25-.44-.48-.88-.71-1.32l1.25-.64c.22,.43,.45,.85,.68,1.27l-1.22,.69Z"/>
        <path class="cls-8" d="M11.67,57.37c-.23-.44-.45-.89-.66-1.35l1.27-.59c.2,.44,.41,.87,.63,1.29l-1.25,.64Z"/>
        <path class="cls-4" d="M17.16,66.73c-.37-.36-.73-.74-1.08-1.12l1.03-.95c.34,.36,.68,.72,1.04,1.07l-.99,1Z"/>
        <path class="cls-8" d="M15.28,64.71c-.34-.39-.67-.79-.99-1.2l1.1-.87c.31,.39,.62,.77,.95,1.15l-1.06,.92Z"/>
        <path class="cls-10" d="M14.4,63.65c-.32-.4-.64-.82-.94-1.23l1.13-.82c.29,.4,.59,.8,.9,1.19l-1.1,.87Z"/>
        <path class="cls-12" d="M12.02,60.28c-.27-.44-.54-.89-.79-1.34l1.22-.69c.24,.43,.49,.86,.76,1.28l-1.19,.74Z"/>
        <path class="cls-2" d="M10.67,57.89c-.24-.46-.46-.92-.68-1.39l1.27-.59c.21,.45,.43,.9,.65,1.34l-1.25,.64Z"/>
        <path class="cls-6" d="M10.06,56.65c-.22-.47-.43-.94-.63-1.42l1.3-.54c.19,.46,.39,.91,.6,1.36l-1.27,.59Z"/>
        <path class="cls-6" d="M10.05,53.72c-.18-.47-.34-.94-.5-1.42l1.33-.43c.15,.46,.31,.91,.48,1.36l-1.31,.49Z"/>
        <path class="cls-2" d="M9.61,52.46c-.16-.48-.3-.95-.44-1.44l1.35-.38c.13,.46,.27,.92,.42,1.38l-1.33,.44Z"/>
        <path class="cls-7" d="M9.21,51.19c-.14-.48-.27-.97-.38-1.45l1.36-.33c.11,.47,.23,.93,.37,1.39l-1.35,.39Z"/>
        <path class="cls-12" d="M8.87,49.9c-.12-.49-.23-.97-.33-1.47l1.38-.27c.09,.47,.2,.94,.31,1.41l-1.36,.33Z"/>
        <path class="cls-9" d="M8.58,48.6c-.1-.49-.19-.98-.27-1.48l1.39-.22c.08,.47,.16,.95,.26,1.42l-1.37,.28Z"/>
        <path class="cls-5" d="M8.34,47.29c-.08-.49-.15-.99-.21-1.49l1.39-.16c.06,.48,.12,.95,.2,1.43l-1.38,.23Z"/>
        <path class="cls-10" d="M8.15,45.97c-.06-.5-.11-1-.15-1.49l1.4-.11c.04,.48,.09,.96,.14,1.43l-1.39,.17Z"/>
        <path class="cls-8" d="M8.01,44.65c-.04-.5-.07-1-.09-1.5l1.4-.06c.02,.48,.05,.96,.09,1.44l-1.4,.12Z"/>
        <path class="cls-3" d="M7.93,43.32c-.02-.5-.03-1-.03-1.5h1.4c0,.48,.01,.96,.03,1.44l-1.4,.06Z"/>
        <path class="cls-4" d="M9.5,55.39c-.2-.48-.39-.96-.57-1.44l1.32-.49c.17,.47,.35,.93,.55,1.39l-1.29,.54Z"/>
        <path class="cls-3" d="M8.99,54.11c-.18-.48-.35-.97-.51-1.46l1.33-.43c.15,.47,.32,.94,.49,1.41l-1.31,.49Z"/>
        <path class="cls-8" d="M8.53,52.81c-.16-.49-.31-.99-.45-1.48l1.35-.38c.13,.48,.28,.95,.44,1.42l-1.33,.44Z"/>
        <path class="cls-10" d="M8.13,51.5c-.14-.5-.27-1-.4-1.5l1.36-.33c.12,.48,.24,.96,.38,1.44l-1.35,.39Z"/>
        <path class="cls-9" d="M7.47,48.83c-.1-.51-.2-1.02-.28-1.53l1.39-.22c.08,.49,.17,.98,.27,1.47l-1.37,.28Z"/>
        <path class="cls-12" d="M7.22,47.47c-.08-.51-.16-1.02-.22-1.54l1.39-.16c.06,.49,.13,.98,.21,1.47l-1.38,.23Z"/>
        <path class="cls-7" d="M7.03,46.11c-.06-.51-.12-1.03-.16-1.54l1.4-.11c.04,.5,.09,.99,.15,1.48l-1.39,.17Z"/>
        <path class="cls-2" d="M6.89,44.74c-.04-.52-.07-1.03-.1-1.55l1.4-.06c.02,.5,.05,.99,.09,1.49l-1.4,.12Z"/>
        <path class="cls-6" d="M6.8,43.37c-.02-.52-.03-1.03-.03-1.55h1.4c0,.5,.01,.99,.03,1.49l-1.4,.06Z"/>
        <path class="cls-11" d="M15.57,68.33c-.74-.73-1.45-1.49-2.12-2.28l1.92-1.64c.63,.74,1.29,1.45,1.98,2.13l-1.78,1.8Z"/>
        <path class="cls-6" d="M13.57,66.19c-.68-.79-1.32-1.6-1.94-2.44l2.05-1.49c.57,.78,1.17,1.54,1.8,2.28l-1.92,1.65Z"/>
        <path class="cls-7" d="M10.11,61.47c-.55-.88-1.06-1.79-1.53-2.71l2.25-1.15c.44,.86,.92,1.71,1.43,2.53l-2.15,1.33Z"/>
        <path class="cls-12" d="M8.66,58.92c-.48-.92-.91-1.87-1.31-2.83l2.34-.97c.37,.89,.78,1.77,1.22,2.63l-2.25,1.16Z"/>
        <path class="cls-8" d="M5,47.84c-.17-1.03-.29-2.06-.37-3.09l2.52-.2c.08,.97,.19,1.93,.35,2.88l-2.5,.41Z"/>
        <path class="cls-3" d="M4.64,44.93c-.09-1.04-.13-2.07-.13-3.11h2.53c0,.97,.04,1.94,.12,2.9l-2.52,.21Z"/>
        <path class="cls-4" d="M42.01,81.38c-1.1,0-2.2-.04-3.3-.12l.2-2.52c1.03,.08,2.06,.12,3.09,.11v2.53Z"/>
        <path class="cls-10" d="M32.77,80.33c-1.07-.25-2.13-.55-3.18-.89l.78-2.41c.98,.32,1.97,.6,2.98,.83l-.58,2.46Z"/>
        <path class="cls-12" d="M24.03,77.16c-.98-.5-1.95-1.03-2.89-1.61l1.32-2.16c.88,.54,1.78,1.04,2.7,1.5l-1.14,2.26Z"/>
        <path class="cls-2" d="M18.72,73.94c-.89-.64-1.76-1.32-2.6-2.04l1.64-1.92c.78,.67,1.6,1.31,2.43,1.91l-1.48,2.05Z"/>
        <path class="cls-6" d="M16.27,72.03c-.84-.71-1.65-1.46-2.43-2.24l1.79-1.79c.73,.73,1.49,1.43,2.28,2.09l-1.63,1.93Z"/>
        <path class="cls-4" d="M42.02,82.51c-.6,0-1.2,0-1.8-.03l.06-1.4c.58,.02,1.16,.03,1.74,.03v1.4Z"/>
        <path class="cls-10" d="M37.24,82.25c-.6-.07-1.19-.15-1.78-.24l.22-1.39c.57,.09,1.15,.17,1.72,.23l-.16,1.39Z"/>
        <path class="cls-5" d="M35.65,82.04c-.59-.09-1.18-.2-1.77-.31l.27-1.38c.57,.11,1.14,.21,1.71,.3l-.21,1.39Z"/>
        <path class="cls-9" d="M34.08,81.76c-.59-.11-1.18-.24-1.76-.38l.33-1.36c.56,.14,1.13,.26,1.7,.37l-.27,1.38Z"/>
        <path class="cls-7" d="M30.97,81.03c-.58-.16-1.15-.33-1.72-.52l.43-1.33c.55,.18,1.11,.35,1.67,.5l-.37,1.35Z"/>
        <path class="cls-2" d="M29.44,80.58c-.57-.18-1.14-.38-1.7-.59l.49-1.32c.54,.2,1.09,.39,1.64,.57l-.43,1.34Z"/>
        <path class="cls-4" d="M42.03,83.63c-.62,0-1.23,0-1.85-.03l.06-1.4c.6,.02,1.19,.03,1.79,.03v1.4Z"/>
        <path class="cls-3" d="M40.38,83.61c-.62-.02-1.23-.06-1.85-.1l.11-1.4c.59,.05,1.19,.08,1.79,.1l-.05,1.4Z"/>
        <path class="cls-8" d="M38.74,83.52c-.62-.05-1.23-.1-1.84-.18l.16-1.39c.59,.07,1.19,.13,1.78,.17l-.1,1.4Z"/>
        <path class="cls-10" d="M37.11,83.37c-.61-.07-1.22-.15-1.83-.25l.22-1.39c.59,.09,1.18,.17,1.77,.24l-.16,1.39Z"/>
        <path class="cls-5" d="M35.48,83.15c-.61-.09-1.22-.2-1.82-.32l.27-1.38c.58,.12,1.17,.22,1.76,.31l-.21,1.39Z"/>
        <path class="cls-9" d="M33.86,82.87c-.61-.12-1.21-.25-1.81-.39l.33-1.36c.58,.14,1.16,.27,1.75,.38l-.27,1.38Z"/>
        <path class="cls-7" d="M30.67,82.12c-.59-.16-1.19-.34-1.77-.53l.43-1.33c.57,.18,1.14,.36,1.71,.52l-.37,1.35Z"/>
        <path class="cls-3" d="M24.97,78.85c-.55-.25-1.09-.51-1.62-.78l.64-1.25c.52,.26,1.04,.51,1.57,.76l-.58,1.28Z"/>
        <path class="cls-10" d="M22.11,77.42c-.53-.29-1.04-.59-1.56-.91l.73-1.2c.49,.3,1,.59,1.5,.88l-.68,1.23Z"/>
        <path class="cls-9" d="M19.38,75.76c-.5-.33-.99-.67-1.48-1.03l.82-1.13c.47,.34,.95,.67,1.43,.99l-.77,1.17Z"/>
        <path class="cls-12" d="M18.07,74.85c-.49-.35-.97-.71-1.44-1.08l.87-1.1c.46,.36,.92,.71,1.39,1.05l-.82,1.14Z"/>
        <path class="cls-7" d="M16.79,73.9c-.47-.37-.94-.75-1.4-1.14l.91-1.07c.44,.38,.89,.74,1.35,1.1l-.86,1.11Z"/>
        <path class="cls-6" d="M14.35,71.83c-.44-.41-.88-.82-1.3-1.25l.99-.99c.41,.41,.83,.81,1.26,1.2l-.95,1.03Z"/>
        <path class="cls-11" d="M26.01,80.53c-.57-.23-1.14-.48-1.7-.74l.59-1.27c.54,.25,1.09,.49,1.64,.71l-.53,1.3Z"/>
        <path class="cls-7" d="M21.57,78.4c-.54-.3-1.07-.61-1.6-.93l.73-1.2c.51,.31,1.02,.61,1.55,.9l-.68,1.23Z"/>
        <path class="cls-9" d="M18.76,76.7c-.51-.34-1.02-.69-1.52-1.05l.82-1.13c.48,.35,.97,.69,1.47,1.02l-.77,1.17Z"/>
        <path class="cls-10" d="M16.09,74.79c-.49-.38-.96-.77-1.43-1.17l.91-1.07c.45,.39,.92,.76,1.39,1.13l-.86,1.11Z"/>
        <path class="cls-8" d="M14.82,73.75c-.47-.4-.93-.81-1.39-1.23l.95-1.03c.44,.4,.88,.8,1.34,1.18l-.91,1.07Z"/>
        <path class="cls-3" d="M13.59,72.67c-.46-.42-.9-.84-1.34-1.28l.99-.99c.42,.42,.85,.83,1.29,1.24l-.95,1.03Z"/>
        <path class="cls-11" d="M13.98,69.93c-.78-.78-1.53-1.58-2.25-2.42l1.92-1.64c.67,.78,1.37,1.54,2.11,2.27l-1.78,1.8Z"/>
        <path class="cls-6" d="M11.86,67.66c-.72-.83-1.4-1.7-2.05-2.59l2.05-1.49c.61,.83,1.25,1.64,1.92,2.42l-1.92,1.65Z"/>
        <path class="cls-2" d="M9.93,65.23c-.65-.89-1.27-1.8-1.84-2.74l2.16-1.32c.54,.88,1.11,1.74,1.72,2.57l-2.04,1.5Z"/>
        <path class="cls-7" d="M8.19,62.66c-.58-.94-1.12-1.9-1.62-2.88l2.25-1.15c.47,.92,.97,1.82,1.52,2.69l-2.15,1.33Z"/>
        <path class="cls-12" d="M6.66,59.95c-.51-.98-.97-1.98-1.39-3l2.34-.97c.39,.95,.83,1.89,1.3,2.81l-2.25,1.16Z"/>
        <path class="cls-5" d="M4.25,54.23c-.35-1.05-.65-2.11-.9-3.18l2.46-.59c.24,1,.52,2,.85,2.97l-2.4,.79Z"/>
        <path class="cls-10" d="M3.39,51.24c-.26-1.07-.48-2.15-.65-3.24l2.5-.4c.16,1.02,.37,2.03,.61,3.03l-2.46,.6Z"/>
        <path class="cls-8" d="M2.77,48.2c-.18-1.09-.31-2.18-.4-3.28l2.52-.2c.08,1.03,.2,2.05,.37,3.07l-2.5,.41Z"/>
        <path class="cls-3" d="M2.39,45.12c-.09-1.1-.14-2.2-.14-3.3h2.53c0,1.03,.04,2.06,.13,3.09l-2.52,.21Z"/>
        <path class="cls-6" d="M10.16,69.13c-.76-.88-1.48-1.79-2.17-2.74l2.05-1.49c.64,.89,1.32,1.74,2.04,2.57l-1.92,1.65Z"/>
        <path class="cls-12" d="M4.65,60.99c-.53-1.04-1.02-2.09-1.47-3.17l2.34-.97c.42,1.01,.88,2,1.38,2.98l-2.25,1.16Z"/>
        <path class="cls-8" d="M.55,48.56c-.19-1.15-.33-2.31-.42-3.47l2.52-.2c.09,1.09,.22,2.18,.39,3.26l-2.5,.41Z"/>
        <path class="cls-3" d="M.15,45.31C.05,44.15,0,42.98,0,41.82H2.53c0,1.09,.05,2.19,.14,3.28l-2.52,.21Z"/>
        <path class="cls-3" d="M16.93,40.96c.01-.37,.03-.73,.06-1.1l1.4,.11c-.03,.35-.05,.69-.06,1.04l-1.4-.05Z"/>
        <path class="cls-8" d="M16.98,39.99c.03-.37,.06-.73,.11-1.1l1.39,.16c-.04,.34-.07,.69-.1,1.04l-1.4-.1Z"/>
        <path class="cls-10" d="M17.07,39.01c.04-.37,.09-.73,.15-1.09l1.39,.22c-.05,.34-.1,.69-.14,1.03l-1.39-.16Z"/>
        <path class="cls-5" d="M17.2,38.04c.06-.36,.12-.73,.19-1.09l1.38,.27c-.07,.34-.13,.68-.18,1.02l-1.39-.21Z"/>
        <path class="cls-9" d="M17.37,37.08c.07-.36,.15-.72,.23-1.08l1.36,.33c-.08,.34-.15,.68-.22,1.02l-1.38-.27Z"/>
        <path class="cls-12" d="M17.57,36.12c.08-.36,.18-.71,.28-1.07l1.35,.38c-.09,.33-.18,.67-.26,1.01l-1.37-.32Z"/>
        <path class="cls-7" d="M17.81,35.18c.1-.35,.2-.71,.32-1.06l1.33,.43c-.11,.33-.21,.66-.3,1l-1.35-.37Z"/>
        <path class="cls-1" d="M18.09,34.24c.11-.35,.23-.7,.36-1.04l1.32,.49c-.12,.33-.23,.65-.34,.98l-1.34-.43Z"/>
        <path class="cls-6" d="M18.41,33.31c.13-.35,.26-.69,.4-1.03l1.3,.54c-.13,.32-.26,.64-.38,.97l-1.32-.48Z"/>
        <path class="cls-11" d="M15.78,41.95c0-.38,0-.77,.02-1.15l1.4,.06c-.01,.36-.02,.73-.02,1.09h-1.4Z"/>
        <path class="cls-6" d="M15.8,40.92c.01-.38,.03-.77,.06-1.15l1.4,.11c-.03,.36-.05,.73-.06,1.09l-1.4-.05Z"/>
        <path class="cls-2" d="M15.85,39.9c.03-.38,.06-.77,.11-1.15l1.39,.16c-.04,.36-.08,.72-.1,1.09l-1.4-.1Z"/>
        <path class="cls-7" d="M15.95,38.89c.04-.38,.09-.76,.16-1.14l1.39,.22c-.06,.36-.11,.72-.15,1.08l-1.39-.16Z"/>
        <path class="cls-12" d="M16.09,37.87c.06-.38,.12-.76,.2-1.13l1.38,.27c-.07,.36-.13,.71-.19,1.07l-1.39-.21Z"/>
        <path class="cls-9" d="M16.26,36.87c.07-.38,.15-.75,.24-1.13l1.36,.33c-.08,.35-.16,.71-.23,1.07l-1.38-.27Z"/>
        <path class="cls-5" d="M16.47,35.87c.09-.37,.18-.75,.29-1.12l1.35,.38c-.1,.35-.19,.7-.27,1.06l-1.37-.32Z"/>
        <path class="cls-10" d="M16.73,34.88c.1-.37,.21-.74,.33-1.1l1.33,.43c-.11,.35-.22,.69-.31,1.04l-1.35-.37Z"/>
        <path class="cls-8" d="M17.02,33.9c.12-.37,.24-.73,.37-1.09l1.32,.49c-.13,.34-.24,.68-.35,1.03l-1.34-.43Z"/>
        <path class="cls-3" d="M17.35,32.93c.13-.36,.27-.72,.42-1.07l1.3,.54c-.14,.34-.27,.67-.39,1.02l-1.32-.48Z"/>
        <path class="cls-11" d="M18.76,32.4c.14-.34,.29-.68,.44-1.01l1.27,.59c-.15,.31-.28,.63-.41,.95l-1.3-.53Z"/>
        <path class="cls-6" d="M19.15,31.5c.15-.33,.31-.67,.48-.99l1.25,.64c-.16,.31-.31,.62-.45,.94l-1.28-.58Z"/>
        <path class="cls-2" d="M19.57,30.62c.17-.33,.34-.65,.52-.97l1.22,.69c-.17,.3-.33,.61-.49,.92l-1.25-.63Z"/>
        <path class="cls-7" d="M20.03,29.76c.18-.32,.36-.64,.56-.95l1.2,.73c-.18,.3-.36,.6-.52,.9l-1.23-.68Z"/>
        <path class="cls-12" d="M20.52,28.91c.19-.31,.39-.62,.59-.93l1.17,.78c-.19,.29-.38,.58-.56,.88l-1.2-.73Z"/>
        <path class="cls-9" d="M21.04,28.08c.2-.31,.41-.61,.63-.91l1.13,.82c-.2,.28-.4,.57-.59,.85l-1.17-.77Z"/>
        <path class="cls-5" d="M21.6,27.28c.21-.3,.44-.59,.66-.88l1.1,.87c-.21,.27-.42,.55-.63,.83l-1.14-.82Z"/>
        <path class="cls-1" d="M22.18,26.5c.23-.29,.46-.57,.7-.85l1.07,.91c-.23,.26-.44,.53-.66,.81l-1.11-.86Z"/>
        <path class="cls-8" d="M22.8,25.74c.24-.28,.48-.56,.73-.83l1.03,.95c-.24,.25-.47,.51-.69,.78l-1.07-.91Z"/>
        <path class="cls-3" d="M23.44,25c.25-.27,.5-.54,.76-.8l.99,.99c-.25,.25-.49,.5-.72,.75l-1.03-.95Z"/>
        <path class="cls-4" d="M17.72,31.98c.15-.36,.3-.71,.46-1.06l1.27,.59c-.15,.33-.3,.66-.43,1l-1.3-.53Z"/>
        <path class="cls-3" d="M18.12,31.04c.16-.35,.33-.7,.5-1.04l1.25,.64c-.17,.32-.32,.65-.47,.98l-1.28-.58Z"/>
        <path class="cls-1" d="M18.56,30.11c.17-.34,.35-.68,.54-1.02l1.22,.69c-.18,.32-.35,.64-.51,.96l-1.25-.63Z"/>
        <path class="cls-1" d="M19.04,29.21c.19-.34,.38-.67,.58-1l1.2,.73c-.19,.31-.37,.62-.55,.94l-1.23-.68Z"/>
        <path class="cls-5" d="M19.55,28.33c.2-.33,.41-.65,.62-.97l1.17,.78c-.2,.3-.4,.61-.59,.92l-1.2-.73Z"/>
        <path class="cls-9" d="M20.1,27.46c.21-.32,.43-.64,.66-.95l1.13,.82c-.21,.29-.42,.59-.62,.9l-1.17-.77Z"/>
        <path class="cls-12" d="M20.68,26.62c.22-.31,.46-.62,.69-.92l1.1,.87c-.23,.29-.44,.58-.66,.87l-1.14-.82Z"/>
        <path class="cls-7" d="M21.29,25.8c.24-.3,.48-.6,.73-.89l1.07,.91c-.24,.28-.47,.56-.69,.84l-1.11-.86Z"/>
        <path class="cls-2" d="M21.94,25.01c.25-.29,.5-.58,.76-.86l1.03,.95c-.25,.27-.49,.54-.72,.82l-1.07-.91Z"/>
        <path class="cls-6" d="M22.61,24.24c.26-.28,.52-.56,.8-.83l.99,.99c-.26,.26-.51,.52-.75,.79l-1.03-.95Z"/>
        <path class="cls-6" d="M13.61,39.74c.06-.79,.15-1.57,.27-2.35l2.5,.4c-.11,.71-.19,1.42-.25,2.14l-2.52-.19Z"/>
        <path class="cls-2" d="M13.86,37.53c.12-.78,.27-1.55,.46-2.32l2.46,.59c-.17,.7-.31,1.4-.41,2.11l-2.5-.38Z"/>
        <path class="cls-7" d="M14.28,35.35c.18-.77,.39-1.53,.64-2.28l2.41,.78c-.22,.68-.41,1.37-.58,2.07l-2.46-.58Z"/>
        <path class="cls-12" d="M14.87,33.21c.24-.75,.51-1.49,.81-2.22l2.34,.97c-.27,.66-.52,1.34-.74,2.02l-2.41-.77Z"/>
        <path class="cls-9" d="M15.63,31.12c.3-.73,.63-1.45,.98-2.15l2.25,1.15c-.33,.64-.62,1.29-.9,1.96l-2.34-.96Z"/>
        <path class="cls-5" d="M16.55,29.1c.35-.7,.74-1.39,1.15-2.06l2.16,1.32c-.37,.61-.72,1.24-1.05,1.88l-2.26-1.14Z"/>
        <path class="cls-10" d="M17.62,27.16c.41-.67,.84-1.33,1.31-1.97l2.05,1.49c-.42,.58-.82,1.18-1.19,1.79l-2.16-1.31Z"/>
        <path class="cls-1" d="M18.85,25.3c.46-.64,.95-1.26,1.46-1.86l1.92,1.64c-.47,.55-.91,1.11-1.33,1.69l-2.05-1.48Z"/>
        <path class="cls-3" d="M20.22,23.55c.51-.6,1.04-1.18,1.6-1.74l1.79,1.79c-.51,.51-.99,1.04-1.46,1.58l-1.93-1.63Z"/>
        <path class="cls-4" d="M24.12,24.29c.26-.26,.52-.52,.79-.77l.95,1.03c-.25,.24-.5,.48-.75,.72l-1-.99Z"/>
        <path class="cls-3" d="M24.82,23.61c.27-.25,.54-.5,.82-.73l.91,1.07c-.26,.23-.52,.46-.78,.69l-.96-1.03Z"/>
        <path class="cls-8" d="M25.55,22.96c.28-.24,.56-.47,.85-.7l.87,1.1c-.27,.21-.54,.44-.8,.66l-.92-1.06Z"/>
        <path class="cls-1" d="M26.3,22.34c.29-.23,.58-.45,.88-.67l.82,1.13c-.28,.2-.56,.41-.83,.63l-.87-1.1Z"/>
        <path class="cls-5" d="M27.08,21.74c.3-.22,.6-.43,.9-.63l.78,1.17c-.29,.19-.57,.39-.85,.6l-.83-1.13Z"/>
        <path class="cls-9" d="M27.88,21.18c.3-.21,.61-.4,.93-.6l.73,1.2c-.3,.18-.59,.37-.87,.56l-.78-1.16Z"/>
        <path class="cls-12" d="M28.7,20.65c.31-.19,.63-.38,.95-.56l.69,1.22c-.3,.17-.6,.35-.9,.53l-.74-1.19Z"/>
        <path class="cls-7" d="M29.54,20.15c.32-.18,.64-.36,.97-.52l.64,1.25c-.31,.16-.61,.32-.92,.49l-.69-1.22Z"/>
        <path class="cls-2" d="M30.4,19.68c.33-.17,.66-.33,.99-.48l.59,1.27c-.31,.15-.63,.3-.93,.46l-.64-1.25Z"/>
        <path class="cls-6" d="M31.28,19.25c.33-.16,.67-.3,1.01-.44l.54,1.3c-.32,.13-.64,.27-.95,.42l-.59-1.27Z"/>
        <path class="cls-11" d="M23.32,23.5c.27-.27,.55-.54,.83-.8l.95,1.03c-.27,.25-.53,.5-.78,.76l-1-.99Z"/>
        <path class="cls-6" d="M24.05,22.79c.28-.26,.57-.52,.86-.77l.91,1.07c-.28,.24-.55,.48-.81,.73l-.96-1.03Z"/>
        <path class="cls-2" d="M24.81,22.11c.29-.25,.59-.5,.89-.73l.87,1.1c-.29,.23-.57,.46-.84,.69l-.92-1.06Z"/>
        <path class="cls-1" d="M25.6,21.45c.3-.24,.61-.47,.92-.7l.82,1.13c-.29,.21-.58,.43-.87,.66l-.87-1.1Z"/>
        <path class="cls-12" d="M26.41,20.83c.31-.23,.62-.45,.94-.66l.78,1.17c-.3,.2-.6,.41-.89,.63l-.83-1.13Z"/>
        <path class="cls-9" d="M27.25,20.24c.32-.22,.64-.42,.97-.62l.73,1.2c-.31,.19-.62,.39-.92,.59l-.78-1.16Z"/>
        <path class="cls-5" d="M28.1,19.69c.33-.2,.66-.4,.99-.59l.69,1.22c-.32,.18-.63,.36-.94,.55l-.74-1.19Z"/>
        <path class="cls-1" d="M28.98,19.17c.33-.19,.67-.37,1.01-.55l.64,1.25c-.32,.17-.64,.34-.96,.52l-.69-1.22Z"/>
        <path class="cls-8" d="M29.88,18.68c.34-.18,.69-.34,1.04-.51l.59,1.27c-.33,.15-.66,.31-.98,.48l-.64-1.25Z"/>
        <path class="cls-1" d="M30.8,18.23c.35-.16,.7-.32,1.05-.46l.54,1.3c-.34,.14-.67,.29-1,.44l-.59-1.27Z"/>
        <path class="cls-1" d="M32.17,18.86c.34-.14,.68-.28,1.03-.4l.49,1.32c-.33,.12-.65,.25-.97,.38l-.54-1.29Z"/>
        <path class="cls-3" d="M33.08,18.49c.34-.13,.69-.25,1.04-.36l.43,1.33c-.33,.11-.66,.22-.98,.34l-.49-1.31Z"/>
        <path class="cls-8" d="M34,18.17c.35-.12,.7-.22,1.05-.32l.38,1.35c-.33,.09-.67,.2-.99,.3l-.44-1.33Z"/>
        <path class="cls-10" d="M34.94,17.88c.35-.1,.71-.2,1.07-.28l.33,1.36c-.34,.08-.67,.17-1.01,.27l-.39-1.35Z"/>
        <path class="cls-5" d="M35.88,17.63c.36-.09,.72-.17,1.08-.24l.27,1.38c-.34,.07-.68,.14-1.02,.23l-.33-1.36Z"/>
        <path class="cls-1" d="M36.84,17.42c.36-.07,.72-.14,1.08-.2l.22,1.39c-.34,.05-.68,.12-1.02,.19l-.28-1.37Z"/>
        <path class="cls-12" d="M37.8,17.24c.36-.06,.73-.11,1.09-.15l.16,1.39c-.34,.04-.69,.09-1.03,.15l-.23-1.38Z"/>
        <path class="cls-1" d="M38.77,17.1c.36-.05,.73-.08,1.1-.11l.11,1.4c-.35,.03-.69,.06-1.04,.1l-.17-1.39Z"/>
        <path class="cls-2" d="M39.74,17c.37-.03,.73-.05,1.1-.07l.06,1.4c-.35,.01-.69,.03-1.04,.06l-.12-1.4Z"/>
        <path class="cls-6" d="M40.71,16.94c.37-.02,.73-.02,1.1-.02v1.4c-.35,0-.69,0-1.04,.02l-.06-1.4Z"/>
        <path class="cls-4" d="M31.73,17.82c.35-.15,.71-.29,1.07-.42l.49,1.32c-.34,.13-.68,.26-1.01,.4l-.54-1.29Z"/>
        <path class="cls-3" d="M32.68,17.44c.36-.13,.72-.26,1.09-.38l.43,1.33c-.35,.11-.69,.23-1.03,.36l-.49-1.31Z"/>
        <path class="cls-8" d="M33.65,17.1c.36-.12,.73-.23,1.1-.34l.38,1.35c-.35,.1-.7,.21-1.04,.32l-.44-1.33Z"/>
        <path class="cls-10" d="M34.63,16.8c.37-.11,.74-.2,1.11-.29l.33,1.36c-.35,.08-.7,.18-1.05,.28l-.39-1.35Z"/>
        <path class="cls-1" d="M35.61,16.53c.37-.09,.75-.17,1.12-.25l.27,1.38c-.36,.07-.71,.15-1.06,.24l-.33-1.36Z"/>
        <path class="cls-1" d="M36.61,16.31c.38-.08,.75-.15,1.13-.21l.22,1.39c-.36,.06-.72,.12-1.07,.19l-.28-1.37Z"/>
        <path class="cls-1" d="M37.62,16.13c.38-.06,.76-.12,1.14-.16l.16,1.39c-.36,.04-.72,.09-1.08,.15l-.23-1.38Z"/>
        <path class="cls-7" d="M38.63,15.98c.38-.05,.76-.09,1.15-.12l.11,1.4c-.36,.03-.72,.07-1.08,.11l-.17-1.39Z"/>
        <path class="cls-2" d="M39.64,15.88c.38-.03,.77-.06,1.15-.07l.06,1.4c-.36,.01-.73,.04-1.09,.07l-.12-1.4Z"/>
        <path class="cls-1" d="M40.66,15.81c.38-.02,.77-.03,1.15-.03v1.4c-.36,0-.73,0-1.09,.02l-.06-1.4Z"/>
        <path class="cls-11" d="M22.52,22.71c.28-.28,.57-.56,.86-.84l.95,1.03c-.28,.26-.55,.52-.82,.79l-1-.99Z"/>
        <path class="cls-6" d="M23.28,21.97c.29-.27,.59-.54,.9-.8l.91,1.07c-.29,.25-.57,.5-.85,.76l-.96-1.03Z"/>
        <path class="cls-1" d="M24.07,21.25c.3-.26,.61-.52,.93-.77l.87,1.1c-.3,.24-.59,.48-.88,.73l-.92-1.06Z"/>
        <path class="cls-7" d="M24.9,20.57c.31-.25,.63-.49,.96-.73l.82,1.13c-.31,.22-.61,.45-.91,.69l-.87-1.1Z"/>
        <path class="cls-1" d="M25.74,19.92c.32-.24,.65-.47,.98-.69l.78,1.17c-.32,.21-.63,.43-.93,.65l-.83-1.13Z"/>
        <path class="cls-9" d="M26.61,19.31c.33-.22,.67-.44,1.01-.65l.73,1.2c-.32,.2-.64,.4-.96,.62l-.78-1.16Z"/>
        <path class="cls-5" d="M27.51,18.73c.34-.21,.69-.41,1.04-.61l.69,1.22c-.33,.19-.66,.38-.98,.58l-.74-1.19Z"/>
        <path class="cls-10" d="M28.43,18.19c.35-.2,.7-.39,1.06-.57l.64,1.25c-.34,.17-.67,.35-1,.54l-.69-1.22Z"/>
        <path class="cls-8" d="M29.37,17.68c.36-.18,.72-.36,1.08-.53l.59,1.27c-.35,.16-.69,.33-1.02,.5l-.64-1.25Z"/>
        <path class="cls-3" d="M30.32,17.21c.36-.17,.73-.33,1.1-.48l.54,1.3c-.35,.15-.7,.3-1.04,.46l-.59-1.27Z"/>
        <path class="cls-4" d="M21.71,21.91c.29-.3,.59-.59,.9-.87l.95,1.03c-.29,.27-.58,.55-.86,.83l-1-.99Z"/>
        <path class="cls-1" d="M22.51,21.14c.31-.28,.62-.56,.93-.83l.91,1.07c-.3,.26-.6,.52-.89,.79l-.96-1.03Z"/>
        <path class="cls-8" d="M23.34,20.4c.32-.27,.64-.54,.97-.8l.87,1.1c-.31,.25-.62,.5-.92,.76l-.92-1.06Z"/>
        <path class="cls-10" d="M24.19,19.69c.33-.26,.66-.51,1-.76l.82,1.13c-.32,.23-.64,.47-.95,.72l-.87-1.1Z"/>
        <path class="cls-5" d="M25.08,19.02c.34-.25,.68-.49,1.03-.72l.78,1.17c-.33,.22-.65,.45-.97,.68l-.83-1.13Z"/>
        <path class="cls-9" d="M25.98,18.38c.35-.23,.7-.46,1.05-.68l.73,1.2c-.34,.21-.67,.42-1,.64l-.78-1.16Z"/>
        <path class="cls-12" d="M26.92,17.77c.35-.22,.71-.43,1.08-.64l.69,1.22c-.35,.19-.69,.4-1.03,.6l-.74-1.19Z"/>
        <path class="cls-7" d="M27.87,17.21c.36-.21,.73-.4,1.1-.59l.64,1.25c-.35,.18-.7,.37-1.05,.56l-.69-1.22Z"/>
        <path class="cls-2" d="M28.85,16.68c.37-.19,.75-.37,1.13-.55l.59,1.27c-.36,.17-.72,.34-1.07,.52l-.64-1.25Z"/>
        <path class="cls-6" d="M29.85,16.19c.38-.18,.76-.34,1.15-.5l.54,1.3c-.37,.15-.73,.31-1.09,.48l-.59-1.27Z"/>
        <path class="cls-1" d="M31.3,16.78c.37-.16,.74-.3,1.12-.44l.49,1.32c-.36,.13-.71,.27-1.06,.42l-.54-1.29Z"/>
        <path class="cls-3" d="M32.29,16.38c.38-.14,.75-.27,1.13-.4l.43,1.33c-.36,.12-.72,.24-1.08,.38l-.49-1.31Z"/>
        <path class="cls-8" d="M33.29,16.03c.38-.13,.76-.24,1.15-.35l.38,1.35c-.37,.1-.73,.21-1.09,.33l-.44-1.33Z"/>
        <path class="cls-10" d="M34.31,15.71c.39-.11,.77-.21,1.16-.31l.33,1.36c-.37,.09-.74,.19-1.1,.29l-.39-1.35Z"/>
        <path class="cls-5" d="M35.34,15.44c.39-.1,.78-.18,1.17-.26l.27,1.38c-.37,.07-.74,.16-1.11,.25l-.33-1.36Z"/>
        <path class="cls-1" d="M36.39,15.21c.39-.08,.79-.15,1.18-.21l.22,1.39c-.38,.06-.75,.13-1.12,.2l-.28-1.37Z"/>
        <path class="cls-12" d="M37.43,15.01c.4-.06,.79-.12,1.19-.17l.16,1.39c-.38,.04-.75,.1-1.13,.16l-.23-1.38Z"/>
        <path class="cls-7" d="M38.49,14.86c.4-.05,.8-.09,1.2-.12l.11,1.4c-.38,.03-.76,.07-1.13,.11l-.17-1.39Z"/>
        <path class="cls-1" d="M39.55,14.75c.4-.03,.8-.06,1.2-.07l.06,1.4c-.38,.01-.76,.04-1.14,.07l-.12-1.4Z"/>
        <path class="cls-1" d="M40.61,14.68c.4-.02,.8-.03,1.2-.03v1.4c-.38,0-.76,0-1.14,.03l-.06-1.4Z"/>
        <path class="cls-1" d="M30.86,15.74c.38-.16,.77-.31,1.16-.46l.49,1.32c-.37,.14-.74,.28-1.11,.44l-.54-1.29Z"/>
        <path class="cls-6" d="M31.89,15.33c.39-.15,.79-.28,1.18-.41l.43,1.33c-.38,.12-.75,.25-1.12,.39l-.49-1.31Z"/>
        <path class="cls-1" d="M32.94,14.96c.4-.13,.8-.25,1.2-.37l.38,1.35c-.38,.11-.76,.22-1.14,.35l-.44-1.33Z"/>
        <path class="cls-1" d="M34,14.63c.4-.12,.8-.22,1.21-.32l.33,1.36c-.39,.09-.77,.19-1.15,.3l-.39-1.35Z"/>
        <path class="cls-1" d="M35.08,14.34c.41-.1,.81-.19,1.22-.27l.27,1.38c-.39,.08-.78,.16-1.16,.26l-.33-1.36Z"/>
        <path class="cls-9" d="M36.16,14.1c.41-.08,.82-.16,1.23-.22l.22,1.39c-.39,.06-.78,.13-1.17,.21l-.28-1.37Z"/>
        <path class="cls-5" d="M37.25,13.9c.41-.07,.83-.13,1.24-.17l.16,1.39c-.39,.05-.79,.1-1.18,.17l-.23-1.38Z"/>
        <path class="cls-1" d="M38.35,13.74c.41-.05,.83-.09,1.25-.13l.11,1.4c-.4,.03-.79,.07-1.18,.12l-.17-1.39Z"/>
        <path class="cls-8" d="M39.46,13.63c.42-.03,.83-.06,1.25-.08l.06,1.4c-.4,.02-.79,.04-1.19,.07l-.12-1.4Z"/>
        <path class="cls-1" d="M40.56,13.56c.42-.02,.83-.03,1.25-.03v1.4c-.4,0-.79,0-1.19,.03l-.06-1.4Z"/>
        <path class="cls-4" d="M9.02,41.98c0-1.77,.13-3.54,.4-5.29l4.73,.75c-.24,1.5-.35,3.01-.34,4.52l-4.78,.02Z"/>
        <path class="cls-3" d="M9.4,36.85c.27-1.75,.68-3.48,1.23-5.17l4.55,1.48c-.47,1.44-.82,2.92-1.05,4.41l-4.73-.72Z"/>
        <path class="cls-8" d="M10.57,31.84c.54-1.69,1.21-3.33,2.02-4.91l4.26,2.17c-.69,1.35-1.26,2.75-1.73,4.19l-4.56-1.46Z"/>
        <path class="cls-10" d="M12.52,27.07c.8-1.58,1.72-3.1,2.76-4.53l3.87,2.81c-.89,1.23-1.68,2.52-2.36,3.87l-4.27-2.15Z"/>
        <path class="cls-5" d="M15.19,22.67c1.03-1.44,2.18-2.79,3.44-4.05l3.38,3.38c-1.07,1.07-2.05,2.23-2.94,3.46l-3.89-2.79Z"/>
        <path class="cls-9" d="M18.51,18.74c1.25-1.26,2.59-2.42,4.03-3.46l2.81,3.87c-1.23,.89-2.38,1.88-3.44,2.95l-3.4-3.37Z"/>
        <path class="cls-12" d="M22.41,15.38c1.43-1.05,2.94-1.98,4.52-2.79l2.17,4.26c-1.35,.69-2.64,1.48-3.86,2.38l-2.83-3.86Z"/>
        <path class="cls-1" d="M26.78,12.67c1.58-.81,3.21-1.5,4.9-2.04l1.48,4.55c-1.44,.47-2.84,1.05-4.19,1.75l-2.19-4.25Z"/>
        <path class="cls-2" d="M31.53,10.68c1.68-.56,3.41-.98,5.16-1.25l.75,4.73c-1.5,.24-2.97,.59-4.41,1.07l-1.5-4.54Z"/>
        <path class="cls-1" d="M36.52,9.45c1.75-.29,3.52-.43,5.29-.43v4.78c-1.51,0-3.03,.12-4.52,.37l-.77-4.72Z"/>
        <path class="cls-11" d="M41.68,13.53c1.53,0,3.06,.11,4.57,.35l-.75,4.73c-1.25-.2-2.52-.3-3.79-.29l-.02-4.78Z"/>
        <path class="cls-6" d="M46.1,13.86c1.51,.23,3,.59,4.46,1.06l-1.48,4.55c-1.21-.39-2.45-.69-3.7-.88l.72-4.73Z"/>
        <path class="cls-1" d="M50.42,14.87c1.46,.47,2.87,1.05,4.24,1.74l-2.17,4.26c-1.13-.58-2.31-1.06-3.52-1.45l1.46-4.56Z"/>
        <path class="cls-7" d="M54.53,16.55c1.37,.69,2.67,1.48,3.91,2.38l-2.81,3.87c-1.03-.75-2.11-1.41-3.25-1.98l2.15-4.27Z"/>
        <path class="cls-1" d="M58.33,18.85c1.24,.89,2.41,1.88,3.49,2.97l-3.38,3.38c-.9-.9-1.87-1.72-2.9-2.46l2.79-3.89Z"/>
        <path class="cls-1" d="M61.72,21.71c1.09,1.08,2.08,2.24,2.98,3.48l-3.87,2.81c-.75-1.03-1.58-1.99-2.48-2.89l3.37-3.4Z"/>
        <path class="cls-1" d="M64.62,25.08c.9,1.23,1.71,2.54,2.4,3.9l-4.26,2.17c-.58-1.13-1.24-2.22-2-3.24l3.86-2.83Z"/>
        <path class="cls-10" d="M66.96,28.85c.7,1.36,1.29,2.77,1.76,4.23l-4.55,1.48c-.39-1.21-.88-2.38-1.46-3.51l4.25-2.19Z"/>
        <path class="cls-8" d="M68.68,32.94c.48,1.45,.84,2.94,1.08,4.45l-4.73,.75c-.2-1.25-.5-2.49-.9-3.7l4.54-1.5Z"/>
        <path class="cls-1" d="M69.73,37.25c.25,1.51,.37,3.04,.37,4.56h-4.78c0-1.27-.1-2.54-.31-3.79l4.72-.77Z"/>
        <path class="cls-1" d="M41.65,9.02c1.77,0,3.54,.13,5.29,.4l-.75,4.73c-1.5-.24-3.01-.35-4.52-.34l-.02-4.78Z"/>
        <path class="cls-1" d="M46.79,9.4c1.75,.27,3.48,.68,5.17,1.23l-1.48,4.55c-1.44-.47-2.92-.82-4.41-1.05l.72-4.73Z"/>
        <path class="cls-1" d="M51.8,10.57c1.69,.54,3.33,1.21,4.91,2.02l-2.17,4.26c-1.35-.69-2.75-1.26-4.19-1.73l1.46-4.56Z"/>
        <path class="cls-1" d="M56.56,12.52c1.58,.8,3.1,1.72,4.53,2.76l-2.81,3.87c-1.23-.89-2.52-1.68-3.87-2.36l2.15-4.27Z"/>
        <path class="cls-5" d="M60.96,15.19c1.44,1.03,2.79,2.18,4.05,3.44l-3.38,3.38c-1.07-1.07-2.23-2.05-3.46-2.94l2.79-3.89Z"/>
        <path class="cls-9" d="M64.89,18.51c1.26,1.25,2.42,2.59,3.46,4.03l-3.87,2.81c-.89-1.23-1.88-2.38-2.95-3.44l3.37-3.4Z"/>
        <path class="cls-1" d="M68.25,22.41c1.05,1.43,1.98,2.94,2.79,4.52l-4.26,2.17c-.69-1.35-1.48-2.64-2.38-3.86l3.86-2.83Z"/>
        <path class="cls-7" d="M70.96,26.78c.81,1.58,1.5,3.21,2.04,4.9l-4.55,1.48c-.47-1.44-1.05-2.84-1.75-4.19l4.25-2.19Z"/>
        <path class="cls-1" d="M72.96,31.53c.56,1.68,.98,3.41,1.25,5.16l-4.73,.75c-.24-1.5-.59-2.97-1.07-4.41l4.54-1.5Z"/>
        <path class="cls-1" d="M74.18,36.52c.29,1.75,.43,3.52,.43,5.29h-4.78c0-1.51-.12-3.03-.37-4.52l4.72-.77Z"/>
        <path class="cls-4" d="M4.51,42c-.01-2.02,.14-4.03,.46-6.02l4.73,.75c-.28,1.74-.41,3.49-.4,5.25l-4.78,.02Z"/>
        <path class="cls-3" d="M4.94,36.16c.31-1.99,.77-3.96,1.4-5.88l4.55,1.48c-.54,1.67-.95,3.39-1.22,5.12l-4.73-.72Z"/>
        <path class="cls-8" d="M6.28,30.47c.61-1.92,1.38-3.79,2.3-5.59l4.26,2.17c-.8,1.57-1.47,3.19-2,4.87l-4.56-1.46Z"/>
        <path class="cls-10" d="M8.49,25.05c.91-1.8,1.96-3.53,3.14-5.16l3.87,2.81c-1.03,1.42-1.95,2.93-2.74,4.5l-4.27-2.15Z"/>
        <path class="cls-5" d="M11.53,20.04c1.18-1.64,2.49-3.18,3.91-4.6l3.38,3.38c-1.24,1.24-2.38,2.58-3.41,4.01l-3.89-2.79Z"/>
        <path class="cls-9" d="M15.31,15.57c1.42-1.43,2.95-2.75,4.58-3.93l2.81,3.87c-1.42,1.03-2.76,2.18-4,3.43l-3.4-3.37Z"/>
        <path class="cls-12" d="M19.74,11.74c1.63-1.19,3.35-2.25,5.14-3.17l2.17,4.26c-1.57,.8-3.07,1.72-4.48,2.76l-2.83-3.86Z"/>
        <path class="cls-7" d="M24.71,8.66c1.79-.92,3.66-1.7,5.57-2.33l1.48,4.55c-1.67,.54-3.3,1.22-4.86,2.03l-2.19-4.25Z"/>
        <path class="cls-2" d="M30.11,6.39c1.91-.63,3.88-1.11,5.87-1.42l.75,4.73c-1.74,.28-3.45,.69-5.12,1.24l-1.5-4.54Z"/>
        <path class="cls-6" d="M35.8,5c1.99-.33,4-.49,6.02-.49v4.78c-1.76,0-3.51,.14-5.25,.43l-.77-4.72Z"/>
        <path class="cls-4" d="M0,42.03c-.01-2.26,.16-4.52,.51-6.75l4.73,.75c-.31,1.98-.47,3.98-.46,5.98L0,42.03Z"/>
        <path class="cls-3" d="M.48,35.48c.34-2.23,.87-4.44,1.56-6.59l4.55,1.48c-.62,1.9-1.08,3.85-1.39,5.83l-4.73-.72Z"/>
        <path class="cls-8" d="M1.98,29.09c.69-2.15,1.55-4.25,2.58-6.26l4.26,2.17c-.91,1.78-1.67,3.64-2.28,5.54l-4.56-1.46Z"/>
        <path class="cls-10" d="M4.46,23.02c1.02-2.02,2.19-3.95,3.52-5.78l3.87,2.81c-1.18,1.62-2.22,3.33-3.12,5.12l-4.27-2.15Z"/>
        <path class="cls-5" d="M7.86,17.41c1.32-1.84,2.79-3.56,4.38-5.16l3.38,3.38c-1.42,1.42-2.71,2.94-3.88,4.57l-3.89-2.79Z"/>
        <path class="cls-9" d="M12.1,12.4c1.59-1.61,3.31-3.08,5.14-4.41l2.81,3.87c-1.62,1.18-3.14,2.48-4.55,3.91l-3.4-3.37Z"/>
        <path class="cls-12" d="M17.07,8.11c1.82-1.34,3.75-2.53,5.76-3.55l2.17,4.26c-1.78,.91-3.49,1.96-5.1,3.15l-2.83-3.86Z"/>
        <path class="cls-7" d="M22.65,4.65c2.01-1.04,4.1-1.91,6.25-2.61l1.48,4.55c-1.9,.62-3.75,1.39-5.53,2.31l-2.19-4.25Z"/>
        <path class="cls-2" d="M28.7,2.11c2.15-.71,4.35-1.24,6.58-1.6l.75,4.73c-1.98,.31-3.93,.79-5.83,1.41l-1.5-4.54Z"/>
        <path class="cls-6" d="M35.07,.55C37.3,.18,39.56,0,41.82,0V4.78c-2,0-4,.16-5.98,.49l-.77-4.72Z"/>
        <path class="cls-1" d="M41.63,4.51c2.02-.01,4.03,.14,6.02,.46l-.75,4.73c-1.74-.28-3.49-.41-5.25-.4l-.02-4.78Z"/>
        <path class="cls-1" d="M47.47,4.94c1.99,.31,3.96,.77,5.88,1.4l-1.48,4.55c-1.67-.54-3.39-.95-5.12-1.22l.72-4.73Z"/>
        <path class="cls-2" d="M53.17,6.28c1.92,.61,3.79,1.38,5.59,2.3l-2.17,4.26c-1.57-.8-3.19-1.47-4.87-2l1.46-4.56Z"/>
        <path class="cls-1" d="M58.59,8.49c1.8,.91,3.53,1.96,5.16,3.14l-2.81,3.87c-1.42-1.03-2.93-1.95-4.5-2.74l2.15-4.27Z"/>
        <path class="cls-12" d="M63.59,11.53c1.64,1.18,3.18,2.49,4.6,3.91l-3.38,3.38c-1.24-1.24-2.58-2.38-4.01-3.41l2.79-3.89Z"/>
        <path class="cls-9" d="M68.06,15.31c1.43,1.42,2.75,2.95,3.93,4.58l-3.87,2.81c-1.03-1.42-2.18-2.76-3.43-4l3.37-3.4Z"/>
        <path class="cls-5" d="M71.89,19.74c1.19,1.63,2.25,3.35,3.17,5.14l-4.26,2.17c-.8-1.57-1.72-3.07-2.76-4.48l3.86-2.83Z"/>
        <path class="cls-1" d="M74.97,24.71c.92,1.79,1.7,3.66,2.33,5.57l-4.55,1.48c-.54-1.67-1.22-3.3-2.03-4.86l4.25-2.19Z"/>
        <path class="cls-8" d="M77.24,30.11c.63,1.91,1.11,3.88,1.42,5.87l-4.73,.75c-.28-1.74-.69-3.45-1.24-5.12l4.54-1.5Z"/>
        <path class="cls-3" d="M78.63,35.8c.33,1.99,.49,4,.49,6.02h-4.78c0-1.76-.14-3.51-.43-5.25l4.72-.77Z"/>
        <path class="cls-1" d="M41.61,0c2.26-.01,4.52,.16,6.75,.51l-.75,4.73c-1.98-.31-3.98-.47-5.98-.46L41.61,0Z"/>
        <path class="cls-3" d="M48.15,.48c2.23,.34,4.44,.87,6.59,1.56l-1.48,4.55c-1.9-.62-3.85-1.08-5.83-1.39l.72-4.73Z"/>
        <path class="cls-8" d="M54.54,1.98c2.15,.69,4.25,1.55,6.26,2.58l-2.17,4.26c-1.78-.91-3.64-1.67-5.54-2.28l1.46-4.56Z"/>
        <path class="cls-10" d="M60.61,4.46c2.02,1.02,3.95,2.19,5.78,3.52l-2.81,3.87c-1.62-1.18-3.33-2.22-5.12-3.12l2.15-4.27Z"/>
        <path class="cls-5" d="M66.23,7.86c1.84,1.32,3.56,2.79,5.16,4.38l-3.38,3.38c-1.42-1.42-2.94-2.71-4.57-3.88l2.79-3.89Z"/>
        <path class="cls-9" d="M71.24,12.1c1.61,1.59,3.08,3.31,4.41,5.14l-3.87,2.81c-1.18-1.62-2.48-3.14-3.91-4.55l3.37-3.4Z"/>
        <path class="cls-12" d="M75.52,17.07c1.34,1.82,2.53,3.75,3.55,5.76l-4.26,2.17c-.91-1.78-1.96-3.49-3.15-5.1l3.86-2.83Z"/>
        <path class="cls-7" d="M78.98,22.65c1.04,2.01,1.91,4.1,2.61,6.25l-4.55,1.48c-.62-1.9-1.39-3.75-2.31-5.53l4.25-2.19Z"/>
        <path class="cls-2" d="M81.52,28.7c.71,2.15,1.24,4.35,1.6,6.58l-4.73,.75c-.31-1.98-.79-3.93-1.41-5.83l4.54-1.5Z"/>
        <path class="cls-6" d="M83.09,35.07c.36,2.23,.55,4.49,.55,6.75h-4.78c0-2-.16-4-.49-5.98l4.72-.77Z"/>
      </g>
    </g>
  </g>
</svg>